<svg id="Capa_1" data-name="Capa 1" xmlns="http://www.w3.org/2000/svg" viewBox="0 0 1000 1000"><defs><style>.cls-1{fill:#44676d;}.cls-2{fill:#3d5c62;}.cls-3{fill:#4a7077;}.cls-4{fill:#577b93;}.cls-5{fill:#507187;}.cls-6{fill:#355256;}.cls-7{fill:#365257;}.cls-8{fill:#44666c;}.cls-9{fill:#517a81;}</style></defs><rect class="cls-1" x="838.49" y="354.93" width="24.59" height="258.99" transform="translate(1701.58 968.86) rotate(-180)"/><rect class="cls-1" x="792.6" y="354.93" width="24.59" height="258.99" transform="translate(1609.78 968.86) rotate(-180)"/><rect class="cls-1" x="138.56" y="354.93" width="24.59" height="258.99"/><rect class="cls-1" x="184.46" y="354.93" width="24.59" height="258.99"/><rect class="cls-2" x="184.46" y="574.58" width="24.59" height="39.34" transform="translate(393.5 1188.51) rotate(-180)"/><rect class="cls-2" x="138.56" y="574.58" width="24.59" height="39.34" transform="translate(301.7 1188.51) rotate(-180)"/><rect class="cls-2" x="184.46" y="343.46" width="24.59" height="39.34" transform="translate(393.5 726.25) rotate(-180)"/><rect class="cls-2" x="138.56" y="343.46" width="24.59" height="39.34" transform="translate(301.7 726.25) rotate(-180)"/><rect class="cls-2" x="838.49" y="574.58" width="24.59" height="39.34" transform="translate(1701.58 1188.51) rotate(-180)"/><rect class="cls-2" x="792.6" y="574.58" width="24.59" height="39.34" transform="translate(1609.78 1188.51) rotate(-180)"/><rect class="cls-2" x="838.49" y="343.46" width="24.59" height="39.34" transform="translate(1701.57 726.25) rotate(-180)"/><rect class="cls-2" x="792.6" y="343.46" width="24.59" height="39.34" transform="translate(1609.78 726.25) rotate(-180)"/><path class="cls-1" d="M450.62,261.5h98.76a60.45,60.45,0,0,1,60.45,60.45V425.42a0,0,0,0,1,0,0H390.17a0,0,0,0,1,0,0V321.94A60.45,60.45,0,0,1,450.62,261.5Z"/><path class="cls-3" d="M548.56,261.5H449.8a60.45,60.45,0,0,0-60.45,60.44v32.79a60.45,60.45,0,0,1,60.45-60.45h98.76A60.45,60.45,0,0,1,609,354.73V321.94A60.45,60.45,0,0,0,548.56,261.5Z"/><rect class="cls-4" x="52.5" y="325.43" width="895" height="42.62" rx="20.13"/><path class="cls-5" d="M928.19,354.93H73.45a20.13,20.13,0,0,1-19.74-16.19,20,20,0,0,0-1.21,6.81v2.37A20.12,20.12,0,0,0,72.63,368H927.37a20.12,20.12,0,0,0,20.13-20.12v-2.37a20.38,20.38,0,0,0-.39-3.93A20.12,20.12,0,0,1,928.19,354.93Z"/><rect class="cls-4" x="100.04" y="602.45" width="801.57" height="42.62" rx="19.05"/><path class="cls-5" d="M883.37,632H119.9A19,19,0,0,1,101,615.43a19,19,0,0,0-1,6.07V626a19,19,0,0,0,19,19.05H882.55A19.05,19.05,0,0,0,901.6,626V621.5a18.92,18.92,0,0,0-.18-2.52A19.05,19.05,0,0,1,883.37,632Z"/><rect class="cls-1" x="370.5" y="645.07" width="45.9" height="93.43"/><rect class="cls-1" x="583.6" y="645.07" width="45.9" height="93.43" transform="translate(1213.1 1383.57) rotate(-180)"/><rect class="cls-2" x="583.6" y="645.07" width="12.29" height="93.43" transform="translate(1179.49 1383.57) rotate(-180)"/><rect class="cls-2" x="403.29" y="645.07" width="12.29" height="93.43" transform="translate(818.87 1383.57) rotate(-180)"/><rect class="cls-6" x="481.97" y="638.51" width="36.06" height="47.54"/><rect class="cls-2" x="409.84" y="671.3" width="180.31" height="26.23"/><rect class="cls-7" x="409.84" y="684.41" width="180.31" height="13.11"/><ellipse class="cls-1" cx="500.93" cy="502.46" rx="167.62" ry="162.03"/><ellipse class="cls-4" cx="500.93" cy="502.46" rx="104.04" ry="100.57"/><path class="cls-2" d="M667.7,486.07a158.59,158.59,0,0,1,.85,16.39c0,89.49-75,162-167.62,162S333.31,592,333.31,502.46a158.59,158.59,0,0,1,.85-16.39c8.5,81.79,79.92,145.64,166.77,145.64S659.2,567.86,667.7,486.07Z"/><path class="cls-5" d="M500.93,578.44c-53.15,0-97-38.53-103.24-88.28a98,98,0,0,0-.8,12.3c0,55.54,46.58,100.57,104,100.57s104-45,104-100.57a98,98,0,0,0-.8-12.3C597.89,539.91,554.08,578.44,500.93,578.44Z"/><path class="cls-3" d="M478.58,517.36,262.54,536a22.41,22.41,0,0,1-22.35-22.35V491.28a22.41,22.41,0,0,1,22.35-22.35l216,18.63c12.29,0,22.35-8.57,22.35,3.72v22.35C500.93,525.93,490.87,517.36,478.58,517.36Z"/><path class="cls-3" d="M523,517.49l212.56,18.33a22,22,0,0,0,24.27-22.19V491.28a22,22,0,0,0-24.27-22.18L523,487.42a21.83,21.83,0,0,1-3.13.09c-11.57-.65-20.78-8-20.78,3.77v22.35c0,11.77,9.21,4.43,20.78,3.77A21.83,21.83,0,0,1,523,517.49Z"/><path class="cls-8" d="M478.58,505.88l-216,18.63a22.42,22.42,0,0,1-22.35-22.35v11.47A22.41,22.41,0,0,0,262.54,536l216-18.62c12.29,0,22.35,8.57,22.35-3.73V502.16C500.93,514.45,490.87,505.88,478.58,505.88Z"/><path class="cls-8" d="M740.48,524.3a22,22,0,0,1-4.94,0L523,506a21.83,21.83,0,0,0-3.13-.09c-11.57.65-20.78,8-20.78-3.77v11.47c0,11.77,9.21,4.43,20.78,3.77a21.83,21.83,0,0,1,3.13.09l212.56,18.33a22,22,0,0,0,24.27-22.19V502.16A22.42,22.42,0,0,1,740.48,524.3Z"/><ellipse class="cls-3" cx="500.93" cy="502.46" rx="26.07" ry="25.21"/><path class="cls-8" d="M500.93,516.19a25.9,25.9,0,0,1-25.37-19.47,24.71,24.71,0,0,0-.7,5.74c0,13.92,11.67,25.2,26.07,25.2S527,516.38,527,502.46a24.19,24.19,0,0,0-.71-5.74A25.89,25.89,0,0,1,500.93,516.19Z"/><ellipse class="cls-9" cx="509.02" cy="488.53" rx="4.1" ry="9.84" transform="translate(-179.39 642.98) rotate(-56.47)"/></svg>