<svg id="Capa_1" data-name="Capa 1" xmlns="http://www.w3.org/2000/svg" viewBox="0 0 1000 1000"><defs><style>.cls-1{fill:#538229;}.cls-2{fill:#4f792b;}.cls-3{fill:#ea444c;}.cls-4{fill:#c20000;}.cls-5{fill:#f9f256;}</style></defs><path class="cls-1" d="M651.76,284.66c-16.27-5.33-52.88-8-52.88-8S605,242,607,231.39,603,186.11,603,186.11s-63.05,18.64-81.35,29.3S472.79,258,472.79,258s-20.34-32-65.08-53.27-59-18.64-59-18.64-2,26.63-2,42.61,6.1,50.61,6.1,50.61-34.57,0-56.94,5.33c-8.81,2.09-18.56,6.67-27.15,11.45A234,234,0,0,0,245,311.29s18.3,32,26.44,42.62,38.64,42.61,38.64,42.61H647.69s10-13.16,19.39-25.89c6.92-9.44,13.46-18.65,15.19-22.05,4.07-8,22.37-37.29,22.37-37.29S668,290,651.76,284.66Z"/><path class="cls-2" d="M620.43,343.89c-63.15-47.37-138.59-35.09-210.52-17.54-48.28,11.26-120.18,21-141.21-30.24A234,234,0,0,0,245,311.29s18.3,32,26.44,42.62,38.64,42.61,38.64,42.61H647.69s10-13.16,19.39-25.89c-8-6.24-16.39-12.11-25.6-18C634.47,349.16,627.45,349.16,620.43,343.89Z"/><path class="cls-3" d="M474.82,322.84s-193,14-208.77,142.1c-14.15,114.79,36.07,234.21,73.69,277.19,36.84,42.11,66.66,91.23,135.08,94.74,47.31,2.42,110.53-28.07,156.14-98.25s93-226.31,73.68-280.69S657.27,333.37,474.82,322.84Z"/><path class="cls-4" d="M455.52,742.13c-37.61-43-87.83-162.4-73.68-277.19,10.7-86.78,102.75-121.19,161-134.37a563,563,0,0,0-68-7.73s-193,14-208.77,142.1c-14.15,114.79,36.07,234.21,73.69,277.19,36.84,42.11,66.66,91.23,135.08,94.74,19.32,1,41.29-3.52,63.63-14C503.77,804.63,481.36,771.66,455.52,742.13Z"/><ellipse class="cls-5" cx="479.32" cy="570.2" rx="13.03" ry="22.81"/><ellipse class="cls-5" cx="479.32" cy="687.75" rx="13.03" ry="22.81"/><ellipse class="cls-5" cx="482.83" cy="457.93" rx="13.03" ry="22.81"/><ellipse class="cls-5" cx="479.32" cy="359.68" rx="13.03" ry="22.81"/><ellipse class="cls-5" cx="479.32" cy="791.25" rx="13.03" ry="22.81"/><ellipse class="cls-5" cx="416.16" cy="619.33" rx="13.03" ry="22.81" transform="translate(-45.97 33.5) rotate(-4.37)"/><ellipse class="cls-5" cx="423.18" cy="721.08" rx="13.03" ry="22.81" transform="translate(-162.23 124.14) rotate(-14.03)"/><ellipse class="cls-5" cx="410.9" cy="508.8" rx="13.03" ry="22.81"/><ellipse class="cls-5" cx="419.67" cy="396.52" rx="22.81" ry="13.03" transform="translate(-52.21 729.22) rotate(-78.56)"/><ellipse class="cls-5" cx="554.76" cy="622.83" rx="13.03" ry="22.81"/><ellipse class="cls-5" cx="542.47" cy="726.34" rx="22.81" ry="13.03" transform="translate(-228.23 1203.69) rotate(-85.02)"/><ellipse class="cls-5" cx="558.26" cy="517.57" rx="13.03" ry="22.81"/><ellipse class="cls-5" cx="554.76" cy="401.79" rx="13.03" ry="22.81" transform="translate(-28.99 43.43) rotate(-4.37)"/><ellipse class="cls-5" cx="619.67" cy="564.94" rx="13.03" ry="22.81"/><ellipse class="cls-5" cx="616.16" cy="680.73" rx="22.81" ry="13.03" transform="translate(-201.79 1097.86) rotate(-74.87)"/><ellipse class="cls-5" cx="617.91" cy="450.91" rx="13.03" ry="22.81"/><ellipse class="cls-5" cx="589.84" cy="761.43" rx="22.81" ry="13.03" transform="translate(-373.24 774.37) rotate(-53.01)"/><ellipse class="cls-5" cx="661.77" cy="622.83" rx="22.81" ry="13.03" transform="translate(-50.59 1187.11) rotate(-81.65)"/><ellipse class="cls-5" cx="674.05" cy="503.54" rx="13.03" ry="22.81"/><ellipse class="cls-5" cx="654.75" cy="405.29" rx="13.03" ry="22.81" transform="translate(-78.74 170.87) rotate(-14.03)"/><ellipse class="cls-5" cx="353" cy="564.94" rx="13.03" ry="22.81"/><ellipse class="cls-5" cx="353" cy="671.96" rx="13.03" ry="22.81" transform="translate(-93.51 58.14) rotate(-8.32)"/><ellipse class="cls-5" cx="360.02" cy="457.93" rx="22.81" ry="13.03" transform="translate(-145.34 747.61) rotate(-81.65)"/><ellipse class="cls-5" cx="317.92" cy="405.29" rx="22.81" ry="13.03" transform="matrix(0.35, -0.94, 0.94, 0.35, -172.58, 562.6)"/><ellipse class="cls-5" cx="372.3" cy="754.41" rx="13.03" ry="22.81" transform="translate(-381.8 381.49) rotate(-37.42)"/><ellipse class="cls-5" cx="307.39" cy="610.55" rx="13.03" ry="22.81" transform="translate(-45.62 25.19) rotate(-4.37)"/><ellipse class="cls-5" cx="307.39" cy="503.54" rx="13.03" ry="22.81"/></svg>