<svg id="Capa_1" data-name="Capa 1" xmlns="http://www.w3.org/2000/svg" viewBox="0 0 1000 1000"><defs><style>.cls-1{fill:#4c6b7f;}.cls-2{fill:#999439;}.cls-3{fill:#b2b242;}.cls-4{fill:#a5a63d;}.cls-5{fill:#8c8833;}.cls-6{fill:#ff9d60;}.cls-7{fill:#e2915b;}.cls-8{fill:#476375;}</style></defs><path class="cls-1" d="M295,400.13H525.4a0,0,0,0,1,0,0V545.86a0,0,0,0,1,0,0H215.33a0,0,0,0,1,0,0v-66A79.71,79.71,0,0,1,295,400.13Z"/><path class="cls-2" d="M810.44,676.09H142.5l25.18-104c6.82-15.64,26-26.2,47.54-26.2H810.44Z"/><path class="cls-1" d="M516.21,263.7H819.86a13.35,13.35,0,0,1,13.35,13.35v27a0,0,0,0,1,0,0H502.86a0,0,0,0,1,0,0v-27A13.35,13.35,0,0,1,516.21,263.7Z"/><polygon class="cls-3" points="423.64 399.81 338.8 399.81 314.56 238.9 447.89 238.9 423.64 399.81"/><rect class="cls-1" x="810.44" y="603.46" width="47.06" height="72.63"/><path class="cls-3" d="M525.4,304V545.86H767.88L810.67,304ZM657.18,459a57.36,57.36,0,0,1-57.36-57.36c0-.93,0-1.86.07-2.78C597.37,385.28,596,371,604,360.34c18.21-28.84,57.68-28.84,85-18.22,24.49,10.5,36.41,38.91,25.49,61.84A57.36,57.36,0,0,1,657.18,459Z"/><path class="cls-4" d="M689,342.12c-27.33-10.62-66.8-10.62-85,18.22-8,10.7-6.62,24.94-4.1,38.56a57.36,57.36,0,0,1,114.66,2.78c0,.77,0,1.52-.06,2.28C725.41,381,713.49,352.62,689,342.12Z"/><path class="cls-5" d="M147.59,653.54l-5.09,21H810.44V627.52H180.67A34,34,0,0,0,147.59,653.54Z"/><path class="cls-6" d="M338.64,736.93c20.7-15.06,33.49-36.7,45.76-58.47.14-2,.23-4.09.23-6.17a88.8,88.8,0,0,0-177.33-6.84C212.68,727.92,286,771.17,338.64,736.93Z"/><path class="cls-7" d="M338.64,736.93c-52.68,34.24-126-9-131.34-71.48-.17,2.26-.29,4.54-.29,6.84a88.8,88.8,0,0,0,177.39,6.17C372.13,700.23,359.34,721.87,338.64,736.93Z"/><circle class="cls-7" cx="295.82" cy="672.29" r="61.62"/><circle class="cls-6" cx="295.82" cy="672.29" r="35.52"/><circle class="cls-7" cx="304.7" cy="663.41" r="11.73"/><path class="cls-6" d="M715.12,736.93c20.7-15.06,33.48-36.7,45.75-58.47.14-2,.24-4.09.24-6.17a88.8,88.8,0,0,0-177.33-6.84C589.15,727.92,662.44,771.17,715.12,736.93Z"/><path class="cls-7" d="M715.12,736.93c-52.68,34.24-126-9-131.34-71.48-.18,2.26-.29,4.54-.29,6.84a88.8,88.8,0,0,0,177.38,6.17C748.6,700.23,735.82,721.87,715.12,736.93Z"/><circle class="cls-7" cx="672.3" cy="672.29" r="61.62"/><circle class="cls-6" cx="672.3" cy="672.29" r="35.52"/><circle class="cls-7" cx="681.18" cy="663.41" r="11.73"/><polygon class="cls-4" points="525.05 545.54 767.92 545.54 776.53 496.96 525.05 496.96 525.05 545.54"/><path class="cls-8" d="M218,545.54h304.4a2.66,2.66,0,0,0,2.66-2.66V499.62a2.66,2.66,0,0,0-2.66-2.66H244.7a29.37,29.37,0,0,0-29.37,29.37v16.55A2.66,2.66,0,0,0,218,545.54Z"/><rect class="cls-8" x="503.8" y="284.44" width="329.42" height="19.57"/><polygon class="cls-4" points="810.64 304.17 525.4 304.17 525.4 310.24 809.56 310.24 810.64 304.17"/><polygon class="cls-4" points="425.75 385.85 336.69 385.85 338.75 399.49 423.69 399.49 425.75 385.85"/><rect class="cls-8" x="810.44" y="627.52" width="47.06" height="48.58"/><polygon class="cls-4" points="403.86 238.9 379.62 399.81 423.64 399.81 447.89 238.9 403.86 238.9"/><polygon class="cls-4" points="764.34 305.69 729.98 545.86 776.31 545.86 810.67 305.69 764.34 305.69"/></svg>