<svg id="Capa_1" data-name="Capa 1" xmlns="http://www.w3.org/2000/svg" viewBox="0 0 1000 1000"><defs><style>.cls-1{fill:#737b51;}.cls-2{fill:#ff9d60;}.cls-3{fill:#e2915b;}.cls-4{fill:#a88f66;}.cls-5{fill:#9a845d;}.cls-6{fill:#69714a;}</style></defs><rect class="cls-1" x="661" y="628" width="89" height="12" transform="translate(654.94 -313.17) rotate(45)"/><rect class="cls-1" x="690.5" y="618.25" width="89" height="12" transform="translate(1263.29 -182.49) rotate(82.88)"/><path class="cls-2" d="M750.28,687.52c9.33-6.78,15.09-16.53,20.61-26.34.07-.92.11-1.84.11-2.77a40,40,0,0,0-79.87-3.08C693.55,683.46,726.56,702.94,750.28,687.52Z"/><path class="cls-3" d="M750.28,687.52c-23.72,15.42-56.73-4.06-59.15-32.19-.08,1-.13,2-.13,3.08a40,40,0,0,0,79.89,2.77C765.37,671,759.61,680.74,750.28,687.52Z"/><circle class="cls-3" cx="731" cy="658.41" r="27.75"/><circle class="cls-2" cx="731" cy="658.41" r="16"/><circle class="cls-3" cx="735" cy="654.41" r="5.28"/><path class="cls-4" d="M456,474s-180,49-191,49-64-42-72-42-50,7-56,33-1,74,15,82,25,21,109,22,287,15,421-14,127-16,116-80-2-87-50-83-137,22-137,22,12,47,4,54-58,23-60,14-14-54-15-61,0-21-11-19S471,470,456,474Z"/><path class="cls-5" d="M615.62,462.08,611,463s3.68,14.4,5.6,28.45C618.78,485.61,617.51,473.23,615.62,462.08Z"/><path class="cls-5" d="M682,581c-134,29-337,15-421,14s-93-14-109-22c-9.78-4.89-15.45-24.74-17-45.37-2.15,26.45,3.52,61.63,17,68.37,16,8,25,21,109,22s287,15,421-14c116-25.11,126.34-18.74,119.87-58.14C795.6,561.09,767.51,562.49,682,581Z"/><polygon class="cls-4" points="784 386 793 386 818 494 832 625 822 625 800 506 784 386"/><rect class="cls-1" x="519.52" y="428.95" width="15" height="196" transform="translate(-61.27 69.42) rotate(-7.12)"/><path class="cls-6" d="M522.31,428.77l-14.89,1.86,1.52,12.13c5-.29,10-.5,15-.8Z"/><path class="cls-6" d="M529.09,604.05l2.64,21.07,14.88-1.86-2.63-21C539.11,602.73,534.11,603.08,529.09,604.05Z"/><rect class="cls-1" x="645.52" y="410.95" width="15" height="196" transform="translate(-58.07 84.9) rotate(-7.12)"/><path class="cls-6" d="M648.31,410.77l-14.89,1.86,1.52,12.13c5-.29,10-.5,15-.8Z"/><path class="cls-6" d="M653,569l4.73,38.12,14.88-1.86L668,568C663.13,568.48,658,568,653,569Z"/><rect class="cls-1" x="700.52" y="403.95" width="15" height="196" transform="translate(-56.78 91.67) rotate(-7.12)"/><path class="cls-6" d="M703.31,403.77l-14.89,1.86,1.52,12.13c5-.29,10-.5,15-.8Z"/><path class="cls-6" d="M708,561l4.73,39.12,14.88-1.86L723,560C718.13,560.48,713,560,708,561Z"/><path class="cls-2" d="M754,591.21c0-11.16-9.78-20.21-21.83-20.21a23.28,23.28,0,0,0-9.23,1.89L507.9,617l-.16,0-.28.06h0a9.26,9.26,0,0,0-7.46,8.82c0,4.9,4.2,8.89,9.46,9.07v0h.37a10.47,10.47,0,0,0,2.45-.3l220.79-23.3C744.71,611,754,602.09,754,591.21Z"/><path class="cls-3" d="M733.07,603.4,512.28,626.7a10.47,10.47,0,0,1-2.45.3h-.37v0A9.86,9.86,0,0,1,501,621.9a8.55,8.55,0,0,0-1,4c0,4.9,4.2,8.89,9.46,9.07v0h.37a10.47,10.47,0,0,0,2.45-.3l220.79-23.3C744.71,611,754,602.09,754,591.21a18.85,18.85,0,0,0-.43-4C751.62,596.19,743.24,603,733.07,603.4Z"/><path class="cls-2" d="M754,381.05c0-16-12.7-29.05-28.37-29.05a27.7,27.7,0,0,0-12,2.72L434.26,418.11l-.2,0-.37.09h0a13.1,13.1,0,0,0,2.6,25.73v0l.15,0,.33,0a12.39,12.39,0,0,0,3.18-.43L726.8,410.08C741.93,409.45,754,396.7,754,381.05Z"/><path class="cls-3" d="M730.8,402.07,444,435.57a12.39,12.39,0,0,1-3.18.43l-.33,0-.15,0v0A12.93,12.93,0,0,1,428,422.93a13.85,13.85,0,0,1,.1-1.59,13.14,13.14,0,0,0-4.1,9.59A12.93,12.93,0,0,0,436.29,444v0l.15,0,.33,0a12.39,12.39,0,0,0,3.18-.43l286.85-33.5a28.47,28.47,0,0,0,25.78-19.94A28.17,28.17,0,0,1,730.8,402.07Z"/><polygon class="cls-5" points="790 386 784 386 800 506 822 625 828 625 806 506 790 386"/><path class="cls-1" d="M793.5,492.91l4,28.13s31.5,2,29.5-18S793.5,492.91,793.5,492.91Z"/><path class="cls-6" d="M827,503a13.7,13.7,0,0,0-2-6.22c-1.92,14.6-25,14.42-28.87,14.28l1.42,10S829,523,827,503Z"/></svg>