<svg id="Capa_1" data-name="Capa 1" xmlns="http://www.w3.org/2000/svg" viewBox="0 0 1000 1000"><defs><style>.cls-1{fill:#999439;}.cls-2{fill:#8c8833;}.cls-3{fill:#ff9d60;}.cls-4{fill:#e2915b;}.cls-5{fill:#4c6b7f;}.cls-6{fill:#476375;}.cls-7{fill:#a5a63d;}.cls-8{fill:#999a38;}</style></defs><rect class="cls-1" x="166" y="520.21" width="668" height="131"/><polygon class="cls-2" points="166 602.21 166 651.21 834 651.21 834 602.21 504.26 602.21 166 602.21"/><path class="cls-3" d="M354.58,711.62c20.7-15.06,33.49-36.7,45.76-58.47.14-2,.23-4.09.23-6.17a88.8,88.8,0,0,0-177.33-6.84C228.61,702.61,301.9,745.86,354.58,711.62Z"/><path class="cls-4" d="M354.58,711.62c-52.68,34.24-126-9-131.34-71.48-.17,2.26-.29,4.54-.29,6.84a88.8,88.8,0,0,0,177.39,6.17C388.07,674.92,375.28,696.56,354.58,711.62Z"/><circle class="cls-4" cx="311.76" cy="646.98" r="61.62"/><circle class="cls-3" cx="311.76" cy="646.98" r="35.52"/><circle class="cls-4" cx="320.64" cy="638.1" r="11.73"/><path class="cls-3" d="M731.06,711.62c20.7-15.06,33.48-36.7,45.75-58.47.14-2,.24-4.09.24-6.17a88.8,88.8,0,0,0-177.34-6.84C605.09,702.61,678.38,745.86,731.06,711.62Z"/><path class="cls-4" d="M731.06,711.62c-52.68,34.24-126-9-131.35-71.48-.17,2.26-.28,4.54-.28,6.84a88.8,88.8,0,0,0,177.38,6.17C764.54,674.92,751.76,696.56,731.06,711.62Z"/><circle class="cls-4" cx="688.24" cy="646.98" r="61.62"/><circle class="cls-3" cx="688.24" cy="646.98" r="35.52"/><circle class="cls-4" cx="697.12" cy="638.1" r="11.73"/><rect class="cls-5" x="120" y="578.21" width="46" height="72.61"/><rect class="cls-6" x="120" y="602.23" width="46" height="48.97"/><rect class="cls-5" x="834" y="578.21" width="46" height="72.61"/><rect class="cls-6" x="834" y="602.23" width="46" height="48.97"/><path class="cls-5" d="M704.41,264.21H295.59A105.62,105.62,0,0,0,190,369.83V520.07H810V369.83A105.62,105.62,0,0,0,704.41,264.21Z"/><rect class="cls-6" x="190" y="470.38" width="620" height="48.97"/><rect class="cls-7" x="620" y="346.21" width="91" height="91" rx="12"/><rect class="cls-7" x="454.5" y="346.21" width="91" height="91" rx="12"/><rect class="cls-7" x="289" y="346.21" width="91" height="91" rx="12"/><path class="cls-8" d="M368,346.21H301a12,12,0,0,0-12,12v7a12,12,0,0,1,12-12h67a12,12,0,0,1,12,12v-7A12,12,0,0,0,368,346.21Z"/><path class="cls-8" d="M534,346.21H467a12,12,0,0,0-12,12v7a12,12,0,0,1,12-12h67a12,12,0,0,1,12,12v-7A12,12,0,0,0,534,346.21Z"/><path class="cls-8" d="M699,346.21H632a12,12,0,0,0-12,12v7a12,12,0,0,1,12-12h67a12,12,0,0,1,12,12v-7A12,12,0,0,0,699,346.21Z"/></svg>