<svg id="Capa_1" data-name="Capa 1" xmlns="http://www.w3.org/2000/svg" viewBox="0 0 1000 1000"><defs><style>.cls-1{fill:#a88f66;}.cls-2{fill:#9a845d;}.cls-3{fill:#26397a;}.cls-4{fill:#1d337d;}.cls-5{fill:#212f58;}.cls-6{fill:#182952;}.cls-7{fill:#e6c46e;}.cls-8{fill:#d6b766;}.cls-9{fill:#6d6d29;}.cls-10{fill:#626325;}.cls-11{fill:#999439;}.cls-12{fill:#8c8833;}</style></defs><path class="cls-1" d="M468.92,219h62.17a8.92,8.92,0,0,1,8.92,8.92V707a0,0,0,0,1,0,0H460a0,0,0,0,1,0,0V227.92A8.92,8.92,0,0,1,468.92,219Z"/><rect class="cls-1" x="150.5" y="691" width="699" height="90"/><rect class="cls-2" x="150.5" y="736" width="699" height="45"/><rect class="cls-3" x="207" y="623" width="586" height="68" rx="34"/><path class="cls-4" d="M759.5,675h-518a34,34,0,0,1-33.28-27,33.92,33.92,0,0,0-1.22,9h0a34,34,0,0,0,34,34H759a34,34,0,0,0,34-34h0a34.15,34.15,0,0,0-.72-7A34,34,0,0,1,759.5,675Z"/><rect class="cls-5" x="236.3" y="555" width="527.4" height="68" rx="32.26"/><path class="cls-6" d="M733.55,607H267.35c-14.75,0-27.06-11.59-30-27a37.51,37.51,0,0,0-1.1,9h0c0,18.78,13.7,34,30.6,34H733.1c16.9,0,30.6-15.22,30.6-34h0a37.21,37.21,0,0,0-.65-7C759.49,596.42,747.64,607,733.55,607Z"/><rect class="cls-7" x="262.67" y="487" width="474.66" height="68" rx="30.6"/><path class="cls-8" d="M710.19,539H290.61c-13.27,0-24.34-11.59-26.95-27a41.42,41.42,0,0,0-1,9h0c0,18.78,12.33,34,27.54,34H709.79c15.21,0,27.54-15.22,27.54-34h0a42,42,0,0,0-.58-7C733.54,528.42,722.87,539,710.19,539Z"/><rect class="cls-9" x="286.4" y="419" width="427.19" height="68" rx="29.03"/><path class="cls-10" d="M689.18,471H311.55c-11.94,0-21.91-11.59-24.26-27a46.29,46.29,0,0,0-.89,9h0c0,18.78,11.1,34,24.79,34H688.81c13.69,0,24.79-15.22,24.79-34h0a46.78,46.78,0,0,0-.53-7C710.19,460.42,700.59,471,689.18,471Z"/><rect class="cls-11" x="307.76" y="351" width="384.47" height="68" rx="27.54"/><path class="cls-12" d="M670.26,403H330.4c-10.75,0-19.73-11.59-21.84-27a50.62,50.62,0,0,0-.8,9h0c0,18.78,10,34,22.31,34H669.93c12.32,0,22.31-15.22,22.31-34h0a52.89,52.89,0,0,0-.47-7C689.17,392.42,680.53,403,670.26,403Z"/></svg>