<svg id="Capa_1" data-name="Capa 1" xmlns="http://www.w3.org/2000/svg" viewBox="0 0 1000 1000"><defs><style>.cls-1{fill:#c4a85f;}.cls-2{fill:#d3b566;}.cls-3{fill:#e6c46e;}.cls-4{fill:#f9d374;}.cls-5{fill:#e7b869;}.cls-6{fill:#fac671;}.cls-7{fill:#391e04;}.cls-8{fill:#261404;}.cls-9{fill:#6c4431;}</style></defs><path class="cls-1" d="M455.37,664.41C454.59,654,435.21,654,435.21,654s-2.15,34.92-13.64,43.88c-1.12.87-2.17,1.76-3.19,2.66a73,73,0,0,0,28.08.92C450.74,688.45,455.91,671.48,455.37,664.41Z"/><path class="cls-1" d="M413.27,732c-6.51-3.25-7.09-10.73-6.42-18.32-2.11,3.29-3.23,6-3.23,7.48,0,3.58-7.17,17.91,11.49,18.8,9.86.48,15.91-3.8,19.85-9.26C427.44,733.55,419.82,734.89,413.27,732Z"/><path class="cls-2" d="M446.46,701.44a73,73,0,0,1-28.08-.92,63.81,63.81,0,0,0-11.53,13.14c-.67,7.59-.09,15.07,6.42,18.32,6.55,2.91,14.17,1.57,21.69-1.3,3.52-4.87,5.35-10.69,6.71-14.91C442.59,712.88,444.43,707.61,446.46,701.44Z"/><path class="cls-1" d="M698.27,726a8.74,8.74,0,0,1-3.3-7.51,9.14,9.14,0,0,0-1.29,3.76c0,3.38-7.45,16.87,11.91,17.72,11.43.49,17.93-4.59,21.95-10.57C718.17,733.33,706.77,733.63,698.27,726Z"/><path class="cls-2" d="M712.3,700.31c-8.88,6.28-14.86,13.49-17.33,18.16a8.74,8.74,0,0,0,3.3,7.51c8.5,7.65,19.9,7.35,29.27,3.4a53,53,0,0,0,5.61-12.21c1.09-3.07,3.38-9,5.81-15.82-8.77-.64-17.53-1.19-26.3-1.33Z"/><path class="cls-1" d="M747.37,668.81c-.81-9.83-20.92-9.83-20.92-9.83s-2.2,32.2-13.79,41c8.77.14,17.53.69,26.3,1.33C743.21,689.49,747.89,675.05,747.37,668.81Z"/><path class="cls-2" d="M768.27,459.46c-95.35-32.9-25.54-108.5-162-135.45-26.24-1.95-42.54-9.75-45.25-19.49s4.52-63.34-15.39-67.24c-43.18-8.52-52.4,26.46-46.93,58.73,14,13.25,23.12,33.19,42.58,36,41,4,78,16,119,25,5,1,7,7,9,10,10,16,16,32,28,46,12,16,25,29,37,44,8,8.67,17.8,13.78,28.48,17.71C765.56,471.85,767.5,467,768.27,459.46Z"/><path class="cls-1" d="M734.27,457c-12-15-25-28-37-44-12-14-18-30-28-46-2-3-4-9-9-10-41-9-78-21-119-25-19.46-2.78-28.62-22.72-42.58-36a109.6,109.6,0,0,0,2.58,11.43c31,73.7,119.46,29.8,164.73,73.08,10.86,15.6,6.33,29.24,17.19,40.94,15.06,13.83,62.8,70.13,79.56,53.23C752.07,470.76,742.28,465.65,734.27,457Z"/><path class="cls-3" d="M371.27,678a131.46,131.46,0,0,1-71-24c-22.18-15.84-36.2-37.33-48.53-60A122,122,0,0,0,372.27,697h213V681.85C514,682,442.74,681.09,371.27,678Z"/><path class="cls-3" d="M252.82,550a122,122,0,0,0-2.46,20.3A45,45,0,0,0,257.27,551C255.46,551.88,254.47,550.35,252.82,550Z"/><path class="cls-4" d="M570.27,676c27-13,50-29,68-53,11.63-14.87,14.91-32.66,16.31-50.68a93,93,0,0,0-69.31-75.22V453h-213A122.05,122.05,0,0,0,252.82,550c1.65.31,2.64,1.84,4.45.94a45,45,0,0,1-6.91,19.36c-.05,1.54-.09,3.08-.09,4.64h0a124,124,0,0,0,1.47,19c12.33,22.66,26.35,44.15,48.53,60a131.46,131.46,0,0,0,71,24c65.71,2.86,131.25,3.87,196.76,3.87C567.74,679.07,569.39,676,570.27,676Z"/><path class="cls-4" d="M638.27,623c-18,24-41,40-68,53-.88,0-2.53,3.09-2.24,5.87h17.24v-6.13c41.31-10.25,71.1-48,70.42-90.79a89.42,89.42,0,0,0-1.11-12.63C653.18,590.32,649.9,608.11,638.27,623Z"/><path class="cls-5" d="M713.27,478c7,1,11-8,7-12a169.75,169.75,0,0,0-13-13H662.4C675.32,467.46,693.48,478,713.27,478Z"/><path class="cls-6" d="M780.27,453h-73a169.75,169.75,0,0,1,13,13c4,4,0,13-7,12-19.79,0-37.95-10.52-50.87-25H585.27v44.1c40.31,10,69.76,46.11,70.42,87.85.68,42.83-29.11,80.54-70.42,90.79v6.13c89.25-.23,129.47-2.2,219-3.87,32.48-.58,57.23-18.66,80.48-40a121.37,121.37,0,0,0,17.52-63h0A122,122,0,0,0,780.27,453Z"/><path class="cls-5" d="M804.27,678c-89.53,1.67-129.75,3.64-219,3.87V697h195a121.92,121.92,0,0,0,104.48-59C861.5,659.32,836.75,677.4,804.27,678Z"/><path class="cls-4" d="M446.27,338c5,3,10,6,15,7,53,12,108-2,153,30,22,16,25,46,47,63A280.17,280.17,0,0,0,722,472.69c4.56-2.56,7.42-8.27,7.76-18.32-107.6-25.71-36.55-108.9-189-125.08-29.07.2-47.62-6.42-51.37-16.16s.08-65.2-22.16-67.52c-49-5.2-55.93,32.67-46.72,65.62C429.88,319.2,435.78,330.12,446.27,338Z"/><path class="cls-3" d="M661.27,438c-22-17-25-47-47-63-45-32-100-18-153-30-5-1-10-4-15-7-10.49-7.86-16.39-18.78-25.72-26.75.94,3.36,2,6.67,3.29,9.88,39.85,72.82,133.93,20.51,187.16,61,13.17,15.06,9.24,29.4,22.11,40.46,16.78,12.25,69,61.27,88.92,50.11A280.17,280.17,0,0,1,661.27,438Z"/><path class="cls-7" d="M890.27,567a33.77,33.77,0,0,0-5.2,10.51c2,3.47,4.7,6.74,8.2,8.49a35.88,35.88,0,0,0,34.83-5.11C927.53,558.64,912.62,536.1,890.27,567Z"/><path class="cls-8" d="M893.27,586c-3.5-1.75-6.23-5-8.2-8.49-4.89,17.09,6.95,33.68,34.2,28.49,6.37-4.9,9.09-15,8.83-25.11A35.88,35.88,0,0,1,893.27,586Z"/><ellipse class="cls-9" cx="915.77" cy="561.98" rx="3.5" ry="6" transform="translate(-158.3 533.17) rotate(-30)"/><path class="cls-3" d="M210.27,501c-14-24,2-52,12-76,14-34-7-69-37-84-4-2-9,1-14-2-8-5-17-5-26-9-3-1-7-3-9-3-31.16-2.92-46.2-34.29-53.43-60.87-7.27,4-12.45,8.82-10.57,15.87,20,88.56,118.8,21.48,143,104,4.6,27.42-23.8,81.34-16,110,7.19,24.63,62,76.4,67.55,43.75C244.39,533.15,221.81,521.4,210.27,501Z"/><path class="cls-4" d="M136.27,327c2,0,6,2,9,3,9,4,18,4,26,9,5,3,10,0,14,2,30,15,51,50,37,84-10,24-26,52-12,76,11.54,20.42,34.12,32.17,56.54,38.75a37,37,0,0,0,.46-6.75c-104.45-73.51,60.31-137.31-64-217-79.54-8.12-58.6-61.93-95-62-6.36,4.25-17.23,7.65-25.43,12.14C90.07,292.69,105.11,324.06,136.27,327Z"/><path d="M816.09,515.43c18.55,0,20.56,30.26,20.64,31.61l-8.57,3.3,0,.39c-.06-.61-1.51-15-14.47-13-17,2.66-18,7.47-19.84,16.21l-7.61-10.58c4.16-19.55,9.44-25,26.92-27.73A18.58,18.58,0,0,1,816.09,515.43Z"/><path class="cls-3" d="M384.27,745c-8,6-23,10-29-1a19.72,19.72,0,0,1-2.56-13.16,9.56,9.56,0,0,0-1.75,4.32c0,3.58-8.94,17.91,14.29,18.8s29.48-15.22,33.06-24.17c.32-.82.74-1.83,1.22-3C395.27,733.42,391.18,740.19,384.27,745Z"/><path class="cls-4" d="M415.36,678.41C414.39,668,390.27,668,390.27,668s-2.68,34.92-17,43.88c-10.42,6.53-17.5,14-20.58,19A19.72,19.72,0,0,0,355.27,744c6,11,21,7,29,1,6.91-4.79,11-11.56,15.26-18.2C404.38,715.17,416.25,687.9,415.36,678.41Z"/><path class="cls-5" d="M643.27,751c-6.47,0-6.11-7.67-6-14.36-2,2.76-3,5-3,6.36,0,4-10,20,16,21,23.3.9,31.34-13.46,35.63-23.65C672.74,747.4,658.62,752.26,643.27,751Z"/><path class="cls-6" d="M643.27,751c15.35,1.28,29.47-3.58,42.63-10.65.5-1.18,1-2.31,1.37-3.35,4-10,20.18-45.7,19.09-57.35S678.27,668,678.27,668s-3,39-19,49c-10.63,6.65-18.15,14.16-22,19.64C637.16,743.31,636.8,751,643.27,751Z"/></svg>