<svg id="Capa_1" data-name="Capa 1" xmlns="http://www.w3.org/2000/svg" viewBox="0 0 1000 1000"><defs><style>.cls-1{fill:#9a845d;}.cls-2{fill:#a88f66;}.cls-3{fill:#789e34;}.cls-4{fill:#81aa39;}.cls-5{fill:#769937;}.cls-6{fill:#6e8e32;}.cls-7{fill:#6b952c;}.cls-8{fill:#74a031;}</style></defs><path class="cls-1" d="M465.36,514.56V475.9H410.17v38.53C428.08,513,447.73,510.5,465.36,514.56Z"/><path class="cls-2" d="M410.17,514.43V849.27h55.19V514.56C447.73,510.5,428.08,513,410.17,514.43Z"/><path class="cls-3" d="M385.16,600.93c-4.42-.63-8.85-3.58-12.93-7.15v7.15a10.38,10.38,0,0,0,10.35,10.35H498.12a10.38,10.38,0,0,0,10.35-10.35V597.7a8.56,8.56,0,0,1-1.73.65C467.08,610.42,425.69,605.24,385.16,600.93Z"/><path class="cls-4" d="M498.12,567.3H382.58a10.38,10.38,0,0,0-10.35,10.35v16.13c4.08,3.57,8.51,6.52,12.93,7.15,40.53,4.31,81.92,9.49,121.58-2.58a8.56,8.56,0,0,0,1.73-.65V577.65A10.38,10.38,0,0,0,498.12,567.3Z"/><path class="cls-5" d="M498.12,632.41H382.58a10.38,10.38,0,0,0-10.35,10.34V661c7,4.88,16.57,5.46,25,5.46,36.79,0,73.59,6.78,111.23-1.54V642.75A10.38,10.38,0,0,0,498.12,632.41Z"/><path class="cls-6" d="M397.24,666.47c-8.44,0-18-.58-25-5.46v5a10.38,10.38,0,0,0,10.35,10.34H498.12A10.38,10.38,0,0,0,508.47,666v-1.11C470.83,673.25,434,666.47,397.24,666.47Z"/><path class="cls-7" d="M372.23,724.14v7a10.38,10.38,0,0,0,10.35,10.34H498.12a10.38,10.38,0,0,0,10.35-10.34v-2.51C463.07,732.83,416.06,736.91,372.23,724.14Z"/><path class="cls-8" d="M498.12,697.51H382.58a10.38,10.38,0,0,0-10.35,10.35v16.28c43.83,12.77,90.84,8.69,136.24,4.49V707.86A10.38,10.38,0,0,0,498.12,697.51Z"/><path class="cls-1" d="M238.58,870c-.87,1.73-4.32,2.59-6.9,4.32-25,22.41-62.09,32.76-91.4,12.07-22.68-15.59-34.29-39.93-36.74-65.81A71.69,71.69,0,0,0,101,850.06c4.93,40,40.84,57.67,43.38,58.87,27.35,12.84,58.67,7.48,80.56-9.3,18.16-13.91,25.66-32.48,28.78-45.17A110.64,110.64,0,0,0,238.58,870Z"/><path class="cls-1" d="M436.9,888.07c-23.28-1.72-46.56-4.31-69.84-9.48C330,871.69,299.8,857,269.62,833.75c-6.45-5-11.7.69-11.81,8.2,7.37,4.7,34.82,22.23,50.81,32.89,18.59,12.4,71.26,27.89,108.44,27.89H581.29c62,0,80.56-3.1,83.66-9.29,1.78-3.57-.54-9.18-4.6-15.67-24,3.65-47.65,8.84-72.55,10.3A1466.27,1466.27,0,0,1,436.9,888.07Z"/><path class="cls-1" d="M503.3,482.8c-37.08-2.59-73.3-2.59-110.38,1.73-57.77,6.89-106.06,53.46-119,112.09-2.71,11.76-2.82,23.27-2.43,34.8,15.38-74.93,85.1-131.5,168.8-131.5,95,0,172,72.83,172,162.67a153.94,153.94,0,0,1-1.3,20,13.44,13.44,0,0,0,1-4.93c1.73-26.73,4.31-54.33-1.72-81.06C596.42,543.16,546.41,512.12,503.3,482.8Z"/><path class="cls-1" d="M862.87,571.62c-4.32,5.17-6,12.93-12.08,15.52-11.21,6-25,8.62-37.94,12.07-21.55,4.31-43.11.86-64.67,2.59-22.42,1.72-48.29-10.35-66.39,6.89-6.46,6.46-8.73,20.09-4.34,30.44,1-16,9.76-21.66,18.48-24.56,9.3-3.1,102.25,3.1,114.65,3.1s37.18-9.3,49.57-18.6,34.09-52.67,37.19-71.26c.34-2.09.69-5,1-8.62C888.3,537.14,876.39,554,862.87,571.62Z"/><path class="cls-2" d="M881.84,366.68c-21.69-58.87-86.76-86.75-130.13-92.95s-80.57,12.39-80.57,12.39-24.78,12.4-27.88,6.2-46.48-65.07-74.37-96S469.74,112.61,445,97.11s-46.48-15.49-52.67-9.29c-5.18,5.18-10.36,3.87-6.49,32.26,14.17,22,28.4,44.14,43.35,67C442.94,209.46,461,225,475.7,247.4c14.66,19.83,23.28,41.39,43.12,56,14.66,10.34,24.14,23.28,37.07,35.35,19.84,17.25,39.67,56.05,9.49,69.85-7.36,3.68-15,3.84-22.62,2.12-38.56,1.7-120.69-3.8-135-3.8-18.59,0-55.78,9.29-93,27.88s-77.46,58.87-111.54,127-3.1,182.82,0,192.11-6.2,9.3-6.2,9.3a102.89,102.89,0,0,0-12.4,0c-10.35.61-37.68,2.23-58.87,21.69a80.29,80.29,0,0,0-22.26,35.55c2.45,25.88,14.06,50.22,36.74,65.81,29.31,20.69,66.39,10.34,91.4-12.07,2.58-1.73,6-2.59,6.9-4.32a110.64,110.64,0,0,1,15.15-15.5,80.61,80.61,0,0,0,2.21-13.7l1.87,1.19c.11-7.51,5.36-13.22,11.81-8.2C299.8,857,330,871.69,367.06,878.59c23.28,5.17,46.56,7.76,69.84,9.48a1466.27,1466.27,0,0,0,150.9,0c24.9-1.46,48.55-6.65,72.55-10.3-3-4.79-7-10-10.9-15.32-9.29-12.39-31-31-37.18-37.18s31-40.28,52.68-80.56,12.39-83.66,12.39-102.26c0-1.15,0-2.26.11-3.32-4.39-10.35-2.12-24,4.34-30.44,18.1-17.24,44-5.17,66.39-6.89,21.56-1.73,43.12,1.72,64.67-2.59,12.94-3.45,26.73-6,37.94-12.07,6-2.59,7.76-10.35,12.08-15.52,13.52-17.64,25.43-34.48,35.48-52.43C900.82,490.71,901.09,418.94,881.84,366.68Zm-269.9,311a13.44,13.44,0,0,1-1,4.93C600.54,763,528.11,825.27,440.3,825.27c-95,0-172-72.83-172-162.68a154.94,154.94,0,0,1,3.17-31.17c-.39-11.53-.28-23,2.43-34.8,12.93-58.63,61.22-105.2,119-112.09,37.08-4.32,73.3-4.32,110.38-1.73,43.11,29.32,93.12,60.36,106.92,113.82C616.25,623.35,613.67,651,611.94,677.68ZM768.75,478.23A54.23,54.23,0,0,1,714.52,424c0-.1,0-.19,0-.29-8.82-12.62-5.55-35.19,6.06-45.25,15.52-13.8,37.08-24.15,59.5-18.11,20.8,5,34.68,23,39,43.4a54.23,54.23,0,0,1-50.3,74.47Z"/><path class="cls-1" d="M565.38,408.65c30.18-13.8,10.35-52.6-9.49-69.85-12.93-12.07-22.41-25-37.07-35.35-19.84-14.66-28.46-36.22-43.12-56C461,225,442.94,209.46,429.14,187c-14.95-22.82-29.18-44.92-43.35-67,.76,5.57,1.86,12.28,3.39,20.41C398.47,190.07,528.61,345,553.4,366.68s12.39,31,9.29,40.29c-.71,2.14-8.36,3.29-19.93,3.8C550.39,412.49,558,412.33,565.38,408.65Z"/><path class="cls-1" d="M768.75,369.78a54.24,54.24,0,0,1,50.3,34c-4.28-20.41-18.16-38.36-39-43.4-22.42-6-44,4.31-59.5,18.11-11.61,10.06-14.88,32.63-6.06,45.25A54.23,54.23,0,0,1,768.75,369.78Z"/></svg>