<svg id="Capa_1" data-name="Capa 1" xmlns="http://www.w3.org/2000/svg" viewBox="0 0 1000 1000"><defs><style>.cls-1{fill:#8c7955;}.cls-2{fill:#9a845d;}.cls-3{fill:#626325;}.cls-4{fill:#a88f66;}.cls-5{fill:#686827;}.cls-6{fill:#646525;}.cls-7{fill:#7f6f4d;}.cls-8{fill:#080200;}.cls-9{fill:#fff3f1;}</style></defs><path class="cls-1" d="M598.23,482.45c20,7,38-8,53-18,29.43-18.74,54.1-38.26,81.8-56.45-8.71-2.41-18-4.8-27.93-7.09a283.57,283.57,0,0,0-40.87,19.54C638.23,435.45,604.23,453.45,598.23,482.45Z"/><path class="cls-2" d="M802.73,433C793,427.69,768.14,417.71,733,408c-27.7,18.19-52.37,37.71-81.8,56.45-15,10-33,25-53,18,6-29,40-47,66-62a283.57,283.57,0,0,1,40.87-19.54c-49-11.37-111.44-20.44-178.37-18-135,5-204-9-222-14s-15-11-26-20-57-66-69-78-34-30-64-48-56-12-62-11-11,6-11,6L65,224.68S81.73,243,121.73,363,746.1,707.33,746.1,707.33s4.45-1.29,11.46-3.5c-24-72-30.91-149.14-22.33-225.38,1-11,20-17,32-26,1-1,4-2,6-2,10.21-5.91,20.42-11.81,30.94-16.64C803.68,433.49,803.19,433.2,802.73,433Z"/><path class="cls-3" d="M804.17,433.81c-10.52,4.83-20.73,10.73-30.94,16.64-2,0-5,1-6,2-12,9-31,15-32,26-8.58,76.24-1.7,153.38,22.33,225.38,18-5.66,52.74-17.37,72.17-28.88,27-16,25-31,37-50s19-80,19-80S829,449.77,804.17,433.81Z"/><path class="cls-4" d="M360.23,584.45c4,1,9,4,14,5,11,3,22,5,33,7,38,11,71,29,106,44,22,9,44,16,66,25,10,4,22,6,32,7,50.34,3,99,11.66,145.53,28.93-22.45-68.49-29.46-141.55-22.46-214l-1.57-.42c-60-16-226-36-358-58s-133-16-146-36-75-151-103-163-63-24-68,12,10,95,34,139c4.13,7.56,8.84,17.05,14.76,28,13.43,11.32,27.36,22.13,39.74,34.51C203.23,507.45,276.23,560.45,360.23,584.45Z"/><path class="cls-2" d="M505.52,637.08c-32.18-14.25-63.09-30.44-98.29-40.63-11-2-22-4-33-7-5-1-10-4-14-5-84-24-157-77-214-141-12.38-12.38-26.31-23.19-39.74-34.51C135,461.61,191.37,547.88,343.73,615c61.29,27,114.69,48.85,160.81,65.55C503,666.17,501.94,651.32,505.52,637.08Z"/><path class="cls-2" d="M756.76,701.38c-46.53-17.27-95.19-25.93-145.53-28.93-10-1-22-3-32-7-19.83-8.11-39.65-14.61-59.48-22.4,3.39,13.09-.75,27.21-3.83,41.51C602.11,715,661.66,726.26,698.73,718l58-13,.94-.8C757.36,703.23,757.07,702.3,756.76,701.38Z"/><path class="cls-1" d="M519.75,643.05c-2.17-.86-4.35-1.71-6.52-2.6q-3.87-1.66-7.71-3.37c-3.58,14.24-2.56,29.09-1,43.42q5.76,2.09,11.38,4.06C519,670.26,523.14,656.14,519.75,643.05Z"/><path class="cls-5" d="M756.23,674.45c9.86-58.2,35.3-108.62,66.7-156.05-28.46-11.38-61.7-23.71-88.63-31-6.9,71.46-.19,143.5,21.53,211.16A73.91,73.91,0,0,1,756.23,674.45Z"/><path class="cls-6" d="M885.73,545s-27.8-12.55-62.8-26.55c-31.4,47.43-56.84,97.85-66.7,156.05a73.91,73.91,0,0,0-.4,24.08c.61,1.88,1.21,3.75,1.84,5.62C766.88,696.32,841.68,631.17,885.73,545Z"/><path class="cls-4" d="M935.18,371.31S906.73,369,902.73,370s-15,22-17,29-22,55-29,72-44,79-44,79c-14,24-19,40-29,55s-18,53-19,84a45.2,45.2,0,0,0,.57,9c10.18,15.72,26.18,17.53,43.93,18.47,13.5.9,23.77-7.12,34.44-16L863.73,566Z"/><path class="cls-2" d="M809.23,716.45c-17.75-.94-33.75-2.75-43.93-18.47,3.85,23,25.92,27.29,38.43,30,14,3,37.92-14,37.92-14l2-13.52C833,709.33,822.73,717.35,809.23,716.45Z"/><path class="cls-2" d="M680.23,743.45c17-28,2-60-9-88-2-7-7-14-11-21a36.15,36.15,0,0,0-15-15c-11-5-20-12-30-16-13.29-5.7-27.48-8.69-40.85-11.55C559.09,600.7,524.73,626,524.73,626S600.37,770.19,623,788.12C645.19,776.17,668,764.36,680.23,743.45Z"/><path class="cls-1" d="M650.73,616c-21-22-63-28-70-27-1.14.16-3.39,1.25-6.35,2.95,13.37,2.86,27.56,5.85,40.85,11.55,10,4,19,11,30,16a36.15,36.15,0,0,1,15,15c4,7,9,14,11,21,11,28,26,60,9,88-12.2,20.91-35,32.72-57.26,44.67,1.5,1.19,2.76,1.83,3.76,1.83,16,0,56-40,56-40s11-6,11-43S671.73,638,650.73,616Z"/><path class="cls-4" d="M642.05,780c10.72-11.56,17-29.11,17.68-34.07,1-7,1-24-2-54s-44-62-74-74-52,3-59,8-13,18-14,52,29,64,29,64c.31.61.62,1.19.92,1.75C568.67,768.17,604.93,780.41,642.05,780Z"/><path class="cls-2" d="M540.65,743.7c3.71,6.72,7.54,9.79,13.08,16.25,6,7,53,35,73,30,5.81-1.46,10.94-5.19,15.32-9.93C604.93,780.41,568.67,768.17,540.65,743.7Z"/><path class="cls-1" d="M477.23,528.45c-3,1-6,4-9,5-80,26-158,63-246,44-7-2-13-6-19-8-18.87-5.66-40.39-11.33-50.33-28.73,1.47,7.6,3.52,14.27,6.33,16.73l8,7s44,45,164,14c77.87-20.12,162.46-51.18,231.4-82.27-4.52,1.28-9,2.68-13.4,4.27C525.23,509.45,501.23,518.45,477.23,528.45Z"/><path class="cls-2" d="M836.65,226.36,149.43,509.42s.75,17.26,3.47,31.3c9.94,17.4,31.46,23.07,50.33,28.73,6,2,12,6,19,8,88,19,166-18,246-44,3-1,6-4,9-5,24-10,48-19,72-28,4.41-1.59,8.88-3,13.4-4.27,37.3-16.81,70-33.64,94.6-48.73,70-43,168-112,184-150S836.65,226.36,836.65,226.36Z"/><path class="cls-2" d="M178.23,488.45c77-37,156-62,239-86a63.71,63.71,0,0,0,20-10.49l-2,.49c-59,14-201,58-255,88-21.81,12.11-31.22,22.27-30.87,30.74C154.45,500.34,167.32,493.41,178.23,488.45Z"/><path class="cls-4" d="M805.23,211.45c-37-8-135,9-205,36s-90,100-90,100c-2,5.93-15.69,30.42-73,44.51a63.71,63.71,0,0,1-20,10.49c-83,24-162,49-239,86-10.91,5-23.78,11.89-28.87,22.74.52,12.49,22.29,21.29,56.87,27.26,58,10,203-31,298-66s264-156,310-194S842.23,219.45,805.23,211.45Z"/><path class="cls-2" d="M593.23,725.45c6-11,5-30-8-38-8.85-5.91-18.67-3.11-28.51-3-10.84,9.7-15,29.3-5,42.51.55.72,1.13,1.41,1.75,2.08C566.73,737.6,584.49,740,593.23,725.45Z"/><path class="cls-1" d="M585.73,681c-3.37-1.4-14.11-5.15-24,0a24.36,24.36,0,0,0-5,3.49c9.84-.1,19.66-2.9,28.51,3,13,8,14,27,8,38-8.74,14.56-26.5,12.15-39.75,3.58,8.46,9.15,23,12.73,35.25,6.92a30,30,0,0,0,17-27C605.65,695,595.41,685,585.73,681Z"/><path class="cls-1" d="M809.23,716.45a135.45,135.45,0,0,1-16.77-1.67,18.68,18.68,0,0,0,5.27,6.17c12,8,38,4,50-14a84.66,84.66,0,0,0,5.95-11.28c-2,.77-4.62.86-6.45,1.78C835.23,707.45,824.23,717.45,809.23,716.45Z"/><path class="cls-7" d="M888.47,586c.83-3.86,1.77-8.19,2.78-12.82-6.94-2.63-16.48-1.85-23-5.77C868.85,579.91,878,585.38,888.47,586Z"/><path class="cls-2" d="M936.73,372c-13-6-25,4-31,16s-20,56-25,71l-9,27s-27,72-53,96-38,65-39,76c-.84,9.27,4,42,12.73,56.83a135.45,135.45,0,0,0,16.77,1.67c15,1,26-9,38-19,1.83-.92,4.48-1,6.45-1.78,12.22-26.78,28.65-80.56,32.05-96.72.64-3,1.58-7.51,2.74-12.91-10.45-.66-19.62-6.13-20.24-18.59,6.54,3.92,16.08,3.14,23,5.77,6.42-29.42,15.85-70.74,19.48-77.27,5-9,23-51,26-62S949.73,378,936.73,372Z"/><path class="cls-2" d="M868.23,537.45c-3,13-2,32,14,36,13,2.29,22.5-3.62,29.38-12.79A45.05,45.05,0,0,0,914.73,544c0-15.9-13.81-28.82-31.64-29C873.93,519.17,870.15,527.84,868.23,537.45Z"/><path class="cls-1" d="M882.23,573.45c-16-4-17-23-14-36,1.92-9.61,5.7-18.28,14.86-22.5h-.36c-18,0-21,29-21,29,2,31,11,33,28,33,10.92,0,18.12-7,21.88-16.29C904.73,569.83,895.24,575.74,882.23,573.45Z"/><g id="Forma_4" data-name="Forma 4"><path class="cls-8" d="M122.15,269.3c-1,7.5-3.13,14.47-6.18,18.54,1.2.51,2.09,3,2.27,5.64a19.07,19.07,0,0,1-.94,7.21,8.36,8.36,0,0,0,5-4.07c-1.19,8.77-5.32,14.12-9.81,16.83-7,4.21-15.14,3.66-22.63.13A24.31,24.31,0,0,1,81,306.86a26.13,26.13,0,0,1-5.28-12.48,32.1,32.1,0,0,1,1.34-14.72c2.55-7.43,7.49-11.56,10.61-19.27a16.39,16.39,0,0,0,1.24-4.75c.15-1.75-.14-3.69-.92-4.54-1.18-1.28-2.82.41-3.66,2.56s-1.26,4.73-2.08,6.81a16.52,16.52,0,0,1-3.09,4.77c-1.55,1.79-3.13,3.45-4.71,5-.31.31-.66.62-1,.54s-.65-.75-.45-1.25a25.54,25.54,0,0,0,1.57-7.64c.26-4.74,2.12-9,4.19-12.82A25.35,25.35,0,0,1,83.89,242c2-1.69,4.39-2.28,6.24-.66,2.59,2.25,3.53,8.36,3.05,13.88A49.89,49.89,0,0,1,89.34,270c-1.77,4.26-3.75,8.05-5.36,12.33a9.84,9.84,0,0,0-.76,3.36c0,1.21.54,2.48,1.19,2.28s.94-1.42,1.18-2.5a64.72,64.72,0,0,1,3.87-12.35c3.1-6.68,7.69-10.39,12.21-11.79s9-.79,13.56-1c2.74-.14,5.79-.93,8-5.24-1.52,7.78-3.87,15.07-6.88,20.2a15.83,15.83,0,0,0,5.79-6"/></g><path class="cls-9" d="M106.76,302.92c-.5.94-1.18,1.46-1.87,1.42,2-2.48,2.9-8.15,2.13-12.86-.13-.78-.62-.9-1-.87a13.84,13.84,0,0,0-6.41,2.5,8.73,8.73,0,0,0-1.34,1.07,14.64,14.64,0,0,0-3.41,7c-.12.51-.26,1.1-.54,1.18a2.79,2.79,0,0,1,.41-2.13,18.42,18.42,0,0,0,1.68-8.7,11.13,11.13,0,0,0-.84-4.33,3.43,3.43,0,0,0-1.42-1.49,2.64,2.64,0,0,0-3.4.62A8.54,8.54,0,0,0,89,291.94a17.84,17.84,0,0,1,.06,2.63c-.07.66-.28,1.23-.38,1.87s0,1.48.3,1.72a.47.47,0,0,0,.44,0A9.86,9.86,0,0,0,93,296.13a22.84,22.84,0,0,0-3.08,7,15,15,0,0,0-.48,2.5,9.93,9.93,0,0,0,2.21,7.25,8,8,0,0,0,4.69,2.25c1.1.22,2.21.42,3.31.61a5.28,5.28,0,0,0,3.1-.1,7.34,7.34,0,0,0,2.93-3.26,10.8,10.8,0,0,0,.91-2.11A25.54,25.54,0,0,0,107,303a.81.81,0,0,0,0-.15C107,302.64,106.83,302.78,106.76,302.92Z"/></svg>