<svg id="Capa_1" data-name="Capa 1" xmlns="http://www.w3.org/2000/svg" viewBox="0 0 1000 1000"><defs><style>.cls-1{fill:#b79b6d;}.cls-2{fill:#c6a875;}.cls-3{fill:#fac671;}.cls-4{fill:#e7b869;}.cls-5{fill:#f08;}.cls-6{fill:#e2915b;}.cls-7{fill:#3d5c62;}.cls-8{fill:#44676d;}.cls-9{fill:#fff;}.cls-10{fill:#ff9d60;}.cls-11{fill:#ff7e22;}.cls-12{fill:#dd7429;}.cls-13{fill:#0d6ffa;}</style></defs><path class="cls-1" d="M272.93,475.6a.31.31,0,0,0,.11-.09l0-.31C273,475.43,273,475.59,272.93,475.6Z"/><path class="cls-1" d="M316.15,625.66c.19.27.39.53.58.79l-.47-.64Z"/><path class="cls-1" d="M316.15,625.66c-.45-.59-.89-1.19-1.33-1.78C314.79,623.85,315.51,624.84,316.15,625.66Z"/><path class="cls-1" d="M273.13,474.58l-.06.62c.11-.49.25-1.36.37-2.28C273.38,472.73,273.25,473.06,273.13,474.58Z"/><path class="cls-1" d="M702.28,601.11l-1.13,1.49C701.6,602,702.17,601.27,702.28,601.11Z"/><path class="cls-1" d="M700.27,603.77l.88-1.17-.16.2Z"/><path class="cls-1" d="M305.62,395.32c-1.72,2.1-.86,1.07,0,0Z"/><path class="cls-1" d="M456.72,706.88h0Z"/><path class="cls-1" d="M562.8,441.4c0-.38,0-.86,0-1.33-.15-1-.41-2-.54-2.73A153.21,153.21,0,0,0,558,419.56q-1.47-4.8-3.24-9.5c-.28-.75-.57-1.69-.92-2.56-.23-.4-.45-.8-.6-1.11-.69-1.39-1.37-2.78-2.07-4.16-.07,20.34-1,40.67-4.63,61.27-9,46-49,70-93,82-7,2-16,8-18,17-.81,4.88,1,10.42,5.49,12.85,2-12.52,14.13-22.26,26.73-22.37,3.5,0,7-.15,10.49-.44.74-.06,1.74-.09,2.69-.18.49-.14,1-.27,1.39-.34A123.08,123.08,0,0,0,499,547.81c1.91-.63,3.77-1.37,5.67-2l.1,0c2.5-1.47,5.33-2.52,7.89-3.91A135.9,135.9,0,0,0,526,533.39c-1.62,1.08,3.85-3.16,5.24-4.42q3.27-3,6.32-6.18c2-2.14,3.93-4.4,5.88-6.62,1.21-1.73,1.48-2,1.32-1.8l.41-.57a122.22,122.22,0,0,0,10-17c.25-.53.66-1.26,1-2,.06-.24.13-.48.2-.7,1.11-3.17,2.28-6.29,3.22-9.52s1.77-6.53,2.45-9.84c.27-1.34.48-2.69.75-4l0-.23a174.36,174.36,0,0,0,.67-17.56Q563.39,447.13,562.8,441.4Z"/><path class="cls-1" d="M412,278.12c58.9-7.35,119.88,13.48,159.46,58.44A190,190,0,0,1,613,416.45c-.15-22.29-4.51-44.1-18.5-62.95-13-19-29-34-44-51-57-67-151-46-220-14-48,23-89,61-103,114-3.3,13.21-3.27,26.12-2.58,39.06a208.46,208.46,0,0,1,36.17-76.23C298,316.64,351.35,285.68,412,278.12Z"/><path class="cls-2" d="M500,132.5C297,132.5,132.5,297,132.5,500a366.46,366.46,0,0,0,27.63,140c5.12,8.13,8.93,16.12,14.37,22.46,20,25,35,50,56,73,8,8,16,14,23,22,22,21,44,37,70,55,27,19,57,21,88,27,63,14,124,14,189,2,3,0,9-3,14-6,5-5,12-7,19-9,10-3,15-12,23-16,37-18,75-32,104-63,29-30,52-62,65-103,8-24.59,19.94-47.22,34.11-68.44A368.63,368.63,0,0,0,867.5,500C867.5,297,703,132.5,500,132.5Zm312,303a351,351,0,0,1-3.54,46.7c-15.12,110.05-89.68,208.33-191.69,252.45C562,758.36,501.81,767.82,442.54,759c-55.62-8.31-108.34-36-147.72-76.05-61.28-62.29-90.66-157.29-69.9-241.35-.69-12.94-.72-25.85,2.58-39.06,14-53,55-91,103-114,69-32,163-53,220,14,15,17,31,32,44,51,14,18.85,18.35,40.66,18.5,62.95,7.21,29.74,6.79,61.1-3.82,90.08C587.35,566.16,531.5,606.44,467.72,607c-15.13.13-26.35-12.47-27-27a22.92,22.92,0,0,1,.27-4.63c-4.47-2.43-6.3-8-5.49-12.85,2-9,11-15,18-17,44-12,84-36,93-82,3.6-20.6,4.56-40.93,4.63-61.27-1.83-3.63-3.71-7.23-5.82-10.73q-2.8-4.65-5.94-9.08c-.72-1-1.48-2.05-2.22-3.07a.43.43,0,0,1-.09-.1c-3.82-4.51-7.7-8.92-11.94-13.05q-3.52-3.43-7.25-6.63c-1-.86-2-1.67-3-2.53l-.1-.09c-4.7-2.93-9.06-6.36-13.85-9.17q-4.71-2.75-9.6-5.16c-1.62-.8-9.62-5.3-3.53-1.78-5-2.88-11.61-4.3-17.11-5.82q-4.91-1.35-9.88-2.36c-1.34-.28-2.68-.53-4-.77l-2-.32-3.07-.38c-1.38-.13-2.77-.24-4.15-.34-3.15-.21-6.31-.32-9.46-.34a192,192,0,0,0-19.92.9c-.79.08-1.93.1-2.94.23-.41.1-.81.19-1.15.25-3,.48-6.06,1-9.07,1.65a190,190,0,0,0-18.62,4.86q-4.31,1.35-8.55,2.92c-1.25.46-2.49,1-3.74,1.42l-.39.14c-10.92,5.34-21.56,10.65-31.62,17.56-1.63,1.11-3.21,2.28-4.83,3.42l-.52.37c-1.88,1.5-3.74,3-5.57,4.58q-6.7,5.76-12.88,12.12c-4.24,4.37-8.21,9-12.06,13.68-.86,1.18-1.73,2.34-2.57,3.52q-2.56,3.63-5,7.36-5.09,7.9-9.37,16.29c-1.36,2.65-2.65,5.33-3.89,8.05-.3.67-.63,1.36-.94,2.05s-.43,1.21-.58,1.62a199.67,199.67,0,0,0-10,36c0,.21-.23,1.88-.45,3.41a4.16,4.16,0,0,1-.4,2.59c-.24,2.81-.53,5.6-.69,8.41-.27,4.45-.36,8.9-.33,13.35,11.7,38.83,25.78,77.37,52.48,109.23,21,26,46,45,71,67,19,18,46,22,71,30,7.08,1.93,14.06,3.57,21,5,3.73,0,7.46-.12,11.18-.29,6.58-.29,13.16-.8,19.7-1.53l1-.1s3.82-.5,4.08-.54c2.69-.41,5.39-.86,8.07-1.35a297.24,297.24,0,0,0,37.31-9.26q8.58-2.73,17-6c1.48-.57,11.63-3.94,4.61-1.81a57.32,57.32,0,0,0,7.25-3.25,300.82,300.82,0,0,0,33-17.92q7.5-4.71,14.71-9.85c2-1.45,4-2.92,6-4.41-.46.33,2.74-2.14,4.14-3.29a301.24,301.24,0,0,0,27.34-25.28c1-1,1.89-2,2.84-3.06,3.77-5.85,8.2-9.65,11.82-15.07,3-5,4-10,8-14,14-16,19-35,21-56,4-35-3-71,10-105,10-25,39-47,65-38,14,4.93,12.41,20.65,9.19,35A25.49,25.49,0,0,1,812,435.5Z"/><path class="cls-1" d="M395.5,673.5c-25-22-50-41-71-67-26.7-31.86-40.78-70.4-52.48-109.23q0,2.81.09,5.61.3,9.89,1.4,19.73c.08.67.15,1.35.22,2s.27,1.49.35,2q.74,4.54,1.63,9.05a238.45,238.45,0,0,0,10.15,35.85c.69,1.88,1.43,3.73,2.15,5.59.14.39.32.93.49,1.45.78,2,1.84,3.89,2.73,5.78q3.81,8,8.21,15.8,4.86,8.57,10.41,16.71,2.22,3.25,4.54,6.43c.14.19.29.38.43.58,0,0,.41.54,1.44,1.93l.47.6a263.56,263.56,0,0,0,24.73,26.49c4.21,3.89,8.59,7.6,13.06,11.19.17.1,2.94,2.21,4.27,3.17q3.6,2.6,7.29,5a240,240,0,0,0,31.86,17.82c1.12.52,2.34,1.15,3.55,1.69l.95.32c3.11,1.2,6.2,2.43,9.33,3.54q8.06,2.87,16.28,5.14,9.29,2.57,18.76,4.38c3.05.59,6.78,1.7,9.91,1.7-1.17-.06-5.69-.68-.88-.13,1.37.15,2.74.32,4.11.46a250.73,250.73,0,0,0,27.54,1.27c-6.93-1.41-13.91-3.05-21-5C441.5,695.5,414.5,691.5,395.5,673.5Z"/><path class="cls-1" d="M801.5,392.5c-26-9-55,13-65,38-13,34-6,70-10,105-2,21-7,40-21,56-4,4-5,9-8,14-3.62,5.42-8,9.22-11.82,15.07,3.06-3.29,6.06-6.62,9-10,2.12-2.5,4.16-5,6.23-7.58l.11-.15c1.11-1.47,1.39-1.84,1.29-1.69l.36-.48A301.14,301.14,0,0,0,723,569.3q4.38-7.75,8.3-15.75,2.17-4.45,4.21-9c.29-.65.65-1.35,1-2a6.06,6.06,0,0,1,.23-.65,321.14,321.14,0,0,0,12.13-36.08c2.94-11,5.68-22.42,7-33.78.09-1,.23-2.49.3-3.15.19-1.71.37-3.43.53-5.15q.43-4.65.72-9.33c.4-6.29.57-12.59.59-18.89,0-15.14,12.33-26.34,27-27,11.73-.53,22.13,8.18,25.69,19C813.91,413.15,815.46,397.43,801.5,392.5Z"/><path class="cls-1" d="M825.5,644.5c-13,41-36,73-65,103-29,31-67,45-104,63-8,4-13,13-23,16-7,2-14,4-19,9-5,3-11,6-14,6-65,12-126,12-189-2-31-6-61-8-88-27-26-18-48-34-70-55-7-8-15-14-23-22-21-23-36-48-56-73-5.44-6.34-9.25-14.33-14.37-22.46C215.19,773.54,346.62,867.5,500,867.5c176.89,0,324.58-125,359.61-291.44C845.44,597.28,833.51,619.91,825.5,644.5Z"/><path class="cls-1" d="M543.45,516.17l-.58.82.72-1-.14.17Z"/><path class="cls-1" d="M544.77,514.37c-.39.54-.78,1.09-1.18,1.63A18.08,18.08,0,0,0,544.77,514.37Z"/><path class="cls-3" d="M447.1,630.25c26.4,9.9,59.4,17.6,80.3-3.3,20.1-20.1,29.71-44.56,35.18-70.64a81,81,0,0,0-79.73-67.79c-44.65,0-80.85,36.37-80.85,81.23,0,2.12.11,4.22.27,6.3,4.46,7.07,7.63,14.13,12.93,21.2C425.1,610.45,432.8,624.75,447.1,630.25Z"/><path class="cls-4" d="M527.4,627c-20.9,20.9-53.9,13.2-80.3,3.3-14.3-5.5-22-19.8-31.9-33-5.3-7.07-8.47-14.13-12.93-21.2,3.2,41.92,38,74.93,80.58,74.93,44.65,0,80.85-36.37,80.85-81.23a82.63,82.63,0,0,0-1.12-13.44C557.11,582.39,547.5,606.85,527.4,627Z"/><path class="cls-5" d="M448.16,577.15c12.18,0,22-3.83,22-8.55s-9.87-8.55-22-8.55-19.34,2.7-19.34,8.55C428.82,576.25,436,577.15,448.16,577.15Z"/><path class="cls-5" d="M484.38,554.42c4.72,0,8.55-9.87,8.55-22S492,513,484.38,513c-5.84,0-8.54,7.17-8.54,19.34S479.66,554.42,484.38,554.42Z"/><path class="cls-5" d="M519.83,576.38c12.18,0,19.35-2.7,19.35-8.55,0-7.64-7.17-8.54-19.35-8.54s-22,3.82-22,8.54S507.66,576.38,519.83,576.38Z"/><path class="cls-5" d="M483.62,623.39c5.84,0,8.54-7.16,8.54-19.34s-3.82-22-8.54-22-8.55,9.87-8.55,22S476,623.39,483.62,623.39Z"/><path class="cls-5" d="M452,550.2c9,8.18,18.91,12,22.08,8.47s-1.58-13-10.6-21.13-14.93-12.33-20.07-6.66C439.44,535.21,442.94,542,452,550.2Z"/><path class="cls-5" d="M466.55,600.77c8.18-9,12-18.9,8.47-22.07s-13,1.57-21.13,10.59-11,16.14-6.66,20.07C452.9,614.5,458.38,609.79,466.55,600.77Z"/><path class="cls-5" d="M504.56,598.9c9,8.17,14.93,12.32,20.07,6.65,3.92-4.33.42-11.14-8.6-19.32s-18.9-12-22.07-8.47S495.54,590.72,504.56,598.9Z"/><path class="cls-5" d="M514.11,547.15c8.18-9,11-16.15,6.66-20.08-5.67-5.13-11.15-.42-19.32,8.6s-12,18.9-8.47,22.07S505.94,556.17,514.11,547.15Z"/><circle class="cls-6" cx="484" cy="568.22" r="25.29" transform="translate(-117.6 126.4) rotate(-13.28)"/><path class="cls-7" d="M313,376.25c-21.15-12.09-34-33.4-46.15-54.64,0,.61-.05,1.22-.05,1.84,0,44.86,36.2,81.23,80.85,81.23a80.43,80.43,0,0,0,58.5-25.19C378.61,394.49,339.3,391.42,313,376.25Z"/><path class="cls-8" d="M347.65,242.22c-44,0-79.83,35.38-80.8,79.39,12.15,21.24,25,42.55,46.15,54.64,26.3,15.17,65.61,18.24,93.15,3.24a81.12,81.12,0,0,0,22.35-56C428.5,278.59,392.3,242.22,347.65,242.22Z"/><path class="cls-9" d="M349.3,379.55c8.51,0,15.4,1.74,15.4-13.75s-6.89-42.35-15.4-42.35-15.4,26.86-15.4,42.35S340.79,379.55,349.3,379.55Z"/><path class="cls-9" d="M307,338.85c15.49,0,42.35-6.89,42.35-15.4s-26.86-15.4-42.35-15.4-13.75,6.89-13.75,15.4S291.46,338.85,307,338.85Z"/><path class="cls-9" d="M349.3,323.45c8.51,0,15.4-26.86,15.4-42.35s-6.89-13.75-15.4-13.75-15.4-1.74-15.4,13.75S340.79,323.45,349.3,323.45Z"/><path class="cls-9" d="M391.65,338.85c15.49,0,13.75-6.89,13.75-15.4s1.74-15.4-13.75-15.4-42.35,6.89-42.35,15.4S376.16,338.85,391.65,338.85Z"/><path class="cls-9" d="M310.86,364.31c6.19,5.83,10,11.82,20.63.54s24-35.57,17.81-41.4-29.62,9-40.24,20.29S304.66,358.48,310.86,364.31Z"/><path class="cls-9" d="M369.59,363.69c11.28,10.61,14.74,4.4,20.57-1.8s11.82-10,.54-20.63-35.57-24-41.4-17.81S358.31,353.07,369.59,363.69Z"/><path class="cls-9" d="M389.54,303.16c10.61-11.28,4.4-14.74-1.8-20.57s-10-11.82-20.63-.54-24,35.57-17.81,41.4S378.92,314.44,389.54,303.16Z"/><path class="cls-9" d="M307.9,305.64c11.29,10.62,35.57,24,41.4,17.81s-9-29.62-20.29-40.24-14.74-4.4-20.57,1.8S296.62,295,307.9,305.64Z"/><circle class="cls-10" cx="348.8" cy="321.92" r="25.29" transform="translate(-64.63 88.75) rotate(-13.28)"/><path class="cls-11" d="M721,711.65c25.3-3.3,37.4-26.4,48.4-47.3,3.77-7.55,6.27-15.58,8.7-23.6-2-43.1-37.36-77.43-80.75-77.43-43.05,0-78.23,33.8-80.7,76.43,8,19,12.7,39.7,27.35,55.4C663.8,717.15,693.5,715,721,711.65Z"/><path class="cls-12" d="M769.4,664.35c-11,20.9-23.1,44-48.4,47.3-27.5,3.3-57.2,5.5-77-16.5-14.65-15.7-19.35-36.37-27.35-55.4-.09,1.59-.15,3.19-.15,4.8,0,44.86,36.2,81.23,80.85,81.23s80.85-36.37,80.85-81.23c0-1.27,0-2.54-.1-3.8C775.67,648.77,773.17,656.8,769.4,664.35Z"/><path class="cls-13" d="M699,702c6.08,0,11,13.44,11-2.73s-4.92-55.83-11-55.83-11,39.66-11,55.83S692.92,702,699,702Z"/><path class="cls-13" d="M663.82,690.26c4.85,3.65.71,17.36,10.43,4.43S703.86,647.1,699,643.45s-32.62,25.1-42.34,38S659,686.61,663.82,690.26Z"/><path class="cls-13" d="M643.06,660.75c1.79,5.8-9.6,14.48,5.85,9.71s51.89-21.21,50.09-27-41.14,1.21-56.59,6S641.26,655,643.06,660.75Z"/><path class="cls-13" d="M643,633.38c15.06,5.89,53.8,15.73,56,10.07s-32.94-24.68-48-30.56-4.33,3.6-6.54,9.26S627.93,627.5,643,633.38Z"/><path class="cls-13" d="M699,643.45c5.18-3.18-11.4-39.55-19.86-53.33s-5.62.26-10.8,3.44-16.41-5.69-8,8.08S693.82,646.63,699,643.45Z"/><path class="cls-13" d="M699,643.45c6.06.49,14.18-38.64,15.49-54.76s-4.69-3.11-10.74-3.6-9.88-14.3-11.19,1.82S692.94,643,699,643.45Z"/><path class="cls-13" d="M743.1,607.49c10.32-12.45-2.05-5.24-6.73-9.12s.11-17.37-10.21-4.92-31.84,46.12-27.16,50S732.78,619.94,743.1,607.49Z"/><path class="cls-13" d="M755.85,641c15.71-3.82,1.48-5.43,0-11.33s10.47-13.86-5.25-10-53.08,18-51.65,23.88S740.14,644.77,755.85,641Z"/><path class="cls-13" d="M746,675.52c14.87,6.36,4.44-3.46,6.83-9s16.69-4.83,1.82-11.19S701.39,637.86,699,643.45,731.14,669.16,746,675.52Z"/><path class="cls-13" d="M731,692.51c5.09-3.31,16.56,5.27,7.73-8.28s-34.6-44.1-39.69-40.78,12.43,39.24,21.26,52.79S725.87,695.83,731,692.51Z"/><path class="cls-11" d="M698.5,660A16.94,16.94,0,1,0,681.57,643,16.93,16.93,0,0,0,698.5,660Z"/></svg>