<svg id="Capa_1" data-name="Capa 1" xmlns="http://www.w3.org/2000/svg" viewBox="0 0 1000 1000"><defs><style>.cls-1{fill:#fad15c;}.cls-2{fill:#face10;}.cls-3{fill:#fcd03e;}.cls-4{fill:#d5b450;}</style></defs><path class="cls-1" d="M447,748c-76-37-135-103-160-185-9-31.13-5.27-63.6-4.73-95.77C272.21,528.39,274.68,602.71,309,649c43,58,131,152,241,166,44,5.6,74.66,3,97.09-3H647C575,808,509,779,447,748Z"/><path class="cls-2" d="M349,426c4,14,6,26,10,40,1,4,3,7,4,11,9,45,24,84,46,123,27,47,76,73,125,97,8,4,16,12,25,15,16,5,31,14,47,15,53.8,3.64,107.07,3,160.58,2.06.95-8.87,1.07-29.92-18.58-33.06-25-4-122.5-13.5-142.5-22.5s-98-63-113-87-54-81-56-101-9-173-13-176,41-64,46-66-4-24-44.5-33.5c0,0-34,78-38,80-1.65.82-14.87,12.71-31.17,30.95C347.67,355,340.73,389.23,349,426Z"/><path class="cls-3" d="M606,727c-16-1-31-10-47-15-9-3-17-11-25-15-49-24-98-50-125-97-22-39-37-78-46-123-1-4-3-7-4-11-4-14-6-26-10-40-8.27-36.77-1.33-71,6.83-105-23.21,26-52.67,64.86-63.83,103.05a368.74,368.74,0,0,0-9.73,43.23C281.73,499.4,278,531.87,287,563c25,82,84,148,160,185,62,31,128,60,200,64h.09c33.68-9.07,48.7-26,61.91-35,22-15,57-44,57-44s.32-1.52.58-3.94C713.07,730,659.8,730.64,606,727Z"/><path class="cls-4" d="M425,210s9,15,19,20,26.49,14.59,26.75,11.3-8.09-15.44-15.92-19.37S425,210,425,210Z"/><path class="cls-4" d="M753.36,697.47s10.42,4.61,11.53,12.57S772,729,767,733s-18.23,14-18.23,14S741,731,741,723,753.36,697.47,753.36,697.47Z"/></svg>