<svg id="Capa_1" data-name="Capa 1" xmlns="http://www.w3.org/2000/svg" viewBox="0 0 1000 1000"><defs><style>.cls-1{fill:#684f20;}.cls-2{fill:#725824;}.cls-3{fill:#391e04;}</style></defs><path class="cls-1" d="M315.73,714.12c-7.06-8.06-6.54-18.65-6.88-29a96,96,0,0,1-3.44,9.92c-1.49,14.88,20.83,36.45,39.43,37.2,12.36-3,19.12-9,23.66-16.41C350.78,724.2,331.62,731,315.73,714.12Z"/><path class="cls-1" d="M842.16,725c-14,8.16-30.23-2.81-43.29-13.36.16,1.23.34,2.42.57,3.53,15.18,25.11,67.14,40.55,68.45-3,2.07-10.6,1.79-24.06.36-38.31C865.59,694.51,861.23,714,842.16,725Z"/><path class="cls-1" d="M868.72,359.14c-6-16.09-23.8-23-36.55-35.3,6.09,16.21,25.65,43.38,27.54,56.51a35.8,35.8,0,0,1,0,16.64C868.89,386,873.61,373.21,868.72,359.14Z"/><path class="cls-1" d="M237.25,407.44c-13.29-3.62-26.57-2.42-39.85-6-17.74-4.17-35.48-4.75-52.45-10.29a128.42,128.42,0,0,0,16.12,12.31c33.38,27.29,113.08-5,125,49.85,7.44,18.6,13.39,92.26,13.38,101.93.64,2.88,1.31,5.87,2,8.95.69-30.45,3.4-60.71,3.4-91.51C306.07,432.79,271.05,415.89,237.25,407.44Z"/><path class="cls-1" d="M144.27,356.73c-1.2-2.42,1.21-6,0-7.25-9.05-6.33-20.14-7.24-29.7-11.37-.35,8.14,2.51,16.87,7.36,25.4l.61.46C131,368.8,137,359.14,144.27,356.73Z"/><path class="cls-1" d="M265.21,272c-22.61,12.18-46.27,30.43-67.63,36,12.27,0,24.36-1.59,34.84-8C245.21,292.73,255.89,283.06,265.21,272Z"/><path class="cls-2" d="M855.7,570c-1.59-14.91.55-30.18,2.15-45.44,7.67-52.72,20.66-102.4,32.34-153.26-5.38-22.39-18.83-42.45-45.36-58.66-15-4.95-16.52.91-12.66,11.2,12.75,12.32,30.51,19.21,36.55,35.3,4.89,14.07.17,26.89-9,37.85-2.6,12.5-10,25.76-17.17,36.95-56.91,41.21-215.09,65.8-324,40.37-20.41,5.08-41.61,6-64.05-.46-24.15-6-51.92-16.91-58-44.68-5-25.82,13.76-43.47,30-60.35,13.1-68-50.62-111.65-125.64-108.25-11.23-.1-23.33,4.75-35.74,11.43-9.32,11.06-20,20.73-32.79,28-10.48,6.45-22.57,8-34.84,8a49.59,49.59,0,0,1-10.47,1.65c-14.88,3-43.15-.74-56.55,3.72-10.88,6.64-15.59,15.29-16,24.72,9.56,4.13,20.65,5,29.7,11.37,1.21,1.21-1.2,4.83,0,7.25C137,359.14,131,368.8,122.54,364l-.61-.46c5.62,9.87,13.91,19.47,23,27.6,17,5.54,34.71,6.12,52.45,10.29,13.28,3.62,26.56,2.42,39.85,6,33.8,8.45,68.82,25.35,67.61,65.2,0,30.8-2.71,61.06-3.4,91.51,7.94,35.24,18.46,82.76,7.39,121,.34,10.31-.18,20.9,6.88,29,15.89,16.89,35,10.08,52.77,1.75,8.15-13.38,9.09-31.44,22.17-45,1.39-7.63,10.63-12.25,18-12.25,55.54,1.21,109.87,19.32,165.41,14.49,68.83-7.25,135.23-26.56,204.06-22.94-68.83-3.62-135.23,15.69-204.06,22.94-55.54,4.83-109.87-13.28-165.41-14.49-7.4,0-16.64,4.62-18,12.25.34-.35.69-.71,1.05-1.06,53-9.19,108.28,21.26,168.89,13.4,60.25,3.36,166.48-32.49,219.49-32,22,6.8,16.28,40.6,18.77,60.45,13.06,10.55,29.3,21.52,43.29,13.36,19.07-11,23.43-30.48,26.09-51.11-2.26-22.44-7.39-46.84-10.78-65.11C854.65,596.57,854.36,583.55,855.7,570Z"/><path class="cls-1" d="M396.62,429.17c6,27.77,33.81,38.64,58,44.68,22.44,6.47,43.64,5.54,64.05.46C468.19,462.52,428.33,440,414,403.42a125.46,125.46,0,0,0,12.55-34.6C410.38,385.7,391.66,403.35,396.62,429.17Z"/><path class="cls-1" d="M890.19,371.3c-11.68,50.86-24.67,100.54-32.34,153.26-1.6,15.26-3.74,30.53-2.15,45.44C862,506.26,904.43,430.61,890.19,371.3Z"/><path class="cls-3" d="M344.1,268.75c-6,30.43-32.65,230.72,52.83,128.72C461.36,326.86,395,297.47,344.1,268.75Z"/><path d="M280,342.49c-12.84,0-14.23-8.2-14.29-8.56l5.93-.9v-.1c0,.16,1,4.05,10,3.51,11.74-.72,12.45-2,13.73-4.39l5.28,2.86c-2.89,5.3-6.54,6.78-18.64,7.52Q280.92,342.49,280,342.49Z"/><path class="cls-3" d="M144.91,315.18s-24.34-13-30.82-8.11-9.68,26.75-4.84,34.46,21.06,14.2,27.55,7.71S144.91,315.18,144.91,315.18Z"/></svg>