<svg id="Layer_1" data-name="Layer 1" xmlns="http://www.w3.org/2000/svg" viewBox="0 0 1261.8 1261.8"><defs><style>.cls-1{fill:#f2a885;}.cls-2{fill:#eab186;}.cls-3{fill:#1a1a1a;}.cls-4{fill:#ababab;}.cls-5{fill:#d1d1d3;}.cls-6{fill:#f8bd8c;}.cls-7{fill:#999;}.cls-8{fill:#333;}</style></defs><rect class="cls-1" width="1261.8" height="1261.8"/><path class="cls-2" d="M775.18,1117.51s21,6.24,25.12,7.14c0,0-7.19,29.6-21.93,36.83l-.35.17Z"/><path class="cls-3" d="M757.06,644.36s5.47-4.18,12.48,2c37.36,32.86,33.77,90,33.25,104.69s12.9,68.18,20,88.25,15.61,32,20.84,66.92,0,104,.58,112.56,7.43,49.87,11,61.21c2.68,8.47-.41,34.22-9.72,38.36s-15.36,9.54-49.61,5.3-25.48-15.6-26-31.42-5.54-29.93-5.69-37-1.51-20.33-1.45-38,1.29-10.82-2.17-27.93-28.3-103.71-19.3-125-24.7-92.8-24.15-98.19-8.13-54.36-8.13-54.36,7.38-23.05,19.14-39.51,27.31-25.58,29-27.84Z"/><path class="cls-4" d="M628.73,944.39v65.16l-1.4,65.83-.22,10.06v0L623.24,1267H466.42l15.3-184.64,1.7-20.48.46-5.62.84-10.06h0l3.26-39.36L491.12,969l2-24.56Z"/><path class="cls-4" d="M788.22,1267H631.41l-3.95-184.79s0,0,0,0l-.13-6.77-1.41-65.83V944.39H761.49l8,96h0l1.11,13.45.12,1.49v0l.73,8.67h0l4.44,53.66.06.66,3.52,42.54Z"/><path class="cls-5" d="M474,571.46s-8.87-55.52,12.8-84,14.77-53,14.77-66.22,3.94-55,22.65-70.3,26.59-48.9,87.65-36.67c0,0,15.76-9.17,56.14-4.08s57.11,58.07,59.08,69.28,5.91,34.63,15.76,45.84,19.7,36.68,12.8,62.15-7.21,30.56,2.31,54,4.59,30.05,4.59,30.05S647.35,618.84,474,571.46Z"/><polygon class="cls-6" points="672.46 614.25 576.33 614.25 586.11 547.16 586.78 542.67 588.14 533.26 660.64 533.26 662.18 543.84 665.01 563.22 672.46 614.25"/><path class="cls-2" d="M665,563.22c-5.45,7.15-13.53,13.19-24.08,14.21-21.9,2.13-43.26-17.8-54.82-30.27l.67-4.49c1,.39,2.09.79,3.34,1.19,8.87,2.88,22.43,5.87,40.47,5.85,13.07,0,23.06-2.72,30.28-5.85l1.31,0Z"/><ellipse class="cls-6" cx="621.13" cy="446.78" rx="82" ry="110.93"/><path class="cls-6" d="M564.25,466.18c4.24,11.5.57,23.63-8.2,27.09s-19.31-3.07-23.55-14.57-.57-23.62,8.2-27.08S560,454.68,564.25,466.18Z"/><path class="cls-6" d="M689,466.19c-4.23,11.5-.55,23.63,8.22,27.08s19.3-3.07,23.54-14.57.55-23.63-8.22-27.08S693.27,454.69,689,466.19Z"/><path class="cls-3" d="M564.53,425.1a4.44,4.44,0,0,1-4.08-2.8,4.64,4.64,0,0,1,2.35-6c21.3-9.34,37.48-.64,38.16-.27a4.68,4.68,0,0,1,1.83,6.21,4.37,4.37,0,0,1-6,1.9c-.61-.34-13.35-6.94-30.54.61A4.4,4.4,0,0,1,564.53,425.1Z"/><path class="cls-3" d="M643.23,425.1a4.42,4.42,0,0,1-4.08-2.8,4.64,4.64,0,0,1,2.35-6c21.29-9.34,37.47-.64,38.16-.27a4.69,4.69,0,0,1,1.83,6.21,4.36,4.36,0,0,1-6,1.9c-.62-.34-13.35-6.94-30.54.61A4.47,4.47,0,0,1,643.23,425.1Z"/><path class="cls-3" d="M588.14,448.93c0,5.23-3.24,9.47-7.23,9.47s-7.23-4.24-7.23-9.47,3.24-9.46,7.23-9.46S588.14,443.71,588.14,448.93Z"/><path class="cls-3" d="M667.87,448.93c0,5.23-3.24,9.47-7.23,9.47s-7.23-4.24-7.23-9.47,3.24-9.46,7.23-9.46S667.87,443.71,667.87,448.93Z"/><path class="cls-5" d="M611.9,345.81s-48.25,68.92-55.15,104.75-46.28,24.63-50.22,25.65,23.63-114.1,23.63-114.1l81.74-35.66Z"/><path class="cls-5" d="M611.9,322v23.82a281.52,281.52,0,0,0,40.61,62.65c17.2,19.94,38.68,37.33,59.71,52.75,3.57,2.63,8.81,5.48,12.1,8.41-3-17.43-8.35-34.81-11.65-52.17-3-15.61-4.87-32.21-9.67-47.7C701.52,367.46,611.9,322,611.9,322Z"/><path class="cls-3" d="M570.75,567.48s-4.46,8.77-4.46,17.07,7.14,30.45-11.59,31.37-80.22,41.53-96.3,53.52-11.62,37.83-11.62,37.83,33,334.24,38.35,339.77,82.28-74,111-70.58,19.62,9.92,31.22,9,16.05-10.15,19.62-9.68,15.61,2.76,21.41,6.92,28.09-2.31,43.25,11.53,75.82,60,75.82,60,8-65.51-5.35-85.81,5.35-199.29,0-205.75-9.81-114.41-9.81-114.41S715.91,618,697.85,617.31,684.47,573,684.47,573Z"/><path class="cls-3" d="M621.1,523.31A37.08,37.08,0,0,1,608.34,521a1,1,0,0,1,.69-1.88c12.58,4.61,26,1.77,32.61-6.93a1,1,0,1,1,1.59,1.21C638.35,519.82,630.1,523.31,621.1,523.31Z"/><path class="cls-3" d="M698.74,522.42h-.61a14.27,14.27,0,0,1-12-7.18.75.75,0,1,1,1.29-.75,12.82,12.82,0,0,0,10.79,6.43A14,14,0,0,0,710.27,515c4.05-5.85,4.67-14.52,1.48-20.61a11.42,11.42,0,0,0-10.44-6.51.75.75,0,0,1,0-1.5h0a12.86,12.86,0,0,1,11.77,7.31c3.43,6.56,2.77,15.88-1.58,22.17A15.59,15.59,0,0,1,698.74,522.42Z"/><path class="cls-3" d="M543.27,522.42a15.59,15.59,0,0,1-12.76-6.6,19,19,0,0,1-.78-19.47c2.95-5.63,8.22-9,14.1-9h0a.75.75,0,0,1,0,1.5c-5.39,0-10.05,3-12.78,8.19-3.06,5.85-2.79,12.89.69,17.92a14,14,0,0,0,12.08,5.95,12.79,12.79,0,0,0,10.78-6.43.76.76,0,0,1,1-.28.75.75,0,0,1,.27,1,14.27,14.27,0,0,1-12,7.18Z"/><path class="cls-3" d="M621.64,482.13h-1.2a7.33,7.33,0,0,1-7.2-7.45V453a1.2,1.2,0,1,1,2.4,0v20.49a6.11,6.11,0,0,0,6,6.21h0a1.24,1.24,0,0,1,0,2.48Z"/><path class="cls-6" d="M583.91,1029l-43.16-26.22,3-8.82c2.15-3.08,4.56-6.65,1.78-9.29a10,10,0,0,0-11.16-1.47l-48.24,24.53-34.11,27.91c22.16,21.85,38.53,23.53,48.51,21,1,.46,2.08.93,3.15,1.35l37,14.27a8,8,0,0,0,9.9-1.92c1.59-2.06,2.57-5.56-4.34-9.75l6.91,4.19a8.32,8.32,0,0,0,10.39-2.13c2.09-2.7.64-6.76-3.33-9.76l5.37,2.62c3.87,2,9,.84,11.09-2.82,1.83-3.17.39-7.07-2.94-9.09l-7.62-4.61,8.86,1c4.27,1.92,10.1,2.63,12.2-1.33,1.79-3.42.2-7.47-3.3-9.61Z"/><path class="cls-3" d="M458.4,669.44s-94.16,89.17-102.94,102.62c-8.27,12.68-13.8,15.74-19.55,20.24s-4,8.17-23.59,40.63C297.69,857.14,288.93,897.29,299,925c10.4,28.7,38.13,48.3,63.82,62.29,27.85,15.16,33.17,20.07,55.39,33.59S446.26,1037,458.4,1050c7.25,7.75,24.48,11.44,34.87,14.81,4.57,1.48,10.17-3.64,11.52-8.39L524.93,988s-17.4-43-52.24-60.47c-19.87-10-43.08-20.37-54.43-30.39C409,889,442.4,871.73,449.31,865.77,455,860.86,477.05,841,481,839.69s15.69-57.82,15.69-58.66S458.4,669.44,458.4,669.44Z"/><path class="cls-7" d="M622.17,1203.32h-.06a2,2,0,0,1-1.94-2.06c.12-4.49,3-110.08,5.81-122.38,3.18-14,28.49-40.32,29.57-41.44a2,2,0,1,1,2.88,2.78c-.26.27-25.62,26.65-28.55,39.55-2.71,11.91-5.69,120.51-5.71,121.6A2,2,0,0,1,622.17,1203.32Z"/><path class="cls-8" d="M463.74,856.19a2,2,0,0,1-1.25-3.57,151.45,151.45,0,0,0,31.15-33.74c1.53-2.24,3-4.9,4.55-7.7,3.64-6.59,7.41-13.41,12.95-16.83a2,2,0,0,1,2.1,3.4c-4.65,2.87-8.16,9.22-11.55,15.36-1.6,2.89-3.11,5.62-4.74,8a155.55,155.55,0,0,1-32,34.63A2,2,0,0,1,463.74,856.19Z"/><path class="cls-8" d="M524.56,964.28a2,2,0,0,1-1.8-1.12h0c-.06-.13-6.12-12.33-19.39-18C489,939,484.86,935,484.69,934.78a2,2,0,0,1,2.83-2.83s4,3.77,17.42,9.52a45.16,45.16,0,0,1,21.42,19.94,2,2,0,0,1-.93,2.67A1.94,1.94,0,0,1,524.56,964.28Z"/><path class="cls-8" d="M772.29,1009.62a2,2,0,0,1-.47-.06,2,2,0,0,1-1.47-2.42c0-.1,2.44-10.53-.84-29.58l-.7-4c-1.78-10.23-1.85-10.63-.69-16,.46-2.13,1.09-5,1.86-10,2.76-17.7-13.27-79.78-13.43-80.4a2,2,0,1,1,3.87-1c.67,2.59,16.4,63.52,13.51,82-.79,5.07-1.43,8-1.9,10.22-1,4.61-1,4.61.72,14.47l.7,4.06c3.43,20,.89,30.76.79,31.21A2,2,0,0,1,772.29,1009.62Z"/></svg>