<svg id="Layer_1" data-name="Layer 1" xmlns="http://www.w3.org/2000/svg" viewBox="0 0 1261.8 1261.8"><defs><style>.cls-1{fill:#f2a885;}.cls-2{fill:#0b0635;}.cls-3{fill:#fcfcfc;}.cls-4{fill:#ff7c90;}.cls-5{fill:#f8bd8c;}.cls-6{fill:#eab186;}.cls-7{fill:#ccdde7;}.cls-8{fill:#dc4070;}.cls-9{font-size:21px;font-family:MyriadPro-Regular, Myriad Pro;}.cls-10{letter-spacing:-0.01em;}.cls-11{letter-spacing:-0.01em;}.cls-12{letter-spacing:-0.03em;}.cls-13{letter-spacing:-0.01em;}</style></defs><rect class="cls-1" width="1261.8" height="1261.8"/><path class="cls-2" d="M596.82,383.56s24.78-9.16,47.17,2.29c23.85,12.19,36,24.37,41.44,126.74s4.87,153.56,5.48,161.48-195,5.49-195,5.49V424.85Z"/><path class="cls-3" d="M498.06,675.06s-99.58,10.85-97.71,182.45-34.7,159.63-4.79,281.85c0,0,67.66,13.69,106.44-14l-3.94-337.52V675.06Z"/><path class="cls-4" d="M740.79,1263.73l.15-1.2H421.53c3.2-19.09,10.49-47.32,19.46-78.43.83-2.89,1.68-5.81,2.54-8.74l0-.17c3.17-10.8,6.5-21.85,9.91-32.93l.16-.54c15.5-50.39,32.44-101,41.71-128.3a0,0,0,0,0,0,0c2.19-6.43,3.95-11.55,5.15-15.07v0c1.23-3.52,1.89-5.44,1.89-5.44H710.24c.6,1.73,1.66,6.2,3.08,12.82h0c.36,1.65.73,3.43,1.13,5.34,4.11,19.78,10.44,52.84,17.12,88.63,0,0,0,0,0,0,.52,2.78,1,5.54,1.57,8.35,3,16,6,32.47,8.94,48.34.34,1.86.68,3.7,1,5.54q1.1,6,2.17,11.8l.18,1q1,5.47,2,10.78c.63,3.4,1.23,6.74,1.84,10,6.44,35.36,11.32,62.43,12.15,67l.12.69Z"/><path class="cls-3" d="M502.6,679.05s-45.16,13.12-39.07,108.05-45.13,212.64,28.63,226.32l203.21-2.52a35,35,0,0,0,34.59-35v-299l-42.6-7.39L502.6,679.05Z"/><polygon class="cls-5" points="626.93 644.82 553.4 647.04 555.92 583.89 623.27 583.89 626.93 644.82"/><path class="cls-3" d="M547,635.5H640.9a13,13,0,0,1,12.52,10.77l5.33,27.14-129.14,5,4.8-31.55A13,13,0,0,1,547,635.5Z"/><path class="cls-6" d="M624.64,606.74c-4.17,8.86-11.82,17.65-22.73,18.87-18.72,2.1-37-18.67-46-30.17-1.8-2.3-2.68-4.22-3.68-5.52a43.7,43.7,0,0,0,8.28,4.12,93.51,93.51,0,0,0,33,5.5,54.41,54.41,0,0,0,24.67-5.5l5.69-.09Z"/><path class="cls-5" d="M656.23,509.72c1.59,50.76-28.66,92.9-67.57,94.13s-71.74-38.94-73.33-89.71S544,421.24,582.9,420,654.63,459,656.23,509.72Z"/><path class="cls-5" d="M672.28,515.27c0,10.51-9.12,20.66-16.64,20.66S642,527.41,642,516.9s10-19,17.51-19S672.28,504.76,672.28,515.27Z"/><path d="M630.28,482.43a5.7,5.7,0,0,1-1.71-.27c-15.12-5-25.07-.45-25.48-.26a5.51,5.51,0,0,1-7.29-2.61,5.45,5.45,0,0,1,2.53-7.27c.56-.28,14.1-6.69,33.66-.29a5.49,5.49,0,0,1-1.71,10.7Z"/><path d="M525.2,491.12a5.48,5.48,0,0,1-3.15-10c.52-.36,12.93-8.77,33.23-5.4a5.48,5.48,0,1,1-1.79,10.82c-15.69-2.58-24.85,3.37-25.23,3.62A5.57,5.57,0,0,1,525.2,491.12Z"/><path d="M585.49,534.38H580a.91.91,0,0,1-.91-.91V512.9a.91.91,0,1,1,1.82,0v19.65h4.57a.92.92,0,1,1,0,1.83Z"/><path d="M550.76,508.44c0,4.23-2.73,7.66-6.09,7.66s-6.1-3.43-6.1-7.66,2.73-7.65,6.1-7.65S550.76,504.22,550.76,508.44Z"/><path d="M621.6,500.79c0,4.23-2.73,7.65-6.1,7.65s-6.09-3.42-6.09-7.65,2.73-7.66,6.09-7.66S621.6,496.56,621.6,500.79Z"/><path class="cls-3" d="M563.59,559.82c2.06,9.4,13.12,15.51,25.36,13.76,10.65-1.52,18.76-8.5,20.28-16.6Z"/><path class="cls-2" d="M595,381.57c19.12,38.35-27,52.13-44.52,72.88-19.1,22.69-32.31,67.48-31.28,97.3,2.81,81.37,30.32,146.59-23.34,221.07C506.94,727.59,490,693,475.92,652c-15.5-45.14-15.24-91.41-9.89-138.31,4-35.32,5.35-92.49,31.92-119.17C513.21,379.18,582.77,357.13,595,381.57Z"/><path class="cls-2" d="M590.53,420.32s8.55,15,27.71,24.28c27.12,13.09,32.94,56.19,32.94,56.19l11-6L640.88,414.6Z"/><path class="cls-5" d="M747.56,1174.46,734.05,1170a5.08,5.08,0,0,1,.19-5.45c1.86-3.06,6.28-3,8.44-2.74a40.18,40.18,0,0,1,6.63,1.9s5.29-6,10.7-8.79c0,0-1.41-7.43,1.1-12.27a19.51,19.51,0,0,1-4.94-14s-.57-1-1.41-2.55c-.71.32-2.08.94-3,1.45-1.23.71-1.34,4.72-.85,7.14a53.62,53.62,0,0,1,.26,14.47c-.76,4.38-4.11,7.35-9.1,7.18S737,1151.3,736,1147s-.56-8.41-.21-16.22-1.68-11.72-3.17-19.1a50.63,50.63,0,0,1-1-13.31,82.59,82.59,0,0,1,3.76-15.51c-.72-4.45-.66-8.64.75-11.75,2.55-5.59-5.71-46.4-5.71-46.4l41.72,4.72-3.89,46.16s13.06,27.33,17.38,39.62,7.47,18.76,6.86,24.86c0,0-6.33,24.57-12.84,30-6.68,5.56-21.52,15.32-25.85,15.65-4.67.36-17.09-1.31-17.09-1.31a12.85,12.85,0,0,1-4.83-1.25s-2,0-.45-4.15S737.28,1175.83,747.56,1174.46Z"/><path class="cls-3" d="M707,672.63s58.37-4.17,78.93,77.69S804.3,862.87,803.22,915s59.73,155.09,4.53,221.44c0,0-46.73-23.26-90-32.11,0,0-7.57-8.26-3.24-94.3S707,672.63,707,672.63Z"/><path class="cls-6" d="M453.64,1141.73s-17.33,1.06-20.7,1c0,0,.25,24.18,10.35,32.41l.24.19Z"/><path class="cls-7" d="M482.08,968.48a2,2,0,0,1-2-1.8,141.83,141.83,0,0,1,2.36-40.11c2.23-10.29.7-16.22-1.61-25.21a165.42,165.42,0,0,1-5.67-34.73c-2.25-36.2,11.2-56.62,11.77-57.47a2,2,0,0,1,3.32,2.23c-.2.31-13.25,20.34-11.09,55a162.19,162.19,0,0,0,5.54,34c2.37,9.2,4.08,15.84,1.65,27.06-4.23,19.45-2.31,38.66-2.29,38.85a2,2,0,0,1-1.78,2.19Z"/><path class="cls-7" d="M708.61,999.28h-.21a2,2,0,0,1-1.78-2.2c1.63-15.78,2.87-30,1.42-44-.76-7.36-1.67-14.75-2.55-21.89-2-15.86-4-32.26-4.41-48.91a2,2,0,1,1,4-.1c.42,16.45,2.34,32,4.38,48.53.88,7.15,1.79,14.56,2.56,22,1.49,14.41.24,28.84-1.42,44.85A2,2,0,0,1,708.61,999.28Z"/><path class="cls-8" d="M612.79,1015.42H492.16a2,2,0,1,1,0-4H612.79a2,2,0,0,1,0,4Z"/><text class="cls-9" transform="translate(64.08 1226.02)">desi<tspan class="cls-10" x="35.59" y="0">g</tspan><tspan x="47.21" y="0">ned </tspan><tspan class="cls-11" x="85.68" y="0">b</tspan><tspan x="97.48" y="0">y </tspan><tspan class="cls-12" x="111.82" y="0">F</tspan><tspan class="cls-13" x="121.5" y="0">r</tspan><tspan x="128.16" y="0">eepik</tspan></text></svg>