<svg id="Layer_1" data-name="Layer 1" xmlns="http://www.w3.org/2000/svg" viewBox="0 0 1261.8 1261.8"><defs><style>.cls-1{fill:#f2a885;}.cls-2{fill:#231347;}.cls-3{fill:#31185e;}.cls-4{fill:#f8bd8c;}.cls-5{fill:#fff;}.cls-6{fill:#e2b897;}.cls-7{fill:#c5a2fd;}.cls-8{fill:#9e4aff;}.cls-9{fill:#b08174;}.cls-10{fill:#eab186;}.cls-11{fill:#1a1a1a;}.cls-12{font-size:21px;font-family:MyriadPro-Regular, Myriad Pro;}.cls-13{letter-spacing:-0.01em;}.cls-14{letter-spacing:-0.01em;}.cls-15{letter-spacing:-0.03em;}.cls-16{letter-spacing:-0.01em;}</style></defs><rect class="cls-1" width="1261.8" height="1261.8"/><path class="cls-2" d="M803.32,629.42c-17.1,22-44,39.91-72.5,40.71-2.71.07-7.35.39-13.53.88-45.35,3.59-173.56,17.06-230.2,23.07-16.91,1.78-27.44,2.93-27.49,2.93-6.79.73-11.92-24-12.16-27.64-.86-12.6,3.64-24.85,9.75-35.67,6.2-11,19.79-23.82,14.78-37.68-4.42-12.29-21.41-14.85-28.79-25.63-5.3-7.77-4.44-18.47-.26-26.88,6.15-12.43,17.66-22.87,30.12-28.61,10.73-4.93,20-10.7,24.78-20.69a34.45,34.45,0,0,0,2.54-7.34c3.35-15.05.29-34,10.56-47.23,8.55-11,29.32-22.6,48.86-44.59,3.08-3.47,6.24-6.72,9.44-9.77.7-.69,1.44-1.37,2.17-2,16.49-15.12,34.09-24.48,48.87-25.46,18.32-1.22,48.87,3,55.59,20.77s15.27,15.27,26.26,22,36,12.22,41.74,50.5c3.22,21.58,0,31.77-.13,39,0,4.17.93,7.37,4.79,11.24a45.32,45.32,0,0,0,5.11,4.3c18.74,13.85,38.29,25.24,49.7,43.17S820.42,607.43,803.32,629.42Z"/><path class="cls-3" d="M803.31,629.42c-17.1,22-44,39.9-72.49,40.71-2.72.07-7.36.39-13.54.88,1.59-9,3-19.75,2.18-26.93-1.57-14.66-2.5-8.16-5.75-17.93s6.53-25.24,5.7-36.66-13.83-18.71-19.55-39.09,6.71-33.12,6.71-33.12l37.15-27.21c-.05,4.18.93,7.38,4.79,11.24a43.11,43.11,0,0,0,5.1,4.3c18.75,13.86,38.29,25.24,49.7,43.18S820.42,607.43,803.31,629.42Z"/><path class="cls-4" d="M665.35,659a119.75,119.75,0,0,1-24.26,7.71H598.16a108.27,108.27,0,0,1-19.47-6l.51-23.19,3.49-54.91.28-4.34.63-9.93,71.77,1.93,1.19,9.36L658.89,598,664,638Z"/><path class="cls-4" d="M707.94,513.59c-2.44,9.27-10.85,15.09-18.8,13s-12.41-11.29-10-20.56S690,491,698,493,710.37,504.33,707.94,513.59Z"/><path class="cls-5" d="M797.5,681.38l-14.42,337.07-106.44,3.36-204.49,6.44-16.29-352.4L579.2,637.59s29.37,22,84.76.4c1.33-.52,7.18.59,15.75,2.71,13.34,3.31,33.28,9.08,53,15,9,6.53,18,13,35.84,14.88C777.31,671.53,787.58,675.62,797.5,681.38Z"/><path class="cls-3" d="M555.7,536.48s6.53,33.13-5.3,54.31-16.69,22.41-11.8,41.74,5.94,15,4.89,26.24c-.54,6.06-29.27,22.45-56.4,35.31-16.91,1.78-27.44,2.93-27.49,2.93-6.79.73-11.92-24-12.16-27.64-.86-12.6,3.64-24.85,9.75-35.67,6.2-11,19.79-23.82,14.78-37.68-4.42-12.29-21.41-14.85-28.79-25.63-5.3-7.77-4.44-18.47-.26-26.88,6.15-12.43,17.66-22.87,30.12-28.61,10.73-4.93,20-10.7,24.78-20.69a34.45,34.45,0,0,0,2.54-7.34c3.35-15.05.29-34,10.56-47.23,8.55-11,29.32-22.6,48.86-44.59,3.08-3.47,6.24-6.72,9.44-9.77.7-.69,1.44-1.37,2.17-2l7,77.73Z"/><path class="cls-4" d="M688.47,499.1c0,52.63-30.09,95.29-67.2,95.29s-70.86-40.22-70.86-92.85,33.75-97.74,70.86-97.74S688.47,446.47,688.47,499.1Z"/><path d="M593.9,473.66a51.2,51.2,0,0,0-6.28-1.44,62.61,62.61,0,0,0-6.69-.8,67.27,67.27,0,0,0-13.46.39h-.06a4.64,4.64,0,0,1-1.36-9.17,78.25,78.25,0,0,1,23.07-.39A60.23,60.23,0,0,1,597,463.8a5.16,5.16,0,0,1-2.7,10l-.17,0Z"/><path d="M635.92,464.31a58.94,58.94,0,0,1,7.89-1.34,78.21,78.21,0,0,1,23.05,1,4.64,4.64,0,0,1-1.58,9.14h-.07a66.35,66.35,0,0,0-13.44-.73,62.67,62.67,0,0,0-6.71.63,52.94,52.94,0,0,0-6.32,1.28l-.17.05a5.17,5.17,0,1,1-2.85-9.93Z"/><path d="M589.91,488.84c0,4-2.83,7.2-6.31,7.2s-6.32-3.22-6.32-7.2,2.83-7.2,6.32-7.2S589.91,484.86,589.91,488.84Z"/><path d="M655.38,490.06c0,4-2.83,7.2-6.32,7.2s-6.31-3.22-6.31-7.2,2.82-7.2,6.31-7.2S655.38,486.08,655.38,490.06Z"/><path class="cls-4" d="M566.75,501.53c5.13,8.1,3.32,18.44-4,23.09s-17.47,1.86-22.59-6.24-3.32-18.43,4-23.08S561.63,493.44,566.75,501.53Z"/><path class="cls-3" d="M748.51,501.31c-10.73,9.39-23.61,20.5-25,22.63-2.45,3.66-24.12,4.12-20.55-1.53,1.17-1.87,5.89-29.63-10.61-27.18s-17.71-7.33-22-14.05-.64-24.44,0-30.76-8.55-15.67-20.16-11.39S614.76,453.69,608,449.41s-1.23-17.71-20.77-14.66-20.16-22.6-20.16-22.6l2.1-26.88c17.13-16.32,35.6-26.46,51-27.48,18.33-1.23,48.87,3,55.59,20.77s15.27,15.27,26.27,22,36,12.21,41.73,50.5C748.92,485,737.93,490.76,748.51,501.31Z"/><path class="cls-6" d="M796.8,1261.8H475.61C477,1212.47,488.39,1155,500,1108.36c1.15-4.67,2.32-9.23,3.48-13.66,8.09-31,15.79-55.88,19.71-68.06,1.7-5.28,2.69-8.18,2.69-8.18l43.34-2.33,12.34-.66,96.75-5.19,61.37-3.29s.25,4.75,1.14,12.79c1.87,16.76,6.53,47.81,17.57,79.72a249.57,249.57,0,0,0,14.28,33.65C788.61,1163.84,794.63,1218.37,796.8,1261.8Z"/><path class="cls-7" d="M565.94,637a1.62,1.62,0,0,1,1.91,1.75c-1.55,16-11.34,115.92-13.59,120.41-2.44,4.89-4.88,25.25-5.7,41.54s-.81,22,0,44.8a576.7,576.7,0,0,0,5.7,62.71c2.45,15.48,12.63,70.25,13.24,85.52s1.22,22.09,4.28,35.48,7.94,26.22,6.71,35.38S450.82,1111,450.82,1111s-12.82-8.55-14.66-22-10.38-20.15-12.21-34.2-6.52-96.5,3.26-136.21S400.33,849.56,402,843s1.22-121.15,12.82-132.14,40.77-37.88,63.53-40.32,31.16-12.22,43.37-20.16C532.07,643.67,558.31,638.41,565.94,637Z"/><path class="cls-8" d="M531.47,847.72a2,2,0,0,1-1.65-.86c-3.49-5-2.09-9-.6-13.19,1.65-4.67,3.52-10,.35-19.5-2.86-8.56-7.32-15.31-11.63-21.84-5-7.53-9.66-14.64-10.84-23.29-1-7.53,1.81-18,4.56-28.21,2.94-10.89,6-22.15,3.35-27.09s-8.81-9.85-14.75-14.52-11.5-9.06-13.51-13.6c-1.25-2.83-1.06-8.21,15-22.2,8.37-7.3,17.32-13.65,17.41-13.71a2,2,0,1,1,2.31,3.27c-16.47,11.65-32.87,26.9-31.05,31,1.6,3.63,6.81,7.74,12.33,12.08,6.26,4.92,12.73,10,15.8,15.77,3.38,6.34.27,17.85-3,30-2.64,9.78-5.38,19.89-4.46,26.61,1.06,7.76,5.3,14.19,10.22,21.63,4.25,6.43,9.06,13.72,12.08,22.79,3.61,10.83,1.31,17.34-.37,22.1-1.37,3.88-2.2,6.22.12,9.57a2,2,0,0,1-.51,2.79A2,2,0,0,1,531.47,847.72Z"/><path class="cls-7" d="M414.78,712.13c-3.25,6.91-44.21,48.93-48.39,79.54S347.54,833.76,348.76,872s-3.66,51,13.44,70.15,17.1,35.72,29.32,60-1.12,35.71,23.26,51,34.16-66.32,52.49-81.63,7.33-13.1,0-38.43-37.88-49.58-39.1-58.5,7.74-20.31,9.77-27.34c1.65-5.68,17.11-138.4,19.55-155.06s-12.88-6.11-12.88-6.11Z"/><path class="cls-8" d="M448.05,1012.84a2,2,0,0,1-.75-.15,2,2,0,0,1-1.1-2.61c9-22.1,11-24.59,14.3-28.7a68.8,68.8,0,0,0,4.78-6.62,61.68,61.68,0,0,1,7-9.23c1.81-2,2.3-2.54,3-6.51,1.05-5.86-4-10.65-5.29-11.72-1.14-.46-1.55-2.27-4.42-17.73-2.35-12.61-12.42-34.45-24.49-41-5.89-3.18-12.66-7.78-12.75-15.21-.05-4,1.38-7.7,2.77-11.26l.34-.89c7.05-18.26,10.13-38,12.21-54.82.86-7,1.06-14.13,1.26-21s.4-13.94,1.24-21a2,2,0,0,1,4,.48c-.82,6.85-1,13.85-1.21,20.61-.2,7-.4,14.22-1.29,21.4C445.5,824,442.37,844,435.17,862.7l-.36.91c-1.3,3.34-2.53,6.51-2.49,9.75.06,5.32,5.42,8.92,10.65,11.73,13.33,7.19,24,30,26.52,43.75,2.07,11.14,2.86,14.48,3.13,15.46,1.8,1.55,8,7.55,6.59,15.43-.88,4.91-1.81,6.08-4,8.49a57.7,57.7,0,0,0-6.58,8.69,71.23,71.23,0,0,1-5,7c-3.07,3.83-4.92,6.15-13.72,27.71A2,2,0,0,1,448.05,1012.84Zm24.68-68.18h0Z"/><path class="cls-9" d="M581.59,1017.47a2,2,0,0,1-.11-4l115.09-6.24a2,2,0,0,1,.21,4l-115.08,6.24Z"/><path class="cls-7" d="M819.65,918.6c9.78,39.71,5.1,122.15,3.26,136.21s-10.38,20.76-12.22,34.2c-1.48,10.92-10.22,18.61-13.45,21.12a2.86,2.86,0,0,1-2.57.47c-13.67-4.06-125.15-37.42-126.3-46-1.23-9.17,3.66-22,6.71-35.38.61-2.69,1.13-5.12,1.56-7.39,1.74-9.08,2.23-15.89,2.72-28.09.61-15.27,10.79-70,13.24-85.52a576.7,576.7,0,0,0,5.7-62.71c.81-22.81.81-28.51,0-44.79S695,764,692.6,759.15c-2.19-4.36-11-98-12.9-117.87a2.25,2.25,0,0,1,0-.58,2.86,2.86,0,0,1,3.33-2.52c9.06,1.52,32.39,5.9,42.13,12.24,2.63,1.71,5.08,3.5,7.54,5.28,9,6.53,18,13,35.84,14.88,8.76.95,19,5,29,10.8,14.88,8.64,29,21,36,32.22,13.12,20.89,8.14,50.9,9.17,74.28.76,17.31-2,38.26,2.25,55.16C846.53,849.56,809.88,878.87,819.65,918.6Z"/><path class="cls-8" d="M708.71,849.24a2,2,0,0,1-1.14-.36,2,2,0,0,1-.5-2.78c2.32-3.36,1.49-5.7.12-9.58-1.68-4.76-4-11.27-.38-22.1,3-9.07,7.84-16.35,12.09-22.78,4.91-7.45,9.16-13.88,10.22-21.63.91-6.72-1.82-16.84-4.46-26.62-3.29-12.18-6.4-23.69-3-30,3.07-5.76,9.54-10.85,15.8-15.78,5.51-4.34,10.72-8.44,12.33-12.07,1.91-4.33-12.86-20.32-27.65-32.64a2,2,0,0,1,2.56-3.07c7.76,6.46,32.75,28.25,28.75,37.32-2,4.54-7.6,9-13.52,13.6s-12.07,9.51-14.74,14.52.41,16.2,3.35,27.1c2.75,10.16,5.59,20.67,4.56,28.2-1.18,8.66-5.87,15.77-10.85,23.29-4.31,6.53-8.77,13.28-11.62,21.85-3.18,9.52-1.3,14.82.35,19.5,1.48,4.19,2.88,8.15-.6,13.18A2,2,0,0,1,708.71,849.24Z"/><path class="cls-7" d="M831.59,712.13c3.26,6.91,44.21,48.93,48.4,79.54s18.85,42.09,17.63,80.35,3.66,51-13.44,70.15-17.11,35.72-29.32,60,1.11,35.71-23.27,51-34.15-66.32-52.48-81.63-7.33-13.1,0-38.43,37.87-49.58,39.1-58.5-7.74-20.31-9.78-27.34c-1.64-5.68-17.1-138.4-19.55-155.06s12.89-6.11,12.89-6.11Z"/><path class="cls-8" d="M769.08,1035.87a2,2,0,0,1-1.78-1.1,60.09,60.09,0,0,0-12.09-14.84c-1.37-1.27-2.74-2.42-4.06-3.53-7.08-6-13.2-11.15-11-25.6A32.3,32.3,0,0,1,746.69,975c2.77-4,5.63-8.12,7.92-18.17,4.62-20.26,34.49-98.75,35.76-102.09a2,2,0,0,1,3.74,1.43c-.31.81-31,81.56-35.59,101.55-2.47,10.81-5.7,15.46-8.55,19.56-2.53,3.65-4.72,6.8-5.84,14.09-1.89,12.23,2.68,16.09,9.6,21.93,1.35,1.14,2.75,2.32,4.19,3.64,9,8.23,12.79,15.67,12.94,16a2,2,0,0,1-.87,2.69A2,2,0,0,1,769.08,1035.87Z"/><path class="cls-9" d="M627.13,1254.75a2,2,0,0,1-2-2V1134.17l-25.87-21.63a2,2,0,1,1,2.56-3.07l26.59,22.23a2,2,0,0,1,.72,1.53v119.52A2,2,0,0,1,627.13,1254.75Z"/><path class="cls-10" d="M658.89,598c-5.23,7.11-13.09,13.21-23.44,14.23-21.13,2.09-41.74-17.51-52.76-29.58l.28-4.34c1.1.45,2.35.92,3.78,1.39,8.5,2.78,21.5,5.69,38.8,5.67,12.52,0,22.1-2.62,29-5.67l2,0Z"/><path d="M618.52,518.76H613a.92.92,0,0,1-.91-.92V497.28a.91.91,0,1,1,1.82,0v19.65h4.57a.92.92,0,1,1,0,1.83Z"/><path class="cls-11" d="M615,553.29a37.26,37.26,0,0,1-12.76-2.3,1,1,0,0,1,.69-1.88c12.58,4.61,26,1.76,32.61-6.93a1,1,0,1,1,1.59,1.21C632.22,549.8,624,553.29,615,553.29Z"/><path d="M550.41,521.89a1.46,1.46,0,1,1-1.46-1.47A1.46,1.46,0,0,1,550.41,521.89Z"/><path d="M692,522.39a1.46,1.46,0,1,1-1.46-1.47A1.46,1.46,0,0,1,692,522.39Z"/><circle cx="543.52" cy="517.66" r="1.1"/><text class="cls-12" transform="translate(64.08 1237.72)">desi<tspan class="cls-13" x="35.59" y="0">g</tspan><tspan x="47.21" y="0">ned </tspan><tspan class="cls-14" x="85.68" y="0">b</tspan><tspan x="97.48" y="0">y </tspan><tspan class="cls-15" x="111.82" y="0">F</tspan><tspan class="cls-16" x="121.5" y="0">r</tspan><tspan x="128.16" y="0">eepik</tspan></text></svg>