<svg id="Layer_1" data-name="Layer 1" xmlns="http://www.w3.org/2000/svg" viewBox="0 0 1261.8 1261.8"><defs><style>.cls-1{fill:#f2a885;}.cls-2{fill:#f8bd8c;}.cls-3{fill:#eab186;}.cls-4{fill:#080305;}.cls-5{fill:#fff;}.cls-6{fill:#ababab;}.cls-7{fill:#190444;}.cls-8{fill:#8e8d8e;}.cls-9{font-size:21px;font-family:MyriadPro-Regular, Myriad Pro;}.cls-10{letter-spacing:-0.01em;}.cls-11{letter-spacing:-0.01em;}.cls-12{letter-spacing:-0.03em;}.cls-13{letter-spacing:-0.01em;}</style></defs><rect class="cls-1" width="1261.8" height="1261.8"/><path class="cls-2" d="M758.75,614.49l-34.57,41.13-11,13.08L615.61,784.85l5.75-162a25.26,25.26,0,0,0,23.71-25.21V543.3l69.29,2.52q1.41,9.34,2.82,18.73c.15,1.05.32,2.11.47,3.17,0,.15.05.3.07.46.54,3.58.86,7.81,1.27,12.25.08.9.16,1.81.25,2.73,1.61,16,5.06,33.46,24,32.28Z"/><path class="cls-3" d="M719,580.43c-4.66,8.13-12.28,15.58-22.69,16.71-19.88,2.17-39.28-19.24-48.85-31.09a32,32,0,0,1-2.38-3.43v-1.38a44.41,44.41,0,0,0,7.28,3.37c7.67,2.79,19.4,5.68,35,5.67a59.38,59.38,0,0,0,26.19-5.67l3.63-.06c.15,1.05.32,2.11.47,3.17,0,.15.05.3.07.46C718.26,571.76,718.58,576,719,580.43Z"/><path d="M750,529.53s82.72-9,49.06-112.48S661.9,337.93,661.9,337.93s-76.59,31.21-85.85,96.83,46.28,83.61,46.28,83.61Z"/><path d="M714,343.24s23.75-39.89,14.6-49.89-20.66-21.64-43.79-17.48-28,27.07-25.81,34.73a163.81,163.81,0,0,0,15.44,35.27C681.92,358.24,714,343.24,714,343.24Z"/><path class="cls-2" d="M620.34,483.3c-4.73,49.67,22.29,92.88,60.36,96.51s72.78-33.7,77.51-83.37-22.29-92.88-60.36-96.51S625.07,433.63,620.34,483.3Z"/><path d="M677.89,387.59s28.62,57.65,84.17,88.79,5.47-79.11,5.47-79.11Z"/><path class="cls-2" d="M599.29,477.78c0,11.34,9.84,22.29,18,22.29s14.69-9.19,14.69-20.53S621.15,459,613,459,599.29,466.44,599.29,477.78Z"/><path class="cls-2" d="M772.18,483.54c0,11.34-9.84,22.29-17.95,22.29s-14.69-9.19-14.69-20.53,10.77-20.53,18.89-20.53S772.18,472.2,772.18,483.54Z"/><path d="M654.53,475.63c0,4.39,2.71,7.95,6.07,7.95s6.07-3.56,6.07-7.95-2.72-7.94-6.07-7.94S654.53,471.24,654.53,475.63Z"/><ellipse cx="722.11" cy="479.54" rx="6.07" ry="7.94"/><path d="M670.73,457.25a5.88,5.88,0,0,1-1.51,0c-13.58-2-21.9,2.15-22.24,2.32-2.28,1.17-5.22.67-6.57-1.12s-.63-4.18,1.63-5.38c.47-.25,11.77-6.1,29.32-3.51,2.59.38,4.2,2.41,3.61,4.53A4.84,4.84,0,0,1,670.73,457.25Z"/><path d="M739.9,461.46a6.17,6.17,0,0,1-1.43-.48c-12.32-6.06-21.51-4.63-21.9-4.57-2.52.42-5.17-1-5.91-3.07s.68-4.18,3.19-4.63c.53-.09,13.07-2.22,29,5.6,2.35,1.15,3.27,3.57,2.06,5.42A4.86,4.86,0,0,1,739.9,461.46Z"/><path class="cls-4" d="M691.3,507.36a5,5,0,0,1-2.9-.94c-2.57-1.88-2.7-3.21-2.4-6.24l1.25-12.78a.86.86,0,1,1,1.72.17l-1.24,12.78c-.27,2.71-.17,3.3,1.69,4.67a3.2,3.2,0,0,0,2.56.53l3.25-.68a.87.87,0,0,1,1,.68.86.86,0,0,1-.67,1l-3.24.68A5.33,5.33,0,0,1,691.3,507.36Z"/><path class="cls-5" d="M664.1,529.56c1.52,9.8,12.51,16.79,25.22,15.76,11-.89,19.84-7.55,21.91-15.79Z"/><path class="cls-4" d="M616.35,493a2.11,2.11,0,1,1-2.89.77A2.11,2.11,0,0,1,616.35,493Z"/><path class="cls-4" d="M759.39,497.12a2.11,2.11,0,1,1-2.89.77A2.11,2.11,0,0,1,759.39,497.12Z"/><polygon class="cls-2" points="808.79 1093.13 750.94 1118.14 717.59 1083.05 790.3 1030.57 821.26 1088.23 808.79 1093.13"/><path class="cls-2" d="M481.19,1232.16l13.06-4.27a4.9,4.9,0,0,0-.18-5.27c-1.8-3-6.07-2.87-8.16-2.65a38.86,38.86,0,0,0-6.4,1.83s-5.12-5.85-10.36-8.49c0,0,1.37-7.19-1.06-11.86a18.87,18.87,0,0,0,4.78-13.55s.56-1,1.37-2.47c.68.31,2,.91,2.86,1.4,1.19.68,1.3,4.57.82,6.91a52.1,52.1,0,0,0-.25,14c.74,4.23,4,7.11,8.8,6.94s5-4.89,5.92-9.08.54-8.13.2-15.68,1.62-11.34,3.07-18.47a49.17,49.17,0,0,0,.91-12.86,79.43,79.43,0,0,0-3.63-15c.69-4.3.64-8.34-.73-11.35-2.46-5.41,5.52-44.86,5.52-44.86l-40.33,4.56,3.76,44.63s-12.62,26.42-16.8,38.29-7.21,18.14-6.63,24c0,0,6.12,23.74,12.42,29,6.45,5.37,20.79,14.8,25,15.12,4.52.35,16.52-1.26,16.52-1.26a12.49,12.49,0,0,0,4.67-1.21s1.93,0,.44-4S491.13,1233.49,481.19,1232.16Z"/><path class="cls-6" d="M551.17,651.9s-34.88,19.06-39.93,46-21.88,64.9-31.14,80.72-21,48.28-22.72,59.36-25.25,170.15-18.52,208.14,1.52,67.54,14.51,72.81,54.51,0,54.51,0l60.6-369.32Z"/><path class="cls-7" d="M803.73,1261.8H469.06q1.14-9.69,2.49-20,1.56-11.85,3.44-24.42,1.1-7.38,2.31-15h0c3.63-22.63,8.05-46.64,13.45-71.55h0c.34-1.61.7-3.22,1.06-4.84a0,0,0,0,1,0,0c.37-1.74.76-3.46,1.16-5.21,0-.13,0-.27.08-.4q2.58-11.38,5.42-23c1.11-4.54,2.26-9.12,3.46-13.7,4.8-18.6,10.16-37.48,16.16-56.46h0q1.59-5,3.24-10.09a18.92,18.92,0,0,1,3.63-2.41c5.87-3.22,19.9-8.85,49.36-11.7h.13a463.14,463.14,0,0,1,55-1.56c25,.6,55.5,2.75,92.69,7.28,0,0,2.06,7.12,5.56,18.51,3.19,10.33,7.58,24.17,12.71,39.35,4.73,14,10.09,29.09,15.74,43.66q.95,2.43,1.9,4.83c7.35,18.61,15.13,36,22.55,48.51C791.41,1181.88,799,1221.17,803.73,1261.8Z"/><path class="cls-6" d="M521.34,910.25c.85-8.42,5.46-64.8,5.46-64.8s3-80,.17-107.74c-1.79-17.43,10.4-51.81,19.69-75,1.62-4,3.13-7.64,4.51-10.84l18.11-7.47,62.05-25.66S619,711.89,625.71,762.39c0,0,98.74-103.22,118.94-150.35,0,0,67.33,12.32,84.16,10.1s55,7.84,70.7,125.67S965.73,927.35,968,948.7s13.47,44.88-13.47,71.81-71.84,68.44-77.43,76.32-60.6,21.31-60.6,21.31l-57.13-103.7a6.5,6.5,0,0,1,3.11-9.12c9.59-4.14,26.79-11.61,31.57-14C800.77,988,844,965.53,844,965.53s-33.93-46-38.14-94.84c-1.88-21.81-2.76-39.05-3.13-51.5-.5,41.84-5.86,129.31-40.06,174.39l-18,33.66H518.1a46.53,46.53,0,0,1,0-13.32C520.12,1002.67,520.5,918.67,521.34,910.25Z"/><path class="cls-8" d="M461.76,1121.54a2,2,0,0,1-.53-.07l-12.18-3.33c-2.85-.78-6.34-4.16-8-23.48-.82-9.64-.8-19.18-.79-20.23l-4.61-54.56a2.8,2.8,0,0,1,0-.29l2.92-46.94c.11-1,10.34-92.34,13.59-112.64,3.4-21.25,8.55-46.47,21-72.41,12.35-25.75,33.15-77.72,33.35-78.24a2,2,0,0,1,3.72,1.48c-.21.53-21.05,52.62-33.47,78.5-12.22,25.47-17.3,50.34-20.65,71.3-3.23,20.21-13.45,111.44-13.55,112.36l-2.91,46.69,4.6,54.5a1.28,1.28,0,0,1,0,.19c-.18,20.72,2.49,39,5.84,39.91l12.18,3.33a2,2,0,0,1-.53,3.93Z"/><path class="cls-8" d="M514.73,989.76a2,2,0,0,1-1.47-.64c-.64-.71-6.32-8.19-7.15-54s8.44-80,10.92-83.47a2,2,0,0,1,3.28,2.3c-1.7,2.73-11,35.49-10.2,81.1.78,43.3,5.84,50.95,6.16,51.39a2,2,0,0,1-1.54,3.28Z"/><path class="cls-8" d="M625.71,764.39a2.24,2.24,0,0,1-.67-.11,2,2,0,0,1-1.32-1.66c-.07-.63-6.89-63.48,5.23-143.2a2,2,0,1,1,3.95.6C622.65,687.45,626,742.64,627.3,758c16.59-16.82,96.67-99.5,115.49-146.65a2,2,0,0,1,3.72,1.48c-21.23,53.18-115.39,147.06-119.39,151A2,2,0,0,1,625.71,764.39Z"/><path class="cls-8" d="M877.09,1098.83a2.05,2.05,0,0,1-1.29-.47,2,2,0,0,1-.24-2.82c.2-.23,19.94-23.6,57.19-56.5l1.3-1.15c12.87-11.36,28.89-25.49,33.89-42.23,6.22-20.8,1.75-45.42-13.28-73.16-12.44-23-22.17-47.76-31.58-71.72l-3-7.71a2,2,0,1,1,3.72-1.47q1.53,3.85,3,7.72c9.36,23.85,19,48.51,31.37,71.27,15.56,28.71,20.13,54.36,13.59,76.22-5.33,17.83-21.82,32.39-35.08,44.08L935.4,1042c-37,32.68-56.58,55.84-56.78,56.08A2,2,0,0,1,877.09,1098.83Z"/><path class="cls-8" d="M793.63,916.12a1.61,1.61,0,0,1-.37,0,2,2,0,0,1-1.59-2.33c0-.06,1.17-6.24,3.65-21.56s5.34-72.53,5.37-73.1a2,2,0,0,1,4,.19c-.12,2.37-2.92,58.08-5.42,73.55s-3.66,21.6-3.67,21.66A2,2,0,0,1,793.63,916.12Z"/><path class="cls-4" d="M672.68,641.29a31.89,31.89,0,0,1-8.51-1.12c-18.67-5.12-24.89-26.61-24.95-26.82l1-.27c.06.21,6.14,21.16,24.27,26.13,16.65,4.57,37.89-5.31,63.12-29.37l.69.72C706.83,631,688.18,641.29,672.68,641.29Z"/><text class="cls-9" transform="translate(73.71 1226.02)">desi<tspan class="cls-10" x="35.59" y="0">g</tspan><tspan x="47.21" y="0">ned </tspan><tspan class="cls-11" x="85.68" y="0">b</tspan><tspan x="97.48" y="0">y </tspan><tspan class="cls-12" x="111.82" y="0">F</tspan><tspan class="cls-13" x="121.5" y="0">r</tspan><tspan x="128.16" y="0">eepik</tspan></text></svg>