<svg id="Layer_1" data-name="Layer 1" xmlns="http://www.w3.org/2000/svg" viewBox="0 0 1261.8 1261.8"><defs><style>.cls-1{fill:#f2a885;}.cls-2{fill:#f8bd8c;}.cls-3{fill:#eab186;}.cls-4{fill:#f2b588;}.cls-5{fill:#e2b897;}.cls-6{fill:#080305;}.cls-7{fill:#fff;}.cls-8{fill:#ff7c90;}.cls-9{fill:#755faa;}.cls-10{fill:#1d1647;}</style></defs><rect class="cls-1" width="1261.8" height="1261.8"/><rect class="cls-2" x="594.87" y="761.78" width="74.29" height="63.35"/><path class="cls-3" d="M669.16,766.94v19.69a36.24,36.24,0,0,1-22.23,10.13c-20.09,1.71-39.72-12.39-52.06-23.31v-6.54l.17.05c9.06,2.55,22.9,5.21,41.35,5.19,13.34,0,23.54-2.4,30.91-5.19Z"/><path class="cls-4" d="M581.31,694.61c.93,10.59-3.45,19.57-9.77,20.06S559.35,707,558.43,696.4s3.45-19.57,9.77-20.06S580.39,684,581.31,694.61Z"/><path class="cls-4" d="M706.56,696.79c-1.33,10.54-7.51,18.52-13.81,17.81s-10.32-9.84-9-20.38,7.51-18.52,13.8-17.81S707.89,686.24,706.56,696.79Z"/><ellipse class="cls-2" cx="631.59" cy="707.83" rx="60.29" ry="76.01"/><path class="cls-5" d="M616.76,596.19c-1.8,0-18-11.2-38.76,7.47s-16,15-21.77,20-4.31,10.23-12,14.84-9.09,6.88-5.74,12.31,5.69,10.85-1.7,14.47-10.26,4.53-6.44,7.69.6,7.36,9.21,8.71,13.28,2.23,14.72,5.7,4.66,3.47,9,4.82,5,2,6.46,4.08,3,1.35,3,1.35,8.7-20.07,9.14-28.7,3.31.2,10.13-8.62,8.2-8.08,14-15,2.37-2.58,7.11-7.53S616.76,596.19,616.76,596.19Z"/><path class="cls-6" d="M631.31,730.57c-.44,0-.76,0-.87,0A.5.5,0,0,1,630,730a.47.47,0,0,1,.47-.5c1.79.1,4.91-.12,5.62-1.13s.36-6.49-.1-10.11a.52.52,0,0,1,.38-.59.46.46,0,0,1,.52.44c.19,1.53,1.1,9.26-.1,10.94C635.83,730.39,632.83,730.57,631.31,730.57Z"/><path class="cls-7" d="M615.08,750.62h33.86s-10.78,16.77-27.41,5.91C621,756.16,615.08,750.62,615.08,750.62Z"/><path class="cls-6" d="M604.79,682.29c-1.41.28-2.89.49-4.32.71s-2.88.44-4.29.72-2.82.63-4.21,1-2.72.9-4.07,1.42l-.09,0c-.95.37-1.87-.78-2.07-2.56a4.62,4.62,0,0,1,.89-3.55,15.43,15.43,0,0,1,4.51-3.14,18.35,18.35,0,0,1,4.64-1.34,20,20,0,0,1,4.64-.09A15.68,15.68,0,0,1,605,676.6c.83.35,1.35,1.89,1.16,3.44-.15,1.24-.7,2.11-1.34,2.24Z"/><path class="cls-6" d="M653.45,672.06a17.61,17.61,0,0,1,5.83-1.65,22.14,22.14,0,0,1,5.86.13,21.15,21.15,0,0,1,5.88,2,19.72,19.72,0,0,1,5.71,4.62c1.08,1.27,1.48,4.2.9,6.55-.48,1.92-1.47,2.86-2.4,2.44l-.11,0c-1.71-.76-3.41-1.47-5.16-2.08s-3.52-1-5.31-1.46-3.61-.73-5.43-1.07-3.68-.62-5.47-1h-.08c-1.07-.25-1.85-2.34-1.73-4.67C652,673.9,652.66,672.45,653.45,672.06Z"/><path class="cls-6" d="M606.23,701.67c0,3.4-2.22,6.16-5,6.16s-5-2.76-5-6.16,2.23-6.17,5-6.17S606.23,698.26,606.23,701.67Z"/><path class="cls-6" d="M665.65,701.67c0,3.4-2.22,6.16-5,6.16s-5-2.76-5-6.16,2.23-6.17,5-6.17S665.65,698.26,665.65,701.67Z"/><path class="cls-5" d="M606.55,622.33s1.44,26.65,28,33.23c0,0,7.54-.73,13.28,9.49s-.36,9.12,6.46,12.41,6.1-.36,16.86,4,7.18,7.39,15.08,11.73,23.32,1,25.47-2.61,5.75-4.74,6.82-8.39,0-19.72,0-19.72-12.92-8.76-17.22-19,1.43-14.61-7.9-21.18S669.71,609.92,666.84,607s-6.46-17.52-18.66-16.79-27.28-.42-32.66,0-8.25,4.77-9,9.52S606.55,622.33,606.55,622.33Z"/><path class="cls-8" d="M730,1272.63H643.64c-1.74-26.75-3.27-54.11-3.49-70.41,0-3.28,0-8.24,0-8.24l-4.09,78.65H538c.07-22.1,1.07-49.06,3.73-81,.1-1.09.19-2.19.29-3.29q1.37-15.9,3.33-33.43c.47-4.18,1-8.44,1.49-12.75.55-4.59,1.15-9.27,1.77-14q.69-5.27,1.44-10.66c.23-1.69.47-3.4.72-5.11h0c.42-3,.86-6,1.31-9.08.88-5.94,1.81-12,2.79-18.13H714.6s.68,3.27,1.77,9.16c.38,2,.8,4.37,1.25,7a.09.09,0,0,1,0,.05c.08.46.16.93.25,1.41,1,5.59,2.08,12.35,3.23,20.06.9,6,1.83,12.56,2.73,19.59,1.5,11.6,2.95,24.45,4.12,38.1.2,2.24.38,4.49.56,6.76C730.64,1214.26,731.64,1243.86,730,1272.63Z"/><path class="cls-9" d="M698.52,829.68s35,13,42.11,20.52,31.4,72.1,31.4,106,5.71,85.86,0,95.65-31.4,58.31-48.53,69.51-24.15,10.36-24.15,10.36l-4.19-50.41,18.34-79.74-9.3-120.17Z"/><path class="cls-9" d="M589.24,819.82c3.84-1.7,14.11-5.15,21.31-2s24.5,6.34,32.75,2,18.91-4.94,26.37-3.06,28.5,7,40.75,18.92,19.7,236.2,8.38,255.23c-3.95,6.64-23.64,29.29-54.83,22.49-24.91-5.42-53.16,18.31-79.75,2.15-20.76-12.62-37.33-12.75-37.33-12.75s-25-198.16-11.18-243.34C535.71,859.46,537.3,842.81,589.24,819.82Z"/><path class="cls-10" d="M640.15,1195.09h0a1.05,1.05,0,0,1-.9-1.15c.16-5.73,2.78-9.82,6.75-16a156.45,156.45,0,0,0,10.55-18.6.87.87,0,0,1,1.28-.42,1.24,1.24,0,0,1,.36,1.52,158.18,158.18,0,0,1-10.69,18.84c-3.89,6.06-6.23,9.71-6.38,14.73A1,1,0,0,1,640.15,1195.09Z"/><path class="cls-9" d="M589.9,822.88s-28.54,20.68-40.85,29.26-20.36,21.11-23.2,28.37-9.47,13.86-9,18.48S506,923.41,503.59,939.9s-6.62,71.27-6.62,73.25,7.57,47.52,7.57,47.52,22.26,31.67,27,38.93,18.94,19.14,20.83,19.14,13.73-11.22,13.26-22.44-3.79-43.55-7.1-48.83c-2.59-4.13-5.76-7.86-8.16-13.39a38.68,38.68,0,0,1-1.78-5.09c-2.37-8.58,4.26-29,4.26-29s21.3-72.59,20.36-82.48,6.15-44.88,4.26-54.12S589.9,822.88,589.9,822.88Z"/><path class="cls-10" d="M600.14,1121.89c-16.64,0-24.18-10.71-24.5-11.18a1.25,1.25,0,0,1,.14-1.57.85.85,0,0,1,1.32.16c.11.17,7.84,11,24.61,10.33,14.52-.6,21.84-2.68,27.73-4.35,1.21-.35,2.36-.67,3.52-1,10.61-2.76,25.32-6,30.56-2.58a1.21,1.21,0,0,1,.37,1.51.87.87,0,0,1-1.28.43c-5.22-3.43-23.3,1.27-29.25,2.82-1.14.29-2.28.62-3.48,1-6,1.7-13.39,3.81-28.1,4.41C601.22,1121.87,600.68,1121.89,600.14,1121.89Z"/><path class="cls-10" d="M552.84,1023.51a1,1,0,0,1-.92-.88c-2.14-12-1-22.76,3.24-32,4-8.52,6.5-17.15,9.2-26.28,1.58-5.35,3.21-10.89,5.14-16.35a.89.89,0,0,1,1.23-.59,1.18,1.18,0,0,1,.51,1.45c-1.91,5.4-3.54,10.9-5.11,16.22-2.61,8.82-5.3,17.94-9.32,26.62s-5.1,19-3,30.49a1.14,1.14,0,0,1-.73,1.32Z"/><path class="cls-10" d="M630.15,823.34c-11.38,0-30.76-6-31.64-6.29a1.41,1.41,0,0,1-1-1.79,1.52,1.52,0,0,1,1.89-.9c.23.07,22.65,7,32.81,6a85.52,85.52,0,0,1,12.14-.33,10.8,10.8,0,0,0,3.46-.13,1.55,1.55,0,0,1,2.06.42,1.37,1.37,0,0,1-.45,2c-1.18.72-2.69.67-5.18.58a83.78,83.78,0,0,0-11.72.32C631.82,823.3,631,823.34,630.15,823.34Z"/></svg>