<svg id="Layer_1" data-name="Layer 1" xmlns="http://www.w3.org/2000/svg" viewBox="0 0 1261.8 1261.8"><defs><style>.cls-1{fill:#f2a885;}.cls-2{fill:#e2b897;}.cls-3{fill:#f8bd8c;}.cls-4{fill:#31185e;}.cls-5{fill:#2a1656;}.cls-6{fill:#1d1647;}.cls-7{fill:#eab186;}.cls-8{fill:#1a1a1a;}.cls-9{fill:#fcfcfc;}.cls-10{fill:#666b6d;}</style></defs><rect class="cls-1" width="1261.8" height="1261.8"/><path class="cls-2" d="M882.74,1278.39h-394l7-193.34.21-5.84,0-1.22,324-14.81,46.53-2.12,1.35,18,5.94,79.36v.11l2.15,28.83h0l1,12.55Z"/><path class="cls-2" d="M695,1278.39H488.55l3.71-196.48.08-3.92,3.54,1.22,37.76,13,93.82,32.23.15,0,62.14,21.34Z"/><polygon class="cls-3" points="735.4 568.36 622.15 581.63 619.37 505.38 619.18 500.13 618.81 490.1 711.47 479.24 717.5 478.54 722.56 503.96 735.4 568.36"/><path class="cls-4" d="M604.71,556.64s-132,55-135.62,66-18.33,42.15-18.33,42.15,64.15,155.79,47.65,208.94-5.5,141.12-5.5,168.61-11,38.49,9.17,45.82,86.14,3.66,122.79,0,111.8,1.13,128.29,4.23S868.63,1079,868.63,1079s12.83-69.64,9.16-104.46,1.32-117.3.66-130.13,6.28-18.32.06-49.48,24.94-201.6,24.94-201.6L751.33,537.86Z"/><polygon class="cls-5" points="673.63 550.21 654.6 613.86 570.86 571.6 591.15 550.21 673.63 550.21"/><path class="cls-6" d="M655.52,616l-87.14-44,22.13-23.32h85.13Zm-82.19-44.83,80.34,40.54,17.94-60H591.8Z"/><polygon class="cls-5" points="657.3 550.21 682.96 613.86 778.49 546.6 755.67 522 657.3 550.21"/><path class="cls-6" d="M682.28,616.17l-27-66.94,100.86-28.92,24.6,26.52Zm-23-65,24.33,60.35,92.57-65.18-21-22.66Z"/><path class="cls-4" d="M516.07,595.55s56.38,21.84,51.21,242.94l205.39-47.14,25.18,104S572.45,992.94,514,991.32s-96.36-268.26-84.31-297.53,15.36-70.94,84.18-97Z"/><polygon class="cls-3" points="783.54 796.62 836.46 776.82 823.33 856.72 781.97 858.79 772.91 802.21 783.54 796.62 783.54 796.62"/><polygon class="cls-3" points="618.55 829.76 575.31 839.73 573.58 829.25 570.73 811.87 573.69 812.98 618.55 829.76 618.55 829.76"/><path class="cls-4" d="M855.46,607,821.57,848.22,606.38,819.28,581,925.39s291.45,70.75,349,51.45,30.5-284.57,15.26-318.35-25.56-60.17-45.88-66.6S855.46,607,855.46,607Z"/><path class="cls-7" d="M722.56,504c-4.53,10.39-12.42,20-24.63,24.43-26.92,9.67-60.6-10.54-78.56-23l-.19-5.25c1.55.24,3.31.46,5.28.62,11.87,1,29.57.67,51.83-4.9,15.93-4,27.31-10.42,35.18-16.61l6-.7Z"/><path class="cls-3" d="M735.68,380.11c4.94,62.47-24.58,115.89-70.45,119.51s-87.06-44.07-92-106.54S601.47,277,647.34,273.4,730.74,317.63,735.68,380.11Z"/><path class="cls-8" d="M673,517.13c-43.91,6.52-86.94-38.86-96.18-101.24-.88-6-1.39-11.95-1.69-17.82,10.27,60.63,52.64,104.25,95.75,97.87,39.58-5.86,66.27-51.9,64.36-106.66.22,1,.37,2.05.52,3.07C745,454.74,716.88,510.6,673,517.13Z"/><path class="cls-8" d="M607.77,242s-.53,46.43,11,53.15,24.78-5.5,35.27-7.33,31.75-3.64,46.63,9.33S728.37,348,728.37,348l3.26,12.68s8.71,2.19,9.62-9.72-1.53-61.86,0-66.75.92-9.77-4.58-15.27-12.52-14-10.39-17.71,11.31-13.14,2.45-21.39-51.62-13.44-59.57-6.11S631.59,202.92,607.77,242Z"/><path class="cls-8" d="M599.67,245.53s-41.69,4.59-42.61,41.24c0,0-5,8.25-15.12,21.54s1.83,35.73,4.58,49,8.4,24.29,8.1,28.26,7.32,11.6,14.2,8.55,8.4-11.21,8.4-11.21.61-51.72,8.25-60.88,20.62-18.17,28.1-22,9.16-11,9.16-11.91-9.46-51-9.46-51Z"/><path class="cls-3" d="M590.5,402.57c5.74,11.81,3.63,24.67-4.71,28.73s-19.77-2.23-25.51-14-3.64-24.67,4.71-28.73S584.75,390.76,590.5,402.57Z"/><path class="cls-3" d="M752.37,386.42c-1.5,13-10.19,22.76-19.41,21.7s-15.47-12.49-14-25.54,10.19-22.77,19.41-21.71S753.87,373.37,752.37,386.42Z"/><path class="cls-8" d="M626.59,362.79a124,124,0,0,0-17.4,2.31c-5.66,1.18-11.32,2.87-15.55,5.5l-.22.13a4.76,4.76,0,0,1-5.12-8c6.12-4,12.42-5.88,18.66-7.44a133.44,133.44,0,0,1,18.95-3.09,5.32,5.32,0,0,1,1,10.6h-.31Z"/><path class="cls-8" d="M621.74,385.48c.67,4.55-1.89,8.71-5.73,9.27s-7.5-2.66-8.17-7.21,1.89-8.71,5.73-9.27S621.06,380.93,621.74,385.48Z"/><path class="cls-8" d="M675,357a123.94,123.94,0,0,1,17.47-1.71c5.77-.12,11.68.24,16.39,1.84l.24.08a4.77,4.77,0,0,0,3.17-9c-6.88-2.53-13.43-2.9-19.87-3a134,134,0,0,0-19.15,1.29,5.32,5.32,0,0,0,1.44,10.55l.14,0Z"/><path class="cls-8" d="M684.89,378c.37,4.59,3.81,8.05,7.68,7.73s6.7-4.29,6.32-8.88-3.81-8-7.68-7.73S684.51,373.42,684.89,378Z"/><path class="cls-8" d="M632.2,488.6c2.41,1.64,10.8-.38,13.51-1,4.62-1,9.91-2.74,12.8-6.74,3.31-4.58,1.78-11.48,1.36-16.7-.11-1.49.14-5.61-1.09-6.84L671,455.54c-1.09.16,2.15,17.22,2.67,18.61,1.37,3.72,5.11,5.82,8.78,6.75a38.13,38.13,0,0,0,12,.79c1-.07,10.43-.88,10.51-1.87a3.68,3.68,0,0,1-1.27,2.12,239.55,239.55,0,0,1-19.82,17.58s-32.38,2.75-33.3,1.83S632.23,488.63,632.2,488.6Z"/><path class="cls-9" d="M692.5,443.62c-4.25,7.55-13.27,13.85-24.63,16.05-15.1,2.94-29.18-2.2-34.6-11.73,0-.14.14-.29.29-.44a37.15,37.15,0,0,1,6-4.17l44.35-5.28C687.37,438.78,690.45,440.1,692.5,443.62Z"/><path class="cls-8" d="M629.33,494.65c-1-9.24-3.59-38.8.27-47.6v-.6l1.31-1.49a40.63,40.63,0,0,1,6.89-4.84c7.19-4.22,16.15-6.64,25.83-7a98.1,98.1,0,0,1,15.6.53l1.24.15c1.43.17,2.84.34,4.24.65,3.55.75,8,2.27,11,7.3,3,5.21,4.35,10.83,5.61,16.26.32,1.4.65,2.8,1,4.18,2.12,8.46,2.78,15.62,2.07,22.54l-7.28-.74a57.58,57.58,0,0,0-1.89-20c-.36-1.42-.7-2.87-1-4.32-1.19-5.13-2.32-10-4.81-14.22-1.2-2.07-2.93-3.15-6.17-3.84-1.19-.26-2.35-.39-3.54-.53l-1.28-.15a91.16,91.16,0,0,0-14.41-.49,48,48,0,0,0-22.51,6,33,33,0,0,0-5.11,3.49l0,.08c-2.14,3.27-1.54,25.31.36,43.84Z"/><path class="cls-8" d="M650.28,417.49a1,1,0,0,1-.89-.53,1,1,0,0,1,.42-1.36l7.88-4.19a6.16,6.16,0,0,0,3.55-6.15l-4-27.77a1,1,0,0,1,2-.29l4,27.77a8.1,8.1,0,0,1-4.59,8.2l-7.88,4.2A1,1,0,0,1,650.28,417.49Z"/><path class="cls-10" d="M695.29,1241.87a2,2,0,0,1-2-1.95c-.78-33.11-2.81-86.9-5-92.65-7.27-4.33-43.16-15.54-61.42-20.94a2,2,0,0,1,1.13-3.84c2.22.66,54.34,16.12,62.82,21.64,1.32.86,3,1.93,4.94,49.45,1,23,1.5,46,1.51,46.25a2,2,0,0,1-1.95,2ZM688.21,1147Z"/><path class="cls-6" d="M572.73,841.73a2,2,0,0,1-1.17-.38,2,2,0,0,1-.82-1.52c-.29-6-8.31-101-8.39-101.91a2,2,0,0,1,4-.33c.31,3.64,7,83.57,8.23,99.58,11.2-3,59.35-15.82,78.61-19.63a2,2,0,0,1,.78,3.92c-21.63,4.28-80.12,20-80.71,20.2A1.81,1.81,0,0,1,572.73,841.73Z"/><path class="cls-6" d="M520.34,989.29a55.35,55.35,0,0,1-16.9-2.22c-28.7-9.4-48.33-86.51-49.15-89.79a2,2,0,0,1,3.88-1c.2.78,19.9,78.24,46.51,87,27,8.85,92.1-14.22,92.75-14.45a2,2,0,0,1,1.35,3.77C596.51,973.4,551.66,989.29,520.34,989.29Z"/><path class="cls-6" d="M677.11,944a2,2,0,0,1-.9-3.79l60.87-30.5a2,2,0,0,1,1.79,3.58L678,943.83A2,2,0,0,1,677.11,944Z"/><path class="cls-6" d="M819.64,849.24l-.32,0a2,2,0,0,1-1.65-2.29L834.49,742a2,2,0,1,1,3.94.63L821.62,847.55A2,2,0,0,1,819.64,849.24Z"/><path class="cls-6" d="M849.2,978.72l-.31,0L748.07,963.05a2,2,0,0,1,.61-3.95L849.5,974.75a2,2,0,0,1-.3,4Z"/></svg>