<svg id="Layer_1" data-name="Layer 1" xmlns="http://www.w3.org/2000/svg" viewBox="0 0 1261.8 1261.8"><defs><style>.cls-1{fill:#f2a885;}.cls-2{fill:#f8bd8c;}.cls-3{fill:#31185e;}.cls-4{fill:#c5a2fd;}.cls-5{fill:#eab186;}.cls-6{fill:#f2b588;}.cls-7{fill:#1b191b;}.cls-8{fill:#9e4aff;}</style></defs><rect class="cls-1" width="1261.8" height="1261.8"/><polygon class="cls-2" points="626.01 361.85 607.84 428.23 647.03 474.11 703.02 446.05 700.67 376.12 626.01 361.85"/><polygon class="cls-3" points="826.07 947.67 826.07 1276.87 659.11 1276.87 659.11 956.01 815.12 948.22 826.07 947.67"/><path class="cls-3" d="M713.38,963l-5.71,15.8L702,994.37l-18.91,52.36-24,66.49-38.56,163.65h-151c.09.46.12.69.12.69l-20.73.5.14-1.19,8.32-67,1.22-9.83,3.26-26.3,3.06-24.6,2.3-18.6L478,1043.46l2.94-23.69L488,963Z"/><path class="cls-4" d="M612.12,416S530,466.15,493.86,483.75,434,527.09,425.69,542s-27.83,28.44-26.43,37.92-32,50.11-39,84-19.48,146.26-19.48,150.33,22.26,97.51,22.26,97.51,65.39,65,79.31,79.9S498,1030.9,503.6,1030.9s40.35-23,39-46.05-11.13-89.38-20.87-100.22c-7.62-8.47-16.94-16.11-24-27.47a65.38,65.38,0,0,1-5.26-10.45c-7-17.6,12.52-59.59,12.52-59.59s62.61-149,59.83-169.29,18.08-92.09,12.52-111.05S612.12,416,612.12,416Z"/><path class="cls-4" d="M833.33,598.8s13.91,191,12.52,223.53-8.15,51.47.1,88,4.27,47.4,0,60.94-57.14,12.19-57.14,12.19L541.07,969.07,448,834.52,569,458l43.13-42s49.39,42,90.43,16.93c0,0,114.09,64.33,130.08,76.51S833.33,598.8,833.33,598.8Z"/><path class="cls-4" d="M834.26,514.45s39.88,39.73,39,65.91,10.21,123.7,8.35,151.68,2.78,28.9,6.49,49.66,19,62.3,20.41,108.35S930,969.28,916.11,992.3s-24.35,29.8-24.35,29.8S888.29,987,882,983.54,846,971.31,846,971.31l-33-364.77Z"/><path class="cls-5" d="M617,371.09c-4-9.33,26.68,51.65,58,48.22,26.86-2.93,28-52.58,28-52.58s-9.53,15.68-37.89,15.72c-31.62,0-48.09-11.36-48.09-11.36Z"/><path class="cls-6" d="M758.61,292.12c-.72,13.4-9.61,23.81-19.84,23.26s-17.95-11.86-17.23-25.26,9.61-23.82,19.84-23.26S759.33,278.72,758.61,292.12Z"/><path class="cls-6" d="M610.34,283.92c-.72,13.4-9.61,23.81-19.84,23.26s-18-11.86-17.23-25.26,9.61-23.81,19.85-23.26S611.06,270.52,610.34,283.92Z"/><path class="cls-2" d="M750.25,291.47c-9.71,57-42.79,106.07-88.38,103.61s-69.53-44.92-76.72-112.52c-6.31-59.29,42.79-106.06,88.39-103.6S760.27,232.62,750.25,291.47Z"/><path class="cls-3" d="M645.61,201.39c.14,3.77-.45,9.85-.08,11.68,1,5,3.66,9.94,8,12.27,3,1.61,6.39,1.86,9.71,1.94,12.11.32,24.76-4.89,36.38-4.36,5.35.25,9.41,4.13,13.95,7.16,8.4,5.6,23.86,4.29,23.86,4.29,7.92,11.07,8.68,27.58,16.75,37.8a49.47,49.47,0,0,0,5.52-4.33c10.87-9.14,11.5-10.8,8-25.15-2.81-11.48,4.9-16.38,8.81-25.57,5.37-12.62,14.7-24.3,5.19-34.14-12.35-12.77-21.32-23-29.2-39.77-4.39-9.33-10.28-19.52-19.91-21.31-15.52-2.9-27.35,14.17-43,3.75-5.69-3.79-11.16-8.67-17.83-9.53-6.92-.89-13.68,2.8-19.31,7.25-7,5.54-13.41,12.06-21.61,15.62-13.53,5.88-29.08,8.23-40.18,19.21-7.43,7.34-11.53,17.3-15.27,27.12-3.18,8.32-8.8,17.89-9.62,26.84-.93,10.07,4.93,31.64,12.9,38,3.85,3.08,6.69,10.44,6.69,10.44s12.26-22.56,14.32-27.7,12.15-18.47,19.1-23.35,9.28-6.67,14.76-9.24C637.11,198.63,645.38,194.62,645.61,201.39Z"/><path class="cls-7" d="M630.47,280.13a7.19,7.19,0,1,1-6.78-7.56A7.18,7.18,0,0,1,630.47,280.13Z"/><path class="cls-7" d="M716.17,284.76a7.19,7.19,0,1,1-6.79-7.57A7.17,7.17,0,0,1,716.17,284.76Z"/><path class="cls-3" d="M606,259.46a4.82,4.82,0,0,1-1.82-9.26c23.18-9.65,40.69-.41,41.42,0a4.81,4.81,0,0,1-4.56,8.48c-.67-.35-14.45-7.37-33.16.43A5,5,0,0,1,606,259.46Z"/><path class="cls-3" d="M693.23,262.51a4.81,4.81,0,0,1-1.23-9.35c23.74-8.17,40.63,2.16,41.34,2.6a4.81,4.81,0,0,1-5.09,8.17c-.64-.4-14-8.27-33.12-1.66A4.81,4.81,0,0,1,693.23,262.51Z"/><path class="cls-7" d="M753,270.61h0a5,5,0,0,0-1.38-2.74,3.28,3.28,0,0,0-.56-.49h0a4.73,4.73,0,0,0-1.24-.7,51.52,51.52,0,0,0-7.13-2.06c-1.82-.41-4.73-1-8.33-1.54s-7.55-1.14-11.92-1.62h0a179.59,179.59,0,0,0-19.46-1.18h0a85.21,85.21,0,0,0-9.88.54c-1,.12-1.94.25-2.8.38-11.5,1.77-12,4.59-11.93,6.17a.29.29,0,0,1-.45.27,18.89,18.89,0,0,0-16.25-.88.3.3,0,0,1-.43-.32c.29-1.66,0-4.85-14-8.1l-.83-.19a93,93,0,0,0-11.7-1.67h0c-4.87-.44-10-.62-14.78-.65h0c-7.15-.06-13.74.23-18.32.56-1.76.12-3.22.25-4.3.37a57.56,57.56,0,0,0-7.73,1.37,4.62,4.62,0,0,0-2.38,1.47h0a4.84,4.84,0,0,0-1.23,3c0,.09,0,.18,0,.27a4.8,4.8,0,0,0,2.84,4.46,5.17,5.17,0,0,1,2.17,1.72c1.77,2.37,2.22,4.37,4.34,5.37a.27.27,0,0,1,.18.27c-.33,4.67-.28,12.62,1.55,18.64a21.19,21.19,0,0,0,5.33,9.22,22.67,22.67,0,0,0,9.08,5.23,47.34,47.34,0,0,0,12.13,2.16,44.45,44.45,0,0,0,12.59-1c8.11-2,14.28-7.73,17.35-16.24,2.78-7.73,3.91-15.34,3.72-19.8a1.79,1.79,0,0,0,1.8-.41h.08a3,3,0,0,0,.38-.34c1-.9,4.07-3.16,10.17-2.84s8.94,2.92,9.81,3.91c.1.15,0,.26.09.38h-.19a2.32,2.32,0,0,0,1.65.65.3.3,0,0,1,.32.33c-.59,4.46-.08,12,1.8,19.74,2.13,8.78,7.69,15.19,15.55,18a44.72,44.72,0,0,0,12.43,2.32,47.91,47.91,0,0,0,12.29-.84,26.22,26.22,0,0,0,6.32-2.15c4.36-2.19,7.41-5.63,9.56-10.67,2.47-5.79,3.34-13.69,3.52-18.36a.26.26,0,0,1,.2-.26c2.2-.76,2.67-2.72,4.68-4.88a5.36,5.36,0,0,1,2.09-1.42,5,5,0,0,0,2-1.35,5.14,5.14,0,0,0,1.27-3.08c0-.09,0-.18,0-.27A4.56,4.56,0,0,0,753,270.61ZM651.84,292.16c-2.87,8-8.6,13.36-16.14,15.17A47.19,47.19,0,0,1,612,306.18a21.06,21.06,0,0,1-8.48-4.87,19.58,19.58,0,0,1-4.81-8.47c-2-6.54-1.75-15.51-1.32-19.62v0c.63-2.6,2.2-7.53,5.59-10.09a9,9,0,0,1,1.59-.94c6.07-2.71,18.87-4,31.43-1.21s17.31,6.06,19.13,9.75c.06.14.14.26.21.39C656.1,274.48,655,283.32,651.84,292.16ZM741.08,281c0,4.11-.73,13.07-3.43,19.35-2.09,4.9-5,8.11-9.26,10.09a24.09,24.09,0,0,1-5.38,1.75,47.23,47.23,0,0,1-23.7-1.42c-7.29-2.61-12.41-8.59-14.41-16.82-2.21-9.13-2.33-18-1.19-21.34.08-.1.16-.23.24-.35,2.21-3.48,7.28-6.25,20.07-7.63,11.89-1.3,23.6.87,29.81,3.88.47.23.9.47,1.31.7,4.26,2.49,5.55,8.7,5.94,11.74Z"/><path d="M662.51,355.36a29.24,29.24,0,0,1-15.18-4.18.75.75,0,1,1,.86-1.23c.6.41,15.07,10.07,32.14-2.2a.75.75,0,1,1,.87,1.21A31.56,31.56,0,0,1,662.51,355.36Z"/><path d="M664.32,327.74a.72.72,0,0,1-.4-.12c-.15-.09-3.62-2.34-3.91-5.1-.25-2.48.79-15.06.83-15.59a.74.74,0,0,1,.81-.69.76.76,0,0,1,.69.81c-.38,4.48-1,13.44-.84,15.31.18,1.7,2.39,3.46,3.23,4a.74.74,0,0,1,.23,1A.76.76,0,0,1,664.32,327.74Z"/><path class="cls-8" d="M484.65,701.1a2,2,0,0,1-.85-.19,2,2,0,0,1-.95-2.66c2.18-4.61,20.39-59.16,20.7-63.36a2,2,0,1,1,4,.29c-.37,5-19.13,60.67-21.08,64.78A2,2,0,0,1,484.65,701.1Z"/><path class="cls-8" d="M675.25,443.49c-7.76,0-17.15-1.45-28.24-5.49-1.45-.53-21.8-10.9-25.87-13a2,2,0,1,1,1.82-3.56c9.2,4.7,24.24,12.32,25.43,12.79,35.58,13,52.62-2.58,52.78-2.73a2,2,0,0,1,2.77,2.89C703.4,434.92,694.16,443.49,675.25,443.49Z"/><path class="cls-8" d="M659.11,1115.23a2.08,2.08,0,0,1-.68-.12,2,2,0,0,1-1.2-2.56l24-66.5a2,2,0,0,1,3.77,1.36l-24,66.5A2,2,0,0,1,659.11,1115.23Z"/></svg>