<?xml version="1.0" encoding="utf-8"?>
<!-- Generator: Adobe Illustrator 25.0.1, SVG Export Plug-In . SVG Version: 6.00 Build 0)  -->
<svg version="1.1" id="Layer_1" xmlns="http://www.w3.org/2000/svg" xmlns:xlink="http://www.w3.org/1999/xlink" x="0px" y="0px"
	 viewBox="0 0 128 128" style="enable-background:new 0 0 128 128;" xml:space="preserve">
<style type="text/css">
	.st0{fill:#F6C3AB;}
	.st1{fill:#FBE1D5;}
	.st2{fill:#848484;}
</style>
<rect x="-162.7" y="16.4" class="st0" width="141.8" height="117.1"/>
<path class="st0" d="M86.2,27H41.8C32,27,24,35,24,44.8v44.4C24,99,32,107,41.8,107h44.4c9.8,0,17.8-8,17.8-17.8V44.8
	C104,35,96,27,86.2,27z M64,82c-8.3,0-15-6.7-15-15c0-8.3,6.7-15,15-15c8.3,0,15,6.7,15,15C79,75.3,72.3,82,64,82z"/>
<path class="st1" d="M86.2,24H41.8C32,24,24,32,24,41.8V53h29.8c2.7-2.5,6.2-4,10.2-4s7.5,1.5,10.2,4H104V41.8C104,32,96,24,86.2,24
	z"/>
<g>
	<path class="st2" d="M86.2,110H41.8C30.3,110,21,100.7,21,89.2V44.8C21,33.3,30.3,24,41.8,24h44.4c11.5,0,20.8,9.3,20.8,20.8v44.4
		C107,100.7,97.7,110,86.2,110z M41.8,30C33.6,30,27,36.6,27,44.8v44.4c0,8.1,6.6,14.8,14.8,14.8h44.4c8.1,0,14.8-6.6,14.8-14.8
		V44.8c0-8.1-6.6-14.8-14.8-14.8H41.8z"/>
</g>
<g>
	<path class="st2" d="M64,85c-9.9,0-18-8.1-18-18c0-1.7,1.3-3,3-3s3,1.3,3,3c0,6.6,5.4,12,12,12s12-5.4,12-12s-5.4-12-12-12
		c-1.7,0-3-1.3-3-3s1.3-3,3-3c9.9,0,18,8.1,18,18S73.9,85,64,85z"/>
</g>
<g>
	<path class="st2" d="M53.8,58.9c-0.8,0-1.6-0.3-2.1-0.9c-0.6-0.6-0.9-1.3-0.9-2.1c0-0.2,0-0.4,0.1-0.6c0-0.2,0.1-0.4,0.2-0.6
		c0.1-0.2,0.2-0.4,0.3-0.5c0.1-0.2,0.2-0.3,0.4-0.5c1.1-1.1,3.1-1.1,4.2,0c0.1,0.1,0.3,0.3,0.4,0.5c0.1,0.2,0.2,0.3,0.3,0.5
		s0.1,0.4,0.2,0.6c0,0.2,0.1,0.4,0.1,0.6c0,0.8-0.3,1.6-0.9,2.1C55.4,58.6,54.6,58.9,53.8,58.9z"/>
</g>
<g>
	<circle class="st2" cx="86" cy="45" r="4"/>
</g>
<rect x="-157.7" y="-50.2" class="st1" width="68.3" height="54.6"/>
<g>
	<path class="st2" d="M18.1,110.2c-1.6,0-3.1-1.2-3.1-2.7c0-1.5,1.3-2.7,3.1-2.7l91.5-0.5l0,0c1.6,0,3.1,1.2,3.1,2.7
		s-1.3,2.7-3.1,2.7L18.1,110.2L18.1,110.2z"/>
</g>
<g>
	<path class="st2" d="M124.8,109.7c-0.8,0-1.6-0.3-2.1-0.8c-0.1-0.1-0.3-0.3-0.4-0.5s-0.2-0.3-0.3-0.5c-0.1-0.2-0.1-0.4-0.2-0.5
		c0-0.2-0.1-0.4-0.1-0.5s0-0.4,0.1-0.5c0-0.2,0.1-0.4,0.2-0.5s0.2-0.4,0.3-0.5c0.1-0.2,0.2-0.3,0.4-0.5c0.1-0.1,0.3-0.3,0.4-0.4
		c0.2-0.1,0.3-0.2,0.5-0.3s0.4-0.1,0.6-0.2c0.4-0.1,0.8-0.1,1.2,0c0.2,0,0.4,0.1,0.6,0.2s0.4,0.2,0.5,0.3c0.2,0.1,0.3,0.2,0.4,0.4
		c0.6,0.5,0.9,1.2,0.9,1.9c0,0.2,0,0.4-0.1,0.5c0,0.2-0.1,0.4-0.2,0.5s-0.2,0.4-0.3,0.5c-0.1,0.2-0.2,0.3-0.4,0.5
		C126.5,109.3,125.6,109.7,124.8,109.7z"/>
</g>
</svg>
