<?xml version="1.0" encoding="utf-8"?>
<!-- Generator: Adobe Illustrator 25.0.1, SVG Export Plug-In . SVG Version: 6.00 Build 0)  -->
<svg version="1.1" id="Layer_1" xmlns="http://www.w3.org/2000/svg" xmlns:xlink="http://www.w3.org/1999/xlink" x="0px" y="0px"
	 viewBox="0 0 128 128" style="enable-background:new 0 0 128 128;" xml:space="preserve">
<style type="text/css">
	.st0{fill:#FFDBAB;}
	.st1{fill:#D18669;}
	.st2{fill:#444B54;}
	.st3{fill:#FFFFFF;}
</style>
<g>
	<path class="st0" d="M86.2,109H41.8C32,109,24,101,24,91.2V46.8C24,37,32,29,41.8,29h44.4C96,29,104,37,104,46.8v44.4
		C104,101,96,109,86.2,109z"/>
</g>
<g>
	<path class="st1" d="M24,46.8V58h80V46.8C104,37,96,29,86.2,29H41.8C32,29,24,37,24,46.8z"/>
</g>
<g>
	<path class="st2" d="M86.2,112H41.8C30.3,112,21,102.7,21,91.2V46.8C21,35.3,30.3,26,41.8,26h44.4c11.5,0,20.8,9.3,20.8,20.8v44.4
		C107,102.7,97.7,112,86.2,112z M41.8,32C33.6,32,27,38.6,27,46.8v44.4c0,8.1,6.6,14.8,14.8,14.8h44.4c8.1,0,14.8-6.6,14.8-14.8
		V46.8c0-8.1-6.6-14.8-14.8-14.8H41.8z"/>
</g>
<g>
	<circle class="st3" cx="64" cy="69" r="15"/>
</g>
<g>
	<path class="st2" d="M64,87c-9.9,0-18-8.1-18-18c0-1.7,1.3-3,3-3s3,1.3,3,3c0,6.6,5.4,12,12,12s12-5.4,12-12s-5.4-12-12-12
		c-1.7,0-3-1.3-3-3s1.3-3,3-3c9.9,0,18,8.1,18,18S73.9,87,64,87z"/>
</g>
<g>
	<path class="st2" d="M53.8,60.9c-0.2,0-0.4,0-0.6-0.1s-0.4-0.1-0.6-0.2c-0.2-0.1-0.4-0.2-0.5-0.3c-0.2-0.1-0.3-0.2-0.5-0.4
		c-0.1-0.1-0.3-0.3-0.4-0.5c-0.1-0.2-0.2-0.3-0.3-0.5s-0.1-0.4-0.2-0.6c0-0.2-0.1-0.4-0.1-0.6c0-0.2,0-0.4,0.1-0.6
		c0-0.2,0.1-0.4,0.2-0.6c0.1-0.2,0.2-0.4,0.3-0.5c0.1-0.2,0.2-0.3,0.4-0.5c0.1-0.1,0.3-0.3,0.5-0.4c0.2-0.1,0.3-0.2,0.5-0.3
		s0.4-0.1,0.6-0.2c0.4-0.1,0.8-0.1,1.2,0c0.2,0,0.4,0.1,0.6,0.2c0.2,0.1,0.4,0.2,0.5,0.3c0.2,0.1,0.3,0.2,0.4,0.4
		c0.1,0.1,0.3,0.3,0.4,0.5c0.1,0.2,0.2,0.3,0.3,0.5s0.1,0.4,0.2,0.6c0,0.2,0.1,0.4,0.1,0.6c0,0.2,0,0.4-0.1,0.6
		c0,0.2-0.1,0.4-0.2,0.6c-0.1,0.2-0.2,0.4-0.3,0.5c-0.1,0.2-0.2,0.3-0.4,0.5c-0.1,0.1-0.3,0.3-0.4,0.4c-0.2,0.1-0.3,0.2-0.5,0.3
		s-0.4,0.1-0.6,0.2S54,60.9,53.8,60.9z"/>
</g>
<g>
	<circle class="st2" cx="86" cy="47" r="4"/>
</g>
<g>
	<path class="st2" d="M19,112.3c-1.6,0-3-1.3-3-3s1.3-3,3-3l90-0.5l0,0c1.6,0,3,1.3,3,3s-1.3,3-3,3L19,112.3L19,112.3z"/>
</g>
<g>
	<path class="st2" d="M124,111.8c-0.8,0-1.6-0.3-2.1-0.9c-0.1-0.1-0.3-0.3-0.4-0.5s-0.2-0.3-0.3-0.5c-0.1-0.2-0.1-0.4-0.2-0.6
		c0-0.2-0.1-0.4-0.1-0.6s0-0.4,0.1-0.6c0-0.2,0.1-0.4,0.2-0.6s0.2-0.4,0.3-0.5c0.1-0.2,0.2-0.3,0.4-0.5c0.1-0.1,0.3-0.3,0.4-0.4
		c0.2-0.1,0.3-0.2,0.5-0.3c0.2-0.1,0.4-0.1,0.6-0.2c0.4-0.1,0.8-0.1,1.2,0c0.2,0,0.4,0.1,0.6,0.2s0.4,0.2,0.5,0.3
		c0.2,0.1,0.3,0.2,0.4,0.4c0.6,0.6,0.9,1.3,0.9,2.1c0,0.2,0,0.4-0.1,0.6c0,0.2-0.1,0.4-0.2,0.6s-0.2,0.4-0.3,0.5
		c-0.1,0.2-0.2,0.3-0.4,0.5C125.6,111.5,124.8,111.8,124,111.8z"/>
</g>
</svg>
