<?xml version="1.0" encoding="utf-8"?>
<!-- Generator: Adobe Illustrator 25.0.1, SVG Export Plug-In . SVG Version: 6.00 Build 0)  -->
<svg version="1.1" id="Layer_1" xmlns="http://www.w3.org/2000/svg" xmlns:xlink="http://www.w3.org/1999/xlink" x="0px" y="0px"
	 viewBox="0 0 128 128" style="enable-background:new 0 0 128 128;" xml:space="preserve">
<style type="text/css">
	.st0{fill:#FFDBAB;}
	.st1{fill:#FBE1D5;}
	.st2{fill:#FFFFFF;}
	.st3{fill:#F6C3AB;}
</style>
<path class="st0" d="M86.2,24H41.8C32,24,24,32,24,41.8v44.4C24,96,32,104,41.8,104h44.4c9.8,0,17.8-8,17.8-17.8V41.8
	C104,32,96,24,86.2,24z M64,79c-8.3,0-15-6.7-15-15c0-8.3,6.7-15,15-15c8.3,0,15,6.7,15,15C79,72.3,72.3,79,64,79z"/>
<path class="st1" d="M86.2,24H41.8C32,24,24,32,24,41.8V53h29.8c2.7-2.5,6.2-4,10.2-4s7.5,1.5,10.2,4H104V41.8C104,32,96,24,86.2,24
	z"/>
<g>
	<path class="st2" d="M86.2,107H41.8C30.3,107,21,97.7,21,86.2V41.8C21,30.3,30.3,21,41.8,21h44.4c11.5,0,20.8,9.3,20.8,20.8v44.4
		C107,97.7,97.7,107,86.2,107z M41.8,27C33.6,27,27,33.6,27,41.8v44.4c0,8.1,6.6,14.8,14.8,14.8h44.4c8.1,0,14.8-6.6,14.8-14.8V41.8
		c0-8.1-6.6-14.8-14.8-14.8H41.8z"/>
</g>
<g>
	<path class="st2" d="M64,82c-9.9,0-18-8.1-18-18c0-1.7,1.3-3,3-3s3,1.3,3,3c0,6.6,5.4,12,12,12s12-5.4,12-12s-5.4-12-12-12
		c-1.7,0-3-1.3-3-3s1.3-3,3-3c9.9,0,18,8.1,18,18S73.9,82,64,82z"/>
</g>
<g>
	<path class="st2" d="M53.8,55.9c-0.8,0-1.6-0.3-2.1-0.9c-0.6-0.6-0.9-1.3-0.9-2.1c0-0.2,0-0.4,0.1-0.6c0-0.2,0.1-0.4,0.2-0.6
		c0.1-0.2,0.2-0.4,0.3-0.5c0.1-0.2,0.2-0.3,0.4-0.5c1.1-1.1,3.1-1.1,4.2,0c0.1,0.1,0.3,0.3,0.4,0.5c0.1,0.2,0.2,0.3,0.3,0.5
		s0.1,0.4,0.2,0.6c0,0.2,0.1,0.4,0.1,0.6c0,0.8-0.3,1.6-0.9,2.1C55.4,55.6,54.6,55.9,53.8,55.9z"/>
</g>
<g>
	<circle class="st2" cx="86" cy="42" r="4"/>
</g>
<rect x="-157.7" y="-50.2" class="st1" width="68.3" height="54.6"/>
<rect x="-166.5" y="24" class="st3" width="77.1" height="46.9"/>
</svg>
