<?xml version="1.0" encoding="utf-8"?>
<!-- Generator: Adobe Illustrator 25.0.1, SVG Export Plug-In . SVG Version: 6.00 Build 0)  -->
<svg version="1.1" id="Layer_1" xmlns="http://www.w3.org/2000/svg" xmlns:xlink="http://www.w3.org/1999/xlink" x="0px" y="0px"
	 viewBox="0 0 128 128" style="enable-background:new 0 0 128 128;" xml:space="preserve">
<style type="text/css">
	.st0{fill:#F6C3AB;stroke:#848484;stroke-width:3;stroke-miterlimit:10;}
	.st1{fill:#848484;}
	.st2{fill:#FBE1D5;}
	.st3{fill:none;}
	.st4{fill:#F6C3AB;}
</style>
<path class="st0" d="M86.2,24H41.8C32,24,24,32,24,41.8v44.4C24,96,32,104,41.8,104h44.4c9.8,0,17.8-8,17.8-17.8V41.8
	C104,32,96,24,86.2,24z M53.5,79V49l26,15L53.5,79z"/>
<g>
	<path class="st1" d="M18.9,107.2c-1.6,0-3-1.3-3-3s1.3-3,3-3l90-0.5l0,0c1.6,0,3,1.3,3,3s-1.3,3-3,3L18.9,107.2L18.9,107.2z"/>
</g>
<g>
	<path class="st1" d="M123.9,106.7c-0.8,0-1.6-0.3-2.1-0.9c-0.1-0.1-0.3-0.3-0.4-0.5s-0.2-0.3-0.3-0.5c-0.1-0.2-0.1-0.4-0.2-0.6
		c0-0.2-0.1-0.4-0.1-0.6s0-0.4,0.1-0.6c0-0.2,0.1-0.4,0.2-0.6s0.2-0.4,0.3-0.5c0.1-0.2,0.2-0.3,0.4-0.5c0.1-0.1,0.3-0.3,0.4-0.4
		c0.2-0.1,0.3-0.2,0.5-0.3c0.2-0.1,0.4-0.1,0.6-0.2c0.4-0.1,0.8-0.1,1.2,0c0.2,0,0.4,0.1,0.6,0.2s0.4,0.2,0.5,0.3
		c0.2,0.1,0.3,0.2,0.4,0.4c0.6,0.6,0.9,1.3,0.9,2.1c0,0.2,0,0.4-0.1,0.6c0,0.2-0.1,0.4-0.2,0.6s-0.2,0.4-0.3,0.5
		c-0.1,0.2-0.2,0.3-0.4,0.5C125.5,106.3,124.7,106.7,123.9,106.7z"/>
</g>
<path class="st2" d="M24,41.8v14.7c14.5-11.1,41.2-24.9,79.5-19c-2-7.8-8.9-13.5-17.3-13.5H41.8C32,24,24,32,24,41.8z"/>
<path class="st3" d="M86.2,104H41.8C32,104,24,96,24,86.2V41.8C24,32,32,24,41.8,24h44.4C96,24,104,32,104,41.8v44.4
	C104,96,96,104,86.2,104z"/>
<rect x="152.1" y="44.5" class="st4" width="141.8" height="117.1"/>
<rect x="182.9" y="-22.1" class="st2" width="68.3" height="54.6"/>
<rect x="179.4" y="-86" class="st1" width="68.3" height="54.6"/>
<path class="st1" d="M86.2,107H41.8C30.3,107,21,97.7,21,86.2V41.8C21,30.3,30.3,21,41.8,21h44.4c11.5,0,20.8,9.3,20.8,20.8v44.4
	C107,97.7,97.7,107,86.2,107z M41.8,27C33.6,27,27,33.6,27,41.8v44.4c0,8.1,6.6,14.8,14.8,14.8h44.4c8.1,0,14.8-6.6,14.8-14.8V41.8
	c0-8.1-6.6-14.8-14.8-14.8H41.8z"/>
</svg>
