<?xml version="1.0" encoding="utf-8"?>
<!-- Generator: Adobe Illustrator 25.0.1, SVG Export Plug-In . SVG Version: 6.00 Build 0)  -->
<svg version="1.1" id="Layer_1" xmlns="http://www.w3.org/2000/svg" xmlns:xlink="http://www.w3.org/1999/xlink" x="0px" y="0px"
	 viewBox="0 0 128 128" style="enable-background:new 0 0 128 128;" xml:space="preserve">
<style type="text/css">
	.st0{fill:#FFDBAB;}
	.st1{fill:#D18669;}
	.st2{fill:#444B54;}
	.st3{fill:#FFFFFF;}
	.st4{fill:#FF697B;}
	.st5{fill:none;stroke:#444B54;stroke-width:6;stroke-linecap:round;stroke-linejoin:round;stroke-miterlimit:10;}
</style>
<g>
	<path class="st0" d="M86.1,103.8H41.7c-9.8,0-17.8-8-17.8-17.8V41.6c0-9.8,8-17.8,17.8-17.8h44.4c9.8,0,17.8,8,17.8,17.8V86
		C103.9,95.8,95.9,103.8,86.1,103.8z"/>
</g>
<g>
	<path class="st1" d="M23.9,41.6v11.2h80V41.6c0-9.8-8-17.8-17.8-17.8H41.7C31.9,23.8,23.9,31.8,23.9,41.6z"/>
</g>
<g>
	<path class="st2" d="M86.1,106.8H41.7c-11.5,0-20.8-9.3-20.8-20.8V41.6c0-11.5,9.3-20.8,20.8-20.8h44.4c11.5,0,20.8,9.3,20.8,20.8
		V86C106.9,97.5,97.6,106.8,86.1,106.8z M41.7,26.8c-8.2,0-14.8,6.6-14.8,14.8V86c0,8.1,6.6,14.8,14.8,14.8h44.4
		c8.1,0,14.8-6.6,14.8-14.8V41.6c0-8.1-6.6-14.8-14.8-14.8H41.7z"/>
</g>
<g>
	<circle class="st3" cx="63.9" cy="63.8" r="15"/>
</g>
<g>
	<path class="st2" d="M63.9,81.8c-9.9,0-18-8.1-18-18c0-1.7,1.3-3,3-3s3,1.3,3,3c0,6.6,5.4,12,12,12s12-5.4,12-12s-5.4-12-12-12
		c-1.7,0-3-1.3-3-3s1.3-3,3-3c9.9,0,18,8.1,18,18S73.8,81.8,63.9,81.8z"/>
</g>
<g>
	<path class="st2" d="M53.7,55.8c-0.2,0-0.4,0-0.6-0.1s-0.4-0.1-0.6-0.2c-0.2-0.1-0.4-0.2-0.5-0.3c-0.2-0.1-0.3-0.2-0.5-0.4
		c-0.1-0.1-0.3-0.3-0.4-0.5C51,54,50.9,54,50.8,53.8s-0.1-0.4-0.2-0.6c0-0.2-0.1-0.4-0.1-0.6c0-0.2,0-0.4,0.1-0.6
		c0-0.2,0.1-0.4,0.2-0.6c0.1-0.2,0.2-0.4,0.3-0.5c0.1-0.2,0.2-0.3,0.4-0.5c0.1-0.1,0.3-0.3,0.5-0.4c0.2-0.1,0.3-0.2,0.5-0.3
		s0.4-0.1,0.6-0.2c0.4-0.1,0.8-0.1,1.2,0c0.2,0,0.4,0.1,0.6,0.2c0.2,0.1,0.4,0.2,0.5,0.3c0.2,0.1,0.3,0.2,0.4,0.4
		c0.1,0.1,0.3,0.3,0.4,0.5c0.1,0.2,0.2,0.3,0.3,0.5s0.1,0.4,0.2,0.6c0,0.2,0.1,0.4,0.1,0.6c0,0.2,0,0.4-0.1,0.6
		c0,0.2-0.1,0.4-0.2,0.6c-0.1,0.2-0.2,0.4-0.3,0.5c-0.1,0.2-0.2,0.3-0.4,0.5c-0.1,0.1-0.3,0.3-0.4,0.4c-0.2,0.1-0.3,0.2-0.5,0.3
		s-0.4,0.1-0.6,0.2S53.9,55.8,53.7,55.8z"/>
</g>
<g>
	<circle class="st2" cx="85.9" cy="41.8" r="4"/>
</g>
<g>
	<path class="st2" d="M18.9,107.2c-1.6,0-3-1.3-3-3s1.3-3,3-3l90-0.5l0,0c1.6,0,3,1.3,3,3s-1.3,3-3,3L18.9,107.2L18.9,107.2z"/>
</g>
<g>
	<path class="st2" d="M123.9,106.7c-0.8,0-1.6-0.3-2.1-0.9c-0.1-0.1-0.3-0.3-0.4-0.5s-0.2-0.3-0.3-0.5c-0.1-0.2-0.1-0.4-0.2-0.6
		c0-0.2-0.1-0.4-0.1-0.6s0-0.4,0.1-0.6c0-0.2,0.1-0.4,0.2-0.6s0.2-0.4,0.3-0.5c0.1-0.2,0.2-0.3,0.4-0.5c0.1-0.1,0.3-0.3,0.4-0.4
		c0.2-0.1,0.3-0.2,0.5-0.3c0.2-0.1,0.4-0.1,0.6-0.2c0.4-0.1,0.8-0.1,1.2,0c0.2,0,0.4,0.1,0.6,0.2s0.4,0.2,0.5,0.3
		c0.2,0.1,0.3,0.2,0.4,0.4c0.6,0.6,0.9,1.3,0.9,2.1c0,0.2,0,0.4-0.1,0.6c0,0.2-0.1,0.4-0.2,0.6s-0.2,0.4-0.3,0.5
		c-0.1,0.2-0.2,0.3-0.4,0.5C125.5,106.3,124.7,106.7,123.9,106.7z"/>
</g>
<path class="st4" d="M86.2,104H41.8C32,104,24,96,24,86.2V41.8C24,32,32,24,41.8,24h44.4C96,24,104,32,104,41.8v44.4
	C104,96,96,104,86.2,104z"/>
<path class="st4" d="M86.2,104H41.8C32,104,24,96,24,86.2V41.8C24,32,32,24,41.8,24h44.4C96,24,104,32,104,41.8v44.4
	C104,96,96,104,86.2,104z"/>
<path class="st3" d="M24,41.8v14.7c14.5-11.1,41.2-24.9,79.5-19c-2-7.8-8.9-13.5-17.3-13.5H41.8C32,24,24,32,24,41.8z"/>
<g>
	<polygon class="st3" points="53.5,49 53.5,79 79.5,64 	"/>
</g>
<path class="st5" d="M86.2,104H41.8C32,104,24,96,24,86.2V41.8C24,32,32,24,41.8,24h44.4C96,24,104,32,104,41.8v44.4
	C104,96,96,104,86.2,104z"/>
</svg>
