<svg id="Capa_1" data-name="Capa 1" xmlns="http://www.w3.org/2000/svg" viewBox="0 0 2000 2000"><defs><style>.cls-1{fill:#fcd3ac;}.cls-2{fill:#e7b696;}.cls-3{fill:#d5aa8c;}.cls-4{fill:#e6dfd5;}.cls-5{fill:#d5cfc6;}.cls-6{fill:#ebe3d8;}.cls-7{fill:#e6e0d8;}.cls-8{fill:#fcc4a2;}.cls-9{fill:#f0bd9c;}.cls-10{fill:#d9d2c9;}.cls-11{fill:#d7ab8d;}.cls-12{fill:#7e3f40;}.cls-13{fill:#67392d;}.cls-14{fill:#8c4548;}.cls-15{fill:#764234;}.cls-16{fill:#84493b;}.cls-17{fill:#9a845d;}.cls-18{fill:#a88f66;}.cls-19{fill:#789e34;}.cls-20{fill:#81aa39;}.cls-21{fill:#769937;}.cls-22{fill:#6e8e32;}.cls-23{fill:#6b952c;}.cls-24{fill:#74a031;}</style></defs><path class="cls-1" d="M287.2,1361.91c44.31-98.84,143.08-174.3,249.68-192,158.91-26.33,221.31,94.64,340,54,115.1-39.44,90.31-164.75,218.32-234.62,125.34-68.42,324.75-44.16,404,59,82.75,107.68-25.39,223.44,64,376.4,70.79,121.15,181,121.17,180.68,192-.47,87.72-170.26,181.48-330,185.69-66.41,1.75-106.52-12.62-313.67-100.37-381.78-161.72-430-191-520.7-175.66-152.67,25.86-213,142.2-276,106.65C242.35,1598.42,244.21,1457.82,287.2,1361.91Z"/><rect class="cls-2" x="646.04" y="508.72" width="94.1" height="166.87" rx="15.06"/><rect class="cls-3" x="661.1" y="530.05" width="63.99" height="118.84" rx="10.48"/><rect class="cls-2" x="1225.7" y="508.72" width="94.1" height="166.87" rx="15.06" transform="translate(2545.51 1184.32) rotate(180)"/><rect class="cls-3" x="1240.76" y="530.05" width="63.99" height="118.84" rx="10.48" transform="translate(2545.51 1178.95) rotate(180)"/><rect class="cls-4" x="728.85" y="860.04" width="508.15" height="461.72" rx="107.18"/><path class="cls-5" d="M1129.82,1286.63H836a107.18,107.18,0,0,1-107.18-107.18v35.13A107.18,107.18,0,0,0,836,1321.76h293.79A107.18,107.18,0,0,0,1237,1214.58v-35.13A107.18,107.18,0,0,1,1129.82,1286.63Z"/><rect class="cls-6" x="622.43" y="1078.38" width="150.56" height="260.97" rx="53.43" transform="translate(-350.11 286.78) rotate(-18.66)"/><path class="cls-7" d="M604.24,1166.22a53.43,53.43,0,0,1,33.53-67.72l41.4-14a53.43,53.43,0,0,1,65.38,27.77l-.17-.51a53.43,53.43,0,0,0-67.72-33.53l-41.4,14A53.43,53.43,0,0,0,601.73,1160L651,1306a53.12,53.12,0,0,0,2.34,5.77Z"/><path class="cls-2" d="M679.05,1177.41l3,11.82a11,11,0,0,0,13.35,8l9.86-2.46c5.9-1.47,7.76-5.87,6.29-11.77l-2.78-14.68a8.42,8.42,0,0,0-2,.42C698.24,1172.23,688.79,1174.88,679.05,1177.41Z"/><path class="cls-8" d="M691.47,1139.7l-9.85,2.45a11,11,0,0,0-8,13.36l5.46,21.9c9.74-2.53,19.19-5.18,27.63-8.65a8.42,8.42,0,0,1,2-.42l-3.89-20.62A11,11,0,0,0,691.47,1139.7Z"/><path class="cls-2" d="M661.54,1192c1.31,3.88,4.51,6.59,8.39,5.28l6.06-2c3.88-1.32,5.09-4.19,3.78-8.08l-2.61-9.21c-6.35,1.64-12.8,3.26-19.16,5Z"/><path class="cls-8" d="M663.49,1158.18l-6,2a7.41,7.41,0,0,0-4.66,9.4l5.22,13.31c6.36-1.78,12.81-3.4,19.16-5l-4.26-15.06A7.42,7.42,0,0,0,663.49,1158.18Z"/><path class="cls-2" d="M634.91,1190.81l4.85,11.14c1.42,4.2,3.58,6.91,7.78,5.49l5.65-1.91c4.21-1.42,6.22-4.21,4.8-8.41l-4-13A169.47,169.47,0,0,0,634.91,1190.81Z"/><path class="cls-8" d="M639.09,1163.77l-5.66,1.91a8,8,0,0,0-5,10.18l6.51,15a169.47,169.47,0,0,1,19.07-6.72l-4.71-15.28A8,8,0,0,0,639.09,1163.77Z"/><path class="cls-2" d="M618.38,1213.15c1.58,3.85,4.21,5.86,8.06,4.27l6.63-2.73a7.55,7.55,0,0,0,4.11-9.86L632,1192.14a76.42,76.42,0,0,0-18.26,11.6Z"/><path class="cls-8" d="M618.38,1179l-6.62,2.73a7.54,7.54,0,0,0-4.11,9.85l6,12.13a76.42,76.42,0,0,1,18.26-11.6l-3.71-9A7.55,7.55,0,0,0,618.38,1179Z"/><path class="cls-2" d="M600.57,1220.9l8,10.14c1.88,3.09,3.56,5.19,6.65,3.31l4.82-2.93a6.56,6.56,0,0,0,2.19-9l-10.33-17A53.52,53.52,0,0,0,600.57,1220.9Z"/><path class="cls-8" d="M602,1201.89l-4.81,2.93a6.54,6.54,0,0,0-2.19,9l5.55,7.07a53.52,53.52,0,0,1,11.29-15.48l-.82-1.34A6.55,6.55,0,0,0,602,1201.89Z"/><path class="cls-2" d="M657,1233.49a50.73,50.73,0,0,1-5.44,1.61A9.31,9.31,0,0,0,657,1233.49Z"/><path class="cls-2" d="M657,1233.49a9.31,9.31,0,0,1-5.44,1.61l-.55.14.55-.14a21.9,21.9,0,0,1-3.33-.25c4.4,9.11,17.44-3.24,25.38-3.27-4.28,22.63,5.73,44.41,12.95,65.81-1.28-23.41-21.23-51.1-3.06-71.8C673.78,1225.62,665.67,1230.41,657,1233.49Z"/><path class="cls-8" d="M711.59,1180.62c-6.8-12.19-19.18-3.07-35.94,2.59l-22,8.77-26.15,8.83c-17,8.35-24.18,14-18.32,32l.2.62,35.29,96.67c.16.47.34.93.51,1.39,18.06,27.06,52.8,17.37,78.08,3.85,15.64-8,19.44-22.9,21.32-38.66-.14-.5-.29-1-.45-1.49L713.49,1185A25.54,25.54,0,0,0,711.59,1180.62Zm-25,116.77c-7.22-21.4-17.23-43.18-12.95-65.81-7.94,0-21,12.38-25.38,3.27a21.9,21.9,0,0,0,3.33.25,50.73,50.73,0,0,0,5.44-1.61,21.21,21.21,0,0,0,3.12-2.65,21.21,21.21,0,0,1-3.12,2.65c8.68-3.08,16.79-7.87,26.5-7.9C665.32,1246.29,685.27,1274,686.55,1297.39Z"/><path class="cls-2" d="M723.21,1335.33c-25.28,13.52-60,23.21-78.08-3.85a35,35,0,0,0,44,20.65l32.1-10.84c18-6.06,28.48-26.52,23.28-44.62C742.65,1312.43,738.85,1327.29,723.21,1335.33Z"/><rect class="cls-6" x="1210.65" y="1078.29" width="150.56" height="260.97" rx="53.43" transform="translate(2056.21 2796.67) rotate(-159.11)"/><path class="cls-7" d="M1188.12,1260.19l55-144a53.44,53.44,0,0,1,69-30.86l40.82,15.58a53.45,53.45,0,0,1,34.29,46.91,53.46,53.46,0,0,0-34.29-53.18l-40.82-15.58a53.43,53.43,0,0,0-69,30.86l-55,144a53.3,53.3,0,0,0-3.43,22.07A53.78,53.78,0,0,1,1188.12,1260.19Z"/><path class="cls-2" d="M1305.8,1178.07l-3.4,11.7a11,11,0,0,1-13.66,7.49l-9.75-2.84c-5.84-1.7-7.53-6.17-5.83-12l3.35-14.56a8.9,8.9,0,0,1,2,.5C1286.83,1172.15,1296.17,1175.16,1305.8,1178.07Z"/><path class="cls-8" d="M1294.86,1139.9l9.75,2.84a11,11,0,0,1,7.5,13.66l-6.31,21.67c-9.63-2.91-19-5.92-27.27-9.72a8.9,8.9,0,0,0-2-.5l4.7-20.45A11,11,0,0,1,1294.86,1139.9Z"/><path class="cls-2" d="M1322.74,1193.28c-1.47,3.83-4.77,6.41-8.6,5l-6-2.28c-3.83-1.46-4.93-4.38-3.46-8.21l3-9.1c6.28,1.88,12.67,3.75,18.95,5.78Z"/><path class="cls-8" d="M1322.1,1159.46l6,2.28a7.42,7.42,0,0,1,4.29,9.58l-5.74,13.1c-6.28-2-12.67-3.9-18.95-5.78l4.85-14.89A7.42,7.42,0,0,1,1322.1,1159.46Z"/><path class="cls-2" d="M1349.39,1193.19l-5.28,10.94c-1.58,4.14-3.85,6.76-8,5.18l-5.57-2.13c-4.15-1.58-6-4.45-4.47-8.59l4.52-12.86A167,167,0,0,1,1349.39,1193.19Z"/><path class="cls-8" d="M1346.27,1166l5.57,2.13a8,8,0,0,1,4.64,10.36l-7.09,14.7a167,167,0,0,0-18.79-7.46l5.3-15.09A8,8,0,0,1,1346.27,1166Z"/><path class="cls-2" d="M1365,1216.14c-1.74,3.8-4.44,5.7-8.23,4l-6.51-3a7.54,7.54,0,0,1-3.72-10l5.71-12.48a76.3,76.3,0,0,1,17.8,12.3Z"/><path class="cls-8" d="M1366.36,1182.05l6.52,3a7.55,7.55,0,0,1,3.72,10l-6.51,11.88a76.3,76.3,0,0,0-17.8-12.3l4.06-8.86A7.55,7.55,0,0,1,1366.36,1182.05Z"/><path class="cls-2" d="M1382.53,1224.59l-8.35,9.82c-2,3-3.76,5-6.78,3l-4.69-3.12a6.56,6.56,0,0,1-1.84-9.1l11-16.56A53.42,53.42,0,0,1,1382.53,1224.59Z"/><path class="cls-8" d="M1381.82,1205.53l4.69,3.12a6.56,6.56,0,0,1,1.85,9.09l-5.83,6.85a53.42,53.42,0,0,0-10.68-15.91l.87-1.31A6.57,6.57,0,0,1,1381.82,1205.53Z"/><path class="cls-2" d="M1325.66,1235a50.84,50.84,0,0,0,5.38,1.83A9.27,9.27,0,0,1,1325.66,1235Z"/><path class="cls-2" d="M1325.66,1235a9.27,9.27,0,0,0,5.38,1.83l.54.16-.54-.16a24.63,24.63,0,0,0,3.33-.12c-4.75,8.93-17.3-3.92-25.23-4.26,3.39,22.78-7.45,44.16-15.51,65.26,2.19-23.34,23.21-50.24,5.86-71.63C1309.19,1226.45,1317.11,1231.55,1325.66,1235Z"/><path class="cls-8" d="M1271.1,1184.31l-34.86,108.91c-.19.48-.36,1-.52,1.47,1.27,15.82,4.48,30.82,19.81,39.46,24.73,14.49,59.07,25.53,78.16-.8.19-.46.39-.91.56-1.37l39-95.23c.08-.21.15-.4.22-.61,6.56-17.72-.42-23.67-17.06-32.68l-25.79-9.84L1309,1184c-16.53-6.31-28.55-15.91-35.82-4A25.8,25.8,0,0,0,1271.1,1184.31Zm28.39,41.73c9.7.41,17.62,5.51,26.17,8.92a20.34,20.34,0,0,1-3-2.77,20.34,20.34,0,0,0,3,2.77,50.84,50.84,0,0,0,5.38,1.83,24.63,24.63,0,0,0,3.33-.12c-4.75,8.93-17.3-3.92-25.23-4.26,3.39,22.78-7.45,44.16-15.51,65.26C1295.82,1274.33,1316.84,1247.43,1299.49,1226Z"/><path class="cls-2" d="M1255.53,1334.15c24.73,14.49,59.07,25.53,78.16-.8a35,35,0,0,1-44.79,18.92l-31.65-12.08c-17.71-6.77-27.43-27.61-21.53-45.5C1237,1310.51,1240.2,1325.51,1255.53,1334.15Z"/><path class="cls-2" d="M865.54,1110.55v-49.63h-104v60.77C793.2,1103.86,830.48,1101.57,865.54,1110.55Z"/><path class="cls-8" d="M865.54,1304.83V1110.55c-35.06-9-72.34-6.69-104,11.14V1301.2C796.2,1299.23,830.87,1302.79,865.54,1304.83Z"/><path class="cls-2" d="M761.53,1301.2v27.18h104v-23.55C830.87,1302.79,796.2,1299.23,761.53,1301.2Z"/><path class="cls-9" d="M728.1,1336.24v3.51c31,3.92,62.92,4.86,94.38.73-29.73-3.58-60.44-9.2-87.06-23.18A28.14,28.14,0,0,0,728.1,1336.24Z"/><path class="cls-9" d="M741.21,1312.43a28.46,28.46,0,0,0-5.79,4.87c26.62,14,57.33,19.6,87.06,23.18a276.51,276.51,0,0,0,33.78-6.53c5.11-.73,6.49-6.06,7.63-12.14C829,1347.43,779.51,1327.45,741.21,1312.43Z"/><path class="cls-8" d="M865.54,1308H756.4a28.06,28.06,0,0,0-15.19,4.48c38.3,15,87.83,35,122.68,9.38.5-2.64,1-5.42,1.65-8Z"/><path class="cls-2" d="M856.26,1334c-42.11,11-86,11.13-128.16,5.8v5.34H865.54v-31.31C863.24,1322.41,863.59,1332.9,856.26,1334Z"/><rect class="cls-8" x="728.1" y="1326.52" width="11.14" height="27.86" rx="5.57"/><rect class="cls-8" x="744.82" y="1326.52" width="14.86" height="27.86" rx="6.95"/><rect class="cls-8" x="765.25" y="1326.52" width="16.72" height="27.86" rx="7.37"/><rect class="cls-8" x="785.68" y="1326.52" width="18.57" height="27.86" rx="7.77"/><rect class="cls-8" x="839" y="1329.75" width="19.15" height="27.86" rx="7.92" transform="translate(2059.51 314.51) rotate(81.91)"/><path class="cls-2" d="M862.47,1342.44a7.91,7.91,0,0,1-6.6,6.16l-11.9,1.69a7.93,7.93,0,0,1-9-6.72l-.34-2.36a7.65,7.65,0,0,0-.13,2.79l.47,3.28a7.94,7.94,0,0,0,9,6.73l11.9-1.69a8,8,0,0,0,6.73-9Z"/><path class="cls-2" d="M796.48,1350.67h-3a7.79,7.79,0,0,1-7.77-7.77v3.71a7.79,7.79,0,0,0,7.77,7.77h3a7.8,7.8,0,0,0,7.77-7.77v-3.71A7.8,7.8,0,0,1,796.48,1350.67Z"/><path class="cls-2" d="M733.67,1348.81a5.59,5.59,0,0,1-5.57-5.57v5.57a5.57,5.57,0,0,0,11.14,0v-5.57A5.58,5.58,0,0,1,733.67,1348.81Z"/><path class="cls-2" d="M752.72,1348.81h-1a7,7,0,0,1-6.95-7v5.57a7,7,0,0,0,6.95,7h1a7,7,0,0,0,6.95-7v-5.57A7,7,0,0,1,752.72,1348.81Z"/><path class="cls-2" d="M774.59,1348.81h-2a7.39,7.39,0,0,1-7.37-7.37V1347a7.39,7.39,0,0,0,7.37,7.37h2A7.4,7.4,0,0,0,782,1347v-5.57A7.4,7.4,0,0,1,774.59,1348.81Z"/><path class="cls-6" d="M797.31,867.56H821a78.49,78.49,0,0,1,78.49,78.49v148.3a0,0,0,0,1,0,0H718.81a0,0,0,0,1,0,0V946.06A78.49,78.49,0,0,1,797.31,867.56Z"/><rect class="cls-10" x="718.81" y="1064.64" width="180.67" height="29.72"/><path class="cls-2" d="M1102.82,1110.55v-49.63h104v60.77C1175.16,1103.86,1137.88,1101.57,1102.82,1110.55Z"/><path class="cls-8" d="M1102.82,1304.83V1110.55c35.06-9,72.34-6.69,104,11.14V1301.2C1172.16,1299.23,1137.48,1302.79,1102.82,1304.83Z"/><path class="cls-2" d="M1206.83,1301.2v27.18h-104v-23.55C1137.48,1302.79,1172.16,1299.23,1206.83,1301.2Z"/><path class="cls-9" d="M1240.26,1336.24v3.51c-31,3.92-62.92,4.86-94.39.73,29.73-3.58,60.45-9.2,87.07-23.18A28.19,28.19,0,0,1,1240.26,1336.24Z"/><path class="cls-9" d="M1227.15,1312.43a28.73,28.73,0,0,1,5.79,4.87c-26.62,14-57.34,19.6-87.07,23.18a276,276,0,0,1-33.77-6.53c-5.11-.73-6.49-6.06-7.64-12.14C1139.32,1347.43,1188.85,1327.45,1227.15,1312.43Z"/><path class="cls-8" d="M1102.82,1308H1212a28.08,28.08,0,0,1,15.19,4.48c-38.3,15-87.83,35-122.69,9.38-.49-2.64-1-5.42-1.64-8Z"/><path class="cls-2" d="M1112.1,1334c42.1,11,86,11.13,128.16,5.8v5.34H1102.82v-31.31C1105.12,1322.41,1104.77,1332.9,1112.1,1334Z"/><rect class="cls-8" x="1229.11" y="1326.52" width="11.14" height="27.86" rx="5.57" transform="translate(2469.37 2680.9) rotate(-180)"/><rect class="cls-8" x="1208.68" y="1326.52" width="14.86" height="27.86" rx="6.95" transform="translate(2432.22 2680.9) rotate(180)"/><rect class="cls-8" x="1186.39" y="1326.52" width="16.72" height="27.86" rx="7.37" transform="translate(2389.51 2680.9) rotate(180)"/><rect class="cls-8" x="1164.11" y="1326.52" width="18.57" height="27.86" rx="7.77" transform="translate(2346.79 2680.9) rotate(180)"/><rect class="cls-8" x="1110.21" y="1329.75" width="19.15" height="27.86" rx="7.92" transform="translate(2607.64 424.07) rotate(98.09)"/><path class="cls-2" d="M1105.89,1342.44a7.91,7.91,0,0,0,6.6,6.16l11.9,1.69a7.93,7.93,0,0,0,8.95-6.72l.34-2.36a8.11,8.11,0,0,1,.13,2.79l-.47,3.28a7.94,7.94,0,0,1-8.95,6.73l-11.9-1.69a8,8,0,0,1-6.73-9Z"/><path class="cls-2" d="M1171.88,1350.67h3a7.8,7.8,0,0,0,7.77-7.77v3.71a7.8,7.8,0,0,1-7.77,7.77h-3a7.79,7.79,0,0,1-7.77-7.77v-3.71A7.79,7.79,0,0,0,1171.88,1350.67Z"/><path class="cls-2" d="M1234.69,1348.81a5.59,5.59,0,0,0,5.57-5.57v5.57a5.58,5.58,0,0,1-11.15,0v-5.57A5.59,5.59,0,0,0,1234.69,1348.81Z"/><path class="cls-2" d="M1215.63,1348.81h1a7,7,0,0,0,7-7v5.57a7,7,0,0,1-7,7h-1a7,7,0,0,1-7-7v-5.57A7,7,0,0,0,1215.63,1348.81Z"/><path class="cls-2" d="M1193.77,1348.81h2a7.4,7.4,0,0,0,7.37-7.37V1347a7.4,7.4,0,0,1-7.37,7.37h-2a7.4,7.4,0,0,1-7.38-7.37v-5.57A7.4,7.4,0,0,0,1193.77,1348.81Z"/><path class="cls-6" d="M1067.62,867.56h181.93a0,0,0,0,1,0,0v148a78.77,78.77,0,0,1-78.77,78.77h-24.4a78.77,78.77,0,0,1-78.77-78.77v-148A0,0,0,0,1,1067.62,867.56Z" transform="translate(2317.16 1961.92) rotate(180)"/><rect class="cls-10" x="1067.62" y="1064.64" width="181.93" height="29.72" transform="translate(2317.16 2158.99) rotate(180)"/><path class="cls-8" d="M908.09,280.37h149.68a203.07,203.07,0,0,1,203.07,203.07V685.63a0,0,0,0,1,0,0H705a0,0,0,0,1,0,0V483.45A203.07,203.07,0,0,1,908.09,280.37Z"/><path class="cls-8" d="M908.09,543.86h149.68a203.07,203.07,0,0,1,203.07,203.07V906.46a0,0,0,0,1,0,0H705a0,0,0,0,1,0,0V746.93A203.07,203.07,0,0,1,908.09,543.86Z" transform="translate(1965.85 1450.31) rotate(180)"/><path class="cls-2" d="M1057.76,862.55H908.09C795.93,862.55,705,771.63,705,659.47v43.91c0,112.16,90.92,203.08,203.08,203.08h149.67c112.16,0,203.08-90.92,203.08-203.08V659.47C1260.84,771.63,1169.92,862.55,1057.76,862.55Z"/><circle class="cls-11" cx="867.49" cy="564.56" r="40.78"/><circle class="cls-11" cx="1095.85" cy="564.56" r="40.78"/><circle class="cls-12" cx="867.49" cy="559.54" r="40.78"/><circle class="cls-12" cx="1095.85" cy="559.54" r="40.78"/><circle class="cls-13" cx="1091.45" cy="557.66" r="27.6"/><circle class="cls-14" cx="1114.67" cy="538.21" r="8.16"/><path class="cls-11" d="M823.73,679.84c28.13,32.93,64.82,59.93,106.46,72.8,42,13,86.1,9.33,126.28-7.89,33.34-14.29,62.13-37.51,85.65-64.91,5-5.83-3.44-14.36-8.49-8.49-33.78,39.35-79.71,70.12-132,76.2C955.28,752.93,910,737.16,873,709.72a248.51,248.51,0,0,1-40.76-38.37c-5-5.88-13.47,2.65-8.48,8.49Z"/><rect class="cls-15" x="817.93" y="445.99" width="99.12" height="11.29" rx="5.65"/><path class="cls-13" d="M911.41,453.52H823.58a5.63,5.63,0,0,1-5.3-3.77,5.58,5.58,0,0,0,5.3,7.53h87.83a5.61,5.61,0,0,0,5.3-7.53A5.64,5.64,0,0,1,911.41,453.52Z"/><rect class="cls-15" x="1052.26" y="446.06" width="99.12" height="11.4" rx="5.7" transform="translate(82.2 -163.44) rotate(8.81)"/><path class="cls-13" d="M1144.29,459.09l-86.69-13.44a5.66,5.66,0,0,1-4.22-3.1,5.52,5.52,0,0,0-.54,1.62,5.7,5.7,0,0,0,4.76,6.5l86.69,13.44a5.69,5.69,0,0,0,6-8.16A5.67,5.67,0,0,1,1144.29,459.09Z"/><circle class="cls-13" cx="863.73" cy="558.28" r="28.23"/><circle class="cls-14" cx="887.57" cy="538.21" r="8.16"/><path class="cls-15" d="M994.77,197.56h66.57a0,0,0,0,1,0,0V304.29a79.6,79.6,0,0,1-79.6,79.6H915.17a0,0,0,0,1,0,0V277.16A79.6,79.6,0,0,1,994.77,197.56Z"/><path class="cls-16" d="M994.77,197.56a79.6,79.6,0,0,0-79.6,79.6v7.53a79.6,79.6,0,0,1,79.6-79.6h66.57v-7.53Z"/><path class="cls-13" d="M981.74,360H915.17v23.84h66.57a79.59,79.59,0,0,0,79.6-79.59V280.45A79.59,79.59,0,0,1,981.74,360Z"/><path class="cls-17" d="M1154.5,1418.19v-26.75h-38.19v26.67C1128.7,1417.09,1142.3,1415.38,1154.5,1418.19Z"/><path class="cls-18" d="M1116.31,1418.11v231.71h38.19V1418.19C1142.3,1415.38,1128.7,1417.09,1116.31,1418.11Z"/><path class="cls-19" d="M1099,1478c-3.07-.44-6.13-2.48-9-5v5a7.19,7.19,0,0,0,7.17,7.16h80a7.18,7.18,0,0,0,7.16-7.16v-2.24a6.79,6.79,0,0,1-1.19.45C1155.69,1484.53,1127.05,1481,1099,1478Z"/><path class="cls-20" d="M1177.17,1454.69h-80a7.19,7.19,0,0,0-7.17,7.16V1473c2.83,2.47,5.89,4.51,9,5,28,3,56.68,6.56,84.13-1.79a6.79,6.79,0,0,0,1.19-.45v-13.88A7.18,7.18,0,0,0,1177.17,1454.69Z"/><path class="cls-21" d="M1177.17,1499.75h-80a7.19,7.19,0,0,0-7.17,7.16v12.63c4.84,3.38,11.47,3.78,17.31,3.78,25.46,0,50.93,4.69,77-1.07v-15.34A7.18,7.18,0,0,0,1177.17,1499.75Z"/><path class="cls-22" d="M1107.36,1523.32c-5.84,0-12.47-.4-17.31-3.78V1523a7.19,7.19,0,0,0,7.17,7.16h80a7.18,7.18,0,0,0,7.16-7.16v-.77C1158.29,1528,1132.82,1523.32,1107.36,1523.32Z"/><path class="cls-23" d="M1090.05,1563.22v4.85a7.19,7.19,0,0,0,7.17,7.16h80a7.18,7.18,0,0,0,7.16-7.16v-1.74C1152.92,1569.24,1120.39,1572.07,1090.05,1563.22Z"/><path class="cls-24" d="M1177.17,1544.8h-80a7.19,7.19,0,0,0-7.17,7.16v11.26c30.34,8.85,62.87,6,94.28,3.11V1552A7.18,7.18,0,0,0,1177.17,1544.8Z"/><path class="cls-17" d="M997.57,1664.14c-.6,1.19-3,1.79-4.78,3-17.3,15.52-43,22.68-63.25,8.36-15.69-10.8-23.72-27.63-25.42-45.55a49.61,49.61,0,0,0-1.75,20.43c3.41,27.71,28.26,39.91,30,40.74,18.93,8.89,40.6,5.18,55.75-6.43,12.56-9.63,17.75-22.48,19.91-31.26A76.47,76.47,0,0,0,997.57,1664.14Z"/><path class="cls-17" d="M1134.81,1676.67c-16.11-1.19-32.22-3-48.34-6.57-25.65-4.77-46.54-14.91-67.42-31-4.47-3.47-8.1.47-8.18,5.67,5.1,3.25,24.1,15.39,35.16,22.76,12.87,8.58,49.32,19.3,75,19.3h113.64c42.89,0,55.75-2.14,57.9-6.43,1.23-2.47-.37-6.35-3.18-10.84-16.61,2.52-33,6.12-50.21,7.13A1015.9,1015.9,0,0,1,1134.81,1676.67Z"/><path class="cls-17" d="M1180.75,1396.22c-25.65-1.79-50.72-1.79-76.37,1.19-40,4.77-73.4,37-82.35,77.57-1.88,8.14-1.95,16.1-1.68,24.08,10.64-51.85,58.89-91,116.81-91,65.73,0,119,50.4,119,112.58a107.4,107.4,0,0,1-.9,13.85,9.55,9.55,0,0,0,.67-3.42c1.19-18.5,3-37.59-1.19-56.09C1245.2,1438,1210.59,1416.5,1180.75,1396.22Z"/><path class="cls-17" d="M1429.58,1457.68c-3,3.58-4.18,9-8.35,10.74-7.76,4.18-17.31,6-26.26,8.35-14.92,3-29.83.6-44.75,1.79-15.52,1.2-33.42-7.16-46,4.78-4.47,4.47-6,13.89-3,21.06.72-11.09,6.76-15,12.79-17,6.43-2.14,70.76,2.14,79.34,2.14s25.73-6.43,34.3-12.86,23.59-36.45,25.73-49.32c.25-1.44.49-3.46.7-6C1447.18,1433.82,1438.94,1445.47,1429.58,1457.68Z"/><path class="cls-18" d="M1442.71,1315.86c-15-40.74-60-60-90-64.32s-55.75,8.57-55.75,8.57-17.16,8.58-19.3,4.29-32.16-45-51.46-66.47-68.62-57.89-85.77-68.61-32.16-10.73-36.45-6.44c-3.59,3.59-7.17,2.68-4.49,22.33,9.8,15.25,19.65,30.55,30,46.34,9.54,15.51,22.08,26.25,32.22,41.77,10.14,13.72,16.11,28.64,29.84,38.78,10.14,7.16,16.7,16.11,25.65,24.47,13.73,11.93,27.45,38.78,6.57,48.33-5.1,2.55-10.37,2.66-15.66,1.47-26.68,1.17-83.51-2.63-93.41-2.63-12.87,0-38.6,6.43-64.33,19.3s-53.6,40.74-77.19,87.91-2.14,126.51,0,132.94-4.29,6.43-4.29,6.43a73.13,73.13,0,0,0-8.58,0c-7.16.43-26.07,1.55-40.74,15a55.71,55.71,0,0,0-15.4,24.6c1.7,17.92,9.73,34.75,25.42,45.55,20.29,14.32,46,7.16,63.25-8.36,1.79-1.19,4.18-1.79,4.78-3a76.47,76.47,0,0,1,10.48-10.73,55.12,55.12,0,0,0,1.53-9.48l1.29.82c.08-5.2,3.71-9.14,8.18-5.67,20.88,16.11,41.77,26.25,67.42,31,16.12,3.59,32.23,5.38,48.34,6.57a1015.9,1015.9,0,0,0,104.42,0c17.23-1,33.6-4.61,50.21-7.13-2.08-3.31-4.81-7-7.54-10.6-6.44-8.58-21.44-21.44-25.73-25.73s21.44-27.88,36.45-55.75,8.58-57.9,8.58-70.76c0-.8,0-1.57.07-2.3-3-7.17-1.47-16.59,3-21.06,12.53-11.94,30.43-3.58,46-4.78,14.92-1.19,29.83,1.2,44.75-1.79,9-2.38,18.5-4.17,26.26-8.35,4.17-1.79,5.37-7.16,8.35-10.74,9.36-12.21,17.6-23.86,24.55-36.28C1455.84,1401.69,1456,1352,1442.71,1315.86Zm-186.77,215.21a9.55,9.55,0,0,1-.67,3.42c-7.22,55.63-57.34,98.72-118.11,98.72-65.72,0-119-50.4-119-112.57a107.53,107.53,0,0,1,2.19-21.58c-.27-8-.2-15.94,1.68-24.08,9-40.57,42.37-72.8,82.35-77.57,25.65-3,50.72-3,76.37-1.19,29.84,20.28,64.45,41.77,74,78.76C1258.92,1493.48,1257.13,1512.57,1255.94,1531.07Zm108.51-138a37.52,37.52,0,0,1-37.52-37.52v-.2c-6.1-8.73-3.84-24.35,4.19-31.31,10.74-9.55,25.66-16.71,41.18-12.54,14.39,3.49,24,15.92,27,30a37.53,37.53,0,0,1-34.81,51.53Z"/><path class="cls-17" d="M1223.72,1344.9c20.88-9.55,7.16-36.4-6.57-48.33-9-8.36-15.51-17.31-25.65-24.47-13.73-10.14-19.7-25.06-29.84-38.78-10.14-15.52-22.68-26.26-32.22-41.77-10.35-15.79-20.2-31.09-30-46.34.52,3.86,1.29,8.5,2.34,14.12,6.44,34.31,96.49,141.52,113.65,156.53s8.57,21.44,6.43,27.88c-.5,1.48-5.79,2.28-13.8,2.63C1213.35,1347.56,1218.62,1347.45,1223.72,1344.9Z"/><path class="cls-17" d="M1364.45,1318a37.52,37.52,0,0,1,34.81,23.51c-3-14.12-12.57-26.55-27-30-15.52-4.17-30.44,3-41.18,12.54-8,7-10.29,22.58-4.19,31.31A37.52,37.52,0,0,1,1364.45,1318Z"/></svg>