<svg id="Capa_1" data-name="Capa 1" xmlns="http://www.w3.org/2000/svg" viewBox="0 0 2000 2000"><defs><style>.cls-1{fill:#fcd3ac;}.cls-2{fill:#e7b696;}.cls-3{fill:#d5aa8c;}.cls-4{fill:#cc8e83;}.cls-5{fill:#ab796f;}.cls-6{fill:#ba8379;}.cls-7{fill:#aa786f;}.cls-8{fill:#d6613d;}.cls-9{fill:#bc847a;}.cls-10{fill:#fcc4a2;}.cls-11{fill:#dd6540;}.cls-12{fill:#cc5d3a;}.cls-13{fill:#d7ab8d;}.cls-14{fill:#7e3f40;}.cls-15{fill:#67392d;}.cls-16{fill:#8c4548;}.cls-17{fill:#764234;}.cls-18{fill:#ff9b83;}.cls-19{fill:#f0817b;}.cls-20{fill:#84493b;}.cls-21{fill:#a88f66;}.cls-22{fill:#9a845d;}.cls-23{fill:#26397a;}.cls-24{fill:#1d337d;}.cls-25{fill:#212f58;}.cls-26{fill:#182952;}.cls-27{fill:#e6c46e;}.cls-28{fill:#d6b766;}.cls-29{fill:#6d6d29;}.cls-30{fill:#626325;}.cls-31{fill:#999439;}.cls-32{fill:#8c8833;}</style></defs><path class="cls-1" d="M1523,1790.31c104.3-1.19,166,19.06,177.92-9.34,19.81-47.17-146.72-111.72-179.55-283.3-24.44-127.75,50.93-180.56,15.49-276.65-54-146.46-279.29-159.89-299.2-160.82-145.83-6.8-160.52,67-332.29,65.22-81.94-.84-219.66-2.24-289-103.85C577.13,964,585.52,912,538.84,884.74c-51.79-30.27-126.18-3.72-170.25,38.81-101.57,98-87.41,324.71-1.32,397.1,54,45.44,94.27-5.35,192.1,19.81,123.14,31.66,139,132.57,314.71,309.84C1000.7,1778,1064,1841.91,1148.65,1855.75,1274.39,1876.31,1315.23,1792.7,1523,1790.31Z"/><rect class="cls-2" x="579.43" y="474.7" width="84.27" height="164.04" rx="14.13"/><rect class="cls-3" x="592.91" y="495.66" width="57.3" height="116.83" rx="9.83"/><rect class="cls-2" x="1098.51" y="474.7" width="84.27" height="164.04" rx="14.13" transform="translate(2281.28 1113.43) rotate(180)"/><rect class="cls-3" x="1111.99" y="495.66" width="57.3" height="116.83" rx="9.83" transform="translate(2281.28 1108.15) rotate(180)"/><path class="cls-4" d="M846.27,1330.89c-26.21-5.47-53.29-5.23-77.53,3.22v181.74c25.93-2,51.75-3,77.53-3.42V1330.89Z"/><path class="cls-5" d="M768.74,1545c0,4,6.07,7.23,13.49,7.23h50.56c7.41,0,13.48-3.25,13.48-7.23v-32.52c-25.78.37-51.6,1.39-77.53,3.42Z"/><path class="cls-6" d="M832.79,1294.89H782.23c-7.42,0-13.49,3.25-13.49,7.23v32c24.24-8.45,51.32-8.69,77.53-3.22v-28.77C846.27,1298.14,840.2,1294.89,832.79,1294.89Z"/><path class="cls-6" d="M993.45,1335.26v-33.14c0-4-6.06-7.23-13.48-7.23H929.41c-7.41,0-13.48,3.25-13.48,7.23v33.24c15.17-2.14,30.39-5.25,46.07-6.76C973.26,1327.52,983.5,1330.81,993.45,1335.26Z"/><path class="cls-5" d="M915.93,1512.72V1545c0,4,6.07,7.23,13.48,7.23H980c7.42,0,13.48-3.25,13.48-7.23v-30.18C967.53,1514,941.72,1513.22,915.93,1512.72Z"/><path class="cls-4" d="M993.45,1423.53v-88.27c-10-4.45-20.19-7.74-31.45-6.66-15.68,1.51-30.9,4.62-46.07,6.76v177.36c25.79.5,51.6,1.3,77.52,2Z"/><path class="cls-6" d="M766.49,1517.35h74.83A7.64,7.64,0,0,1,849,1525v59.78a0,0,0,0,1,0,0H743.58a0,0,0,0,1,0,0v-44.5A22.91,22.91,0,0,1,766.49,1517.35Z"/><path class="cls-6" d="M913.24,1517.35h105.38a0,0,0,0,1,0,0v59.78a7.64,7.64,0,0,1-7.64,7.64H936.15a22.91,22.91,0,0,1-22.91-22.91v-44.5A0,0,0,0,1,913.24,1517.35Z" transform="translate(1931.86 3102.12) rotate(-180)"/><rect class="cls-7" x="743.58" y="1573.53" width="105.38" height="11.24"/><rect class="cls-7" x="913.24" y="1573.53" width="105.38" height="11.24"/><path class="cls-8" d="M1062,823H700.21v414.59h9.85c2-19.16,9-36,28.91-47.19-20,11.14-26.87,28-28.91,47.19H1062Z"/><path class="cls-4" d="M710.06,1237.59h-9.85v34.79a48.13,48.13,0,0,0,10.09,29.55C711.2,1280.69,707.9,1257.87,710.06,1237.59Z"/><path class="cls-4" d="M710.06,1237.59c-2.16,20.28,1.14,43.1.24,64.34a48.25,48.25,0,0,0,38.25,18.8h265.1a48.35,48.35,0,0,0,48.34-48.35v-34.79Z"/><path class="cls-9" d="M710.44,1290.87a48.14,48.14,0,0,1-10.23-29.72v11.23a48.13,48.13,0,0,0,10.09,29.55C710.45,1298.28,710.48,1294.59,710.44,1290.87Z"/><path class="cls-9" d="M1013.65,1309.49H748.55a48.25,48.25,0,0,1-38.11-18.62c0,3.72,0,7.41-.14,11.06a48.25,48.25,0,0,0,38.25,18.8h265.1a48.35,48.35,0,0,0,48.34-48.35v-11.23A48.34,48.34,0,0,1,1013.65,1309.49Z"/><path class="cls-2" d="M1048.51,1267.81v21.46a13.46,13.46,0,0,0,4,9.57C1053.16,1288,1053.63,1277.34,1048.51,1267.81Z"/><path class="cls-2" d="M1126,933.53V884.39c0-11.52-10.29-20.95-22.87-20.95h-31.78c-12.58,0-22.87,9.43-22.87,20.95v85.53C1068.18,946.53,1095.5,928.86,1126,933.53Z"/><path class="cls-10" d="M1048.51,969.92v298.83a7.74,7.74,0,0,0,.81,3.49c3.44,6.74,3.81,14.06,3.5,21.55a8.88,8.88,0,0,0,9.06,9h50.67a14.55,14.55,0,0,0,4.42-.68,8.53,8.53,0,0,0,6-8.16c-.1-8,.3-15.69,2.6-22.81a8.08,8.08,0,0,0,.42-2.53v-335C1095.5,928.86,1068.18,946.53,1048.51,969.92Z"/><path class="cls-2" d="M1126,1266.84c-3.11,9.48-3.22,20-2.93,30.79a13.4,13.4,0,0,0,2.93-8.36Z"/><path class="cls-10" d="M1123.1,1285a4.35,4.35,0,0,0-1.41-.25h-1.42a4.36,4.36,0,0,0-4.35,4.34v59.8a28.49,28.49,0,0,0,1.69-3.47C1126.71,1327.24,1122.29,1305.11,1123.1,1285Z"/><path class="cls-2" d="M1123.1,1285c-.81,20.08,3.61,42.21-5.49,60.42a28.49,28.49,0,0,1-1.69,3.47v1.17a4.37,4.37,0,0,0,4.35,4.35h1.42a4.36,4.36,0,0,0,4.34-4.35v-61A4.35,4.35,0,0,0,1123.1,1285Z"/><path class="cls-2" d="M1101.32,1361v1.86a5,5,0,0,0,5,5h1.19a5,5,0,0,0,5-5v-9.25A24.12,24.12,0,0,1,1101.32,1361Z"/><path class="cls-10" d="M1107.53,1291.52h-1.19a5,5,0,0,0-5,5V1361a24.12,24.12,0,0,0,11.23-7.39v-57.1A5,5,0,0,0,1107.53,1291.52Z"/><path class="cls-2" d="M1088.4,1360.05q-2.52-1.24-5.06-2.67v9.2a5.85,5.85,0,0,0,5.84,5.83h1.8a5.84,5.84,0,0,0,5.84-5.83v-4.82A18.43,18.43,0,0,1,1088.4,1360.05Z"/><path class="cls-10" d="M1091,1291.52h-1.8a5.86,5.86,0,0,0-5.84,5.84v60q2.54,1.42,5.06,2.67a18.43,18.43,0,0,0,8.42,1.71v-64.4A5.85,5.85,0,0,0,1091,1291.52Z"/><path class="cls-2" d="M1067.61,1359.62a5,5,0,0,0,4.93,4.93h2.5a5,5,0,0,0,4.93-4.93v-4.21a83,83,0,0,1-12.36-9Z"/><path class="cls-10" d="M1075,1291.52h-2.5a5,5,0,0,0-4.93,4.93v49.94a83,83,0,0,0,12.36,9v-59A5,5,0,0,0,1075,1291.52Z"/><path class="cls-2" d="M1051,1273.91a6.73,6.73,0,0,0-2.53,5.25V1332a6.76,6.76,0,0,0,6.74,6.74,6.67,6.67,0,0,0,4.14-1.44,40.17,40.17,0,0,1-4.7-8.67C1048.2,1311,1056.23,1291.07,1051,1273.91Z"/><path class="cls-10" d="M1062,1332v-52.81a6.76,6.76,0,0,0-6.74-6.74,6.69,6.69,0,0,0-4.21,1.49c5.19,17.16-2.84,37.07,3.65,54.69a40.17,40.17,0,0,0,4.7,8.67A6.74,6.74,0,0,0,1062,1332Z"/><path class="cls-11" d="M1061.71,823h36.52a27.25,27.25,0,0,1,27.25,27.25V916a13.76,13.76,0,0,1-13.76,13.76h-50A13.76,13.76,0,0,1,1047.95,916V836.76A13.76,13.76,0,0,1,1061.71,823Z"/><rect class="cls-12" x="1047.95" y="915.13" width="77.53" height="14.61"/><path class="cls-2" d="M636.17,1271.52v17.75a13.4,13.4,0,0,0,2.24,7.42C638.63,1288.23,638.34,1279.77,636.17,1271.52Z"/><path class="cls-2" d="M710.42,1298a13.45,13.45,0,0,0,3.27-8.77v-69C705.93,1243,710.94,1271.56,710.42,1298Z"/><path class="cls-2" d="M713.69,972.13V881.25c0-6.7-6.07-12.19-13.48-12.19H649.65c-7.42,0-13.48,5.49-13.48,12.19V933C667.6,930.79,700.89,944.45,713.69,972.13Z"/><path class="cls-10" d="M636.17,933v341.53c2.17,7.46,2.46,15.11,2.24,22.75a13.9,13.9,0,0,0,11.24,5.48h50.56a14.1,14.1,0,0,0,10.21-4.26c.52-23.93-4.49-49.72,3.27-70.3V972.13C700.89,944.45,667.6,930.79,636.17,933Z"/><path class="cls-10" d="M646.28,1289.12a4.36,4.36,0,0,0-4.35-4.34h-1.42a4.24,4.24,0,0,0-2.23.64c1.31,21.77-4.86,44.14,5.19,63.4a22.63,22.63,0,0,0,2.31,3.24,4.26,4.26,0,0,0,.5-2Z"/><path class="cls-2" d="M638.28,1285.42a4.32,4.32,0,0,0-2.11,3.7v61a4.36,4.36,0,0,0,4.34,4.35h1.42a4.34,4.34,0,0,0,3.85-2.38,22.63,22.63,0,0,1-2.31-3.24C633.42,1329.56,639.59,1307.19,638.28,1285.42Z"/><path class="cls-2" d="M649.65,1362.89a5,5,0,0,0,5,5h1.19a5,5,0,0,0,5-5v-2.38a27,27,0,0,1-11.23-4.85Z"/><path class="cls-10" d="M655.86,1291.52h-1.19a5,5,0,0,0-5,5v59.12a27,27,0,0,0,11.23,4.85v-64A5,5,0,0,0,655.86,1291.52Z"/><path class="cls-2" d="M665.38,1366.58a5.85,5.85,0,0,0,5.84,5.83H673a5.85,5.85,0,0,0,5.84-5.83v-9.11a25,25,0,0,1-13.48,3.5Z"/><path class="cls-10" d="M673,1291.52h-1.8a5.86,5.86,0,0,0-5.84,5.84V1361a25,25,0,0,0,13.48-3.5v-60.11A5.86,5.86,0,0,0,673,1291.52Z"/><path class="cls-2" d="M683.92,1353.31c-.54.59-1.11,1.14-1.69,1.66v4.65a5,5,0,0,0,4.93,4.93h2.5a5,5,0,0,0,4.93-4.93v-17.24C691.08,1346,687.34,1349.47,683.92,1353.31Z"/><path class="cls-10" d="M689.66,1291.52h-2.5a5,5,0,0,0-4.93,4.93V1355c.58-.52,1.15-1.07,1.69-1.66,3.42-3.84,7.16-7.36,10.67-10.93v-45.93A5,5,0,0,0,689.66,1291.52Z"/><path class="cls-2" d="M707.51,1323A34.59,34.59,0,0,1,701,1335.2a6.74,6.74,0,0,0,12.65-3.23v-52.81a6.75,6.75,0,0,0-3.83-6.07C710.59,1290.24,711.37,1307.54,707.51,1323Z"/><path class="cls-10" d="M700.21,1279.16V1332a6.66,6.66,0,0,0,.83,3.23,34.59,34.59,0,0,0,6.47-12.22c3.86-15.44,3.08-32.74,2.35-49.89a6.62,6.62,0,0,0-2.91-.67A6.76,6.76,0,0,0,700.21,1279.16Z"/><path class="cls-11" d="M652.44,823h45a16.83,16.83,0,0,1,16.83,16.83v59.49a30.41,30.41,0,0,1-30.41,30.41h-31.4A16.83,16.83,0,0,1,635.6,912.9V839.83A16.83,16.83,0,0,1,652.44,823Z" transform="translate(1349.86 1752.73) rotate(180)"/><rect class="cls-12" x="635.6" y="915.13" width="78.65" height="14.61"/><path class="cls-10" d="M814.08,163.47h134A181.85,181.85,0,0,1,1130,345.32V661.2a0,0,0,0,1,0,0H632.23a0,0,0,0,1,0,0V345.32A181.85,181.85,0,0,1,814.08,163.47Z"/><path class="cls-10" d="M814.08,357.85h134A181.85,181.85,0,0,1,1130,539.7V855.58a0,0,0,0,1,0,0H632.23a0,0,0,0,1,0,0V539.7A181.85,181.85,0,0,1,814.08,357.85Z" transform="translate(1762.2 1213.43) rotate(180)"/><path class="cls-2" d="M948.12,811.76h-134A181.85,181.85,0,0,1,632.23,629.91v43.82A181.85,181.85,0,0,0,814.08,855.58h134A181.85,181.85,0,0,0,1130,673.73V629.91A181.85,181.85,0,0,1,948.12,811.76Z"/><circle class="cls-13" cx="983.4" cy="479.2" r="27.58"/><circle class="cls-14" cx="983.4" cy="475.81" r="27.58"/><circle class="cls-13" cx="779.92" cy="479.2" r="27.58"/><circle class="cls-14" cx="779.92" cy="475.81" r="27.58"/><circle class="cls-15" cx="982.53" cy="476.19" r="18.73"/><circle class="cls-16" cx="998.35" cy="462.88" r="5.41"/><circle class="cls-15" cx="780.29" cy="476.19" r="18.73"/><circle class="cls-16" cx="796.11" cy="462.88" r="5.41"/><path class="cls-13" d="M743.77,643c25.35,29.66,58.44,54,96,65.46s77.13,8.21,113.11-7.2c29.95-12.83,55.78-33.67,76.92-58.26,5-5.83-3.45-14.36-8.49-8.49-30.11,35-70.95,62.47-117.49,68C862.5,707.42,822.07,693.43,789,669a222.7,222.7,0,0,1-36.75-34.55c-5-5.88-13.48,2.64-8.49,8.49Z"/><rect class="cls-17" x="718.8" y="390.43" width="88.76" height="21.35" rx="8.66" transform="translate(-66.84 167.89) rotate(-12.03)"/><rect class="cls-17" x="955.76" y="390.43" width="88.76" height="21.35" rx="8.66" transform="translate(1894.71 1001.86) rotate(-167.97)"/><rect class="cls-18" x="849.7" y="474.7" width="62.92" height="78.65" rx="22.55"/><path class="cls-19" d="M890.07,542.11H872.25a22.55,22.55,0,0,1-22.55-22.55v11.23a22.54,22.54,0,0,0,22.55,22.55h17.82a22.55,22.55,0,0,0,22.55-22.55V519.56A22.56,22.56,0,0,1,890.07,542.11Z"/><path class="cls-17" d="M779.61,141h412.15a0,0,0,0,1,0,0v20A147.94,147.94,0,0,1,1043.82,309H631.67a0,0,0,0,1,0,0v-20A147.94,147.94,0,0,1,779.61,141Z"/><path class="cls-20" d="M779.61,141A148,148,0,0,0,631.67,288.94v14.61A147.94,147.94,0,0,1,779.61,155.61h412.15V141Z"/><path class="cls-15" d="M1043.82,286.5H631.7c0,.81,0,1.63,0,2.44v20h412.15A147.93,147.93,0,0,0,1191.76,161V141h0A147.93,147.93,0,0,1,1043.82,286.5Z"/><path class="cls-21" d="M1280.66,1200.82h51.92a7.45,7.45,0,0,1,7.45,7.45v400.09a0,0,0,0,1,0,0h-66.81a0,0,0,0,1,0,0V1208.27A7.45,7.45,0,0,1,1280.66,1200.82Z"/><rect class="cls-21" x="1014.74" y="1594.99" width="583.74" height="75.16"/><rect class="cls-22" x="1014.74" y="1632.57" width="583.74" height="37.58"/><rect class="cls-23" x="1061.93" y="1538.21" width="489.38" height="56.79" rx="28.39"/><path class="cls-24" d="M1523.33,1581.63H1090.74a28.4,28.4,0,0,1-27.79-22.56,28.34,28.34,0,0,0-1,7.53h0a28.39,28.39,0,0,0,28.39,28.39h432.59a28.39,28.39,0,0,0,28.39-28.39h0a28,28,0,0,0-.6-5.83A28.39,28.39,0,0,1,1523.33,1581.63Z"/><rect class="cls-25" x="1086.4" y="1481.42" width="440.44" height="56.79" rx="26.94"/><path class="cls-26" d="M1501.66,1524.85H1112.33c-12.32,0-22.6-9.69-25-22.57a31.5,31.5,0,0,0-.91,7.53h0c0,15.68,11.44,28.4,25.55,28.4h389.33c14.12,0,25.56-12.72,25.56-28.4h0a31.82,31.82,0,0,0-.54-5.82C1523.32,1516,1513.42,1524.85,1501.66,1524.85Z"/><rect class="cls-27" x="1108.42" y="1424.63" width="396.4" height="56.79" rx="25.55"/><path class="cls-28" d="M1482.15,1468.06H1131.76c-11.09,0-20.34-9.68-22.52-22.57a35,35,0,0,0-.82,7.54h0c0,15.68,10.3,28.39,23,28.39h350.4c12.7,0,23-12.71,23-28.39h0a34.75,34.75,0,0,0-.48-5.83C1501.65,1459.22,1492.74,1468.06,1482.15,1468.06Z"/><rect class="cls-29" x="1128.24" y="1367.84" width="356.76" height="56.79" rx="24.24"/><path class="cls-30" d="M1464.6,1411.27H1149.24c-10,0-18.3-9.68-20.26-22.57a38.49,38.49,0,0,0-.74,7.54h0c0,15.68,9.27,28.39,20.7,28.39H1464.3c11.43,0,20.69-12.71,20.69-28.39h0a39.59,39.59,0,0,0-.43-5.83C1482.15,1402.43,1474.13,1411.27,1464.6,1411.27Z"/><rect class="cls-31" x="1146.08" y="1311.06" width="321.08" height="56.79" rx="23"/><path class="cls-32" d="M1448.8,1354.48H1165c-9,0-16.47-9.68-18.24-22.57a42.91,42.91,0,0,0-.66,7.54h0c0,15.68,8.34,28.39,18.63,28.39h283.82c10.29,0,18.63-12.71,18.63-28.39h0a42.58,42.58,0,0,0-.4-5.83C1464.6,1345.65,1457.38,1354.48,1448.8,1354.48Z"/></svg>