<svg id="Capa_1" data-name="Capa 1" xmlns="http://www.w3.org/2000/svg" viewBox="0 0 2000 2000"><defs><style>.cls-1{fill:#fcd3ac;}.cls-2{fill:#e7b696;}.cls-3{fill:#d5aa8c;}.cls-4{fill:#fcc4a2;}.cls-5{fill:#d7ab8d;}.cls-6{fill:#7e3f40;}.cls-7{fill:#67392d;}.cls-8{fill:#8c4548;}.cls-9{fill:#764234;}.cls-10{fill:#ff9b83;}.cls-11{fill:#f0817b;}.cls-12{fill:#84493b;}.cls-13{fill:#dd6540;}.cls-14{fill:#c95c39;}.cls-15{fill:#c55a38;}.cls-16{fill:#cc5d3a;}.cls-17{fill:#cc8e83;}.cls-18{fill:#bc847a;}.cls-19{fill:#4c6b7f;}.cls-20{fill:#999439;}.cls-21{fill:#b2b242;}.cls-22{fill:#a5a63d;}.cls-23{fill:#8c8833;}.cls-24{fill:#ff9d60;}.cls-25{fill:#e2915b;}.cls-26{fill:#476375;}.cls-27{fill:#999a38;}</style></defs><path class="cls-1" d="M788.78,1606.67C621,1586.53,558,1793.86,387.7,1776.78,244.36,1762.4,111,1597.68,136.17,1496.19c12.34-49.79,56.17-57.5,260.15-165.87,249-132.27,249.52-155.76,311.45-156.41,186.11-2,247.46,209.57,384.76,186.55,149-25,169.9-289.66,273.57-285.34,96.45,4,84.94,233.35,293.57,381.37,106.19,75.35,181,66.91,202.14,135,29.64,95.57-75,249.77-190.12,265.82-106.41,14.85-136.6-100.33-287.56-114.43-130.52-12.18-153.74,69.65-273.4,57.23C947,1783.11,932.41,1623.92,788.78,1606.67Z"/><rect class="cls-2" x="756.14" y="881.37" width="93" height="73"/><rect class="cls-3" x="756.14" y="881.37" width="93" height="36"/><rect class="cls-2" x="535.14" y="529.37" width="75" height="194" rx="14.49"/><rect class="cls-3" x="547.14" y="554.16" width="51" height="138.16" rx="10.09"/><rect class="cls-2" x="997.14" y="529.37" width="75" height="194" rx="14.49" transform="translate(2069.28 1252.74) rotate(180)"/><rect class="cls-3" x="1009.14" y="554.16" width="51" height="138.16" rx="10.09" transform="translate(2069.28 1246.49) rotate(180)"/><path class="cls-4" d="M744,237.37H863.29a161.85,161.85,0,0,1,161.85,161.85V680.37a0,0,0,0,1,0,0h-443a0,0,0,0,1,0,0V399.22A161.85,161.85,0,0,1,744,237.37Z"/><path class="cls-4" d="M744,587.37H863.29a161.85,161.85,0,0,1,161.85,161.85V906.37a0,0,0,0,1,0,0h-443a0,0,0,0,1,0,0V749.22A161.85,161.85,0,0,1,744,587.37Z" transform="translate(1607.28 1493.74) rotate(180)"/><path class="cls-2" d="M863.29,873.37H744A161.86,161.86,0,0,1,582.14,711.51v33A161.86,161.86,0,0,0,744,906.37H863.29a161.86,161.86,0,0,0,161.85-161.86v-33A161.86,161.86,0,0,1,863.29,873.37Z"/><circle class="cls-5" cx="693.59" cy="533.11" r="20.25"/><circle class="cls-6" cx="693.59" cy="530.62" r="20.25"/><circle class="cls-7" cx="692.16" cy="530.49" r="14.69"/><circle class="cls-8" cx="704.57" cy="520.05" r="4.24"/><circle class="cls-5" cx="913.69" cy="533.11" r="20.25"/><circle class="cls-6" cx="913.69" cy="530.62" r="20.25"/><circle class="cls-7" cx="912.5" cy="530.68" r="14.69"/><circle class="cls-8" cx="924.9" cy="520.24" r="4.24"/><path class="cls-5" d="M681,727.61c22.7,26.57,52.38,48.31,86,58.53s69.09,7.16,101.27-6.74c26.53-11.47,49.42-30,68.18-51.79,5-5.83-3.43-14.35-8.48-8.48-26.69,31-62.73,55.3-104,60.31-36.64,4.46-72.55-8-101.9-29.61a197.91,197.91,0,0,1-32.67-30.7c-5-5.88-13.47,2.64-8.48,8.48Z"/><rect class="cls-9" x="654.49" y="458.48" width="72.36" height="26.02" rx="8.67"/><rect class="cls-9" x="888.44" y="447.48" width="72.36" height="26.02" rx="8.67" transform="translate(1732.94 1103.6) rotate(-167.97)"/><rect class="cls-10" x="775.69" y="529.37" width="56.45" height="105" rx="24.68"/><path class="cls-11" d="M807.46,624.37h-7.09a24.68,24.68,0,0,1-24.68-24.68v10a24.68,24.68,0,0,0,24.68,24.68h7.09a24.68,24.68,0,0,0,24.68-24.68v-10A24.68,24.68,0,0,1,807.46,624.37Z"/><path class="cls-9" d="M735.87,187.37h384.27a0,0,0,0,1,0,0v33.09A151.91,151.91,0,0,1,968.23,372.37H584a0,0,0,0,1,0,0V339.28A151.91,151.91,0,0,1,735.87,187.37Z"/><path class="cls-7" d="M970.84,327.37H586.57V311.16A153.28,153.28,0,0,0,584,339.28v33.09H968.23a151.91,151.91,0,0,0,151.91-151.91V203.57A152,152,0,0,1,970.84,327.37Z"/><path class="cls-9" d="M1028.76,141.37H722.66c-74.87,0-138.52,60.56-138.52,138v50l309-3c74.88,0,135.58-62.78,135.58-140.21Z"/><path class="cls-12" d="M722.66,141.37c-74.87,0-138.52,60.56-138.52,138v13c0-77.44,63.65-138,138.52-138h306.1v-13Z"/><path class="cls-13" d="M772.85,1381.94c-23.33-4.87-47.43-4.65-69,2.86v240.76c23.07-1.81,46-2.72,69-3V1381.94Z"/><path class="cls-14" d="M703.85,1651.46c0,3.54,5.4,6.44,12,6.44h45c6.6,0,12-2.9,12-6.44v-28.94c-23,.32-45.93,1.23-69,3Z"/><path class="cls-15" d="M760.85,1349.9h-45c-6.6,0-12,2.89-12,6.43v28.47c21.57-7.51,45.67-7.73,69-2.86v-25.61C772.85,1352.79,767.45,1349.9,760.85,1349.9Z"/><path class="cls-15" d="M903.85,1385.83v-29.5c0-3.54-5.4-6.43-12-6.43h-45c-6.6,0-12,2.89-12,6.43v29.59c13.5-1.91,27-4.67,41-6C885.88,1378.94,895,1381.87,903.85,1385.83Z"/><path class="cls-14" d="M834.85,1622.78v28.68c0,3.54,5.4,6.44,12,6.44h45c6.6,0,12-2.9,12-6.44V1624.6C880.78,1623.93,857.8,1623.22,834.85,1622.78Z"/><path class="cls-13" d="M903.85,1464.4v-78.57c-8.86-4-18-6.89-28-5.93-14,1.35-27.5,4.11-41,6v236.86c22.95.44,45.93,1.15,69,1.82Z"/><path class="cls-13" d="M701.84,1626.9h66.6a6.8,6.8,0,0,1,6.8,6.8v53.2a0,0,0,0,1,0,0H681.45a0,0,0,0,1,0,0v-39.61A20.39,20.39,0,0,1,701.84,1626.9Z"/><path class="cls-13" d="M832.45,1626.9h93.79a0,0,0,0,1,0,0v53.2a6.8,6.8,0,0,1-6.8,6.8h-66.6a20.39,20.39,0,0,1-20.39-20.39V1626.9A0,0,0,0,1,832.45,1626.9Z" transform="translate(1758.69 3313.79) rotate(-180)"/><rect class="cls-16" x="681.45" y="1676.9" width="93.79" height="10"/><rect class="cls-16" x="832.45" y="1676.9" width="93.79" height="10"/><rect class="cls-17" x="642.85" y="929.9" width="322" height="369"/><path class="cls-13" d="M642.85,1298.9h322a0,0,0,0,1,0,0v31a43,43,0,0,1-43,43H685.88a43,43,0,0,1-43-43v-31A0,0,0,0,1,642.85,1298.9Z"/><path class="cls-16" d="M921.82,1362.9H685.88a43,43,0,0,1-43-43v10a43,43,0,0,0,43,43H921.82a43,43,0,0,0,43-43v-10A43,43,0,0,1,921.82,1362.9Z"/><path class="cls-2" d="M958.14,1324.37c-1.22-10.42-2.46-20.46-5.29-30.12v50.65a11.93,11.93,0,0,0,3.23,8.15C957.57,1343.56,959.58,1334,958.14,1324.37Z"/><path class="cls-2" d="M1021.85,1332.11a131.27,131.27,0,0,0-2.11,19.55,11.88,11.88,0,0,0,2.11-6.76Z"/><path class="cls-2" d="M989.14,1055.37a39.87,39.87,0,0,1,3-4c2-3,9-1,9-7a66.51,66.51,0,0,0,20.71-3.66V941.9a12,12,0,0,0-12-12h-45a12,12,0,0,0-12,12v164.48C960.12,1086.83,971,1068.71,989.14,1055.37Z"/><path class="cls-4" d="M1001.14,1044.37c0,6-7,4-9,7a39.87,39.87,0,0,0-3,4c-18.19,13.34-29,31.46-36.29,51v187.87c2.83,9.66,4.07,19.7,5.29,30.12,1.44,9.6-.57,19.19-2.06,28.68a11.94,11.94,0,0,0,8.77,3.85h45a12,12,0,0,0,9.89-5.24,131.27,131.27,0,0,1,2.11-19.55v-291.4A66.51,66.51,0,0,1,1001.14,1044.37Z"/><path class="cls-2" d="M1020.43,1341.8c-1.85,17.86,0,35.71-2.29,53.57,0,1-3,3-4,4-.32.39-.65.77-1,1.15a3.89,3.89,0,0,0,3.56,2.38H1018a3.88,3.88,0,0,0,3.87-3.87v-54.27A3.84,3.84,0,0,0,1020.43,1341.8Z"/><path class="cls-4" d="M1018.14,1395.37c2.33-17.86.44-35.71,2.29-53.57a3.81,3.81,0,0,0-2.45-.9h-1.27a3.88,3.88,0,0,0-3.86,3.86V1399a3.89,3.89,0,0,0,.3,1.49c.34-.38.67-.76,1-1.15C1015.14,1398.37,1018.14,1396.37,1018.14,1395.37Z"/><path class="cls-2" d="M999.85,1410.43a4.48,4.48,0,0,0,4.47,4.47h1.06a4.48,4.48,0,0,0,4.47-4.47v-6.7a35.58,35.58,0,0,1-10,6Z"/><path class="cls-4" d="M1005.38,1346.9h-1.06a4.48,4.48,0,0,0-4.47,4.47v58.36a35.58,35.58,0,0,0,10-6v-52.36A4.48,4.48,0,0,0,1005.38,1346.9Z"/><path class="cls-2" d="M983.85,1411.44v2.26a5.21,5.21,0,0,0,5.19,5.2h1.61a5.22,5.22,0,0,0,5.2-5.2V1411A26.87,26.87,0,0,1,983.85,1411.44Z"/><path class="cls-4" d="M990.65,1346.9H989a5.21,5.21,0,0,0-5.19,5.19v59.35a26.87,26.87,0,0,0,12-.42v-58.93A5.21,5.21,0,0,0,990.65,1346.9Z"/><path class="cls-2" d="M969.85,1401.91v5.6a4.4,4.4,0,0,0,4.39,4.39h2.22a4.34,4.34,0,0,0,3.43-1.7c-.59-.25-1.18-.52-1.75-.83A41.29,41.29,0,0,1,969.85,1401.91Z"/><path class="cls-4" d="M980.85,1351.28a4.4,4.4,0,0,0-4.39-4.38h-2.22a4.39,4.39,0,0,0-4.39,4.38v50.63a41.29,41.29,0,0,0,8.29,7.46c.57.31,1.16.58,1.75.83a4.31,4.31,0,0,0,1-2.69Z"/><path class="cls-2" d="M958.62,1329.91a6,6,0,0,0-5.77,6v47a6,6,0,0,0,8,5.65q-1.41-2.58-2.71-5.18C950,1366.12,959.1,1348.05,958.62,1329.91Z"/><path class="cls-4" d="M964.85,1382.9v-47a6,6,0,0,0-6-6h-.23c.48,18.14-8.65,36.21-.48,53.46q1.3,2.6,2.71,5.18A6,6,0,0,0,964.85,1382.9Z"/><path class="cls-17" d="M952.14,929.9h57.64A12.06,12.06,0,0,1,1021.85,942v82.94a0,0,0,0,1,0,0H952.14a0,0,0,0,1,0,0v-95A0,0,0,0,1,952.14,929.9Z"/><rect class="cls-18" x="952.14" y="1011.37" width="70" height="14"/><path class="cls-2" d="M585.85,1344.9c0,.29,0,.58,0,.87,0-.64,0-1.27,0-1.91Z"/><path class="cls-2" d="M641.14,1057.37c5.86,9.76,9.6,20.8,13.71,31.73V941.9a12,12,0,0,0-12-12h-45a12,12,0,0,0-12,12v87.74C605.35,1038.31,628.72,1038.26,641.14,1057.37Z"/><path class="cls-4" d="M641.14,1057.37c-12.42-19.11-35.79-19.06-55.29-27.73v314.22c0,.64,0,1.27,0,1.91a12,12,0,0,0,12,11.13h45a12,12,0,0,0,9.4-4.58c0-13.32-.63-27.06,2.6-39.82V1089.1C650.74,1078.17,647,1067.13,641.14,1057.37Z"/><path class="cls-2" d="M652.25,1352.32a11.91,11.91,0,0,0,2.6-7.42v-32.4C651.62,1325.26,652.25,1339,652.25,1352.32Z"/><path class="cls-2" d="M585.87,1344.6a.88.88,0,0,0,0,.16V1399a3.88,3.88,0,0,0,3.86,3.87H591a3.85,3.85,0,0,0,3.48-2.22,23.23,23.23,0,0,1-4.32-7.31C585.4,1377.57,586.27,1361.15,585.87,1344.6Z"/><path class="cls-4" d="M594.85,1344.76a3.88,3.88,0,0,0-3.87-3.86h-1.27a3.87,3.87,0,0,0-3.84,3.7c.4,16.55-.47,33,4.27,48.77a23.23,23.23,0,0,0,4.32,7.31,3.82,3.82,0,0,0,.39-1.65Z"/><path class="cls-2" d="M597.85,1410.43a4.48,4.48,0,0,0,4.47,4.47h1.06a4.48,4.48,0,0,0,4.47-4.47v-1.07a29.68,29.68,0,0,1-10-5.38Z"/><path class="cls-4" d="M603.38,1346.9h-1.06a4.48,4.48,0,0,0-4.47,4.47V1404a29.68,29.68,0,0,0,10,5.38v-58A4.48,4.48,0,0,0,603.38,1346.9Z"/><path class="cls-2" d="M611.85,1410.28v3.42a5.21,5.21,0,0,0,5.19,5.2h1.61a5.22,5.22,0,0,0,5.2-5.2v-4.3A26,26,0,0,1,611.85,1410.28Z"/><path class="cls-4" d="M618.65,1346.9H617a5.21,5.21,0,0,0-5.19,5.19v58.19a26,26,0,0,0,12-.88v-57.31A5.21,5.21,0,0,0,618.65,1346.9Z"/><path class="cls-2" d="M626.92,1408.19a4.39,4.39,0,0,0,4.32,3.71h2.22a4.41,4.41,0,0,0,4.39-4.39v-7.25a49.75,49.75,0,0,1-7.71,6.11A25.88,25.88,0,0,1,626.92,1408.19Z"/><path class="cls-4" d="M633.46,1346.9h-2.22a4.39,4.39,0,0,0-4.39,4.38v56.23a3.92,3.92,0,0,0,.07.68,25.88,25.88,0,0,0,3.22-1.82,49.75,49.75,0,0,0,7.71-6.11v-49A4.4,4.4,0,0,0,633.46,1346.9Z"/><path class="cls-2" d="M646.43,1388.38a5.94,5.94,0,0,0,2.42.52,6,6,0,0,0,6-6v-47a6,6,0,0,0-2.47-4.83C651.51,1351,654.51,1371.71,646.43,1388.38Z"/><path class="cls-4" d="M642.85,1335.9v47a6,6,0,0,0,3.58,5.48c8.08-16.67,5.08-37.35,6-57.31a5.87,5.87,0,0,0-3.53-1.17A6,6,0,0,0,642.85,1335.9Z"/><path class="cls-17" d="M585.85,929.9h70.29a0,0,0,0,1,0,0v82.89A12.11,12.11,0,0,1,644,1024.9H585.85a0,0,0,0,1,0,0v-95A0,0,0,0,1,585.85,929.9Z" transform="translate(1241.99 1954.79) rotate(180)"/><rect class="cls-18" x="585.14" y="1011.37" width="70" height="14"/><path class="cls-19" d="M861.1,1583.71H965.88a0,0,0,0,1,0,0V1650a0,0,0,0,1,0,0h-141a0,0,0,0,1,0,0v-30A36.26,36.26,0,0,1,861.1,1583.71Z"/><path class="cls-20" d="M1095.55,1709.25H791.7l11.45-47.33c3.11-7.11,11.82-11.91,21.63-11.91h270.77Z"/><path class="cls-19" d="M961.7,1521.65h138.13a6.07,6.07,0,0,1,6.07,6.07V1540a0,0,0,0,1,0,0H955.63a0,0,0,0,1,0,0v-12.26A6.07,6.07,0,0,1,961.7,1521.65Z"/><polygon class="cls-21" points="919.59 1583.57 881 1583.57 869.97 1510.37 930.62 1510.37 919.59 1583.57"/><rect class="cls-19" x="1095.55" y="1676.21" width="21.41" height="33.04"/><path class="cls-21" d="M965.88,1540v110h110.3l19.47-110Zm59.95,70.52a26.1,26.1,0,0,1-26.1-26.09c0-.43,0-.85,0-1.27-1.15-6.19-1.79-12.67,1.86-17.54,8.29-13.12,26.24-13.12,38.67-8.28,11.14,4.77,16.56,17.69,11.6,28.12A26.09,26.09,0,0,1,1025.83,1610.51Z"/><path class="cls-22" d="M1040.3,1557.33c-12.43-4.84-30.38-4.84-38.67,8.28-3.65,4.87-3,11.35-1.86,17.54a26.09,26.09,0,0,1,52.15,1.27c0,.35,0,.69,0,1C1056.86,1575,1051.44,1562.1,1040.3,1557.33Z"/><path class="cls-23" d="M794,1699l-2.32,9.57h303.85v-21.41H809.06A15.48,15.48,0,0,0,794,1699Z"/><path class="cls-24" d="M880.92,1736.92c9.42-6.85,15.24-16.69,20.82-26.6.06-.93.11-1.86.11-2.8a40.39,40.39,0,0,0-80.67-3.11C823.62,1732.82,857,1752.5,880.92,1736.92Z"/><path class="cls-25" d="M880.92,1736.92c-24,15.58-57.3-4.1-59.74-32.51-.08,1-.13,2.06-.13,3.11a40.39,40.39,0,0,0,80.69,2.8C896.16,1720.23,890.34,1730.07,880.92,1736.92Z"/><circle class="cls-25" cx="861.45" cy="1707.52" r="28.03"/><circle class="cls-24" cx="861.45" cy="1707.52" r="16.16"/><circle class="cls-25" cx="865.49" cy="1703.48" r="5.34"/><path class="cls-24" d="M1052.18,1736.92c9.42-6.85,15.24-16.69,20.82-26.6.06-.93.1-1.86.1-2.8a40.39,40.39,0,0,0-80.66-3.11C994.88,1732.82,1028.22,1752.5,1052.18,1736.92Z"/><path class="cls-25" d="M1052.18,1736.92c-24,15.58-57.3-4.1-59.74-32.51-.08,1-.14,2.06-.14,3.11a40.4,40.4,0,0,0,80.7,2.8C1067.42,1720.23,1061.6,1730.07,1052.18,1736.92Z"/><circle class="cls-25" cx="1032.7" cy="1707.52" r="28.03"/><circle class="cls-24" cx="1032.7" cy="1707.52" r="16.16"/><circle class="cls-25" cx="1036.74" cy="1703.48" r="5.34"/><polygon class="cls-22" points="965.72 1649.86 1076.2 1649.86 1080.12 1627.76 965.72 1627.76 965.72 1649.86"/><path class="cls-26" d="M826,1649.86H964.51a1.21,1.21,0,0,0,1.21-1.21V1629a1.21,1.21,0,0,0-1.21-1.21H838.19a13.36,13.36,0,0,0-13.36,13.36v7.53A1.21,1.21,0,0,0,826,1649.86Z"/><rect class="cls-26" x="956.05" y="1531.08" width="149.85" height="8.9"/><polygon class="cls-22" points="1095.63 1540.06 965.88 1540.06 965.88 1542.82 1095.15 1542.82 1095.63 1540.06"/><polygon class="cls-22" points="920.55 1577.22 880.04 1577.22 880.97 1583.42 919.62 1583.42 920.55 1577.22"/><rect class="cls-26" x="1095.55" y="1687.15" width="21.41" height="22.1"/><polygon class="cls-22" points="910.59 1510.37 899.57 1583.57 919.59 1583.57 930.62 1510.37 910.59 1510.37"/><polygon class="cls-22" points="1074.58 1540.75 1058.95 1650.01 1080.02 1650.01 1095.65 1540.75 1074.58 1540.75"/><rect class="cls-20" x="1137.65" y="1649.71" width="303.87" height="59.59"/><polygon class="cls-23" points="1137.65 1687.01 1137.65 1709.3 1441.52 1709.3 1441.52 1687.01 1291.53 1687.01 1137.65 1687.01"/><path class="cls-24" d="M1223.43,1736.78c9.42-6.85,15.24-16.69,20.82-26.6.06-.93.11-1.86.11-2.8a40.39,40.39,0,0,0-80.67-3.11C1166.13,1732.68,1199.47,1752.36,1223.43,1736.78Z"/><path class="cls-25" d="M1223.43,1736.78c-24,15.58-57.3-4.1-59.74-32.51-.08,1-.13,2.06-.13,3.11a40.39,40.39,0,0,0,80.69,2.8C1238.67,1720.09,1232.85,1729.93,1223.43,1736.78Z"/><circle class="cls-25" cx="1203.96" cy="1707.38" r="28.03"/><circle class="cls-24" cx="1203.96" cy="1707.38" r="16.16"/><circle class="cls-25" cx="1208" cy="1703.34" r="5.34"/><path class="cls-24" d="M1394.69,1736.78c9.42-6.85,15.24-16.69,20.82-26.6.06-.93.1-1.86.1-2.8a40.39,40.39,0,0,0-80.66-3.11C1337.39,1732.68,1370.73,1752.36,1394.69,1736.78Z"/><path class="cls-25" d="M1394.69,1736.78c-24,15.58-57.3-4.1-59.74-32.51-.08,1-.14,2.06-.14,3.11a40.4,40.4,0,0,0,80.7,2.8C1409.93,1720.09,1404.11,1729.93,1394.69,1736.78Z"/><circle class="cls-25" cx="1375.21" cy="1707.38" r="28.03"/><circle class="cls-24" cx="1375.21" cy="1707.38" r="16.16"/><circle class="cls-25" cx="1379.25" cy="1703.34" r="5.34"/><rect class="cls-19" x="1116.72" y="1676.09" width="20.93" height="33.03"/><rect class="cls-26" x="1116.72" y="1687.02" width="20.93" height="22.28"/><rect class="cls-19" x="1441.52" y="1676.09" width="20.93" height="33.03"/><rect class="cls-26" x="1441.52" y="1687.02" width="20.93" height="22.28"/><path class="cls-19" d="M1382.57,1533.25h-186a48.05,48.05,0,0,0-48,48v68.35h282.07V1581.3A48.05,48.05,0,0,0,1382.57,1533.25Z"/><rect class="cls-26" x="1148.57" y="1627.04" width="282.04" height="22.28"/><rect class="cls-22" x="1344.17" y="1570.56" width="41.4" height="41.4" rx="5.46"/><rect class="cls-22" x="1268.89" y="1570.56" width="41.4" height="41.4" rx="5.46"/><rect class="cls-22" x="1193.6" y="1570.56" width="41.4" height="41.4" rx="5.46"/><path class="cls-27" d="M1229.54,1570.56h-30.48a5.47,5.47,0,0,0-5.46,5.45v3.19a5.48,5.48,0,0,1,5.46-5.46h30.48a5.48,5.48,0,0,1,5.46,5.46V1576A5.47,5.47,0,0,0,1229.54,1570.56Z"/><path class="cls-27" d="M1305.05,1570.56h-30.48a5.46,5.46,0,0,0-5.45,5.45v3.19a5.47,5.47,0,0,1,5.45-5.46h30.48a5.48,5.48,0,0,1,5.46,5.46V1576A5.47,5.47,0,0,0,1305.05,1570.56Z"/><path class="cls-27" d="M1380.11,1570.56h-30.48a5.47,5.47,0,0,0-5.46,5.45v3.19a5.48,5.48,0,0,1,5.46-5.46h30.48a5.48,5.48,0,0,1,5.46,5.46V1576A5.47,5.47,0,0,0,1380.11,1570.56Z"/><rect class="cls-20" x="1483.37" y="1649.71" width="303.87" height="59.59"/><polygon class="cls-23" points="1483.37 1687.01 1483.37 1709.3 1787.24 1709.3 1787.24 1687.01 1637.25 1687.01 1483.37 1687.01"/><path class="cls-24" d="M1569.16,1736.78c9.41-6.85,15.23-16.69,20.81-26.6.06-.93.11-1.86.11-2.8a40.39,40.39,0,0,0-80.67-3.11C1511.86,1732.68,1545.19,1752.36,1569.16,1736.78Z"/><path class="cls-25" d="M1569.16,1736.78c-24,15.58-57.3-4.1-59.75-32.51-.08,1-.13,2.06-.13,3.11a40.39,40.39,0,0,0,80.69,2.8C1584.39,1720.09,1578.57,1729.93,1569.16,1736.78Z"/><circle class="cls-25" cx="1549.68" cy="1707.38" r="28.03"/><circle class="cls-24" cx="1549.68" cy="1707.38" r="16.16"/><circle class="cls-25" cx="1553.72" cy="1703.34" r="5.34"/><path class="cls-24" d="M1740.41,1736.78c9.42-6.85,15.24-16.69,20.82-26.6.06-.93.11-1.86.11-2.8a40.39,40.39,0,0,0-80.67-3.11C1683.11,1732.68,1716.45,1752.36,1740.41,1736.78Z"/><path class="cls-25" d="M1740.41,1736.78c-24,15.58-57.3-4.1-59.74-32.51-.08,1-.13,2.06-.13,3.11a40.39,40.39,0,0,0,80.69,2.8C1755.65,1720.09,1749.83,1729.93,1740.41,1736.78Z"/><circle class="cls-25" cx="1720.94" cy="1707.38" r="28.03"/><circle class="cls-24" cx="1720.94" cy="1707.38" r="16.16"/><rect class="cls-19" x="1462.45" y="1676.09" width="20.93" height="33.03"/><rect class="cls-26" x="1462.45" y="1687.02" width="20.93" height="22.28"/><rect class="cls-19" x="1787.24" y="1676.09" width="20.93" height="33.03"/><rect class="cls-26" x="1787.24" y="1687.02" width="20.93" height="22.28"/><path class="cls-19" d="M1728.29,1533.25h-186a48.06,48.06,0,0,0-48,48v68.35h282.07V1581.3A48.05,48.05,0,0,0,1728.29,1533.25Z"/><rect class="cls-26" x="1494.29" y="1627.04" width="282.04" height="22.28"/><rect class="cls-22" x="1689.9" y="1570.56" width="41.4" height="41.4" rx="5.46"/><rect class="cls-22" x="1614.61" y="1570.56" width="41.4" height="41.4" rx="5.46"/><rect class="cls-22" x="1539.32" y="1570.56" width="41.4" height="41.4" rx="5.46"/><path class="cls-27" d="M1575.26,1570.56h-30.48a5.47,5.47,0,0,0-5.46,5.45v3.19a5.48,5.48,0,0,1,5.46-5.46h30.48a5.48,5.48,0,0,1,5.46,5.46V1576A5.47,5.47,0,0,0,1575.26,1570.56Z"/><path class="cls-27" d="M1650.77,1570.56H1620.3a5.46,5.46,0,0,0-5.46,5.45v3.19a5.47,5.47,0,0,1,5.46-5.46h30.47a5.47,5.47,0,0,1,5.46,5.46V1576A5.46,5.46,0,0,0,1650.77,1570.56Z"/><path class="cls-27" d="M1725.83,1570.56h-30.48a5.46,5.46,0,0,0-5.45,5.45v3.19a5.47,5.47,0,0,1,5.45-5.46h30.48a5.48,5.48,0,0,1,5.46,5.46V1576A5.47,5.47,0,0,0,1725.83,1570.56Z"/></svg>