<svg id="Capa_1" data-name="Capa 1" xmlns="http://www.w3.org/2000/svg" viewBox="0 0 2000 2000"><defs><style>.cls-1{fill:#fcd3ac;}.cls-2{fill:#724534;}.cls-3{fill:#638929;}.cls-4{fill:#74a031;}.cls-5{fill:#81aa39;}.cls-6{fill:#4d2408;}.cls-7{fill:#592e18;}.cls-8{fill:#66351e;}.cls-9{fill:#fde095;}.cls-10{fill:#e9d08b;}.cls-11{fill:#5b5c5c;}.cls-12{fill:#ff9d60;}.cls-13{fill:#515352;}.cls-14{fill:#e2915b;}.cls-15{fill:#666;}.cls-16{fill:#d8d8d8;}.cls-17{fill:#3d3f3e;}.cls-18{fill:#858686;}.cls-19{fill:#979899;}.cls-20{fill:#d28855;}.cls-21{fill:#c9c9c9;}</style></defs><path class="cls-1" d="M1374.43,1593.52c-199.17,100.12-375.31,188.66-546.25,122.32-129-50.06-105.8-130.41-330.15-347.49-209.92-203.11-273.46-174.59-340.75-309C46.76,838.44,77.79,480.92,190.81,406.78c62.62-41.07,119.49,25.11,578.45,291.89,141.89,82.48,188.32,106.3,259.62,96.42,179-24.8,242.92-224.36,385.78-216.21,109.88,6.27,176.15,130.29,233.82,238.2,49.68,93,155.15,290.32,87.51,479.1C1685.49,1437.16,1565.65,1497.4,1374.43,1593.52Z"/><rect class="cls-2" x="1013.12" y="757.35" width="26.26" height="172.65"/><polygon class="cls-3" points="1029 604.32 941 798.55 1117 798.55 1029 604.32"/><polygon class="cls-4" points="1026.9 537.17 945.04 731.4 1108.76 731.4 1026.9 537.17"/><polygon class="cls-5" points="1030.69 489 956.55 664.92 1104.83 664.92 1030.69 489"/><rect class="cls-2" x="853.31" y="601.59" width="29.24" height="211.41"/><polygon class="cls-3" points="871 414.2 773 652.04 969 652.04 871 414.2"/><polygon class="cls-4" points="868.66 331.98 777.5 569.82 959.82 569.82 868.66 331.98"/><polygon class="cls-5" points="872.88 273 790.31 488.42 955.44 488.42 872.88 273"/><rect class="cls-2" x="488.36" y="518.59" width="39.09" height="187.61"/><polygon class="cls-3" points="512 352.3 381 563.37 643 563.37 512 352.3"/><polygon class="cls-4" points="508.88 279.34 387.02 490.4 630.73 490.4 508.88 279.34"/><polygon class="cls-5" points="514.51 227 404.14 418.16 624.88 418.16 514.51 227"/><rect class="cls-2" x="664.36" y="658.59" width="39.09" height="187.61"/><polygon class="cls-3" points="688 492.3 557 703.37 819 703.37 688 492.3"/><polygon class="cls-4" points="684.88 419.34 563.02 630.4 806.73 630.4 684.88 419.34"/><polygon class="cls-5" points="690.51 367 580.14 558.16 800.88 558.16 690.51 367"/><rect class="cls-2" x="344.22" y="765.08" width="49.23" height="247.12"/><polygon class="cls-3" points="374 546.05 209 824.06 539 824.06 374 546.05"/><polygon class="cls-4" points="370.07 449.94 216.58 727.95 523.55 727.95 370.07 449.94"/><polygon class="cls-5" points="377.16 381 238.15 632.8 516.17 632.8 377.16 381"/><rect class="cls-2" x="525.33" y="944.55" width="54" height="259.65"/><polygon class="cls-3" points="558 714.42 377 1006.52 739 1006.52 558 714.42"/><polygon class="cls-4" points="553.68 613.44 385.32 905.54 722.05 905.54 553.68 613.44"/><polygon class="cls-5" points="561.47 541 408.98 805.56 713.96 805.56 561.47 541"/><rect class="cls-2" x="279.56" y="1073.73" width="63.55" height="273.27"/><polygon class="cls-3" points="318 831.52 105 1138.95 531 1138.95 318 831.52"/><polygon class="cls-4" points="312.92 725.24 114.79 1032.67 511.05 1032.67 312.92 725.24"/><polygon class="cls-5" points="322.08 649 142.63 927.45 501.54 927.45 322.08 649"/><rect class="cls-2" x="837.73" y="843.14" width="41.77" height="200.83"/><polygon class="cls-3" points="863 665.13 723 891.07 1003 891.07 863 665.13"/><polygon class="cls-4" points="859.66 587.03 729.43 812.97 989.89 812.97 859.66 587.03"/><polygon class="cls-5" points="865.68 531 747.73 735.63 983.63 735.63 865.68 531"/><rect class="cls-6" x="552.94" y="1141.86" width="869.68" height="108.71" rx="17.89"/><path class="cls-7" d="M570.33,1153.94h822.15a30.14,30.14,0,0,1,30.14,30.14v24.26a30.14,30.14,0,0,1-30.14,30.14H588.65a35.71,35.71,0,0,1-35.71-35.71v-31.45A17.39,17.39,0,0,1,570.33,1153.94Z"/><path class="cls-6" d="M847,1218.78H596.41a4.49,4.49,0,0,1-4.53-4.45V1222a4.49,4.49,0,0,0,4.53,4.45H847a4.48,4.48,0,0,0,4.52-4.45v-7.63A4.48,4.48,0,0,1,847,1218.78Z"/><path class="cls-6" d="M1352.53,1218.78H1064.38c-2.88,0-5.2-2-5.2-4.45V1222c0,2.46,2.32,4.45,5.2,4.45h288.15c2.87,0,5.19-2,5.19-4.45v-7.63C1357.72,1216.79,1355.4,1218.78,1352.53,1218.78Z"/><path class="cls-6" d="M1410.87,1194.63H759.4c-6.49,0-11.75-2-11.75-4.45v7.62c0,2.46,5.26,4.45,11.75,4.45h651.47c6.49,0,11.76-2,11.76-4.45v-7.62C1422.63,1192.63,1417.36,1194.63,1410.87,1194.63Z"/><path class="cls-6" d="M1139.64,1170.47H563.34c-5.74,0-10.4-2-10.4-4.45v7.63c0,2.45,4.66,4.45,10.4,4.45h576.3c5.74,0,10.4-2,10.4-4.45V1166C1150,1168.48,1145.38,1170.47,1139.64,1170.47Z"/><path class="cls-8" d="M1405.14,1141.86H570.43c-9.66,0-17.49,7.29-17.49,16.27v11c0-8.41,7.33-15.22,16.36-15.22h837c9,0,16.36,6.81,16.36,15.22v-11C1422.63,1149.15,1414.8,1141.86,1405.14,1141.86Z"/><rect class="cls-6" x="552.94" y="1033.15" width="869.68" height="108.71" rx="17.89"/><path class="cls-7" d="M570.33,1045.23h822.15a30.14,30.14,0,0,1,30.14,30.14v24.26a30.14,30.14,0,0,1-30.14,30.14H588.65a35.71,35.71,0,0,1-35.71-35.71v-31.45A17.39,17.39,0,0,1,570.33,1045.23Z"/><path class="cls-6" d="M847,1110.07H596.41a4.49,4.49,0,0,1-4.53-4.45v7.63a4.49,4.49,0,0,0,4.53,4.45H847a4.48,4.48,0,0,0,4.52-4.45v-7.63A4.48,4.48,0,0,1,847,1110.07Z"/><path class="cls-6" d="M1352.53,1110.07H1064.38c-2.88,0-5.2-2-5.2-4.45v7.63c0,2.46,2.32,4.45,5.2,4.45h288.15c2.87,0,5.19-2,5.19-4.45v-7.63C1357.72,1108.08,1355.4,1110.07,1352.53,1110.07Z"/><path class="cls-6" d="M1410.87,1085.92H759.4c-6.49,0-11.75-2-11.75-4.45v7.62c0,2.46,5.26,4.45,11.75,4.45h651.47c6.49,0,11.76-2,11.76-4.45v-7.62C1422.63,1083.92,1417.36,1085.92,1410.87,1085.92Z"/><path class="cls-6" d="M1139.64,1061.76H563.34c-5.74,0-10.4-2-10.4-4.45v7.63c0,2.45,4.66,4.45,10.4,4.45h576.3c5.74,0,10.4-2,10.4-4.45v-7.63C1150,1059.77,1145.38,1061.76,1139.64,1061.76Z"/><path class="cls-8" d="M1405.14,1033.15H570.43c-9.66,0-17.49,7.29-17.49,16.27v11c0-8.41,7.33-15.22,16.36-15.22h837c9,0,16.36,6.81,16.36,15.22v-11C1422.63,1040.44,1414.8,1033.15,1405.14,1033.15Z"/><rect class="cls-6" x="552.94" y="924.44" width="869.68" height="108.71" rx="17.89"/><path class="cls-7" d="M570.33,936.52h822.15a30.14,30.14,0,0,1,30.14,30.14v24.26a30.14,30.14,0,0,1-30.14,30.14H588.65a35.71,35.71,0,0,1-35.71-35.71V953.91A17.39,17.39,0,0,1,570.33,936.52Z"/><path class="cls-6" d="M847,1001.36H596.41a4.49,4.49,0,0,1-4.53-4.45v7.63a4.49,4.49,0,0,0,4.53,4.45H847a4.48,4.48,0,0,0,4.52-4.45v-7.63A4.48,4.48,0,0,1,847,1001.36Z"/><path class="cls-6" d="M1352.53,1001.36H1064.38c-2.88,0-5.2-2-5.2-4.45v7.63c0,2.46,2.32,4.45,5.2,4.45h288.15c2.87,0,5.19-2,5.19-4.45v-7.63C1357.72,999.37,1355.4,1001.36,1352.53,1001.36Z"/><path class="cls-6" d="M1410.87,977.21H759.4c-6.49,0-11.75-2-11.75-4.45v7.62c0,2.46,5.26,4.45,11.75,4.45h651.47c6.49,0,11.76-2,11.76-4.45v-7.62C1422.63,975.21,1417.36,977.21,1410.87,977.21Z"/><path class="cls-6" d="M1139.64,953.05H563.34c-5.74,0-10.4-2-10.4-4.45v7.63c0,2.45,4.66,4.45,10.4,4.45h576.3c5.74,0,10.4-2,10.4-4.45V948.6C1150,951.06,1145.38,953.05,1139.64,953.05Z"/><path class="cls-8" d="M1405.14,924.44H570.43c-9.66,0-17.49,7.28-17.49,16.27v11c0-8.41,7.33-15.22,16.36-15.22h837c9,0,16.36,6.81,16.36,15.22v-11C1422.63,931.72,1414.8,924.44,1405.14,924.44Z"/><circle class="cls-9" cx="525.77" cy="1332.1" r="40.77"/><path class="cls-10" d="M525.77,1372.87a40.76,40.76,0,0,0,40.76-40.77H485A40.77,40.77,0,0,0,525.77,1372.87Z"/><circle class="cls-9" cx="1898.23" cy="1332.1" r="40.77"/><rect class="cls-11" x="525.77" y="1250.57" width="1345.29" height="135.89"/><path class="cls-12" d="M1515.95,897.26h195.91a151.65,151.65,0,0,1,151.65,151.65v262.55a62.92,62.92,0,0,1-62.92,62.92H1519.17A69.37,69.37,0,0,1,1449.8,1305V963.41A66.14,66.14,0,0,1,1515.95,897.26Z"/><rect class="cls-13" x="525.77" y="1359.28" width="1345.29" height="27.18"/><path class="cls-14" d="M1449.8,1223.39v83.13a69.37,69.37,0,0,0,69.37,69.37h281.42a62.92,62.92,0,0,0,62.92-62.92v-89.58Z"/><path class="cls-10" d="M1898.23,1372.87A40.77,40.77,0,0,0,1939,1332.1h-81.53A40.76,40.76,0,0,0,1898.23,1372.87Z"/><path class="cls-11" d="M1826,1387c-24.85-8.28-35.3-34.35-50.07-54.82v4.88a63,63,0,0,0,63,63h43.2a16.1,16.1,0,0,0,16.1-16.11v-7.31C1877.35,1394,1850.7,1394.9,1826,1387Z"/><path class="cls-15" d="M1882.13,1250.57h-43.2a63,63,0,0,0-63,63v18.62c14.77,20.47,25.22,46.54,50.07,54.82,24.7,7.9,51.35,7,72.23-10.37v-110A16.1,16.1,0,0,0,1882.13,1250.57Z"/><rect class="cls-13" x="661.65" y="924.44" width="108.71" height="366.9" rx="23.79"/><rect class="cls-13" x="1259.56" y="924.44" width="108.71" height="366.9" rx="23.79"/><rect class="cls-15" x="661.65" y="910.85" width="108.71" height="366.9" rx="23.79"/><rect class="cls-15" x="1259.56" y="910.85" width="108.71" height="366.9" rx="23.79"/><rect class="cls-15" x="1632.5" y="966.72" width="81.53" height="231.01" rx="16.34"/><path class="cls-15" d="M1741.21,995v174.39a28.31,28.31,0,0,0,28.31,28.31h94V1048.91a150.85,150.85,0,0,0-24.2-82.19h-69.79A28.3,28.3,0,0,0,1741.21,995Z"/><rect class="cls-16" x="1659.67" y="990.87" width="27.18" height="179.67" rx="8.32"/><path class="cls-16" d="M1768.39,1014.4V1150a22,22,0,0,0,22,22h73.11V1048.91a151.29,151.29,0,0,0-10.9-56.53H1790.4A22,22,0,0,0,1768.39,1014.4Z"/><circle class="cls-17" cx="702.42" cy="1400.05" r="95.12"/><circle class="cls-15" cx="702.42" cy="1400.05" r="76.1"/><circle class="cls-18" cx="702.42" cy="1400.05" r="38.05"/><circle class="cls-19" cx="711.93" cy="1390.53" r="19.02"/><circle class="cls-17" cx="906.25" cy="1400.05" r="95.12"/><circle class="cls-15" cx="906.25" cy="1400.05" r="76.1"/><circle class="cls-18" cx="906.25" cy="1400.05" r="38.05"/><circle class="cls-19" cx="915.76" cy="1390.53" r="19.02"/><path class="cls-20" d="M1547.67,1375.89H1759.6a108.68,108.68,0,0,0-211.93,0Z"/><circle class="cls-17" cx="1653.64" cy="1400.05" r="95.12"/><circle class="cls-15" cx="1653.64" cy="1400.05" r="76.1"/><circle class="cls-18" cx="1653.64" cy="1400.05" r="38.05"/><circle class="cls-19" cx="1663.15" cy="1390.53" r="19.02"/><path class="cls-21" d="M1490.57,829.32h8.59a5,5,0,0,1,5,5v294a0,0,0,0,1,0,0h-13.59a0,0,0,0,1,0,0v-299A0,0,0,0,1,1490.57,829.32Z"/><rect class="cls-21" x="1473.75" y="792.7" width="13.59" height="53.19" rx="4.03" transform="translate(-145.69 1286.87) rotate(-45)"/><path class="cls-16" d="M1483.55,856.5h27.63a6.57,6.57,0,0,1,6.57,6.57v446.06a9.39,9.39,0,0,1-9.39,9.39h-22a9.39,9.39,0,0,1-9.39-9.39V863.07A6.57,6.57,0,0,1,1483.55,856.5Z"/></svg>