<svg id="Capa_1" data-name="Capa 1" xmlns="http://www.w3.org/2000/svg" viewBox="0 0 2000 2000"><defs><style>.cls-1{fill:#fcd3ac;}.cls-2{fill:#e4bf78;}.cls-3{fill:#d5b36f;}.cls-4{fill:#e6cb96;}.cls-5{fill:#b49960;}.cls-6{fill:#70623e;}.cls-7{fill:#3d5c62;}.cls-8{fill:#4a7077;}.cls-9{fill:#44666c;}.cls-10{fill:#b0b0b0;}.cls-11{fill:#c1c1c1;}.cls-12{fill:#44676d;}.cls-13{fill:#577b93;}.cls-14{fill:#5d849d;}.cls-15{fill:#b8b7b7;}.cls-16{fill:#c6c5c5;}.cls-17{fill:#06333b;}.cls-18{fill:#8c7955;}.cls-19{fill:#9a845d;}.cls-20{fill:#626325;}.cls-21{fill:#a88f66;}.cls-22{fill:#686827;}.cls-23{fill:#646525;}.cls-24{fill:#7f6f4d;}.cls-25{fill:#080200;}.cls-26{fill:#fff3f1;}</style></defs><path class="cls-1" d="M1685.36,1168.24c-72.48,131.83-313.46,34.84-454.93,171.65-127.09,122.91-9.25,275.32-148.51,397.84-95.48,84-268.37,115.75-356.16,57-89.31-59.72-15.47-162.85-102.33-350.28-85.29-184-206-191.36-220.15-312.76C388.21,1002.6,521,978.87,656.7,761c161.06-258.64,71.6-382,235.19-521C1014.73,135.65,1216.45,76.74,1305,139.38c84.48,59.73,60.08,225.81,27,451.25-29,197.65-71.17,278-17,326.42,78.31,70.05,240.81-31.28,335,48.67C1704.72,1012.14,1719.8,1105.59,1685.36,1168.24Z"/><rect class="cls-2" x="281.15" y="1184.01" width="423.45" height="23.87" transform="translate(1687.05 1693.1) rotate(135)"/><rect class="cls-3" x="286.87" y="1197.84" width="423.45" height="7.68" transform="translate(1700.87 1698.82) rotate(135)"/><rect class="cls-2" x="1295.12" y="1184.01" width="423.45" height="23.87" transform="translate(1287.01 -715.22) rotate(45)"/><rect class="cls-3" x="1289.4" y="1197.84" width="423.45" height="7.68" transform="translate(1289.38 -709.49) rotate(45)"/><rect class="cls-2" x="632.51" y="1037" width="734.7" height="568.22"/><polygon class="cls-3" points="1302.07 1402.54 690.42 1402.54 632.51 1037 1363.59 1037 1302.07 1402.54"/><polygon class="cls-4" points="1291.21 1344.63 701.27 1344.63 632.51 1037 1363.59 1037 1291.21 1344.63"/><rect class="cls-3" x="632.51" y="1547.31" width="734.7" height="57.91"/><rect class="cls-5" x="963.67" y="1565.41" width="72.38" height="39.81"/><polygon class="cls-6" points="708.51 1531.32 698.11 1505.82 687.71 1531.32 695.48 1531.32 695.48 1557.47 700.74 1557.47 700.74 1531.32 708.51 1531.32"/><path class="cls-6" d="M736.84,1528.4l16-1.67a18.69,18.69,0,1,0-37.37,0l16.05,1.66v23.26l-.08.08.08.07v1.36h1.36l5.19,5.2,3.73-3.73-5-5Z"/><path class="cls-6" d="M790.27,1510.62H758.05c0,6.43,3.31,11.6,2.67,16.11-1.1,7.63,5.39,12.56,10.81,13.84v13.88h-6.48v3.94h18.23v-3.94H776.8v-13.88c5.34-1.28,11.59-6.18,10.81-13.84C787.14,1522.22,790.27,1517.05,790.27,1510.62Z"/><path class="cls-6" d="M789.89,1570.83H685.15A18.18,18.18,0,0,1,667,1552.68v-44.15a18.18,18.18,0,0,1,18.16-18.16H789.89A18.17,18.17,0,0,1,808,1508.53v44.15A18.17,18.17,0,0,1,789.89,1570.83Zm-104.74-69.6a7.3,7.3,0,0,0-7.3,7.3v44.15a7.31,7.31,0,0,0,7.3,7.3H789.89a7.31,7.31,0,0,0,7.29-7.3v-44.15a7.3,7.3,0,0,0-7.29-7.3Z"/><circle class="cls-7" cx="1262.25" cy="1510.21" r="72.38"/><circle class="cls-8" cx="1262.25" cy="1510.21" r="65.83"/><path class="cls-9" d="M1310.49,1490.76l-29,21.12-35.5-35.51-16.67,10.55-20.88,17.17.08.07h0l38.67,38.67-24.49-2,35,35c1.51.1,3,.15,4.57.15a65.83,65.83,0,0,0,65.83-65.83c0-1.84-.07-3.67-.22-5.48l-16.26-16.26Z"/><g id="Forma_4" data-name="Forma 4"><path class="cls-10" d="M1239.53,1484.48a3.32,3.32,0,0,1,.47.37,2.5,2.5,0,0,0-1.11-1.14c-5.13-2-9.41,2.56-12.12,6.84-2.56,3.85-6,6.55-9.83,9.26a70.65,70.65,0,0,1-8,5,1.32,1.32,0,0,0,.52.22,3.36,3.36,0,0,0,2.09-.61c3.28-1.82,6.57-3.64,9.79-5.54a22.06,22.06,0,0,0,6.44-5c1.72-2.2,2.62-5,4.37-7.17S1237.18,1482.94,1239.53,1484.48Z"/><path class="cls-10" d="M1301.72,1506.51c.13,1.13-1.09,1.6-1.27,2.48a33.91,33.91,0,0,0,11.15-20.52,11.53,11.53,0,0,1-3.1,2.82c-.36,5.65-3.6,10.51-6.63,15.36C1301.87,1506.51,1301.72,1506.51,1301.72,1506.51Z"/><path class="cls-10" d="M1273.08,1549.68c-9.26-.71-18.52-1.28-27.78-1.57-7.55-.28-15.25-3-20.81-8.4-4.54-4.54-8.68-10.29-9-16.73a20.74,20.74,0,0,0,1.65,10.49c2.5,5.6,7.47,9.84,13,12.47s11.67,3.78,17.77,4.5a109.38,109.38,0,0,0,34.92-1.25c.64-.23,1.28-.47,1.91-.72C1280.87,1549.16,1277.05,1550,1273.08,1549.68Z"/><path class="cls-10" d="M1302,1534.3a1.19,1.19,0,0,0,.23-.16,10.26,10.26,0,0,0,2.35-7,6.59,6.59,0,0,0-.22-1.16,11.23,11.23,0,0,1-1.48,2.79C1301.8,1530.33,1301.85,1532.41,1302,1534.3Z"/><path class="cls-10" d="M1237,1523.75a109.6,109.6,0,0,0,6.56-12,13.63,13.63,0,0,1,6.27-6.41c1.71-.86,3.13-2.14,4.84-2.71a105.26,105.26,0,0,0,13.68-6.86l-.39,0c-9.32,1.4-18.71,5-24.86,12.07a39.76,39.76,0,0,0-7.2,13.51c-.4,1.2-1,2.6-2.19,2.89l-.24,0A2.59,2.59,0,0,0,1237,1523.75Z"/><path class="cls-11" d="M1302.21,1534.14a1.19,1.19,0,0,1-.23.16l0,.42,0-.42a.69.69,0,0,1-.68,0,.69.69,0,0,0,.68,0c-.13-1.89-.18-4,.88-5.56a11.23,11.23,0,0,0,1.48-2.79,6.1,6.1,0,0,0-3.93-4.27,8.84,8.84,0,0,1-1.25.22c1.14-1.29,1.85-3,3.28-4,4.21-3.6,6.92-8,7.17-13.15a28.88,28.88,0,0,1-9.17,4.31,1.4,1.4,0,0,0,0,.29,1.4,1.4,0,0,1,0-.29l-.11,0,.12-.11c.18-.88,1.4-1.35,1.27-2.48,0,0,.15,0,.15.14,3-4.85,6.27-9.71,6.63-15.36-3.48,2.22-8.09,2.86-12.35,3.11-9.26.52-18.59.07-27.77,1.4a105.26,105.26,0,0,1-13.68,6.86c-1.71.57-3.13,1.85-4.84,2.71a13.63,13.63,0,0,0-6.27,6.41,109.6,109.6,0,0,1-6.56,12,2.59,2.59,0,0,1-3.53.61,2.54,2.54,0,0,1-2.46-2.29c-2.82-3.16,1-8.51,3.43-11.29,3-3.13,6.55-5.55,8.69-9.4.28-.29.71-.57.85-.71,2-3.15,4.07-6,5.66-9.14a21.41,21.41,0,0,0,.4-2.12c.73-5.66-1.42-12-6.38-14.81-3.54-2-8-2-11.86-.65a32.77,32.77,0,0,0-10.34,6.4c-4.36,3.7-8.58,8.23-9.42,13.89a22.51,22.51,0,0,1-3.52,9.16,1.06,1.06,0,0,0,.42,1.38,70.65,70.65,0,0,0,8-5c3.85-2.71,7.27-5.41,9.83-9.26,2.71-4.28,7-8.83,12.12-6.84a2.5,2.5,0,0,1,1.11,1.14,5.17,5.17,0,0,1,1.41,4.55,11.05,11.05,0,0,1-2.46,4.93c-6.3,8-16.79,12.36-21.41,21.41a20.34,20.34,0,0,0-2.1,7.24c.37,6.44,4.51,12.19,9,16.73,5.56,5.41,13.26,8.12,20.81,8.4,9.26.29,18.52.86,27.78,1.57,4,.32,7.79-.52,11.62-1.21.65-.25,1.28-.51,1.92-.78,1.28-.43,3-.43,4.27-1,3.14-1.28,5.56-3.42,8.55-5.41a28.74,28.74,0,0,0,8.44-8.43,22.06,22.06,0,0,1-5.77,1.42A.64.64,0,0,0,1302.21,1534.14Z"/><path class="cls-10" d="M1312.08,1502.8a29.09,29.09,0,0,1-2.47,2c-.25,5.2-3,9.55-7.17,13.15-1.43,1-2.14,2.7-3.28,4a8.84,8.84,0,0,0,1.25-.22l-.48-.12A27.16,27.16,0,0,0,1312.08,1502.8Z"/><path class="cls-11" d="M1282.79,1549.19q2.63-.54,5.19-1.25c-1.09.14-2.19.33-3.28.53C1284.07,1548.72,1283.43,1549,1282.79,1549.19Z"/><path class="cls-10" d="M1307.88,1532.85a28.74,28.74,0,0,1-8.44,8.43c-3,2-5.41,4.13-8.55,5.41-1.28.57-3,.57-4.27,1-.64.27-1.27.53-1.92.78,1.09-.2,2.19-.39,3.28-.53,1.1-.3,2.2-.62,3.29-1,8.93-2.84,18.1-7.94,21.42-16.71A21.88,21.88,0,0,1,1307.88,1532.85Z"/><path class="cls-10" d="M1242.7,1504.63c3.07-3.93,5.83-8.29,7-13.1-1.59,3.17-3.7,6-5.66,9.14-.14.14-.57.42-.85.71-2.14,3.85-5.7,6.27-8.69,9.4-2.4,2.78-6.25,8.13-3.43,11.29,0,0,0-.07,0-.1a6.46,6.46,0,0,1,1.24-3.8C1235.21,1513.28,1239.19,1509.12,1242.7,1504.63Z"/></g><path class="cls-7" d="M1248.41,1536.05a34,34,0,0,0,4-3.61c.57-.43-.28-1.28-1-1-2.36,1-5.53,3.57-7.94,1.85a1.29,1.29,0,0,0,.82,1.18,1.88,1.88,0,0,0,.91,0,32.92,32.92,0,0,0,7-2.78A19.31,19.31,0,0,0,1248.41,1536.05Z"/><path class="cls-7" d="M1256.13,1538a21.16,21.16,0,0,0,3.08-6,14.23,14.23,0,0,0-2.79,4.57c-.19.54-.44,1.16-1,1.3-.59-.63.08-1.61.66-2.26a11.53,11.53,0,0,0,2.63-5.14c-1.34,1.06-1.54,2.84-2.45,4.15a11.77,11.77,0,0,0-1.43,1.28,1.56,1.56,0,0,0-.28,1.71C1254.84,1538.14,1255.84,1538.43,1256.13,1538Z"/><path class="cls-7" d="M1281.09,1536.8v0c-.28,3-.76,6-2.73,8.49a10.51,10.51,0,0,1-5.27,3.7,40.47,40.47,0,0,1-24.56-1.42,9.65,9.65,0,0,0,2.64,1.71c2.84,1.21,6,1.24,9.09,1.26l6.29,0a19.8,19.8,0,0,0,5.91-.57,14.69,14.69,0,0,0,5.68-3.59,10.92,10.92,0,0,0,1.83-2.18c1.28-2.13,1.24-4.77,1.16-7.26A.24.24,0,0,0,1281.09,1536.8Z"/><path class="cls-12" d="M1280.55,1536.89a5.67,5.67,0,0,1-3.31,1.54c-.5.26-1.2.1-1.74.42-.14-.28.15-.57.29-.71,3.55-1.39,4.62-5.15,5.91-8.47a10.31,10.31,0,0,0-.59-4.12c-.29-.76-1.32-.85-2.13-.79a48,48,0,0,0-13.32,3A21.34,21.34,0,0,0,1263,1529a14,14,0,0,0-3.74,3,21.16,21.16,0,0,1-3.08,6c-.29.43-1.29.14-1.57-.43a1.56,1.56,0,0,1,.28-1.71,11.77,11.77,0,0,1,1.43-1.28c.91-1.31,1.11-3.09,2.45-4.15a11.17,11.17,0,0,0,.2-4,6.76,6.76,0,0,0-2-4.33,6.93,6.93,0,0,0-3.07-1.39,9.51,9.51,0,0,0-7.06,1,6.4,6.4,0,0,0-3.1,6.16,10.28,10.28,0,0,1,.41,2.78c-.08.7-.45,1.34-.57,2a2.26,2.26,0,0,0,0,.58c2.41,1.72,5.58-.87,7.94-1.85.72-.28,1.57.57,1,1a34,34,0,0,1-4,3.61,18.6,18.6,0,0,0-1.72,3.46,9.09,9.09,0,0,0-.65,2.72,7,7,0,0,0,2.48,5.32,40.47,40.47,0,0,0,24.56,1.42,10.51,10.51,0,0,0,5.27-3.7c2-2.46,2.45-5.44,2.73-8.49C1281,1536.62,1280.71,1536.75,1280.55,1536.89Z"/><path class="cls-7" d="M1275.79,1538.14c-.14.14-.43.43-.29.71.54-.32,1.24-.16,1.74-.42l-.48,0a11.21,11.21,0,0,0,4.94-8.79C1280.41,1533,1279.34,1536.75,1275.79,1538.14Z"/><path class="cls-13" d="M1183.57,494.86V950L1343,901.14V446Z"/><path class="cls-14" d="M1343,446V901.14L1502.43,950V494.86Z"/><path class="cls-15" d="M1193.86,502.9V937.14L1343,893.43V458.86Z"/><path class="cls-16" d="M1492.14,502.9V937.14L1343,893.43V458.86Z"/><path class="cls-17" d="M1252.26,558.85l-14.46,3.08V546.42l37.9-8.07V618l-23.44,5Z"/><path class="cls-17" d="M1253.29,825.45c.58-7,3-14.76,6.37-19.82A23.73,23.73,0,0,1,1276,795c7.91-1.41,13.6.75,16.88,4.31,2.64,2.87,4.92,7.93,4.92,16a24.32,24.32,0,0,1-2.61,11.73,17.24,17.24,0,0,1-4.82,6,13.07,13.07,0,0,1,7.33,5.4c1.89,3,3,8,3,12.48a34.34,34.34,0,0,1-6.46,20c-5.49,7.41-11.77,9.25-17,10.17-6.27,1.1-13.11,1.07-18.81-5.23-3.66-4.19-6.46-11-7.13-19.17l14.85-2.62c.19,3.19,1.35,6.82,3.09,8.74a7.55,7.55,0,0,0,7.14,2.09,10.28,10.28,0,0,0,6.46-4,16,16,0,0,0,2.6-8.88c0-3.47-1.25-6.09-2.79-7.43-2.32-1.95-5.7-1.6-7.92-1.21l-1.15.21V830.41l.87-.15a11.25,11.25,0,0,0,6.46-3.49,13,13,0,0,0,2.41-7.86,8.92,8.92,0,0,0-2.12-6.31,6.13,6.13,0,0,0-5.5-1.51,8.88,8.88,0,0,0-5.79,3.75,17.5,17.5,0,0,0-2.31,8.09Z"/><path class="cls-17" d="M1443.29,755.18l-51.43-8.57L1412,722.74a143.78,143.78,0,0,0,11-15.15c1.53-2.7,4-7.7,4-13.44a15.32,15.32,0,0,0-2.62-8.68,9.67,9.67,0,0,0-6.15-3.41,6.17,6.17,0,0,0-6.16,2c-1.81,2.19-2.82,6.52-2.82,9.77l-15.53-2.6c.51-7.16,2.86-15,7-19.7,3.23-3.69,9-7.11,18.55-5.5a26.65,26.65,0,0,1,17.45,10.79,36.44,36.44,0,0,1,6.25,21,30.07,30.07,0,0,1-5,17.51c-2.89,4.5-6.45,8.16-10.79,12.56l-7.06,7.19,23.2,3.87Z"/><path class="cls-18" d="M845.62,748.47c15.42,5.39,29.3-6.17,40.86-13.88,22.69-14.44,41.71-29.49,63.07-43.52-6.72-1.86-13.92-3.7-21.54-5.47a219.87,219.87,0,0,0-31.51,15.07C876.46,712.23,850.24,726.11,845.62,748.47Z"/><path class="cls-19" d="M1003.28,710.3c-7.47-4-26.66-11.75-53.73-19.23-21.36,14-40.38,29.08-63.07,43.52-11.56,7.71-25.44,19.27-40.86,13.88,4.62-22.36,30.84-36.24,50.88-47.8A219.87,219.87,0,0,1,928,685.6c-37.73-8.76-85.92-15.76-137.52-13.85-104.08,3.86-157.28-6.93-171.15-10.79s-11.57-8.48-20.05-15.42-43.95-50.88-53.2-60.14-26.21-23.12-49.34-37-43.17-9.25-47.8-8.48-8.48,4.62-8.48,4.62l-6,5.19s12.93,14.09,43.77,106.6S959.62,921.85,959.62,921.85s3.44-1,8.84-2.7c-18.53-55.51-23.83-115-17.22-173.77.77-8.48,15.42-13.1,24.67-20a8.29,8.29,0,0,1,4.63-1.54c7.87-4.56,15.74-9.11,23.85-12.83C1004,710.73,1003.64,710.5,1003.28,710.3Z"/><path class="cls-20" d="M1004.39,711c-8.11,3.72-16,8.27-23.85,12.83a8.29,8.29,0,0,0-4.63,1.54c-9.25,6.94-23.9,11.56-24.67,20-6.61,58.78-1.31,118.26,17.22,173.77,13.86-4.37,40.66-13.39,55.64-22.27,20.82-12.34,19.27-23.9,28.53-38.55s14.64-61.68,14.64-61.68S1023.54,723.27,1004.39,711Z"/><path class="cls-21" d="M662.13,827.11c3.08.77,6.93,3.08,10.79,3.85,8.48,2.31,17,3.86,25.44,5.4,29.3,8.48,54.74,22.36,81.72,33.92,17,6.94,33.93,12.34,50.89,19.28,7.71,3.08,17,4.62,24.67,5.39,38.82,2.32,76.33,9,112.2,22.31-17.31-52.8-22.71-109.13-17.31-165l-1.22-.32c-46.25-12.34-174.24-27.76-276-44.72s-102.54-12.34-112.56-27.76-57.82-116.41-79.41-125.67-48.57-18.5-52.43,9.26,7.71,73.24,26.22,107.16c3.18,5.84,6.82,13.15,11.38,21.58,10.35,8.73,21.1,17.07,30.64,26.61C541.08,767.74,597.36,808.6,662.13,827.11Z"/><path class="cls-19" d="M774.14,867.69c-24.81-11-48.64-23.48-75.78-31.33-8.48-1.54-17-3.09-25.44-5.4-3.86-.77-7.71-3.08-10.79-3.85-64.77-18.51-121-59.37-165-108.71-9.54-9.54-20.29-17.88-30.64-26.61,22,40.61,65.44,107.12,182.9,158.83,47.26,20.8,88.43,37.66,124,50.54C772.17,890.11,771.38,878.66,774.14,867.69Z"/><path class="cls-19" d="M967.84,917.26c-35.87-13.32-73.38-20-112.2-22.31-7.71-.77-17-2.31-24.67-5.39-15.29-6.26-30.57-11.27-45.85-17.27,2.6,10.09-.59,21-3,32C848.61,927.72,894.52,936.44,923.1,930l44.72-10,.72-.61C968.3,918.69,968.08,918,967.84,917.26Z"/><path class="cls-18" d="M785.12,872.29c-1.68-.66-3.36-1.32-5-2-2-.85-4-1.72-5.94-2.59-2.76,11-2,22.42-.75,33.47,3,1.07,5.89,2.12,8.77,3.13C784.53,893.27,787.72,882.38,785.12,872.29Z"/><path class="cls-22" d="M967.43,896.49c7.61-44.87,27.22-83.73,51.43-120.3-22-8.78-47.57-18.29-68.33-23.93-5.32,55.1-.15,110.64,16.6,162.81A56.94,56.94,0,0,1,967.43,896.49Z"/><path class="cls-23" d="M1067.27,796.65s-21.43-9.67-48.41-20.46c-24.21,36.57-43.82,75.43-51.43,120.3a56.94,56.94,0,0,0-.3,18.58c.46,1.44.93,2.89,1.41,4.33C975.65,913.35,1033.31,863.13,1067.27,796.65Z"/><path class="cls-21" d="M1105.4,662.78s-21.94-1.82-25-1-11.56,17-13.11,22.36-17,42.4-22.35,55.51S1011,800.51,1011,800.51c-10.79,18.5-14.65,30.84-22.36,42.4S974.76,883.77,974,907.67a34.88,34.88,0,0,0,.43,7c7.85,12.12,20.19,13.51,33.87,14.24,10.42.69,18.33-5.49,26.56-12.36l15.46-103.68Z"/><path class="cls-19" d="M1008.29,928.88c-13.68-.73-26-2.12-33.87-14.24,3,17.72,20,21,29.63,23.1,10.8,2.31,29.24-10.8,29.24-10.8l1.56-10.42C1026.62,923.39,1018.71,929.57,1008.29,928.88Z"/><path class="cls-19" d="M908.84,949.69c13.1-21.59,1.54-46.26-6.94-67.84-1.54-5.4-5.4-10.8-8.48-16.2a27.85,27.85,0,0,0-11.57-11.56c-8.48-3.85-15.42-9.25-23.13-12.34-10.24-4.39-21.18-6.69-31.49-8.89C815.45,839.64,789,859.1,789,859.1s58.32,111.21,75.74,125C881.82,974.92,899.43,965.82,908.84,949.69Z"/><path class="cls-18" d="M886.09,851.39c-16.19-17-48.57-21.59-54-20.81a18.49,18.49,0,0,0-4.9,2.28c10.31,2.2,21.25,4.5,31.49,8.89,7.71,3.09,14.65,8.49,23.13,12.34a27.85,27.85,0,0,1,11.57,11.56c3.08,5.4,6.94,10.8,8.48,16.2,8.48,21.58,20,46.25,6.94,67.84-9.41,16.13-27,25.23-44.15,34.45a5.29,5.29,0,0,0,2.9,1.4c12.34,0,43.18-30.84,43.18-30.84s8.48-4.62,8.48-33.15S902.28,868.35,886.09,851.39Z"/><path class="cls-21" d="M879.41,977.89c8.26-8.92,13.08-22.44,13.62-26.27.77-5.4.77-18.5-1.54-41.63s-33.92-47.8-57-57.06-40.09,2.32-45.49,6.17-10,13.88-10.79,40.09,22.36,49.34,22.36,49.34c.23.48.47.93.71,1.36C822.83,968.76,850.79,978.19,879.41,977.89Z"/><path class="cls-19" d="M801.23,949.89c2.85,5.18,5.81,7.54,10.08,12.52,4.63,5.4,40.86,27,56.28,23.13,4.48-1.12,8.43-4,11.82-7.65C850.79,978.19,822.83,968.76,801.23,949.89Z"/><path class="cls-18" d="M752.33,783.93c-2.31.77-4.63,3.09-6.94,3.86-61.68,20-121.81,48.57-189.66,33.92-5.4-1.54-10-4.63-14.65-6.17-14.54-4.36-31.14-8.73-38.8-22.15,1.13,5.87,2.71,11,4.88,12.9l6.17,5.4s33.92,34.69,126.44,10.79C699.8,807,765,783,818.17,759.06c-3.48,1-6.93,2.06-10.33,3.28C789.34,769.28,770.83,776.22,752.33,783.93Z"/><path class="cls-19" d="M1029.44,551,499.6,769.26a197.13,197.13,0,0,0,2.68,24.13c7.66,13.42,24.26,17.79,38.8,22.15,4.63,1.54,9.25,4.63,14.65,6.17,67.85,14.65,128-13.88,189.66-33.92,2.31-.77,4.63-3.09,6.94-3.86,18.5-7.71,37-14.65,55.51-21.59,3.4-1.22,6.85-2.29,10.33-3.28,28.76-13,54-25.94,72.94-37.58,54-33.15,129.52-86.35,141.86-115.64S1029.44,551,1029.44,551Z"/><path class="cls-19" d="M521.81,753.09c59.36-28.52,120.27-47.8,184.26-66.3a48.92,48.92,0,0,0,15.43-8.09l-1.55.38c-45.49,10.79-155,44.72-196.6,67.84-16.82,9.35-24.07,17.18-23.8,23.7C503.47,762.26,513.4,756.92,521.81,753.09Z"/><path class="cls-21" d="M1005.21,539.53c-28.53-6.17-104.08,6.94-158.05,27.76s-69.39,77.09-69.39,77.09c-1.52,4.58-12.09,23.46-56.27,34.32a48.92,48.92,0,0,1-15.43,8.09c-64,18.5-124.9,37.78-184.26,66.3-8.41,3.83-18.34,9.17-22.26,17.53.4,9.64,17.19,16.43,43.84,21,44.72,7.71,156.51-23.9,229.76-50.88s203.53-120.28,239-149.57S1033.74,545.7,1005.21,539.53Z"/><path class="cls-19" d="M841.76,935.81c4.63-8.48,3.86-23.13-6.16-29.29-6.83-4.55-14.4-2.39-22-2.32-8.36,7.48-11.56,22.59-3.85,32.77a20.54,20.54,0,0,0,1.35,1.61C821.34,945.18,835,947.05,841.76,935.81Z"/><path class="cls-18" d="M836,901.51c-2.59-1.08-10.88-4-18.5,0a18.09,18.09,0,0,0-3.86,2.69c7.58-.07,15.15-2.23,22,2.32,10,6.16,10.79,20.81,6.16,29.29-6.74,11.24-20.42,9.37-30.64,2.77a23.75,23.75,0,0,0,27.17,5.33,23.14,23.14,0,0,0,13.11-20.82C851.34,912.3,843.45,904.6,836,901.51Z"/><path class="cls-18" d="M1008.29,928.88a105,105,0,0,1-12.93-1.29,14.45,14.45,0,0,0,4.07,4.75c9.25,6.17,29.3,3.09,38.55-10.79a66.14,66.14,0,0,0,4.59-8.69c-1.52.59-3.57.66-5,1.37C1028.34,921.94,1019.86,929.65,1008.29,928.88Z"/><path class="cls-24" d="M1069.39,828.34c.64-3,1.36-6.32,2.14-9.89-5.35-2-12.7-1.42-17.75-4.45C1054.26,823.61,1061.33,827.83,1069.39,828.34Z"/><path class="cls-19" d="M1106.59,663.27c-10-4.62-19.27,3.09-23.9,12.34s-15.42,43.17-19.27,54.74l-6.94,20.81s-20.82,55.52-40.86,74-29.3,50.11-30.07,58.59c-.65,7.15,3.08,32.38,9.81,43.82a105,105,0,0,0,12.93,1.29c11.57.77,20-6.94,29.3-14.65,1.41-.71,3.46-.78,5-1.37,9.42-20.65,22.08-62.11,24.7-74.57.5-2.35,1.23-5.79,2.12-9.95-8.06-.51-15.13-4.73-15.61-14.34,5,3,12.4,2.42,17.75,4.45,5-22.68,12.22-54.54,15-59.58,3.85-6.93,17.73-39.32,20-47.8S1116.62,667.9,1106.59,663.27Z"/><path class="cls-19" d="M1053.78,790.87c-2.31,10-1.54,24.67,10.8,27.76,10,1.77,17.35-2.79,22.65-9.86a34.76,34.76,0,0,0,2.4-12.89c0-12.25-10.65-22.22-24.39-22.35C1058.18,776.78,1055.26,783.46,1053.78,790.87Z"/><path class="cls-18" d="M1064.58,818.63c-12.34-3.09-13.11-17.74-10.8-27.76,1.48-7.41,4.4-14.09,11.46-17.34H1065c-13.88,0-16.19,22.36-16.19,22.36,1.54,23.9,8.48,25.44,21.59,25.44,8.42,0,14-5.41,16.87-12.55C1081.93,815.84,1074.61,820.4,1064.58,818.63Z"/><g id="Forma_4-2" data-name="Forma 4"><path class="cls-25" d="M478.57,584.14c-.76,5.78-2.41,11.15-4.76,14.29.92.39,1.61,2.35,1.75,4.35a14.54,14.54,0,0,1-.73,5.56,6.46,6.46,0,0,0,3.83-3.14c-.92,6.76-4.1,10.89-7.57,13-5.4,3.25-11.67,2.83-17.45.1a18.66,18.66,0,0,1-6.78-5.18,20.08,20.08,0,0,1-4.08-9.62,24.7,24.7,0,0,1,1-11.34c2-5.74,5.77-8.92,8.18-14.86a12.83,12.83,0,0,0,1-3.67,5.11,5.11,0,0,0-.72-3.49c-.91-1-2.17.31-2.82,2s-1,3.64-1.6,5.24a12.53,12.53,0,0,1-2.39,3.68c-1.19,1.39-2.41,2.66-3.63,3.88-.24.24-.5.48-.77.42s-.5-.58-.35-1a19.51,19.51,0,0,0,1.22-5.89,23.58,23.58,0,0,1,3.22-9.88,19.4,19.4,0,0,1,4-5.44c1.54-1.31,3.38-1.76,4.8-.51,2,1.74,2.73,6.45,2.36,10.7a38.42,38.42,0,0,1-3,11.37c-1.36,3.28-2.89,6.2-4.13,9.5a7.73,7.73,0,0,0-.58,2.59c0,.93.41,1.91.91,1.76s.73-1.1.92-1.93a48.68,48.68,0,0,1,3-9.52c2.39-5.15,5.92-8,9.41-9.09s7-.61,10.46-.78a6.68,6.68,0,0,0,6.17-4c-1.17,6-3,11.61-5.3,15.57a12.26,12.26,0,0,0,4.46-4.6"/></g><path class="cls-26" d="M466.71,610.06a1.68,1.68,0,0,1-1.45,1.09c1.58-1.91,2.24-6.29,1.65-9.91-.1-.61-.48-.7-.78-.67a10.61,10.61,0,0,0-4.95,1.92,7.64,7.64,0,0,0-1,.82,11.35,11.35,0,0,0-2.64,5.38c-.09.39-.2.85-.41.91a2.18,2.18,0,0,1,.31-1.64,14.32,14.32,0,0,0,1.3-6.71,8.43,8.43,0,0,0-.65-3.33,2.6,2.6,0,0,0-1.09-1.15,2,2,0,0,0-2.62.47,6.61,6.61,0,0,0-1.35,4.35,13.8,13.8,0,0,1,.05,2c-.06.51-.22,1-.29,1.44s0,1.14.23,1.33a.41.41,0,0,0,.34,0,7.64,7.64,0,0,0,2.72-1.61,17.82,17.82,0,0,0-2.37,5.4,11.45,11.45,0,0,0-.37,1.92,7.71,7.71,0,0,0,1.71,5.6,6.16,6.16,0,0,0,3.62,1.73c.84.17,1.7.32,2.54.47a4.09,4.09,0,0,0,2.4-.08,5.66,5.66,0,0,0,2.25-2.51,7.62,7.62,0,0,0,.7-1.63,19.2,19.2,0,0,0,.38-5.61.41.41,0,0,0,0-.11C466.87,609.84,466.76,610,466.71,610.06Z"/></svg>