<?xml version="1.0" encoding="utf-8"?>
<!-- Generator: Adobe Illustrator 25.0.1, SVG Export Plug-In . SVG Version: 6.00 Build 0)  -->
<svg version="1.1" id="Capa_1" xmlns="http://www.w3.org/2000/svg" xmlns:xlink="http://www.w3.org/1999/xlink" x="0px" y="0px"
	 viewBox="0 0 2000 2000" style="enable-background:new 0 0 2000 2000;" xml:space="preserve">
<style type="text/css">
	.st0{fill:#FCD3AC;}
	.st1{fill:#D3AC6E;}
	.st2{fill:#E8C585;}
	.st3{fill:#B2976D;}
	.st4{fill:#8C7955;}
	.st5{fill:#9A845D;}
	.st6{fill:#626325;}
	.st7{fill:#A88F66;}
	.st8{fill:#686827;}
	.st9{fill:#646525;}
	.st10{fill:#7F6F4D;}
	.st11{fill:#080200;}
	.st12{fill:#FFF3F1;}
	.st13{fill:#E4BF78;}
	.st14{fill:#D5B36F;}
	.st15{fill:#E6CB96;}
	.st16{fill:#B49960;}
	.st17{fill:#70623E;}
	.st18{fill:#E5B19C;}
	.st19{fill:#DD9F87;}
	.st20{fill:#C98C79;}
	.st21{fill:#F6C3AB;}
	.st22{fill:#C1C1C1;}
	.st23{fill:#D3927F;}
</style>
<path class="st0" d="M1685.4,1257.5c-72.5,113.9-313.5,30.1-454.9,148.3c-127.1,106.2-9.2,237.9-148.5,343.8
	c-95.5,72.6-268.4,100-356.2,49.3c-89.3-51.6-15.5-140.7-102.3-302.7c-85.3-159-206-165.4-220.1-270.3
	c-15.1-111.5,117.7-132.1,253.4-320.3c161.1-223.5,71.6-330.1,235.2-450.2c122.8-90.2,324.6-141.1,413.1-86.9
	c84.5,51.6,60.1,195.1,27,389.9c-29,170.8-71.2,240.2-17,282.1c78.3,60.5,240.8-27,335,42.1
	C1704.7,1122.6,1719.8,1203.3,1685.4,1257.5z"/>
<path class="st1" d="M1310.4,587.9l-207.1,306.7l154.4,56.3l207.1-306.7L1310.4,587.9z"/>
<path class="st1" d="M1464.7,644.2l-207.1,306.7l109.9,122.1l207.1-306.7L1464.7,644.2z"/>
<path class="st2" d="M1315.2,599.1l-197.6,292.6l143.5,54l197.8-292.9L1315.2,599.1z"/>
<path class="st2" d="M1562.4,766l-197.6,292.6l-103.7-112.9l197.8-292.9L1562.4,766z"/>
<path class="st3" d="M1338.2,669.5l-13.4-6l7.1-10.5l35.1,15.8l-36.2,53.7l-21.7-9.7L1338.2,669.5z"/>
<path class="st3" d="M1217.7,849.7c3.7-4.4,9.2-8.3,14.3-9.8c5.6-1.8,12.3-1.1,18.4,2c7.2,3.5,10.9,8.1,12,12.4
	c0.9,3.4,0.5,8.1-3.2,13.5c-1.7,2.8-4.3,5-7.5,6.4c-2,0.9-4.3,1.4-6.7,1.3c2.1,2.3,3.4,5,3.6,7.7c0.2,3.1-1.2,7.1-3.2,10.1
	c-3.3,4.8-8.3,8.3-14.5,9.9c-7.9,1.9-14-0.4-18.7-2.7c-5.7-2.8-11.4-6.6-13.2-14.1c-1.1-4.9-0.3-11,2.8-16.9l13.5,6.5
	c-1.3,2.3-2,5.4-1.4,7.6c0.7,2.3,2.6,4.4,5,5.4c2.4,1.1,4.9,1.5,7.2,0.9c2.6-0.8,4.8-2.4,6.2-4.5c1.6-2.3,1.7-4.8,1.1-6.6
	c-1-2.6-4-4.3-6-5.2l-1-0.5l6-8.9l0.8,0.4c2.2,1.1,4.7,1.6,6.9,1.3c2.4-0.6,4.4-2,5.6-3.9c1.2-1.5,1.6-3.4,1.1-5.4
	c-0.6-1.8-2-3.3-3.9-4.1c-2.1-1-4.5-1.3-6.5-0.7c-2.3,0.9-4.2,2.3-5.6,4.2L1217.7,849.7z"/>
<path class="st3" d="M1407.1,908.7l-38.7-34.6l27.6-4.8c5.5-1,10.8-2.4,16-4.1c2.5-1,6.8-3,9.4-6.8c1.4-2.1,2-4.6,1.8-7.3
	c-0.4-2.1-1.7-4.2-3.5-5.7c-1.6-1.6-4-2.5-6-2.1c-2.5,0.5-5.3,2.8-6.8,5l-11.7-10.4c3.7-4.5,9.2-8.5,14.8-9.4
	c4.4-0.7,10.7,0.2,17.9,6.7c5.3,4.7,8.7,10.8,9.6,17c0.7,6.5-0.9,12.7-4.4,17.6c-2.7,4.3-6.9,7.4-12.1,9c-4.4,1.4-9.1,1.9-14.7,2.4
	l-9.1,0.9l17.5,15.6L1407.1,908.7z"/>
<path class="st4" d="M845.6,748.5c15.4,5.4,29.3-6.2,40.9-13.9c22.7-14.4,41.7-29.5,63.1-43.5c-6.7-1.9-13.9-3.7-21.5-5.5
	c-10.9,4.2-21.4,9.2-31.5,15.1C876.5,712.2,850.2,726.1,845.6,748.5z"/>
<path class="st5" d="M1003.3,710.3c-7.5-4-26.7-11.8-53.7-19.2c-21.4,14-40.4,29.1-63.1,43.5c-11.6,7.7-25.4,19.3-40.9,13.9
	c4.6-22.4,30.8-36.2,50.9-47.8c10.1-5.9,20.6-10.9,31.5-15.1c-37.7-8.8-85.9-15.8-137.5-13.8c-104.1,3.9-157.3-6.9-171.2-10.8
	s-11.6-8.5-20-15.4s-44-50.9-53.2-60.1s-26.2-23.1-49.3-37s-43.2-9.2-47.8-8.5s-8.5,4.6-8.5,4.6l-6,5.2c0,0,12.9,14.1,43.8,106.6
	s481.4,265.5,481.4,265.5s3.4-1,8.8-2.7c-18.5-55.5-23.8-115-17.2-173.8c0.8-8.5,15.4-13.1,24.7-20c1.4-1,3-1.5,4.6-1.5
	c7.9-4.6,15.7-9.1,23.8-12.8C1004,710.7,1003.6,710.5,1003.3,710.3z"/>
<path class="st6" d="M1004.4,711c-8.1,3.7-16,8.3-23.8,12.8c-1.7,0-3.3,0.6-4.6,1.5c-9.2,6.9-23.9,11.6-24.7,20
	c-6.6,58.8-1.3,118.3,17.2,173.8c13.9-4.4,40.7-13.4,55.6-22.3c20.8-12.3,19.3-23.9,28.5-38.5s14.6-61.7,14.6-61.7
	S1023.5,723.3,1004.4,711z"/>
<path class="st7" d="M662.1,827.1c3.1,0.8,6.9,3.1,10.8,3.8c8.5,2.3,17,3.9,25.4,5.4c29.3,8.5,54.7,22.4,81.7,33.9
	c17,6.9,33.9,12.3,50.9,19.3c7.7,3.1,17,4.6,24.7,5.4c38.8,2.3,76.3,9,112.2,22.3c-17.3-52.8-22.7-109.1-17.3-165l-1.2-0.3
	c-46.2-12.3-174.2-27.8-276-44.7s-102.5-12.3-112.6-27.8S502.9,563,481.3,553.8s-48.6-18.5-52.4,9.3s7.7,73.2,26.2,107.2
	c3.2,5.8,6.8,13.2,11.4,21.6c10.4,8.7,21.1,17.1,30.6,26.6C541.1,767.7,597.4,808.6,662.1,827.1z"/>
<path class="st5" d="M774.1,867.7c-24.8-11-48.6-23.5-75.8-31.3c-8.5-1.5-17-3.1-25.4-5.4c-3.9-0.8-7.7-3.1-10.8-3.8
	c-64.8-18.5-121-59.4-165-108.7c-9.5-9.5-20.3-17.9-30.6-26.6c22,40.6,65.4,107.1,182.9,158.8c47.3,20.8,88.4,37.7,124,50.5
	C772.2,890.1,771.4,878.7,774.1,867.7z"/>
<path class="st5" d="M967.8,917.3c-35.9-13.3-73.4-20-112.2-22.3c-7.7-0.8-17-2.3-24.7-5.4c-15.3-6.3-30.6-11.3-45.8-17.3
	c2.6,10.1-0.6,21-3,32c66.5,23.4,112.4,32.2,141,25.7l44.7-10l0.7-0.6C968.3,918.7,968.1,918,967.8,917.3z"/>
<path class="st4" d="M785.1,872.3c-1.7-0.7-3.4-1.3-5-2c-2-0.8-4-1.7-5.9-2.6c-2.8,11-2,22.4-0.8,33.5c3,1.1,5.9,2.1,8.8,3.1
	C784.5,893.3,787.7,882.4,785.1,872.3z"/>
<path class="st8" d="M967.4,896.5c7.6-44.9,27.2-83.7,51.4-120.3c-22-8.8-47.6-18.3-68.3-23.9c-5.3,55.1-0.2,110.6,16.6,162.8
	C966.2,908.9,966.3,902.6,967.4,896.5z"/>
<path class="st9" d="M1067.3,796.7c0,0-21.4-9.7-48.4-20.5c-24.2,36.6-43.8,75.4-51.4,120.3c-1.1,6.1-1.2,12.4-0.3,18.6
	c0.5,1.4,0.9,2.9,1.4,4.3C975.7,913.3,1033.3,863.1,1067.3,796.7z"/>
<path class="st7" d="M1105.4,662.8c0,0-21.9-1.8-25-1s-11.6,17-13.1,22.4s-17,42.4-22.3,55.5s-33.9,60.9-33.9,60.9
	c-10.8,18.5-14.7,30.8-22.4,42.4s-13.9,40.9-14.6,64.8c-0.1,2.3,0.1,4.7,0.4,7c7.8,12.1,20.2,13.5,33.9,14.2
	c10.4,0.7,18.3-5.5,26.6-12.4l15.5-103.7L1105.4,662.8z"/>
<path class="st5" d="M1008.3,928.9c-13.7-0.7-26-2.1-33.9-14.2c3,17.7,20,21,29.6,23.1c10.8,2.3,29.2-10.8,29.2-10.8l1.6-10.4
	C1026.6,923.4,1018.7,929.6,1008.3,928.9z"/>
<path class="st5" d="M908.8,949.7c13.1-21.6,1.5-46.3-6.9-67.8c-1.5-5.4-5.4-10.8-8.5-16.2c-2.6-4.9-6.6-9-11.6-11.6
	c-8.5-3.8-15.4-9.2-23.1-12.3c-10.2-4.4-21.2-6.7-31.5-8.9c-11.8,6.8-38.2,26.2-38.2,26.2s58.3,111.2,75.7,125
	C881.8,974.9,899.4,965.8,908.8,949.7z"/>
<path class="st4" d="M886.1,851.4c-16.2-17-48.6-21.6-54-20.8c-1.7,0.5-3.4,1.3-4.9,2.3c10.3,2.2,21.2,4.5,31.5,8.9
	c7.7,3.1,14.7,8.5,23.1,12.3c4.9,2.6,9,6.6,11.6,11.6c3.1,5.4,6.9,10.8,8.5,16.2c8.5,21.6,20,46.2,6.9,67.8
	c-9.4,16.1-27,25.2-44.2,34.5c0.8,0.8,1.8,1.2,2.9,1.4c12.3,0,43.2-30.8,43.2-30.8s8.5-4.6,8.5-33.2S902.3,868.3,886.1,851.4z"/>
<path class="st7" d="M879.4,977.9c8.3-8.9,13.1-22.4,13.6-26.3c0.8-5.4,0.8-18.5-1.5-41.6s-33.9-47.8-57-57.1s-40.1,2.3-45.5,6.2
	s-10,13.9-10.8,40.1s22.4,49.3,22.4,49.3c0.2,0.5,0.5,0.9,0.7,1.4C822.8,968.8,850.8,978.2,879.4,977.9z"/>
<path class="st5" d="M801.2,949.9c2.8,5.2,5.8,7.5,10.1,12.5c4.6,5.4,40.9,27,56.3,23.1c4.5-1.1,8.4-4,11.8-7.7
	C850.8,978.2,822.8,968.8,801.2,949.9z"/>
<path class="st4" d="M752.3,783.9c-2.3,0.8-4.6,3.1-6.9,3.9c-61.7,20-121.8,48.6-189.7,33.9c-5.4-1.5-10-4.6-14.7-6.2
	c-14.5-4.4-31.1-8.7-38.8-22.2c1.1,5.9,2.7,11,4.9,12.9l6.2,5.4c0,0,33.9,34.7,126.4,10.8c60-15.5,125.2-39.5,178.4-63.4
	c-3.5,1-6.9,2.1-10.3,3.3C789.3,769.3,770.8,776.2,752.3,783.9z"/>
<path class="st5" d="M1029.4,551L499.6,769.3c0.4,8.1,1.3,16.1,2.7,24.1c7.7,13.4,24.3,17.8,38.8,22.2c4.6,1.5,9.2,4.6,14.7,6.2
	c67.8,14.7,128-13.9,189.7-33.9c2.3-0.8,4.6-3.1,6.9-3.9c18.5-7.7,37-14.7,55.5-21.6c3.4-1.2,6.8-2.3,10.3-3.3
	c28.8-13,54-25.9,72.9-37.6c54-33.2,129.5-86.3,141.9-115.6C1045.3,576.5,1029.4,551,1029.4,551z"/>
<path class="st5" d="M521.8,753.1c59.4-28.5,120.3-47.8,184.3-66.3c5.6-1.8,10.8-4.5,15.4-8.1l-1.5,0.4
	c-45.5,10.8-155,44.7-196.6,67.8c-16.8,9.3-24.1,17.2-23.8,23.7C503.5,762.3,513.4,756.9,521.8,753.1z"/>
<path class="st7" d="M1005.2,539.5c-28.5-6.2-104.1,6.9-158,27.8s-69.4,77.1-69.4,77.1c-1.5,4.6-12.1,23.5-56.3,34.3
	c-4.6,3.6-9.8,6.3-15.4,8.1c-64,18.5-124.9,37.8-184.3,66.3c-8.4,3.8-18.3,9.2-22.3,17.5c0.4,9.6,17.2,16.4,43.8,21
	c44.7,7.7,156.5-23.9,229.8-50.9s203.5-120.3,239-149.6S1033.7,545.7,1005.2,539.5z"/>
<path class="st5" d="M841.8,935.8c4.6-8.5,3.9-23.1-6.2-29.3c-6.8-4.5-14.4-2.4-22-2.3c-8.4,7.5-11.6,22.6-3.8,32.8
	c0.4,0.6,0.9,1.1,1.3,1.6C821.3,945.2,835,947,841.8,935.8z"/>
<path class="st4" d="M836,901.5c-2.6-1.1-10.9-4-18.5,0c-1.4,0.7-2.7,1.6-3.9,2.7c7.6-0.1,15.2-2.2,22,2.3
	c10,6.2,10.8,20.8,6.2,29.3c-6.7,11.2-20.4,9.4-30.6,2.8c7,7.4,17.9,9.6,27.2,5.3c8-3.8,13.1-11.9,13.1-20.8
	C851.3,912.3,843.5,904.6,836,901.5z"/>
<path class="st4" d="M1008.3,928.9c-4.3-0.2-8.7-0.6-12.9-1.3c1,1.9,2.4,3.5,4.1,4.8c9.2,6.2,29.3,3.1,38.5-10.8
	c1.7-2.8,3.3-5.7,4.6-8.7c-1.5,0.6-3.6,0.7-5,1.4C1028.3,921.9,1019.9,929.7,1008.3,928.9z"/>
<path class="st10" d="M1069.4,828.3c0.6-3,1.4-6.3,2.1-9.9c-5.3-2-12.7-1.4-17.8-4.5C1054.3,823.6,1061.3,827.8,1069.4,828.3z"/>
<path class="st5" d="M1106.6,663.3c-10-4.6-19.3,3.1-23.9,12.3s-15.4,43.2-19.3,54.7l-6.9,20.8c0,0-20.8,55.5-40.9,74
	s-29.3,50.1-30.1,58.6c-0.7,7.2,3.1,32.4,9.8,43.8c4.3,0.7,8.6,1.1,12.9,1.3c11.6,0.8,20-6.9,29.3-14.7c1.4-0.7,3.5-0.8,5-1.4
	c9.4-20.7,22.1-62.1,24.7-74.6c0.5-2.3,1.2-5.8,2.1-10c-8.1-0.5-15.1-4.7-15.6-14.3c5,3,12.4,2.4,17.8,4.5c5-22.7,12.2-54.5,15-59.6
	c3.8-6.9,17.7-39.3,20-47.8S1116.6,667.9,1106.6,663.3z"/>
<path class="st5" d="M1053.8,790.9c-2.3,10-1.5,24.7,10.8,27.8c10,1.8,17.3-2.8,22.7-9.9c1.6-4.1,2.4-8.5,2.4-12.9
	c0-12.2-10.7-22.2-24.4-22.3C1058.2,776.8,1055.3,783.5,1053.8,790.9z"/>
<path class="st4" d="M1064.6,818.6c-12.3-3.1-13.1-17.7-10.8-27.8c1.5-7.4,4.4-14.1,11.5-17.3h-0.2c-13.9,0-16.2,22.4-16.2,22.4
	c1.5,23.9,8.5,25.4,21.6,25.4c8.4,0,14-5.4,16.9-12.5C1081.9,815.8,1074.6,820.4,1064.6,818.6z"/>
<g id="Forma_4-2">
	<path class="st11" d="M478.6,584.1c-0.8,5.8-2.4,11.2-4.8,14.3c0.9,0.4,1.6,2.3,1.8,4.3c0.1,1.9-0.1,3.8-0.7,5.6
		c1.6-0.5,3-1.6,3.8-3.1c-0.9,6.8-4.1,10.9-7.6,13c-5.4,3.2-11.7,2.8-17.5,0.1c-2.6-1.2-5-3-6.8-5.2c-2.2-2.8-3.6-6.1-4.1-9.6
		c-0.6-3.8-0.2-7.7,1-11.3c2-5.7,5.8-8.9,8.2-14.9c0.5-1.2,0.9-2.4,1-3.7c0.2-1.2-0.1-2.5-0.7-3.5c-0.9-1-2.2,0.3-2.8,2
		s-1,3.6-1.6,5.2c-0.6,1.4-1.4,2.6-2.4,3.7c-1.2,1.4-2.4,2.7-3.6,3.9c-0.2,0.2-0.5,0.5-0.8,0.4s-0.5-0.6-0.4-1
		c0.7-1.9,1.1-3.9,1.2-5.9c0.3-3.5,1.4-6.9,3.2-9.9c1-2,2.4-3.9,4-5.4c1.5-1.3,3.4-1.8,4.8-0.5c2,1.7,2.7,6.5,2.4,10.7
		c-0.4,3.9-1.4,7.8-3,11.4c-1.4,3.3-2.9,6.2-4.1,9.5c-0.3,0.8-0.5,1.7-0.6,2.6c0,0.9,0.4,1.9,0.9,1.8s0.7-1.1,0.9-1.9
		c0.7-3.3,1.7-6.5,3-9.5c2.4-5.2,5.9-8,9.4-9.1s7-0.6,10.5-0.8c2.7,0,5.1-1.6,6.2-4c-1.2,6-3,11.6-5.3,15.6
		C476,587.7,477.5,586.1,478.6,584.1"/>
</g>
<path class="st12" d="M466.7,610.1c-0.2,0.6-0.8,1-1.5,1.1c1.6-1.9,2.2-6.3,1.6-9.9c-0.1-0.6-0.5-0.7-0.8-0.7
	c-1.8,0.2-3.5,0.9-5,1.9c-0.4,0.2-0.7,0.5-1,0.8c-1.3,1.5-2.3,3.4-2.6,5.4c-0.1,0.4-0.2,0.8-0.4,0.9c-0.1-0.6,0-1.2,0.3-1.6
	c1-2.1,1.4-4.4,1.3-6.7c0-1.1-0.2-2.3-0.6-3.3c-0.2-0.5-0.6-0.9-1.1-1.2c-0.9-0.5-2-0.3-2.6,0.5c-1,1.2-1.4,2.8-1.4,4.3
	c0.1,0.7,0.1,1.3,0,2c-0.1,0.5-0.2,1-0.3,1.4s0,1.1,0.2,1.3c0.1,0,0.2,0,0.3,0c1-0.3,1.9-0.9,2.7-1.6c-1.1,1.7-1.9,3.5-2.4,5.4
	c-0.2,0.6-0.3,1.3-0.4,1.9c-0.2,2,0.4,4,1.7,5.6c1,1,2.3,1.6,3.6,1.7c0.8,0.2,1.7,0.3,2.5,0.5c0.8,0.2,1.6,0.2,2.4-0.1
	c1-0.6,1.8-1.5,2.2-2.5c0.3-0.5,0.5-1.1,0.7-1.6c0.4-1.8,0.5-3.7,0.4-5.6c0,0,0-0.1,0-0.1C466.9,609.8,466.8,610,466.7,610.1z"/>
<rect x="281.1" y="1184" transform="matrix(0.7071 -0.7071 0.7071 0.7071 -701.308 698.8015)" class="st13" width="423.4" height="23.9"/>
<rect x="286.9" y="1197.8" transform="matrix(0.7071 -0.7071 0.7071 0.7071 -703.6698 704.5184)" class="st14" width="423.5" height="7.7"/>
<rect x="1494.9" y="984.2" transform="matrix(0.7071 -0.7071 0.7071 0.7071 -404.3121 1415.7866)" class="st13" width="23.9" height="423.5"/>
<rect x="1497.3" y="990" transform="matrix(0.7071 -0.7071 0.7071 0.7071 -410.0496 1413.4163)" class="st14" width="7.7" height="423.5"/>
<rect x="632.5" y="1037" class="st13" width="734.7" height="568.2"/>
<polygon class="st14" points="1302.1,1402.5 690.4,1402.5 632.5,1037 1363.6,1037 "/>
<polygon class="st15" points="1291.2,1344.6 701.3,1344.6 632.5,1037 1363.6,1037 "/>
<rect x="632.5" y="1547.3" class="st14" width="734.7" height="57.9"/>
<rect x="963.7" y="1565.4" class="st16" width="72.4" height="39.8"/>
<polygon class="st17" points="708.5,1531.3 698.1,1505.8 687.7,1531.3 695.5,1531.3 695.5,1557.5 700.7,1557.5 700.7,1531.3 "/>
<path class="st17" d="M736.8,1528.4l16-1.7c0.2-10.3-7.9-18.9-18.3-19.1s-18.9,7.9-19.1,18.3c0,0.3,0,0.6,0,0.9l16,1.7v23.3
	l-0.1,0.1l0.1,0.1v1.4h1.4l5.2,5.2l3.7-3.7l-5-5L736.8,1528.4z"/>
<path class="st17" d="M790.3,1510.6H758c0,6.4,3.3,11.6,2.7,16.1c-1.1,7.6,5.4,12.6,10.8,13.8v13.9H765v3.9h18.2v-3.9h-6.5v-13.9
	c5.3-1.3,11.6-6.2,10.8-13.8C787.1,1522.2,790.3,1517.1,790.3,1510.6z"/>
<path class="st17" d="M789.9,1570.8H685.2c-10,0-18.1-8.1-18.2-18.1v-44.2c0-10,8.1-18.1,18.2-18.2h104.7c10,0,18.1,8.2,18.1,18.2
	v44.2C808,1562.7,799.9,1570.8,789.9,1570.8z M685.2,1501.2c-4,0-7.3,3.3-7.3,7.3l0,0v44.2c0,4,3.3,7.3,7.3,7.3h104.7
	c4,0,7.3-3.3,7.3-7.3v-44.2c0-4-3.3-7.3-7.3-7.3H685.2z"/>
<circle class="st18" cx="1276" cy="1510.2" r="72.4"/>
<circle class="st19" cx="1276" cy="1510.2" r="65.8"/>
<path class="st20" d="M1324.2,1490.8l-29,21.1l-35.5-35.5l-16.7,10.5l-20.9,17.2l0.1,0.1l0,0l38.7,38.7l-24.5-2l35,35
	c1.5,0.1,3,0.2,4.6,0.2c36.4,0,65.8-29.5,65.8-65.8c0-1.8-0.1-3.7-0.2-5.5l-16.3-16.3L1324.2,1490.8z"/>
<g id="Forma_4_3_">
	<path class="st18" d="M1253.3,1484.5c0.2,0.1,0.3,0.2,0.5,0.4c-0.2-0.5-0.6-0.9-1.1-1.1c-5.1-2-9.4,2.6-12.1,6.8
		c-2.6,3.8-6,6.6-9.8,9.3c-2.6,1.9-5.2,3.5-8,5c0.2,0.1,0.3,0.2,0.5,0.2c0.7,0.1,1.4-0.2,2.1-0.6c3.3-1.8,6.6-3.6,9.8-5.5
		c2.4-1.4,4.7-2.9,6.4-5c1.7-2.2,2.6-5,4.4-7.2C1247.7,1484.5,1250.9,1482.9,1253.3,1484.5z"/>
	<path class="st18" d="M1315.5,1506.5c0.1,1.1-1.1,1.6-1.3,2.5c6-5.3,10-12.6,11.1-20.5c-0.9,1.1-1.9,2.1-3.1,2.8
		c-0.4,5.6-3.6,10.5-6.6,15.4C1315.6,1506.6,1315.5,1506.5,1315.5,1506.5C1315.5,1506.5,1315.5,1506.5,1315.5,1506.5z"/>
	<path class="st18" d="M1286.8,1549.7c-9.3-0.7-18.5-1.3-27.8-1.6c-7.6-0.3-15.2-3-20.8-8.4c-4.5-4.5-8.7-10.3-9.1-16.7
		c-0.4,3.6,0.2,7.2,1.7,10.5c2.5,5.6,7.5,9.8,13,12.5c5.5,2.6,11.7,3.8,17.8,4.5c11.6,1.3,23.5,1.2,34.9-1.2
		c0.6-0.2,1.3-0.5,1.9-0.7C1294.6,1549.2,1290.8,1550,1286.8,1549.7z"/>
	<path class="st18" d="M1315.7,1534.3c0.1,0,0.2-0.1,0.2-0.2c1.5-2,2.6-4.5,2.3-7c0-0.4-0.1-0.8-0.2-1.2c-0.4,1-0.9,1.9-1.5,2.8
		C1315.5,1530.3,1315.6,1532.4,1315.7,1534.3z"/>
	<path class="st18" d="M1250.8,1523.7c2.6-4,4.6-7.8,6.6-12c1.4-2.7,3.4-5.1,6.3-6.4c1.7-0.9,3.1-2.1,4.8-2.7
		c4.8-2,9.4-4.2,13.7-6.9l-0.4,0.1c-9.3,1.4-18.7,5-24.9,12.1c-3.3,3.9-5.6,8.6-7.2,13.5c-0.4,1.2-1,2.6-2.2,2.9c-0.1,0-0.2,0-0.2,0
		C1248.3,1525.2,1250,1524.8,1250.8,1523.7z"/>
	<path class="st21" d="M1316,1534.1c-0.1,0.1-0.2,0.1-0.2,0.2c0,0.1,0,0.3,0,0.4c0-0.1,0-0.3,0-0.4c-0.2,0.1-0.5,0.1-0.7,0
		c0.2,0.1,0.5,0.1,0.7,0c-0.1-1.9-0.2-4,0.9-5.6c0.6-0.9,1.1-1.8,1.5-2.8c-0.6-2-2-3.7-3.9-4.3c-0.4,0.1-0.8,0.2-1.3,0.2
		c1.1-1.3,1.9-3,3.3-4c4.2-3.6,6.9-7.9,7.2-13.2c-2.8,2-5.9,3.4-9.2,4.3c0,0.1,0,0.2,0,0.3c0-0.1,0-0.2,0-0.3l-0.1,0
		c0,0,0.1-0.1,0.1-0.1c0.2-0.9,1.4-1.3,1.3-2.5c0.1,0,0.1,0.1,0.1,0.1c0,0,0,0,0,0c3-4.9,6.3-9.7,6.6-15.4
		c-3.5,2.2-8.1,2.9-12.4,3.1c-9.3,0.5-18.6,0.1-27.8,1.4c-4.3,2.6-8.9,4.8-13.7,6.9c-1.7,0.6-3.1,1.9-4.8,2.7
		c-2.8,1.3-4.8,3.7-6.3,6.4c-2,4.1-4,8-6.6,12c-0.8,1-2.5,1.5-3.5,0.6c-1.2,0.1-2.3-1.1-2.5-2.3c-2.8-3.2,1-8.5,3.4-11.3
		c3-3.1,6.6-5.6,8.7-9.4c0.3-0.3,0.7-0.6,0.9-0.7c2-3.1,4.1-6,5.7-9.1c0.2-0.7,0.3-1.4,0.4-2.1c0.7-5.7-1.4-12-6.4-14.8
		c-3.5-2-8-2-11.9-0.6c-3.9,1.3-7.2,3.8-10.3,6.4c-4.4,3.7-8.6,8.2-9.4,13.9c-0.5,3.3-1.7,6.4-3.5,9.2c-0.3,0.5,0,1.1,0.4,1.4
		c2.7-1.5,5.4-3,8-5c3.8-2.7,7.3-5.4,9.8-9.3c2.7-4.3,7-8.8,12.1-6.8c0.5,0.2,0.9,0.6,1.1,1.1c1.2,1.1,1.7,2.9,1.4,4.6
		c-0.3,1.8-1.3,3.5-2.5,4.9c-6.3,7.9-16.8,12.3-21.4,21.4c-1.1,2.3-1.9,4.7-2.1,7.2c0.4,6.4,4.5,12.2,9.1,16.7
		c5.6,5.4,13.3,8.1,20.8,8.4c9.3,0.3,18.5,0.9,27.8,1.6c4,0.3,7.8-0.5,11.6-1.2c0.6-0.3,1.3-0.5,1.9-0.8c1.3-0.4,3-0.4,4.3-1
		c3.1-1.3,5.6-3.4,8.5-5.4c3.4-2.2,6.2-5.1,8.4-8.4c-1.9,0.7-3.8,1.2-5.8,1.4C1315.9,1534.2,1315.9,1534.2,1316,1534.1z"/>
	<path class="st18" d="M1325.8,1502.8c-0.8,0.7-1.6,1.3-2.5,2c-0.3,5.2-3,9.6-7.2,13.2c-1.4,1-2.1,2.7-3.3,4c0.4,0,0.8-0.1,1.3-0.2
		c-0.2,0-0.3-0.1-0.5-0.1C1320.2,1517.4,1324.7,1510.4,1325.8,1502.8z"/>
	<path class="st22" d="M1296.5,1549.2c1.7-0.4,3.5-0.8,5.2-1.3c-1.1,0.1-2.2,0.3-3.3,0.5C1297.8,1548.7,1297.2,1549,1296.5,1549.2z"
		/>
	<path class="st18" d="M1321.6,1532.9c-2.2,3.4-5.1,6.2-8.4,8.4c-3,2-5.4,4.1-8.5,5.4c-1.3,0.6-3,0.6-4.3,1
		c-0.6,0.3-1.3,0.5-1.9,0.8c1.1-0.2,2.2-0.4,3.3-0.5c1.1-0.3,2.2-0.6,3.3-1c8.9-2.8,18.1-7.9,21.4-16.7
		C1324.9,1531.3,1323.3,1532.2,1321.6,1532.9z"/>
	<path class="st18" d="M1256.5,1504.6c3.1-3.9,5.8-8.3,7-13.1c-1.6,3.2-3.7,6-5.7,9.1c-0.1,0.1-0.6,0.4-0.9,0.7
		c-2.1,3.8-5.7,6.3-8.7,9.4c-2.4,2.8-6.2,8.1-3.4,11.3c0,0,0-0.1,0-0.1c-0.1-1.4,0.5-2.6,1.2-3.8
		C1249,1513.3,1252.9,1509.1,1256.5,1504.6z"/>
</g>
<path class="st23" d="M1262.2,1536c1.5-1.2,2.8-2.2,4-3.6c0.6-0.4-0.3-1.3-1-1c-2.4,1-5.5,3.6-7.9,1.8c0.1,0.5,0.3,1,0.8,1.2
	c0.3,0.1,0.6,0,0.9,0c2.4-0.6,4.7-1.7,7-2.8C1264.5,1532.9,1263.2,1534.4,1262.2,1536z"/>
<path class="st23" d="M1269.9,1538c1.5-1.8,2.3-3.9,3.1-6c-1.2,1.3-2.2,2.9-2.8,4.6c-0.2,0.5-0.4,1.2-1,1.3
	c-0.6-0.6,0.1-1.6,0.7-2.3c1.3-1.5,2.2-3.2,2.6-5.1c-1.3,1.1-1.5,2.8-2.5,4.1c-0.4,0.4-1,0.7-1.4,1.3c-0.4,0.6-0.6,1.1-0.3,1.7
	C1268.6,1538.1,1269.6,1538.4,1269.9,1538z"/>
<path class="st23" d="M1294.8,1536.8C1294.8,1536.8,1294.8,1536.8,1294.8,1536.8c-0.3,3-0.8,6-2.7,8.5c-1.3,1.7-3.3,3.1-5.3,3.7
	c-8.1,2-16.7,1.7-24.6-1.4c0.8,0.7,1.7,1.3,2.6,1.7c2.8,1.2,6,1.2,9.1,1.3c2.1,0,4.2,0,6.3,0c2,0,4,0,5.9-0.6c2.2-0.7,4-2,5.7-3.6
	c0.7-0.6,1.3-1.4,1.8-2.2c1.3-2.1,1.2-4.8,1.2-7.3C1294.9,1536.9,1294.9,1536.8,1294.8,1536.8z"/>
<path class="st19" d="M1294.3,1536.9c-0.9,0.9-2.1,1.4-3.3,1.5c-0.5,0.3-1.2,0.1-1.7,0.4c-0.1-0.3,0.1-0.6,0.3-0.7
	c3.5-1.4,4.6-5.2,5.9-8.5c0.1-1.4-0.1-2.8-0.6-4.1c-0.3-0.8-1.3-0.9-2.1-0.8c-4.6,0.4-9,1.4-13.3,3c-0.9,0.3-1.8,0.8-2.7,1.2
	c-1.4,0.8-2.7,1.8-3.7,3c-0.8,2.1-1.6,4.2-3.1,6c-0.3,0.4-1.3,0.1-1.6-0.4c-0.3-0.6-0.1-1.1,0.3-1.7c0.4-0.6,1-0.9,1.4-1.3
	c0.9-1.3,1.1-3.1,2.5-4.1c0.3-1.3,0.4-2.6,0.2-4c-0.2-1.6-0.8-3.3-2-4.3c-0.9-0.7-2-1.2-3.1-1.4c-2.4-0.5-5-0.3-7.1,1
	c-2.1,1.3-3.5,3.8-3.1,6.2c0.1,0.9,0.5,1.8,0.4,2.8c-0.1,0.7-0.5,1.3-0.6,2c0,0.2,0,0.4,0,0.6c2.4,1.7,5.6-0.9,7.9-1.8
	c0.7-0.3,1.6,0.6,1,1c-1.3,1.4-2.5,2.4-4,3.6c-0.7,1.1-1.3,2.2-1.7,3.5c-0.4,0.9-0.6,1.8-0.6,2.7c-0.1,2,0.9,3.9,2.5,5.3
	c7.9,3.1,16.4,3.4,24.6,1.4c2-0.6,4-2,5.3-3.7c2-2.5,2.4-5.4,2.7-8.5C1294.7,1536.6,1294.5,1536.7,1294.3,1536.9z"/>
<path class="st23" d="M1289.5,1538.1c-0.1,0.1-0.4,0.4-0.3,0.7c0.5-0.3,1.2-0.2,1.7-0.4c-0.2,0-0.3,0-0.5,0c2.9-1.9,4.8-5.3,4.9-8.8
	C1294.2,1533,1293.1,1536.7,1289.5,1538.1z"/>
</svg>
