<svg id="Capa_1" data-name="Capa 1" xmlns="http://www.w3.org/2000/svg" viewBox="0 0 2000 2000"><defs><style>.cls-1{fill:#fff;}.cls-2{fill:#fcd3ac;}.cls-3{fill:#4d2408;}.cls-4{fill:#592e18;}.cls-5{fill:#66351e;}.cls-6{fill:#8e8d8d;}.cls-7{fill:#767576;}.cls-8{fill:#f9b34e;}.cls-9{fill:#ff7e22;}.cls-10{fill:#515352;}.cls-11{fill:none;stroke:#515352;stroke-miterlimit:10;}.cls-12{fill:#555857;}.cls-13{fill:#757675;}.cls-14{fill:#3c3e3d;}.cls-15{fill:#6b6b6a;}.cls-16{fill:#474948;}.cls-17{fill:#d8d8d8;}.cls-18{fill:#737b51;}.cls-19{fill:#ff9d60;}.cls-20{fill:#e2915b;}.cls-21{fill:#a88f66;}.cls-22{fill:#9a845d;}.cls-23{fill:#69714a;}</style></defs><circle class="cls-1" cx="1619" cy="1301" r="104"/><path class="cls-2" d="M752.52,975.77C604.67,1118.74,341.9,834.12,195,960c-82.37,70.58-145.26,173-75.28,281.74,86.33,134.09,181.43,40,427.28,147.26,225.29,98.26,263.06,217.43,461.33,281.72C1186.64,1728.53,1285,1477,1525,1477c232.76,0,396.77-158.59,405.61-312.48,7.22-125.64-87-262.39-188.49-308.86C1605.18,793,1544.42,935.52,1392.06,890c-169.61-50.7-189.08-255.7-329.87-248.81-90.34,4.42-165,92.88-195.23,128.69C784.34,867.77,801.39,928.52,752.52,975.77Z"/><rect class="cls-3" x="1079.03" y="968.95" width="736.42" height="121.75" rx="17.42"/><path class="cls-4" d="M1096,982.48h690.13a29.36,29.36,0,0,1,29.36,29.36v36a29.36,29.36,0,0,1-29.36,29.36H1113.81A34.78,34.78,0,0,1,1079,1042.4v-43A16.94,16.94,0,0,1,1096,982.48Z"/><path class="cls-3" d="M1328,1055.11H1115.83c-2.11,0-3.82-2.23-3.82-5v8.55c0,2.75,1.71,5,3.82,5H1328c2.12,0,3.83-2.23,3.83-5v-8.55C1331.83,1052.88,1330.12,1055.11,1328,1055.11Z"/><path class="cls-3" d="M1756.09,1055.11h-244a4.72,4.72,0,0,1-4.41-5v8.55a4.72,4.72,0,0,0,4.41,5h244a4.72,4.72,0,0,0,4.4-5v-8.55A4.72,4.72,0,0,1,1756.09,1055.11Z"/><path class="cls-3" d="M1805.5,1028.05H1253.85c-5.49,0-9.95-2.23-9.95-5v8.54c0,2.75,4.46,5,9.95,5H1805.5c5.49,0,10-2.23,10-5v-8.54C1815.45,1025.82,1811,1028.05,1805.5,1028.05Z"/><path class="cls-3" d="M1575.83,1001h-488c-4.87,0-8.81-2.23-8.81-5v8.54c0,2.76,3.94,5,8.81,5h488c4.86,0,8.8-2.23,8.8-5V996C1584.63,998.76,1580.69,1001,1575.83,1001Z"/><path class="cls-5" d="M1800.64,969h-706.8c-8.18,0-14.81,8.16-14.81,18.23v12.35c0-9.42,6.2-17,13.85-17H1801.6c7.65,0,13.85,7.63,13.85,17V987.18C1815.45,977.11,1808.82,969,1800.64,969Z"/><rect class="cls-6" x="926.96" y="948.29" width="141.19" height="161.86"/><polygon class="cls-7" points="1068.15 1110.15 926.96 1110.15 926.96 948.29 1068.15 1065.38 1068.15 1110.15"/><rect class="cls-6" x="493.04" y="948.29" width="106.76" height="161.86"/><polygon class="cls-7" points="493.05 1110.15 599.8 1110.15 599.8 948.29 493.05 1065.38 493.05 1110.15"/><circle class="cls-8" cx="863.74" cy="827.76" r="30.99"/><path class="cls-9" d="M863.74,858.75a31,31,0,0,0,31-31h-62A31,31,0,0,0,863.74,858.75Z"/><circle class="cls-8" cx="660.56" cy="827.76" r="30.99"/><path class="cls-9" d="M660.56,858.75a31,31,0,0,0,31-31h-62A31,31,0,0,0,660.56,858.75Z"/><rect class="cls-10" x="159" y="1092.93" width="1684" height="68.88" rx="34.44"/><rect class="cls-6" x="169.44" y="1099.82" width="1663.12" height="55.1" rx="27.55"/><circle class="cls-11" cx="203.77" cy="1127.37" r="24.11"/><circle class="cls-10" cx="203.77" cy="1127.37" r="6.89"/><circle class="cls-11" cx="258.87" cy="1127.37" r="24.11"/><circle class="cls-10" cx="258.87" cy="1127.37" r="6.89"/><circle class="cls-11" cx="313.97" cy="1127.37" r="24.11"/><circle class="cls-10" cx="313.97" cy="1127.37" r="6.89"/><circle class="cls-11" cx="369.07" cy="1127.37" r="24.11"/><circle class="cls-10" cx="369.07" cy="1127.37" r="6.89"/><circle class="cls-11" cx="424.17" cy="1127.37" r="24.11"/><circle class="cls-10" cx="424.17" cy="1127.37" r="6.89"/><circle class="cls-11" cx="479.27" cy="1127.37" r="24.11"/><circle class="cls-10" cx="479.27" cy="1127.37" r="6.89"/><circle class="cls-11" cx="534.37" cy="1127.37" r="24.11"/><circle class="cls-10" cx="534.37" cy="1127.37" r="6.89"/><circle class="cls-11" cx="589.47" cy="1127.37" r="24.11"/><circle class="cls-10" cx="589.47" cy="1127.37" r="6.89"/><circle class="cls-11" cx="644.57" cy="1127.37" r="24.11"/><circle class="cls-10" cx="644.57" cy="1127.37" r="6.89"/><circle class="cls-11" cx="699.67" cy="1127.37" r="24.11"/><circle class="cls-10" cx="699.67" cy="1127.37" r="6.89"/><circle class="cls-11" cx="754.77" cy="1127.37" r="24.11"/><circle class="cls-10" cx="754.77" cy="1127.37" r="6.89"/><circle class="cls-11" cx="809.87" cy="1127.37" r="24.11"/><circle class="cls-10" cx="809.87" cy="1127.37" r="6.89"/><circle class="cls-11" cx="864.97" cy="1127.37" r="24.11"/><circle class="cls-10" cx="864.97" cy="1127.37" r="6.89"/><circle class="cls-11" cx="920.07" cy="1127.37" r="24.11"/><circle class="cls-10" cx="920.07" cy="1127.37" r="6.89"/><circle class="cls-11" cx="975.17" cy="1127.37" r="24.11"/><circle class="cls-10" cx="975.17" cy="1127.37" r="6.89"/><circle class="cls-11" cx="1030.27" cy="1127.37" r="24.11"/><circle class="cls-10" cx="1030.27" cy="1127.37" r="6.89"/><circle class="cls-11" cx="1085.37" cy="1127.37" r="24.11"/><circle class="cls-10" cx="1085.37" cy="1127.37" r="6.89"/><circle class="cls-11" cx="1140.47" cy="1127.37" r="24.11"/><circle class="cls-10" cx="1140.47" cy="1127.37" r="6.89"/><circle class="cls-11" cx="1195.57" cy="1127.37" r="24.11"/><circle class="cls-10" cx="1195.57" cy="1127.37" r="6.89"/><circle class="cls-11" cx="1250.67" cy="1127.37" r="24.11"/><circle class="cls-10" cx="1250.67" cy="1127.37" r="6.89"/><circle class="cls-11" cx="1305.77" cy="1127.37" r="24.11"/><circle class="cls-10" cx="1305.77" cy="1127.37" r="6.89"/><circle class="cls-11" cx="1360.87" cy="1127.37" r="24.11"/><circle class="cls-10" cx="1360.87" cy="1127.37" r="6.89"/><circle class="cls-11" cx="1415.97" cy="1127.37" r="24.11"/><circle class="cls-10" cx="1415.97" cy="1127.37" r="6.89"/><circle class="cls-11" cx="1471.07" cy="1127.37" r="24.11"/><circle class="cls-10" cx="1471.07" cy="1127.37" r="6.89"/><circle class="cls-11" cx="1526.17" cy="1127.37" r="24.11"/><circle class="cls-10" cx="1526.17" cy="1127.37" r="6.89"/><circle class="cls-11" cx="1581.27" cy="1127.37" r="24.11"/><circle class="cls-10" cx="1581.27" cy="1127.37" r="6.89"/><circle class="cls-11" cx="1636.37" cy="1127.37" r="24.11"/><circle class="cls-10" cx="1636.37" cy="1127.37" r="6.89"/><circle class="cls-11" cx="1691.47" cy="1127.37" r="24.11"/><circle class="cls-10" cx="1691.47" cy="1127.37" r="6.89"/><circle class="cls-11" cx="1746.57" cy="1127.37" r="24.11"/><circle class="cls-10" cx="1746.57" cy="1127.37" r="6.89"/><circle class="cls-11" cx="1801.67" cy="1127.37" r="24.11"/><circle class="cls-10" cx="1801.67" cy="1127.37" r="6.89"/><rect class="cls-12" x="592.91" y="937.96" width="340.93" height="358.15"/><rect class="cls-13" x="606.69" y="889.75" width="313.38" height="409.81"/><path class="cls-6" d="M629.25,834.65H897.51a22.56,22.56,0,0,1,22.56,22.56V1161.8a0,0,0,0,1,0,0H606.69a0,0,0,0,1,0,0V857.21A22.56,22.56,0,0,1,629.25,834.65Z"/><path class="cls-10" d="M661.79,1096.37h0A20.66,20.66,0,0,1,682.45,1117v182.52a0,0,0,0,1,0,0H641.13a0,0,0,0,1,0,0V1117A20.66,20.66,0,0,1,661.79,1096.37Z"/><path class="cls-10" d="M713.45,1096.37h0A20.66,20.66,0,0,1,734.11,1117v182.52a0,0,0,0,1,0,0H692.78a0,0,0,0,1,0,0V1117a20.66,20.66,0,0,1,20.66-20.66Z"/><rect class="cls-10" x="785.76" y="1072.27" width="96.43" height="227.29"/><rect class="cls-14" x="789.21" y="1075.71" width="89.54" height="3.44"/><rect class="cls-14" x="789.21" y="1082.6" width="89.54" height="3.44"/><rect class="cls-14" x="789.21" y="1089.48" width="89.54" height="3.44"/><rect class="cls-14" x="789.21" y="1096.37" width="89.54" height="3.44"/><rect class="cls-14" x="789.21" y="1103.26" width="89.54" height="3.44"/><rect class="cls-14" x="789.21" y="1110.15" width="89.54" height="3.44"/><rect class="cls-14" x="789.21" y="1117.03" width="89.54" height="3.44"/><rect class="cls-14" x="789.21" y="1123.92" width="89.54" height="3.44"/><rect class="cls-14" x="789.21" y="1130.81" width="89.54" height="3.44"/><rect class="cls-14" x="789.21" y="1137.7" width="89.54" height="3.44"/><rect class="cls-14" x="789.21" y="1144.58" width="89.54" height="3.44"/><rect class="cls-15" x="606.69" y="1275.45" width="313.38" height="24.11"/><rect class="cls-16" x="785.76" y="1275.45" width="96.43" height="24.11"/><rect class="cls-16" x="692.78" y="1275.45" width="41.33" height="24.11"/><rect class="cls-16" x="641.13" y="1275.45" width="41.33" height="24.11"/><rect class="cls-12" x="635.04" y="855.29" width="257.48" height="82.67" rx="17.38"/><rect class="cls-10" x="635.04" y="944.83" width="257.48" height="51.67" rx="13.74"/><rect class="cls-17" x="644.57" y="863.94" width="162.13" height="64.3" rx="12.16"/><circle class="cls-14" cx="827.09" cy="879.42" r="6.89"/><circle class="cls-14" cx="851.2" cy="879.42" r="6.89"/><circle class="cls-14" cx="827.09" cy="896.63" r="6.89"/><circle class="cls-14" cx="851.2" cy="896.63" r="6.89"/><circle class="cls-14" cx="827.09" cy="913.85" r="6.89"/><circle class="cls-17" cx="660.07" cy="970.67" r="18.94"/><circle class="cls-17" cx="701.39" cy="970.67" r="18.94"/><circle class="cls-17" cx="742.72" cy="970.67" r="18.94"/><circle class="cls-14" cx="851.2" cy="913.85" r="6.89"/><rect class="cls-13" x="871.86" y="872.53" width="3.44" height="48.21"/><rect class="cls-14" x="868.42" y="882.86" width="10.33" height="6.89"/><rect class="cls-13" x="871.86" y="951.73" width="3.44" height="37.88"/><rect class="cls-14" x="868.42" y="962.07" width="10.33" height="6.89"/><rect class="cls-13" x="854.64" y="951.73" width="3.44" height="37.88"/><rect class="cls-14" x="851.2" y="962.07" width="10.33" height="6.89"/><rect class="cls-13" x="837.42" y="951.73" width="3.44" height="37.88"/><rect class="cls-14" x="833.98" y="962.07" width="10.33" height="6.89"/><rect class="cls-10" x="658.35" y="968.95" width="13.78" height="3.44"/><rect class="cls-10" x="690.85" y="965.3" width="13.78" height="3.44" transform="translate(888.15 -210.14) rotate(45)"/><rect class="cls-10" x="735.83" y="963.79" width="13.78" height="3.44" transform="translate(1708.23 222.79) rotate(90)"/><rect class="cls-7" x="200.33" y="1161.8" width="48.21" height="137.75"/><rect class="cls-7" x="486.16" y="1161.8" width="48.21" height="137.75"/><rect class="cls-7" x="971.73" y="1161.8" width="48.21" height="137.75"/><rect class="cls-7" x="1364.32" y="1161.8" width="48.21" height="137.75"/><rect class="cls-7" x="1756.91" y="1161.8" width="48.21" height="137.75"/><rect class="cls-15" x="486.16" y="1275.45" width="48.21" height="24.11"/><rect class="cls-15" x="971.73" y="1275.45" width="48.21" height="24.11"/><rect class="cls-15" x="1364.32" y="1275.45" width="48.21" height="24.11"/><rect class="cls-15" x="1756.91" y="1275.45" width="48.21" height="24.11"/><rect class="cls-15" x="200.33" y="1275.45" width="48.21" height="24.11"/><rect class="cls-18" x="230.62" y="1058.29" width="34.32" height="4.63" transform="translate(1172.95 1635.35) rotate(135)"/><rect class="cls-18" x="219.25" y="1054.53" width="34.32" height="4.63" transform="translate(1314.4 953.31) rotate(97.12)"/><path class="cls-19" d="M230.51,1081.24c-3.59-2.62-5.82-6.38-7.95-10.16,0-.35,0-.71,0-1.07a15.42,15.42,0,0,1,30.8-1.19C252.39,1079.67,239.66,1087.19,230.51,1081.24Z"/><path class="cls-20" d="M230.51,1081.24c9.15,6,21.88-1.57,22.81-12.42,0,.4.05.79.05,1.19a15.42,15.42,0,0,1-30.81,1.07C224.69,1074.86,226.92,1078.62,230.51,1081.24Z"/><circle class="cls-20" cx="237.95" cy="1070.01" r="10.7"/><circle class="cls-19" cx="237.95" cy="1070.01" r="6.17"/><circle class="cls-20" cx="236.41" cy="1068.47" r="2.04"/><path class="cls-21" d="M344,998.9s69.42,18.9,73.66,18.9,24.68-16.2,27.76-16.2,19.28,2.7,21.6,12.73.38,28.53-5.79,31.62-9.64,8.09-42,8.48-110.67,5.78-162.35-5.4-49-6.17-44.73-30.85.77-33.55,19.28-32,52.83,8.48,52.83,8.48-4.62,18.12-1.54,20.82,22.37,8.87,23.14,5.4,5.4-20.82,5.78-23.52,0-8.1,4.24-7.33S338.21,997.36,344,998.9Z"/><path class="cls-22" d="M282.44,994.3l1.78.36s-1.42,5.55-2.16,11C281.22,1003.38,281.71,998.6,282.44,994.3Z"/><path class="cls-22" d="M256.84,1040.16c51.68,11.19,130,5.79,162.35,5.4s35.86-5.4,42-8.48c3.78-1.89,6-9.54,6.56-17.5.83,10.2-1.35,23.77-6.56,26.37-6.17,3.08-9.64,8.09-42,8.48s-110.67,5.78-162.35-5.4c-44.74-9.68-48.72-7.23-46.22-22.42C213,1032.48,223.87,1033,256.84,1040.16Z"/><polygon class="cls-21" points="217.51 964.97 214.04 964.97 204.4 1006.61 199 1057.13 202.86 1057.13 211.34 1011.24 217.51 964.97"/><rect class="cls-18" x="313.72" y="981.53" width="5.78" height="75.58" transform="translate(504.38 2070.03) rotate(-172.88)"/><path class="cls-23" d="M318.43,981.46l5.74.72-.59,4.67c-1.94-.11-3.87-.19-5.79-.3Z"/><path class="cls-23" d="M315.81,1049.05l-1,8.13-5.74-.72,1-8.1C312,1048.54,313.87,1048.68,315.81,1049.05Z"/><rect class="cls-18" x="265.13" y="974.59" width="5.78" height="75.58" transform="translate(408.44 2050.18) rotate(-172.88)"/><path class="cls-23" d="M269.84,974.52l5.74.72-.59,4.67c-1.94-.11-3.87-.19-5.79-.3Z"/><path class="cls-23" d="M268,1035.53l-1.83,14.71-5.74-.72,1.78-14.37C264.12,1035.33,266.09,1035.16,268,1035.53Z"/><rect class="cls-18" x="243.92" y="971.89" width="5.78" height="75.58" transform="translate(366.52 2042.17) rotate(-172.88)"/><path class="cls-23" d="M248.63,971.82l5.74.72-.59,4.67c-1.94-.11-3.87-.19-5.79-.3Z"/><path class="cls-23" d="M246.82,1032.45,245,1047.54l-5.74-.72,1.77-14.76C242.91,1032.25,244.88,1032.07,246.82,1032.45Z"/><path class="cls-19" d="M229.08,1044.1c0-4.3,3.77-7.79,8.42-7.79a8.87,8.87,0,0,1,3.55.73L324,1054H324l.11,0h0a3.57,3.57,0,0,1,2.88,3.4,3.64,3.64,0,0,1-3.65,3.5h-.14a4.26,4.26,0,0,1-.95-.12l-85.14-9C232.66,1051.72,229.08,1048.3,229.08,1044.1Z"/><path class="cls-20" d="M237.15,1048.8l85.14,9a4.26,4.26,0,0,0,.95.11h.14a3.81,3.81,0,0,0,3.26-2,3.32,3.32,0,0,1,.39,1.54,3.64,3.64,0,0,1-3.65,3.5h-.14a4.26,4.26,0,0,1-.95-.12l-85.14-9c-4.49-.17-8.07-3.59-8.07-7.79a7.81,7.81,0,0,1,.16-1.54A8.27,8.27,0,0,0,237.15,1048.8Z"/><path class="cls-19" d="M229.08,963.06A11.08,11.08,0,0,1,240,951.85a10.72,10.72,0,0,1,4.62,1l107.74,24.45h.07l.15,0h0a5.05,5.05,0,0,1-1,9.92h-.18a5.06,5.06,0,0,1-1.23-.16L239.57,974.25A11.08,11.08,0,0,1,229.08,963.06Z"/><path class="cls-20" d="M238,971.16l110.62,12.92a4.51,4.51,0,0,0,1.23.17h.18a5,5,0,0,0,4.74-5,4.21,4.21,0,0,0,0-.62,5.09,5.09,0,0,1,1.58,3.7,5,5,0,0,1-4.74,5h-.18a5.06,5.06,0,0,1-1.23-.16L239.57,974.25a11,11,0,0,1-9.94-7.69A10.82,10.82,0,0,0,238,971.16Z"/><polygon class="cls-22" points="215.2 964.97 217.51 964.97 211.34 1011.24 202.86 1057.13 200.54 1057.13 209.03 1011.24 215.2 964.97"/><path class="cls-18" d="M213.85,1006.19,212.3,1017s-12.14.76-11.37-7S213.85,1006.19,213.85,1006.19Z"/><path class="cls-23" d="M200.93,1010.08a5.4,5.4,0,0,1,.79-2.4c.74,5.63,9.62,5.57,11.13,5.51l-.55,3.85S200.16,1017.8,200.93,1010.08Z"/></svg>