<svg xmlns="http://www.w3.org/2000/svg" viewBox="0 0 683.01 421.76"><defs><style>.cls-1{fill:#4c6b7f;}.cls-2{fill:#98a3a8;}.cls-3{fill:#577b93;}.cls-4{fill:#4d2408;}.cls-5{fill:#c7914f;stroke:#4c4c4b;}.cls-13,.cls-14,.cls-15,.cls-21,.cls-22,.cls-23,.cls-5,.cls-7{stroke-miterlimit:10;}.cls-21,.cls-22,.cls-23,.cls-5,.cls-7{stroke-width:0.25px;}.cls-6{fill:#7f6229;}.cls-7{fill:#724534;stroke:#000;}.cls-8{fill:#56352a;}.cls-9{fill:#666;}.cls-10{fill:#70706f;}.cls-11{fill:#5b5a59;}.cls-12{fill:#b2b242;}.cls-13{fill:#898338;}.cls-13,.cls-14,.cls-15{stroke:#8c874c;}.cls-13,.cls-14{stroke-width:2px;}.cls-14{fill:#918f80;}.cls-15{fill:#2b2b2b;stroke-width:0.5px;}.cls-16{font-size:5.88px;fill:#e0e0e0;font-family:ProvidenceSansPro, Providence Sans Pro;}.cls-17{letter-spacing:-0.03em;}.cls-18{letter-spacing:0.01em;}.cls-19{letter-spacing:0.01em;}.cls-20{letter-spacing:-0.04em;}.cls-21{fill:#8e8d8d;stroke:#6b6b6b;}.cls-22{fill:#e56e6e;stroke:#d6706e;}.cls-23{fill:#dd6464;stroke:#a35f5f;}.cls-24{fill:#e0e1e2;}.cls-25{fill:#726e41;}.cls-26{fill:#999439;}.cls-27{fill:#757442;}.cls-28{fill:#4c4c4a;}.cls-29{fill:#9b9b9b;}.cls-30{fill:#848484;}.cls-31{fill:#5a7f2d;}.cls-32{fill:#d8d8d8;opacity:0.28;}.cls-33{fill:#69704d;}</style></defs><g id="Objects"><rect class="cls-1" width="700.84" height="350.06"/><path class="cls-2" d="M549.72,20.9V140.26H700.84V20.9ZM685.34,129H562.81V32.19H685.34Z"/><rect class="cls-3" x="562.81" y="32.19" width="122.53" height="96.77"/><rect class="cls-4" y="349.22" width="700.84" height="72.54"/><path class="cls-5" d="M145,243.79l-1.16,2a5.66,5.66,0,0,1,2.81,4.36,5.51,5.51,0,0,1-1,3.81,5.7,5.7,0,0,1-7.51,1.64l-1.16,2a8,8,0,0,1-3.91-6.48A8,8,0,0,1,145,243.79Zm-5.67,9.81a3.37,3.37,0,1,0-1.2-4.61A3.38,3.38,0,0,0,139.35,253.6Z"/><path class="cls-5" d="M113.63,222.16a1.66,1.66,0,0,0,.27,1.45,1.5,1.5,0,0,0,1.53.6,1.54,1.54,0,0,0,1.19-1.1,1.24,1.24,0,0,1,.27-.46,1.29,1.29,0,0,0-.07-1.84,3.25,3.25,0,0,1-.28-.23c.52-.19,1-.39,1.49-.53s1.28-.35,1.92-.52c.2-.05.31,0,.36.23.15.64.32,1.28.48,1.94-.44.16-.87.3-1.28.48a8.61,8.61,0,0,0,3.29,16.53c.48,0,.48,0,.6.48l.75,3,.09.35L114.51,245c0-.11-.06-.23-.08-.35-.84-3.61-1.77-7.21-2.87-10.76-.36-1.16-.79-2.31-1.24-3.44a2.37,2.37,0,0,0-1.54-1.39.63.63,0,0,0-.9.34,21.73,21.73,0,0,0-3,9.84,27.32,27.32,0,0,0,1.68,11.15,38.65,38.65,0,0,0,3.35,6.91,2.69,2.69,0,0,0,1.16,1.08,17.79,17.79,0,0,0,4.16,1.3c.81.18,1.63.29,2.44.44.19,0,.37,0,.51-.13a.31.31,0,0,1,.22,0l4.92,1.3s0,0,.07,0a8.69,8.69,0,0,0,10.2,11.41c.12.49.25,1,.36,1.45a.21.21,0,0,1-.11.18,20.55,20.55,0,0,1-6.9,1.64l-.4,0,.25-.24a1.63,1.63,0,0,0,.43-1.6.7.7,0,0,1,0-.38,1.26,1.26,0,0,0-.79-1.62,1.32,1.32,0,0,0-1.65.84,3.76,3.76,0,0,1-.31.5c-.19.33-.38.65-.57,1l-.19-.17a21,21,0,0,1-4-5.65,35.61,35.61,0,0,1-2.71-7.28.39.39,0,0,0-.37-.33,27.12,27.12,0,0,1-5.16-1.31c-.35-.14-.7-.31-1-.48a3.49,3.49,0,0,1-1.44-1.36,38.53,38.53,0,0,1-3.78-8.1,26.53,26.53,0,0,1-.65-15.18,20.4,20.4,0,0,1,8.82-12.27Z"/><polygon class="cls-6" points="571.34 245.06 571.34 295.12 212.59 295.12 212.59 245.06 199.03 245.06 199.03 357.03 212.59 357.03 212.59 309.47 571.34 309.47 571.34 357.03 584.9 357.03 584.9 245.06 571.34 245.06"/><rect class="cls-7" x="411.31" y="189.12" width="237.44" height="43.29" rx="1.76"/><rect class="cls-8" x="421.44" y="193.18" width="44.27" height="0.85"/><rect class="cls-8" x="440.48" y="196.9" width="44.27" height="0.85"/><rect class="cls-8" x="458.61" y="200.62" width="44.27" height="0.85"/><rect class="cls-8" x="550.86" y="227.5" width="44.27" height="0.85"/><rect class="cls-8" x="602.73" y="221.08" width="25.74" height="0.49"/><rect class="cls-8" x="578.12" y="223.03" width="25.74" height="0.49"/><rect class="cls-9" x="175.47" y="199.83" width="47.11" height="20.66" transform="translate(-11.14 409.19) rotate(-90)"/><rect class="cls-10" x="156.36" y="207.23" width="47.11" height="5.86" transform="translate(-30.25 390.07) rotate(-90)"/><rect class="cls-11" x="162.21" y="207.23" width="47.11" height="5.86" transform="translate(-24.39 395.93) rotate(-90)"/><rect class="cls-9" x="378.92" y="199.92" width="46.89" height="20.66" transform="translate(612.61 -192.12) rotate(90)"/><rect class="cls-10" x="398.04" y="207.32" width="46.89" height="5.86" transform="translate(631.73 -211.24) rotate(90)"/><rect class="cls-11" x="392.18" y="207.32" width="46.89" height="5.86" transform="translate(625.87 -205.38) rotate(90)"/><rect class="cls-12" x="205.1" y="116.59" width="201.28" height="120.22" rx="34.79"/><rect class="cls-12" x="205.1" y="167.59" width="201.28" height="69.22"/><rect class="cls-6" x="184.24" y="235.35" width="418.49" height="15.85"/><rect class="cls-13" x="383.28" y="147.47" width="8.75" height="36.17"/><rect class="cls-14" x="230.86" y="136.73" width="80.59" height="28.82" rx="5.78"/><rect class="cls-15" x="234" y="139.13" width="75.63" height="23.86" rx="5.78"/><text class="cls-16" transform="translate(237.89 159.33)"><tspan class="cls-17">P</tspan><tspan x="3.32" y="0">ro</tspan><tspan class="cls-18" x="9.2" y="0">c</tspan><tspan x="12.21" y="0">essi</tspan><tspan class="cls-19" x="23.2" y="0">n</tspan><tspan class="cls-20" x="26.77" y="0">g</tspan><tspan x="29.83" y="0">..</tspan></text><rect class="cls-9" x="252.79" y="175.83" width="41.61" height="11.35"/><rect class="cls-21" x="256.83" y="179.05" width="1.9" height="1.9"/><rect class="cls-21" x="260.63" y="179.05" width="1.9" height="1.9"/><rect class="cls-21" x="264.26" y="179.05" width="1.9" height="1.9"/><rect class="cls-21" x="267.73" y="179.05" width="1.9" height="1.9"/><rect class="cls-21" x="271.32" y="179.05" width="1.9" height="1.9"/><rect class="cls-21" x="275.12" y="179.05" width="1.9" height="1.9"/><rect class="cls-21" x="278.76" y="179.05" width="1.9" height="1.9"/><rect class="cls-21" x="282.22" y="179.05" width="1.9" height="1.9"/><rect class="cls-21" x="256.83" y="182.43" width="1.9" height="1.9"/><rect class="cls-21" x="260.63" y="182.43" width="1.9" height="1.9"/><rect class="cls-21" x="264.26" y="182.43" width="1.9" height="1.9"/><rect class="cls-21" x="267.73" y="182.43" width="1.9" height="1.9"/><rect class="cls-21" x="271.32" y="182.43" width="1.9" height="1.9"/><rect class="cls-21" x="275.12" y="182.43" width="1.9" height="1.9"/><rect class="cls-21" x="278.76" y="182.43" width="1.9" height="1.9"/><rect class="cls-21" x="282.22" y="182.43" width="1.9" height="1.9"/><rect class="cls-21" x="285.75" y="179.05" width="1.9" height="5.29"/><rect class="cls-21" x="288.5" y="179.05" width="1.9" height="5.29"/><rect class="cls-21" x="291.29" y="179.05" width="1.9" height="5.29"/><circle class="cls-22" cx="235.56" cy="181.5" r="9.48"/><circle class="cls-23" cx="235.56" cy="181.5" r="8.57"/><path class="cls-24" d="M232,180.84l-.07.1a1,1,0,0,0-.52-.29.66.66,0,0,0-.5.3l0,.2.09.13.32.2.11.13.15.1.06.08.1.12.08.24.07.21a.45.45,0,0,1,0,.16.76.76,0,0,1-.72.67,2.15,2.15,0,0,1-.44-.05l-.2,0-.07-.07s-.2-.1-.2-.25,0-.22.11-.22.17.24.7.24a.43.43,0,0,0,.47-.43.52.52,0,0,0,0-.2l-.09-.06-.12-.18-.17-.09a1.1,1.1,0,0,1-.58-.81.67.67,0,0,1,.21-.48l.2-.11.1-.06.22,0c.45,0,.77.17.77.44C232.09,180.81,232,180.84,232,180.84Z"/><path class="cls-24" d="M235,180.75h-.12l-.24,0-.17,0h-.08a.37.37,0,0,0-.39.4v0l0,.1,0,.25,0,.31.05.17s0,.26,0,.42,0,.37,0,.37V183c0,.36-.12.7-.21.7s-.15-.17-.18-.27a.19.19,0,0,1,0-.08,2.18,2.18,0,0,1,.06-.3,1.53,1.53,0,0,0,0-.3l0-.14,0-.41v-.17c0-.11-.09-.2-.09-.37s.05-.34.05-.44-.09-.31-.24-.31h0l-.62,0h0c-.12,0-.15-.06-.15-.2s.09-.14.18-.17l.07,0,.24,0,.1,0h.32l.29-.11H234l.49,0,.17,0h.45s0,.1,0,.15S235,180.75,235,180.75Z"/><path class="cls-24" d="M237.86,182.44l0,.12-.26.32a1.22,1.22,0,0,1-.87.37,1,1,0,0,1-.59-.19l-.13-.18-.07,0a1.43,1.43,0,0,1-.22-.87,1.58,1.58,0,0,1,.41-1.1l.05-.08.1-.09.11-.11.1,0,.07,0a2.15,2.15,0,0,1,.76-.17,1.12,1.12,0,0,1,.83,1A2.47,2.47,0,0,1,237.86,182.44Zm-.34-1.57h-.12l-.2-.1-.28,0a1,1,0,0,0-.7.49,1.06,1.06,0,0,0-.22.61c0,.76.2,1,.71,1a.85.85,0,0,0,.55-.2l.09-.14.14-.12.06-.11.06-.07a3.06,3.06,0,0,0,.18-.8C237.79,180.93,237.52,180.87,237.52,180.87Z"/><path class="cls-24" d="M239.93,181.93l-.13.11-.3,0-.2.06-.1.2v.27l0,.09,0,.22v.54c0,.08-.12.18-.12.18s0,.09-.09.09-.11-.14-.11-.14l-.05-.1,0-.11v-.23l.06-.19v-.52l0-.16V182l.05-.29v-.3s0-.09,0-.16a1.23,1.23,0,0,0,0-.29v-.3c0-.36.13-.49.51-.49l.25,0,.47.15c.08,0,.48.28.48.5C240.76,181.55,239.93,181.93,239.93,181.93Zm.21-1.26-.24,0-.12-.08-.12,0c-.26,0-.29.19-.29.26v0l-.07.27v.13l0,.16v.13c0,.08.05.13.15.13.31,0,1-.42,1-.73A.29.29,0,0,0,240.14,180.67Z"/><rect class="cls-25" x="387.08" y="155.64" width="1.02" height="17.83"/><polygon class="cls-26" points="414.58 123.42 410.17 123.42 387.66 162.06 387.66 167.59 414.58 123.42"/><circle class="cls-27" cx="411.25" cy="125.86" r="8.15"/><path class="cls-25" d="M321.75,116.59v-.75a3.55,3.55,0,0,0-3.55-3.55H288.72a3.55,3.55,0,0,0-3.55,3.55v.75Z"/><rect class="cls-25" x="327.94" y="60.92" width="0.95" height="63.41" transform="translate(176.69 -213.01) rotate(47.85)"/><rect class="cls-25" x="285.81" y="57.82" width="0.95" height="63.41" transform="translate(569.61 -9) rotate(143.46)"/><rect class="cls-9" x="456.17" y="232.59" width="2.77" height="2.77" rx="1.38"/><rect class="cls-9" x="452.04" y="232.59" width="2.77" height="2.77" rx="1.38"/><rect class="cls-9" x="448.38" y="232.59" width="2.77" height="2.77" rx="1.38"/><rect class="cls-9" x="459.94" y="232.59" width="2.77" height="2.77" rx="1.38"/><rect class="cls-9" x="463.89" y="232.59" width="2.77" height="2.77" rx="1.38"/><rect class="cls-9" x="437.62" y="232.59" width="2.77" height="2.77" rx="1.38"/><rect class="cls-9" x="433.49" y="232.59" width="2.77" height="2.77" rx="1.38"/><rect class="cls-9" x="441.4" y="232.59" width="2.77" height="2.77" rx="1.38"/><rect class="cls-9" x="445.34" y="232.59" width="2.77" height="2.77" rx="1.38"/><rect class="cls-9" x="468.08" y="232.59" width="2.77" height="2.77" rx="1.38" transform="translate(938.92 467.94) rotate(180)"/><rect class="cls-9" x="479.61" y="232.59" width="2.77" height="2.77" rx="1.38"/><rect class="cls-9" x="475.49" y="232.59" width="2.77" height="2.77" rx="1.38"/><rect class="cls-9" x="471.83" y="232.59" width="2.77" height="2.77" rx="1.38"/><rect class="cls-9" x="483.39" y="232.59" width="2.77" height="2.77" rx="1.38"/><rect class="cls-9" x="487.33" y="232.59" width="2.77" height="2.77" rx="1.38"/><rect class="cls-9" x="491.53" y="232.59" width="2.77" height="2.77" rx="1.38" transform="translate(985.82 467.94) rotate(-180)"/><rect class="cls-9" x="502.98" y="232.59" width="2.77" height="2.77" rx="1.38"/><rect class="cls-9" x="498.85" y="232.59" width="2.77" height="2.77" rx="1.38"/><rect class="cls-9" x="495.2" y="232.59" width="2.77" height="2.77" rx="1.38"/><rect class="cls-9" x="506.76" y="232.59" width="2.77" height="2.77" rx="1.38"/><rect class="cls-9" x="510.7" y="232.59" width="2.77" height="2.77" rx="1.38"/><rect class="cls-9" x="514.89" y="232.59" width="2.77" height="2.77" rx="1.38" transform="translate(1032.55 467.94) rotate(-180)"/><rect class="cls-9" x="526.27" y="232.59" width="2.77" height="2.77" rx="1.38"/><rect class="cls-9" x="522.14" y="232.59" width="2.77" height="2.77" rx="1.38"/><rect class="cls-9" x="518.48" y="232.59" width="2.77" height="2.77" rx="1.38"/><rect class="cls-9" x="530.04" y="232.59" width="2.77" height="2.77" rx="1.38"/><rect class="cls-9" x="533.99" y="232.59" width="2.77" height="2.77" rx="1.38"/><rect class="cls-9" x="538.18" y="232.59" width="2.77" height="2.77" rx="1.38" transform="translate(1079.12 467.94) rotate(180)"/><rect class="cls-9" x="549.72" y="232.59" width="2.77" height="2.77" rx="1.38"/><rect class="cls-9" x="545.59" y="232.59" width="2.77" height="2.77" rx="1.38"/><rect class="cls-9" x="541.93" y="232.59" width="2.77" height="2.77" rx="1.38"/><rect class="cls-9" x="553.49" y="232.59" width="2.77" height="2.77" rx="1.38"/><rect class="cls-9" x="557.44" y="232.59" width="2.77" height="2.77" rx="1.38"/><rect class="cls-9" x="561.63" y="232.59" width="2.77" height="2.77" rx="1.38" transform="translate(1126.02 467.94) rotate(-180)"/><rect class="cls-9" x="573.08" y="232.59" width="2.77" height="2.77" rx="1.38"/><rect class="cls-9" x="568.95" y="232.59" width="2.77" height="2.77" rx="1.38"/><rect class="cls-9" x="565.3" y="232.59" width="2.77" height="2.77" rx="1.38"/><rect class="cls-9" x="576.86" y="232.59" width="2.77" height="2.77" rx="1.38"/><rect class="cls-9" x="580.8" y="232.59" width="2.77" height="2.77" rx="1.38"/><rect class="cls-9" x="584.99" y="232.59" width="2.77" height="2.77" rx="1.38" transform="translate(1172.75 467.94) rotate(180)"/><rect class="cls-28" x="432.85" y="233.69" width="156.72" height="0.56"/><rect class="cls-28" x="432.31" y="233.69" width="0.55" height="1.66"/><rect class="cls-28" x="589.57" y="233.69" width="0.62" height="1.66"/><polygon class="cls-29" points="92.95 347.23 79.94 259.56 170.63 259.56 154.84 347.23 92.95 347.23"/><path class="cls-30" d="M168.24,261.56l-15.08,83.66H94.68L82.26,261.56h86m4.78-4H77.62l13.61,91.66h65.28L173,257.56Z"/><path class="cls-5" d="M159.33,211.83a1.34,1.34,0,0,1-1.06,1.09c-.41.1-.42.27-.2.57s.61.94.94,1.38.2.6-.17.82-1,.59-1.41.9-.53.16-.62-.29a1.45,1.45,0,0,0-1.78-1.22,1.36,1.36,0,0,0-1.07,1.07,1.5,1.5,0,0,0,.62,1.52c.54.42.54.42,0,.8s-.89.59-1.33.9a.44.44,0,0,1-.74-.14c-.31-.48-.66-.95-1-1.44-.18-.29-.33-.37-.57-.06a1.31,1.31,0,0,1-1.52.53,1.6,1.6,0,0,1-1.13-1.27,1.37,1.37,0,0,1,1.07-1.61c.38-.11.4-.24.2-.53-.33-.49-.63-1-1-1.5-.19-.27-.16-.45.12-.62.47-.3.92-.63,1.39-.93s.37-.4,0-.67a1.41,1.41,0,0,1-.52-1.64,1.46,1.46,0,0,1,1.32-1.05,1.43,1.43,0,0,1,1.53,1.06c.16.58.38.53.77.23s.79-.53,1.18-.8.56-.22.78.16.6.89.86,1.35.37.43.68.07a1.4,1.4,0,0,1,1.71-.41A1.57,1.57,0,0,1,159.33,211.83Z"/><path class="cls-5" d="M140.51,223.57c.63,2.17,1.25,4.35,1.89,6.53.08.26,0,.37-.24.45-3,.85-6,1.71-9,2.58-.25.08-.35,0-.43-.23q-1.8-6.27-3.62-12.55a.32.32,0,0,1,.18-.44,8.48,8.48,0,0,0,3.69-4.17c.08-.19.16-.25.37-.2q2.44.57,4.9,1.11a.44.44,0,0,1,.36.35Q139.56,220.29,140.51,223.57Zm-.16,4.74c-.11-.36-.21-.72-.31-1.08,0,0,0,0,0-.06a.67.67,0,0,0-.82-.48.64.64,0,0,0-.47.82c.2.77.42,1.53.66,2.3a.67.67,0,1,0,1.27-.4C140.56,229,140.45,228.67,140.35,228.31Z"/><path class="cls-5" d="M158.5,244.71l-.36-2.27a5.67,5.67,0,1,1-1.79-11.2L156,229a7.76,7.76,0,0,1,7.2,2.64,7.56,7.56,0,0,1,1.21,8.61A7.7,7.7,0,0,1,158.5,244.71Zm-1.84-11.18a3.37,3.37,0,1,0,3.86,2.79A3.37,3.37,0,0,0,156.66,233.53Z"/><path class="cls-31" d="M640.18,38.61c-9-2.36-18.72,5.51-18.91,18.32-3-5.64-8.08,2.3-9.29,5.88-2.24,6.62.54,14-1.05,20.4-1.13,4.56-4.25,5.61-3.38,11.9,1,7.33,5.87,11,8.83,16.36,2.11,3.86,2.21,8.88,5.12,13,2.06,2.92,3.75,4.09,5.58,4.47h3.7l2.19-.28c2.74-.33,1.83-1.84,5-.38a3.46,3.46,0,0,1,.92.66h12.81a8,8,0,0,0,.64-1.5l1.1.7a6.06,6.06,0,0,0,.41.8H669.4c0-.24.08-.48.11-.73a12.74,12.74,0,0,0,2.42.73h3.75c7-1.51,10.58-11.66,9.15-21.63l.51,0V50.23a7.09,7.09,0,0,0-2.08.48c2.38-8.46-2.94-16.82-9.24-18.52h-4.54a9.2,9.2,0,0,0-3.39,1.86,12.36,12.36,0,0,0-.91-1.86H643.64A13.69,13.69,0,0,0,640.18,38.61Z"/><rect class="cls-32" x="562.81" y="32.19" width="122.53" height="96.77"/><path class="cls-33" d="M-15.59-3.56V421.1H716V-3.56ZM601.62,249.29c3.53,6.28,7.33,13.11,7.28,20-.1,12.47-6.58,21.65-17.42,22.95,9.09,25.8-.28,56.28-27.73,52.24,1.45,22.14-30.65,18.24-37.69,8.1l-2.86-.93c-1.33,9.48-11.09,17.43-19.76,16.78-5.51-.41-8.64-6.7-13.52-7.63-4.08-.78-5.32-.42-6.43.41-8,18.22-30.38,28.53-59.18,14.92-7.52,20.86-51.79.85-57.47-12l-3.68-2.31c-6,7.93-23.44,10.15-35.56,5.12-7.33-3-9.28-9.8-15.11-13.34-9.17,4.18-21,5.37-35,1.92-3.87,22-50.75,11.31-58.49-.15l-4-1.52c-4.58,9-21.32,14.71-34.09,12.21-8.11-1.58-11.07-8.42-18.1-10.39-11.35-3.16-8,.12-18,.84-17.64,1.27-27.19,3.17-41.65-9.1-10.58-9-10.92-19.86-18.6-28.22-10.75-11.71-28.37-19.57-32.06-35.45-3.17-13.62,8.15-15.9,12.27-25.78,5.78-13.83-4.33-29.86,3.82-44.2a41.72,41.72,0,0,1,10.07-11c-5.75-6.68-11.32-13.54-13-23.67-2.2-13.62,5.66-15.9,8.52-25.78,4-13.83-3-29.86,2.64-44.2,3.06-7.76,15.74-25,23.41-12.73.47-27.77,24.94-44.8,47.65-39.71,6.73-26,53.73-35.83,65.29-9.87a24.15,24.15,0,0,1,10.69-4.45C237.32,33.31,256.56,29.15,275,32c9.7-26,77.44-35.83,94.1-9.87,30.68-15.52,74.64,10.12,62.35,36.1C447.18,54.61,460.39,60.61,469,70a29.2,29.2,0,0,1,4.88-2c12.14-3.79,15,4,24.3,5.89,13,2.58,26.79-6.43,40.4-2.22,7.37,2.29,24.33,13.41,14,22.68a35.21,35.21,0,0,1,16.3,2.08h1.28v.51c15.51,6.63,25.17,24.14,23.51,42,24.29,4,38.2,51.33,15.86,66.13C620.85,219.06,614.65,239.84,601.62,249.29Z"/></g></svg>