<svg xmlns="http://www.w3.org/2000/svg" viewBox="0 0 683.01 421.76"><defs><style>.cls-1{fill:#5f6642;}.cls-2{fill:#4d2408;}.cls-3{fill:#577b93;}.cls-4{fill:#391e04;}.cls-5{fill:#769937;}.cls-6{fill:#74a031;}.cls-7{fill:#648436;}.cls-8{fill:#5a7f2d;}.cls-9{fill:#81aa39;}.cls-10{fill:#747762;}.cls-11{fill:#45823c;}.cls-11,.cls-12,.cls-21{stroke:#000;stroke-miterlimit:10;stroke-width:0.25px;}.cls-12{fill:#724534;}.cls-13{fill:#56352a;}.cls-14{fill:#42627b;}.cls-15{fill:#727272;}.cls-16{fill:#848484;}.cls-17{fill:#83932a;}.cls-18{fill:#4c6b7f;}.cls-19{fill:#fff;}.cls-20{fill:#b5b5b5;}.cls-21{fill:#afa633;}.cls-22{fill:#516d21;}.cls-23{fill:#597a26;}.cls-24{fill:#e1e2dc;}</style></defs><g id="Objects"><rect class="cls-1" x="-9.38" y="122.48" width="683.01" height="122.97"/><path class="cls-2" d="M515.5,205.57c-5.31.76-7.47,4.91-13.39,5-3.06,0-6.22-.06-9.35-.22l.53,3.3a38.67,38.67,0,0,0,4,.43c7,.2,20.65,2.45,26.19-2a32.48,32.48,0,0,0-14.24-.51C511.72,209.87,515.58,208.61,515.5,205.57Z"/><path class="cls-2" d="M490.43,208.14c2.88-1.62,5.67-3.63,8.69-4.94,3.86-1.66,7.76-3.15,11.75-4.76-4-.86-8.21.66-11.54,2.38,1.47-2.95,4.86-5.53,6-8.74-6.06,1.22-8.18,7.15-12.41,10.48a47.59,47.59,0,0,1-7.41,4.44Z"/><rect class="cls-3" x="-9.38" y="9.94" width="683.01" height="116.17"/><path class="cls-2" d="M273.62,164.65c16.05-4.62,33-.28,49.22,4,2.49.66,8.87,3.33,11.29,2.93,4-.66,3.94-5.62,3.81-8.51-.27-5.91-2.61-4.88-8.53-4.5-5.35.34-11.2-.57-16.61-1.08a140.75,140.75,0,0,1-29.71-6.23c-5-1.63-8.8-2.67-9.64-7.74-.79-4.79-.31-9-3.25-13.65a24,24,0,0,0-.85,10.36c-1.5-3.1-4.19-5.63-6.27-8.52,3.17-3.2.11-10.81-2.79-13.91.82,3.39.06,7.17.45,10.54-4.71-4.85-9.19-9.61-15.88-12.42,10.12,7.93,20.86,19.34,26.07,29.9-5.74-4.29-10.3-9.36-15.82-13.72-2.3-1.82-5.4-2.85-7.42-4.55-2.2-1.83-2.11-5.06-6.16-5.6a15,15,0,0,1,3,5.22c-3.74-3.22-11.71-5.54-16.72-4.93,9,4.72,19.42,7.62,27.28,14.39-4.41-1.19-10.52-3.23-14.93-2-2.24-3.07-8-4.62-12.06-4.52,2.17,1,6.56,3.14,8.15,4-4.63-1.07-10.46.83-14.14,2.72,5.87.1,14-1.53,19.71-.17-.33,2.41-2.84,4-5.47,4.8,3.11.72,4.16-.88,6.54-1.82,3-1.17,3.51-1.88,7.44-1.45a21.52,21.52,0,0,1,13.21,6.11,15.47,15.47,0,0,0-5.93,1.35c5.78.67,6.91.47,10.8,4.15,2.29,2.16,5.95,4.36,6.72,7.19a63.39,63.39,0,0,0-11.72-2.47c.2-4.67-12.94-11.17-17.67-11.38,5.84,1.63,10.11,5.3,14.16,9.27-4.9-1.21-11.47-.73-16.35-.64,4.31,2,10.5,1.94,15.17,3,4.92,1.14,9.42,2.81,14.09,4.13-.17,8.28-14.64,2.85-20.55,2.29-7-.67-20.45-3.8-26.27.3A32.22,32.22,0,0,0,240.14,163c-2.54,1.5-6.47,2.5-6.59,5.54,5.34-.41,7.78-4.42,13.69-4.1,5.06.28,10.39.9,15.36,1.65-4.4,1.26-8.44,4.31-12.86,5.88-4,1.41-8,2.63-12,4,3.94,1.13,8.24-.11,11.67-1.61-1.66,2.84-5.21,5.2-6.6,8.33,6.13-.83,8.63-6.61,13.07-9.65,3.62-2.48,9.28-4.51,13.47-6.48,4.7,6.32-5.84,13.79-6.72,19.21,2-3.62,5.82-6.22,7.56-9.86,2.27,1.94,4.92,4.6,7.73,5.55a21.17,21.17,0,0,1-5-6.32c-.9-1.94.57-5.13,0-7.15Z"/><rect class="cls-1" x="-9.38" y="316.11" width="683.01" height="112.29"/><path class="cls-4" d="M419.93,216.81c2.13,3.55,10.59,3.88,14.56,1.82s2.37-10.85,2-15.81c-.88-10.88-3.76-21.83-4.27-32.63-.41-8.71-1-16.74-1.57-25.25-.27-3.83-1.88-7.28.36-10.71,2.06-3.15,6.67-5.76,9.46-8.11,6.21-5.24,20-18.23,15.82-27.24-7.09,3.24-10.57,12.78-15.8,18.39-4.36,4.67-5.69,2.92-3.9-3.06s3.81-11.68,4.76-18c.34-2.23,2.39-14.1-2-13.38-3.79.64-5.86,11.59-6.27,14.47-.71,4.85,1,20-4.78,21.81-4.66-4.82-3-14.3-4.83-20.36-.93-3.06-7.66-17.86-11.92-11.62-2.61,3.82,3.26,13.18,4.89,16.54,2.76,5.66,5.44,11.44,4.89,17.86-6.08.17-10.77-9.77-16.41-9.17-6.68.71,2.39,9.34,4.93,11.22,3.48,2.58,8.75,3.11,11.19,6.65,1.81,2.61,1.82,8.57,1.82,11.77,0,9.14-.48,18.29-.48,27.7,0,10.65,1.43,20.57-.62,31.09-.54,2.76-1.62,6.59-1.81,8.71C419.77,211.34,419,215.24,419.93,216.81Z"/><path class="cls-5" d="M366.06,66a15.42,15.42,0,0,0,7,16.86A15.4,15.4,0,0,0,381.54,111a15.4,15.4,0,0,0,21.69,19.82,15.38,15.38,0,0,0,24.53,10.8,15.38,15.38,0,0,0,24.78-10.21,15.4,15.4,0,0,0,22.16-19.31,15.4,15.4,0,0,0,9.18-27.92,15.4,15.4,0,0,0-6.37-28.69,15.4,15.4,0,0,0-20.13-21.41A15.4,15.4,0,0,0,429.13,26a15.4,15.4,0,0,0-28.43,7.44,15.4,15.4,0,0,0-20.63,20.93A15.42,15.42,0,0,0,366.06,66Z"/><path class="cls-4" d="M600.26,216.81c2.13,3.55,10.59,3.88,14.56,1.82s2.37-10.85,2-15.81c-.88-10.88-3.76-21.83-4.27-32.63-.41-8.71-1-16.74-1.57-25.25-.27-3.83-1.88-7.28.36-10.71,2.06-3.15,6.68-5.76,9.47-8.11,6.2-5.24,20-18.23,15.81-27.24-7.09,3.24-10.56,12.78-15.8,18.39-4.36,4.67-5.69,2.92-3.9-3.06s3.81-11.68,4.76-18c.34-2.23,2.39-14.1-2-13.38-3.79.64-5.86,11.59-6.27,14.47-.71,4.85,1,20-4.78,21.81-4.66-4.82-3-14.3-4.83-20.36-.93-3.06-7.66-17.86-11.92-11.62-2.61,3.82,3.26,13.18,4.89,16.54,2.76,5.66,5.44,11.44,4.89,17.86-6.08.17-10.77-9.77-16.41-9.17-6.68.71,2.39,9.34,4.93,11.22,3.48,2.58,8.75,3.11,11.19,6.65,1.81,2.61,1.82,8.57,1.82,11.77,0,9.14-.48,18.29-.48,27.7,0,10.65,1.43,20.57-.62,31.09-.54,2.76-1.62,6.59-1.81,8.71C600.1,211.34,599.32,215.24,600.26,216.81Z"/><path class="cls-6" d="M546.39,67a15.41,15.41,0,0,0,7,16.85A15.4,15.4,0,0,0,561.87,112a15.4,15.4,0,0,0,21.69,19.83,15.39,15.39,0,0,0,24.53,10.8,15.39,15.39,0,0,0,24.78-10.21A15.4,15.4,0,0,0,655,113.1a15.4,15.4,0,0,0,9.18-27.92,15.4,15.4,0,0,0-6.37-28.69,15.4,15.4,0,0,0-20.13-21.42A15.4,15.4,0,0,0,609.46,27,15.4,15.4,0,0,0,581,34.4,15.4,15.4,0,0,0,560.4,55.33,15.42,15.42,0,0,0,546.39,67Z"/><path class="cls-4" d="M359.55,109.13c-.87,21.92-2.1,44-3.94,65.89-.69,8.29-2.55,13.15,4.4,15.8,3.6,1.38,20.29,2.57,23.9.83,7.92-3.83,1.57-24.1.27-32.16-1.52-9.44-2.38-27.46-6.22-34.05Z"/><path class="cls-7" d="M366.61,1.29c-12.08,15.79-30.45,33-36.16,52.25,6.77,2.2,13.37.2,20.18.12-.83,7.17-9.26,15.08-12.62,22-4.35,8.87-7.19,18.45-11.16,27.26,6.51,2.69,15-.14,21.35-2.31-1.89,11.29-12.48,20.8-15.7,32.15-4.87,17.16,2.53,15.85,16.06,13.78,12.27-1.87,24.49,0,36.91-.16,7.31-.08,20.57,2,27.14-.87-5.23-14.2-22-24.12-28.2-38,8.67-2.62,38.51-.2,25.9-15.4C402.4,82.56,391.24,74.27,381.77,66c3.74-3.62,13.11-2,16.06-6.6,4-6.29-5.93-15.74-8.78-20.54C385,32,373.16,9.62,366.61,1.29Z"/><path class="cls-4" d="M546.29,140.05c-.88,21.93-2.11,44-3.95,65.89-.69,8.3-2.55,13.15,4.4,15.81,3.6,1.37,20.29,2.57,23.9.83,7.92-3.84,1.57-24.1.27-32.17-1.52-9.43-2.38-27.46-6.22-34Z"/><path class="cls-7" d="M553.34,32.22c-12.08,15.79-30.44,33-36.16,52.24,6.77,2.2,13.37.2,20.18.12-.83,7.17-9.25,15.09-12.62,22-4.35,8.88-7.19,18.46-11.16,27.27,6.51,2.68,15-.15,21.35-2.31-1.89,11.28-12.48,20.79-15.7,32.15-4.87,17.15,2.53,15.84,16.06,13.77,12.27-1.87,24.49,0,36.91-.15,7.31-.09,20.58,2,27.15-.88-5.24-14.2-22-24.11-28.21-37.95,8.67-2.63,38.51-.2,25.9-15.4-7.91-9.54-19.07-17.83-28.54-26.16,3.74-3.62,13.11-2,16.06-6.6,4-6.28-5.93-15.74-8.78-20.53-4-6.79-15.89-29.19-22.44-37.52Z"/><path class="cls-4" d="M25,131.55c-.88,21.93-2.11,44-3.94,65.89-.7,8.3-2.56,13.15,4.4,15.81,3.59,1.37,20.28,2.57,23.89.83,7.92-3.84,1.58-24.1.28-32.17-1.52-9.43-2.38-27.46-6.22-34Z"/><path class="cls-7" d="M32.07,23.72C20,39.51,1.62,56.69-4.1,76c6.78,2.21,13.38.21,20.19.13C15.25,83.26,6.83,91.17,3.46,98c-4.35,8.88-7.18,18.46-11.15,27.27,6.51,2.68,15-.14,21.34-2.31C11.77,134.27,1.18,143.79-2,155.14-6.92,172.29.48,171,14,168.92c12.26-1.87,24.48,0,36.9-.16,7.32-.08,20.58,2,27.15-.88-5.24-14.2-22-24.11-28.21-37.95,8.67-2.63,38.52-.2,25.91-15.4C67.85,105,56.7,96.7,47.22,88.38c3.75-3.62,13.12-2,16.07-6.61,4-6.28-5.94-15.74-8.79-20.53-4-6.78-15.88-29.19-22.43-37.52Z"/><path class="cls-2" d="M489.91,120.57c8.91,17.09,6.27,36.57,3.5,55.16-.43,2.86-2.79,10.34-1.83,13,1.58,4.34,8.07,3.51,11.84,2.93,7.69-1.2,5.92-3.63,4.36-10.13-1.41-5.89-1.25-12.51-1.55-18.58A133.69,133.69,0,0,1,509.07,129c1.24-5.84,1.92-10.16,8.42-11.85,6.14-1.6,11.68-1.71,17.29-5.67a37.12,37.12,0,0,0-13.72.63c3.8-2.14,6.63-5.5,10.05-8.25,4.76,3,14.18-1.51,17.72-5.19-4.3,1.42-9.39,1.15-13.73,2.1,5.51-6,10.94-11.64,13.43-19.49C540,93.74,526.92,107.37,514,114.74c4.59-7,10.41-12.84,15.14-19.62,2-2.82,2.77-6.41,4.63-8.91,2-2.7,6.25-3.09,6.23-7.66a19.71,19.71,0,0,1-6.3,4.09c3.54-4.64,5.17-13.82,3.48-19.28-4.59,10.68-6.52,22.68-14,32.41.77-5.06,2.35-12.15-.06-16.84,3.61-3,4.63-9.57,3.76-14.06-.9,2.56-2.94,7.75-3.81,9.65.57-5.3-3-11.48-6.08-15.27.92,6.53,4.5,15.29,3.74,21.83-3.22,0-5.68-2.56-7.26-5.35-.4,3.56,1.89,4.48,3.55,7,2.06,3.12,3.08,3.6,3.23,8,.22,6.29-1.75,10.84-5.64,15.56-.69-2.35-1.22-4.48-2.83-6.35.15,6.5.62,7.72-3.5,12.59-2.42,2.86-4.65,7.25-8.22,8.54a60.2,60.2,0,0,0,1.14-13.37c6.15-.49,12.32-16,11.75-21.3-1.09,6.71-5.14,12-9.61,17.09.7-5.61-1.1-12.82-2.09-18.22-1.85,5.08-.67,11.93-1.26,17.28-.63,5.62-2,10.86-2.9,16.24-10.88,1.06-6.35-15.8-6.67-22.43-.38-7.86,1.32-23.24-5.1-29.07A30.86,30.86,0,0,0,486,83.22c-2.41-2.6-4.42-6.8-8.42-6.48,1.48,5.86,7.17,8,7.8,14.55a153.86,153.86,0,0,1,.59,17.29c-2.43-4.7-7.15-8.71-10-13.38-2.55-4.17-4.87-8.41-7.36-12.74-.77,4.54,1.62,9.12,4.19,12.7-4-1.42-7.74-5-12.08-6.06,2.17,6.67,10.19,8.57,15,13,3.89,3.63,7.57,9.6,10.89,14-7.44,6.17-19.11-4.39-26.36-4.55,5.11,1.69,9.18,5.51,14.27,6.89-2.14,2.81-5.15,6.15-5.9,9.41a26.22,26.22,0,0,1,7.38-6.55c2.38-1.29,6.83-.14,9.37-1.1Z"/><path class="cls-8" d="M503.17,132.55c-2,5.07-9.13,8.29-14.59,6.88-3.47-.89-4.74-4.75-7.75-5.85-4.86-1.79-3.43.06-7.7.47-7.55.71-11.64,1.79-17.83-5.13-4.52-5-4.67-11.19-8-15.9-4.6-6.59-12.14-11-13.72-20-1.36-7.67,3.49-9,5.25-14.52,2.47-7.79-1.85-16.83,1.64-24.9,1.88-4.37,9.7-14.07,14.43-7.17.29-15.65,15.38-25.25,29.39-22.38,4.15-14.63,33.14-20.18,40.27-5.56,13.14-8.74,31.95,5.7,26.69,20.34,12.49-3.8,21.29,11.07,20.53,22.08-.54,7.81-7.64,10.37-8.64,15.86-.94,5.11,5.91,13.6,4.37,20.61s-6.73,11.17-13.81,10.57c2.79,15.36-6.75,31.06-23.82,25.51-1.66,12.41-21.72,6.37-25-.08Z"/><path class="cls-4" d="M303.12,216.81c2.13,3.55,10.59,3.88,14.55,1.82,4.13-2.15,2.37-10.85,2-15.81-.89-10.88-3.76-21.83-4.28-32.63-.41-8.71-1-16.74-1.56-25.25-.27-3.83-1.89-7.28.35-10.71,2.06-3.15,6.68-5.76,9.47-8.11,6.21-5.24,20-18.23,15.82-27.24-7.09,3.24-10.57,12.78-15.81,18.39-4.35,4.67-5.68,2.92-3.89-3.06s3.81-11.68,4.76-18c.33-2.23,2.39-14.1-2-13.38-3.79.64-5.85,11.59-6.27,14.47-.7,4.85,1.05,20-4.77,21.81-4.67-4.82-3-14.3-4.83-20.36-.94-3.06-7.66-17.86-11.92-11.62-2.61,3.82,3.25,13.18,4.89,16.54,2.76,5.66,5.44,11.44,4.89,17.86-6.09.17-10.77-9.77-16.41-9.17-6.69.71,2.39,9.34,4.92,11.22,3.48,2.58,8.75,3.11,11.2,6.65C306,132.86,306,138.82,306,142c0,9.14-.49,18.29-.49,27.7,0,10.65,1.43,20.57-.62,31.09-.54,2.76-1.61,6.59-1.8,8.71C303,211.34,302.18,215.24,303.12,216.81Z"/><path class="cls-9" d="M249.25,66a15.41,15.41,0,0,0,7,16.86A15.4,15.4,0,0,0,264.73,111a15.39,15.39,0,0,0,21.69,19.82A15.38,15.38,0,0,0,311,141.65a15.37,15.37,0,0,0,24.77-10.21,15.4,15.4,0,0,0,22.16-19.31,15.4,15.4,0,0,0,9.19-27.92,15.4,15.4,0,0,0-6.37-28.69,15.4,15.4,0,0,0-20.13-21.41A15.4,15.4,0,0,0,312.32,26a15.4,15.4,0,0,0-28.43,7.44,15.4,15.4,0,0,0-20.64,20.93A15.4,15.4,0,0,0,249.25,66Z"/><rect class="cls-10" x="-9.38" y="245" width="683.01" height="71.11"/><path class="cls-11" d="M51.44,369.37c-.92,2.39-4.31,3.91-6.89,3.25-1.64-.43-2.23-2.24-3.65-2.77-2.3-.84-1.63,0-3.64.22-3.56.34-5.49.85-8.42-2.41-2.13-2.39-2.2-5.29-3.75-7.51-2.18-3.11-5.74-5.2-6.48-9.43-.64-3.62,1.64-4.23,2.48-6.85,1.16-3.68-.88-7.95.77-11.76.89-2.06,4.58-6.64,6.81-3.39.14-7.38,7.26-11.91,13.88-10.56,2-6.91,15.64-9.53,19-2.62,6.2-4.13,15.08,2.69,12.6,9.6,5.9-1.8,10,5.22,9.69,10.42-.26,3.69-3.61,4.9-4.08,7.49-.44,2.41,2.79,6.42,2.06,9.73a5.92,5.92,0,0,1-6.52,5c1.32,7.25-3.18,14.66-11.24,12-.78,5.86-10.25,3-11.82,0Z"/><path class="cls-11" d="M81.84,392c-.92,2.4-4.3,3.91-6.88,3.25-1.64-.42-2.24-2.24-3.66-2.76-2.29-.84-1.62,0-3.64.22-3.56.34-5.49.84-8.41-2.42-2.14-2.39-2.21-5.28-3.76-7.51-2.17-3.11-5.73-5.2-6.48-9.42-.64-3.63,1.65-4.23,2.48-6.86,1.17-3.68-.87-7.94.77-11.76.89-2.06,4.58-6.64,6.82-3.38.13-7.39,7.26-11.92,13.87-10.56,2-6.91,15.65-9.53,19-2.63,6.2-4.13,15.08,2.69,12.6,9.6,5.9-1.79,10,5.23,9.69,10.43-.25,3.68-3.6,4.89-4.08,7.48-.44,2.42,2.8,6.42,2.07,9.73a5.94,5.94,0,0,1-6.52,5c1.32,7.24-3.19,14.66-11.25,12-.78,5.85-10.25,3-11.82,0Z"/><path class="cls-11" d="M131.72,400.23c-.92,2.4-4.31,3.91-6.89,3.25-1.64-.42-2.23-2.24-3.65-2.76-2.3-.85-1.63,0-3.64.22-3.56.34-5.49.84-8.42-2.42-2.13-2.39-2.2-5.28-3.75-7.51-2.18-3.11-5.74-5.2-6.48-9.42-.64-3.63,1.64-4.23,2.48-6.86,1.16-3.68-.88-7.94.77-11.76.89-2.06,4.58-6.64,6.81-3.38.14-7.39,7.26-11.92,13.88-10.56,2-6.91,15.64-9.53,19-2.63,6.2-4.13,15.08,2.69,12.6,9.6,5.9-1.79,10.05,5.23,9.69,10.42-.26,3.69-3.61,4.9-4.08,7.49-.44,2.42,2.79,6.42,2.06,9.73a5.92,5.92,0,0,1-6.52,5c1.32,7.25-3.18,14.67-11.24,12.05-.78,5.85-10.25,3-11.82,0Z"/><path class="cls-11" d="M650,240.26c-.93,2.4-4.31,3.91-6.89,3.25-1.64-.42-2.24-2.24-3.66-2.76-2.29-.85-1.62,0-3.64.22-3.56.34-5.49.84-8.41-2.42-2.14-2.39-2.21-5.28-3.76-7.51-2.17-3.11-5.73-5.2-6.48-9.42-.64-3.63,1.65-4.23,2.48-6.86,1.17-3.68-.87-7.94.77-11.76.89-2.06,4.58-6.64,6.82-3.38.13-7.39,7.26-11.92,13.87-10.56,2-6.91,15.65-9.53,19-2.63,6.2-4.13,15.09,2.69,12.6,9.6,5.9-1.79,10,5.23,9.69,10.42-.25,3.69-3.6,4.9-4.07,7.49-.45,2.42,2.79,6.42,2.06,9.73a5.94,5.94,0,0,1-6.52,5c1.32,7.25-3.19,14.67-11.25,12.05-.78,5.85-10.25,3-11.81,0Z"/><rect class="cls-12" x="373.41" y="225.34" width="125.21" height="15.21" rx="1.76"/><rect class="cls-13" x="378.76" y="226.77" width="23.34" height="0.3"/><rect class="cls-13" x="388.8" y="228.08" width="23.34" height="0.3"/><rect class="cls-13" x="398.36" y="229.38" width="23.34" height="0.3"/><rect class="cls-13" x="447.01" y="238.83" width="23.34" height="0.3"/><rect class="cls-13" x="474.36" y="236.57" width="13.57" height="0.17"/><rect class="cls-13" x="461.38" y="237.25" width="13.57" height="0.17"/><rect class="cls-12" x="373.41" y="215" width="125.21" height="15.21" rx="1.76"/><rect class="cls-13" x="378.76" y="216.43" width="23.34" height="0.3"/><rect class="cls-13" x="388.8" y="217.73" width="23.34" height="0.3"/><rect class="cls-13" x="398.36" y="219.04" width="23.34" height="0.3"/><rect class="cls-13" x="447.01" y="228.49" width="23.34" height="0.3"/><rect class="cls-13" x="474.36" y="226.23" width="13.57" height="0.17"/><rect class="cls-13" x="461.38" y="226.91" width="13.57" height="0.17"/><rect class="cls-12" x="373.41" y="200.41" width="125.21" height="15.21" rx="1.76"/><rect class="cls-13" x="378.76" y="201.83" width="23.34" height="0.3"/><rect class="cls-13" x="388.8" y="203.14" width="23.34" height="0.3"/><rect class="cls-13" x="398.36" y="204.45" width="23.34" height="0.3"/><rect class="cls-13" x="447.01" y="213.89" width="23.34" height="0.3"/><rect class="cls-13" x="474.36" y="211.64" width="13.57" height="0.17"/><rect class="cls-13" x="461.38" y="212.32" width="13.57" height="0.17"/><rect class="cls-12" x="373.41" y="185.2" width="125.21" height="15.21" rx="1.76"/><rect class="cls-13" x="378.76" y="186.63" width="23.34" height="0.3"/><rect class="cls-13" x="388.8" y="187.94" width="23.34" height="0.3"/><rect class="cls-13" x="398.36" y="189.24" width="23.34" height="0.3"/><rect class="cls-13" x="447.01" y="198.69" width="23.34" height="0.3"/><rect class="cls-13" x="474.36" y="196.43" width="13.57" height="0.17"/><rect class="cls-13" x="461.38" y="197.11" width="13.57" height="0.17"/><rect class="cls-12" x="373.41" y="175.36" width="125.21" height="15.21" rx="1.76"/><rect class="cls-13" x="378.76" y="176.79" width="23.34" height="0.3"/><rect class="cls-13" x="388.8" y="178.09" width="23.34" height="0.3"/><rect class="cls-13" x="398.36" y="179.4" width="23.34" height="0.3"/><rect class="cls-13" x="447.01" y="188.84" width="23.34" height="0.3"/><rect class="cls-13" x="474.36" y="186.59" width="13.57" height="0.17"/><rect class="cls-13" x="461.38" y="187.27" width="13.57" height="0.17"/><rect class="cls-12" x="373.41" y="195.69" width="125.21" height="15.21" rx="1.76"/><rect class="cls-13" x="378.76" y="197.11" width="23.34" height="0.3"/><rect class="cls-13" x="388.8" y="198.42" width="23.34" height="0.3"/><rect class="cls-13" x="398.36" y="199.73" width="23.34" height="0.3"/><rect class="cls-13" x="447.01" y="209.17" width="23.34" height="0.3"/><rect class="cls-13" x="474.36" y="206.92" width="13.57" height="0.17"/><rect class="cls-13" x="461.38" y="207.6" width="13.57" height="0.17"/><path class="cls-14" d="M316.85,271.86c.38,0,.75-.06,1.11-.07l56.24-3.59V243.52a10.61,10.61,0,0,0-4.39-2c-4.27-.88-5.08-3.07-5-6.93.15-16.66.1-33.33,0-50,0-6.4-2.14-8.58-8.31-8.64-9.66-.1-19.32-.07-29,0-5.92,0-10.54,2.38-13.66,7.66-4.16,7-8.09,14.25-13,20.75-6.74,9-11.05,18.31-9,29.78.35,2,.52,4,.75,5.93.53,4.45.18,8.63-3.33,12-3.82,3.66-4.52,8.21-2.52,12.85,2.11,4.87,6.15,7.17,11.59,7.06C304.53,271.89,310.74,272.44,316.85,271.86Zm-6.16-69.06c3.26-5,6.22-10.34,10.09-14.86a14.3,14.3,0,0,1,8.66-4.64c7.27-.67,14.64-.11,22-.26,4.45-.08,6.46,2,6.45,6.28,0,4.17-.06,8.33,0,12.5.09,4.49-2.17,6.27-6.49,6.19-6.17-.11-12.33,0-18.5,0-6.5,0-13,.09-19.5,0C309,207.85,308.31,206.47,310.69,202.8Z"/><rect class="cls-14" x="310.15" y="241.66" width="198.83" height="29.28"/><circle class="cls-15" cx="325.71" cy="275.06" r="22.17"/><circle class="cls-16" cx="325.71" cy="275.06" r="15.07"/><circle class="cls-15" cx="485.49" cy="275.06" r="22.17"/><rect class="cls-14" x="388.09" y="178.47" width="5.57" height="68.04"/><rect class="cls-14" x="482.71" y="178.47" width="5.57" height="68.04"/><path class="cls-17" d="M292.36,237.72s11.43-1.52,11.43,1.46v3.22s.7.94-11,1.16c-.85,0-.88-5.59-.88-5.59S292,237.77,292.36,237.72Z"/><path class="cls-18" d="M356.2,180.89H341s-3.15.68-4.42,2.81c-1.38,2.31-2.35,3.14-3.26,5.7s-5.72,14.37-5.72,14.37-1,1.15-.61,6,.66,28.74.66,28.74-.51,7.1,4.95,7.35,20.05-.61,20.05-.61h3.52s4,.69,3.88-7.65-.67-32.12-.67-32.12l.1-20.23S359.26,180.89,356.2,180.89Z"/><path class="cls-19" d="M332.89,208c-6.5,0-13,.09-19.5,0-4.39-.09-5.08-1.47-2.7-5.14,3.26-5,6.22-10.34,10.09-14.86a14.3,14.3,0,0,1,8.66-4.64c7.27-.67,14.64-.11,22-.26,4.45-.08,6.46,2,6.45,6.28,0,4.17-.06,8.33,0,12.5.09,4.49-2.17,6.27-6.49,6.19C345.22,207.9,339.06,208,332.89,208Z"/><polygon class="cls-18" points="328.59 208 338.83 182.96 337.17 182.96 326.92 208.01 328.59 208"/><circle class="cls-16" cx="485.49" cy="275.06" r="15.07"/><circle class="cls-20" cx="325.71" cy="275.06" r="3"/><circle class="cls-20" cx="485.49" cy="275.06" r="3"/><polygon class="cls-21" points="394.61 175.42 392.71 175.42 389.91 178.15 391.81 178.15 394.61 175.42"/><polygon class="cls-21" points="489.16 175.57 487.26 175.57 484.45 178.3 486.35 178.3 489.16 175.57"/><path class="cls-14" d="M509,265.94h1.1s1.43-.16,1.48,1.82a16.15,16.15,0,0,1,0,2.26.87.87,0,0,1-1,.93,5.16,5.16,0,0,0-1.54,0Z"/><path class="cls-14" d="M507.67,246.2h1.1s1.43.15,1.49-1.64a15.89,15.89,0,0,0,0-2.05s.05-.94-1.05-.84a6.29,6.29,0,0,1-1.54,0Z"/><path class="cls-11" d="M153.94,182.73c-.92,2.39-4.3,3.91-6.88,3.24-1.64-.42-2.24-2.24-3.66-2.76-2.3-.84-1.62,0-3.64.22-3.56.34-5.49.85-8.41-2.42-2.14-2.38-2.21-5.28-3.76-7.5-2.17-3.12-5.73-5.21-6.48-9.43-.64-3.62,1.65-4.23,2.48-6.86,1.17-3.68-.88-7.94.77-11.75.89-2.07,4.58-6.64,6.82-3.39.13-7.38,7.26-11.91,13.87-10.56,2-6.91,15.65-9.53,19-2.63,6.2-4.12,15.08,2.7,12.6,9.61,5.9-1.8,10.05,5.22,9.69,10.42-.25,3.68-3.6,4.9-4.08,7.49-.44,2.41,2.79,6.42,2.07,9.73a5.94,5.94,0,0,1-6.52,5c1.32,7.25-3.19,14.66-11.25,12-.78,5.86-10.25,3-11.82,0Z"/><path class="cls-11" d="M109,197.11c-.93,2.4-4.31,3.91-6.89,3.25-1.64-.42-2.24-2.24-3.66-2.76-2.29-.85-1.62,0-3.63.22-3.57.33-5.5.84-8.42-2.42-2.14-2.39-2.21-5.29-3.76-7.51-2.17-3.11-5.73-5.2-6.48-9.43-.64-3.62,1.65-4.22,2.48-6.85,1.17-3.68-.87-8,.77-11.76.89-2.06,4.58-6.64,6.82-3.38.14-7.39,7.26-11.92,13.87-10.57,2-6.91,15.65-9.52,19-2.62,6.19-4.13,15.08,2.69,12.59,9.6,5.9-1.79,10,5.23,9.69,10.42-.25,3.69-3.6,4.9-4.07,7.49-.45,2.41,2.79,6.42,2.06,9.73a5.94,5.94,0,0,1-6.52,5c1.32,7.25-3.18,14.66-11.24,12-.79,5.86-10.26,3-11.82,0Z"/><path class="cls-11" d="M195.38,197.11c-.92,2.4-4.3,3.91-6.88,3.25-1.64-.42-2.24-2.24-3.66-2.76-2.29-.85-1.62,0-3.64.22-3.56.33-5.49.84-8.41-2.42-2.14-2.39-2.21-5.29-3.76-7.51-2.17-3.11-5.73-5.2-6.48-9.43-.64-3.62,1.65-4.22,2.48-6.85,1.17-3.68-.87-8,.77-11.76.89-2.06,4.58-6.64,6.82-3.38.13-7.39,7.26-11.92,13.87-10.57,2-6.91,15.65-9.52,19-2.62,6.2-4.13,15.08,2.69,12.6,9.6,5.9-1.79,10.05,5.23,9.69,10.42-.25,3.69-3.6,4.9-4.08,7.49-.44,2.41,2.8,6.42,2.07,9.73a5.94,5.94,0,0,1-6.52,5c1.32,7.25-3.19,14.66-11.25,12-.78,5.86-10.25,3-11.82,0Z"/><path class="cls-4" d="M122.79,216.81c2.13,3.55,10.59,3.88,14.55,1.82,4.13-2.15,2.37-10.85,2-15.81-.89-10.88-3.76-21.83-4.28-32.63-.41-8.71-1-16.74-1.56-25.25-.27-3.83-1.89-7.28.35-10.71,2.06-3.15,6.68-5.76,9.47-8.11,6.21-5.24,20-18.23,15.82-27.24-7.09,3.24-10.57,12.78-15.81,18.39-4.35,4.67-5.68,2.92-3.89-3.06s3.81-11.68,4.75-18c.34-2.23,2.4-14.1-2-13.38-3.79.64-5.85,11.59-6.27,14.47-.7,4.85,1.05,20-4.77,21.81-4.67-4.82-3-14.3-4.83-20.36-.94-3.06-7.66-17.86-11.92-11.62-2.61,3.82,3.25,13.18,4.89,16.54,2.76,5.66,5.44,11.44,4.89,17.86-6.09.17-10.77-9.77-16.41-9.17-6.69.71,2.39,9.34,4.92,11.22,3.48,2.58,8.75,3.11,11.2,6.65,1.8,2.61,1.82,8.57,1.82,11.77,0,9.14-.49,18.29-.49,27.7,0,10.65,1.43,20.57-.62,31.09-.54,2.76-1.61,6.59-1.8,8.71C122.62,211.34,121.85,215.24,122.79,216.81Z"/><path class="cls-22" d="M68.92,66a15.41,15.41,0,0,0,7,16.86A15.4,15.4,0,0,0,84.4,111a15.39,15.39,0,0,0,21.69,19.82,15.38,15.38,0,0,0,24.53,10.8,15.37,15.37,0,0,0,24.77-10.21,15.4,15.4,0,0,0,22.16-19.31,15.4,15.4,0,0,0,9.19-27.92,15.4,15.4,0,0,0-6.37-28.69,15.4,15.4,0,0,0-20.13-21.41A15.4,15.4,0,0,0,132,26a15.4,15.4,0,0,0-28.43,7.44A15.4,15.4,0,0,0,82.92,54.36,15.4,15.4,0,0,0,68.92,66Z"/><path class="cls-2" d="M203.72,135.58c8.92,17.09,6.27,36.57,3.5,55.16-.42,2.86-2.78,10.34-1.82,13,1.58,4.34,8.07,3.51,11.83,2.93,7.69-1.2,5.93-3.63,4.37-10.13-1.41-5.89-1.26-12.51-1.55-18.58a133.69,133.69,0,0,1,2.84-33.87c1.24-5.84,1.92-10.16,8.42-11.85,6.13-1.6,11.68-1.71,17.29-5.67a37.32,37.32,0,0,0-13.72.63c3.79-2.14,6.63-5.5,10.05-8.25,4.75,3,14.17-1.51,17.71-5.19-4.3,1.42-9.38,1.15-13.73,2.1,5.52-6,11-11.64,13.44-19.49-8.59,12.42-21.61,26.05-34.5,33.42,4.59-7,10.41-12.84,15.14-19.62,2-2.82,2.77-6.4,4.63-8.9,2-2.71,6.25-3.1,6.23-7.67a19.71,19.71,0,0,1-6.3,4.09c3.54-4.64,5.16-13.82,3.47-19.28-4.58,10.68-6.51,22.68-14,32.41.77-5.06,2.35-12.15-.06-16.84,3.61-3,4.62-9.57,3.76-14.06-.91,2.56-2.94,7.75-3.81,9.65.57-5.3-3-11.48-6.08-15.27.91,6.53,4.5,15.29,3.74,21.83-3.22,0-5.68-2.56-7.26-5.35-.4,3.56,1.89,4.48,3.54,7,2.06,3.12,3.09,3.6,3.24,8,.21,6.29-1.75,10.84-5.64,15.57-.7-2.36-1.22-4.49-2.83-6.36.15,6.5.61,7.72-3.5,12.59-2.43,2.86-4.66,7.25-8.22,8.54a60.81,60.81,0,0,0,1.14-13.37c6.14-.49,12.31-16,11.74-21.3-1.09,6.71-5.13,12-9.6,17.09.69-5.61-1.1-12.82-2.09-18.22-1.86,5.08-.67,11.93-1.27,17.28-.62,5.62-2,10.86-2.89,16.24-10.88,1.06-6.35-15.8-6.67-22.43-.38-7.86,1.32-23.24-5.1-29.07a30.86,30.86,0,0,0,.65,15.93c-2.41-2.6-4.43-6.8-8.43-6.48,1.49,5.86,7.17,8,7.81,14.55a153.86,153.86,0,0,1,.59,17.29c-2.44-4.7-7.15-8.71-10-13.38-2.55-4.17-4.87-8.41-7.36-12.74-.77,4.54,1.62,9.12,4.19,12.7-4-1.42-7.74-5-12.08-6.06,2.17,6.67,10.19,8.57,15,13,3.88,3.63,7.57,9.6,10.88,14-7.43,6.17-19.1-4.39-26.35-4.55,5.1,1.69,9.18,5.51,14.27,6.9-2.14,2.8-5.15,6.14-5.9,9.4a26.08,26.08,0,0,1,7.38-6.55c2.38-1.29,6.83-.14,9.37-1.1Z"/><path class="cls-23" d="M217,147.56c-2,5.07-9.13,8.29-14.59,6.88-3.48-.89-4.74-4.75-7.75-5.85-4.86-1.79-3.44.06-7.7.47-7.55.71-11.64,1.79-17.83-5.13-4.53-5.05-4.68-11.19-8-15.9-4.6-6.59-12.14-11-13.72-20-1.36-7.67,3.49-9,5.25-14.52,2.47-7.79-1.85-16.83,1.63-24.9,1.89-4.37,9.71-14.07,14.44-7.17.29-15.65,15.38-25.24,29.39-22.38,4.15-14.63,33.14-20.18,40.27-5.56,13.13-8.74,31.94,5.7,26.69,20.34,12.49-3.8,21.28,11.07,20.52,22.08-.54,7.81-7.63,10.37-8.64,15.86-.93,5.11,5.92,13.6,4.37,20.61s-6.72,11.17-13.81,10.57c2.8,15.36-6.74,31.06-23.81,25.51-1.66,12.41-21.72,6.37-25-.08Z"/><path class="cls-2" d="M434.18,389.53c5.87.1,14-1.53,19.71-.17-.33,2.42-2.84,3.95-5.47,4.8,3.1.73,4.16-.88,6.54-1.81,3-1.17,3.5-1.88,7.43-1.46A21.5,21.5,0,0,1,475.6,397c-2.16.24-4.09.37-5.92,1.35,5.78.68,6.91.47,10.8,4.15.82.78,1.83,1.56,2.81,2.38l3-6.23a8.71,8.71,0,0,1-.77-2.45c-.79-4.8-.32-9-3.25-13.65a24,24,0,0,0-.85,10.36c-1.5-3.1-4.19-5.64-6.27-8.53,3.16-3.2.11-10.81-2.79-13.91.81,3.4.06,7.18.45,10.55-4.71-4.85-9.19-9.61-15.89-12.43,10.13,7.94,20.87,19.35,26.08,29.9-5.74-4.29-10.31-9.35-15.83-13.72-2.29-1.81-5.39-2.85-7.42-4.54-2.19-1.84-2.1-5.06-6.15-5.6a15,15,0,0,1,3,5.22c-3.75-3.22-11.71-5.55-16.72-4.94,9,4.73,19.42,7.63,27.27,14.39-4.4-1.19-10.52-3.22-14.92-2-2.24-3.06-8-4.62-12.06-4.52,2.17,1,6.56,3.14,8.15,4C443.69,385.75,437.86,387.65,434.18,389.53Z"/><path class="cls-2" d="M259.63,374.58c4.31,2,10.5,1.95,15.18,3,3.41.8,6.63,1.85,9.84,2.86l1-2.13a58.55,58.55,0,0,0-6.19-1c.2-4.66-12.94-11.17-17.67-11.38,5.84,1.63,10.11,5.3,14.16,9.27C271.08,374,264.51,374.49,259.63,374.58Z"/><path class="cls-24" d="M-11.68,16.45V441.11H719.88V16.45ZM605.53,269.3c3.52,6.28,7.32,13.12,7.27,20-.09,12.47-6.57,21.65-17.42,22.95,9.09,25.81-.27,56.28-27.72,52.24,1.45,22.14-30.66,18.25-37.7,8.1l-2.85-.93c-1.33,9.48-11.09,17.43-19.76,16.79-5.51-.41-8.64-6.7-13.52-7.64-4.09-.78-5.32-.41-6.44.41-8,18.23-30.38,28.54-59.18,14.92-7.52,20.86-51.78.86-57.46-12l-3.69-2.31c-6,7.93-23.43,10.15-35.56,5.12-7.32-3-9.28-9.8-15.1-13.34-9.18,4.18-21,5.38-35,1.92-3.87,22-50.75,11.31-58.5-.15l-4-1.52c-4.57,9-21.32,14.71-34.08,12.21-8.12-1.58-11.07-8.42-18.1-10.38-11.36-3.17-8,.11-18,.83-17.64,1.27-27.19,3.17-41.65-9.09-10.58-9-10.93-19.87-18.6-28.23C77.72,327.53,60.1,319.68,56.4,303.8c-3.17-13.63,8.15-15.9,12.28-25.78,5.77-13.84-4.33-29.87,3.81-44.21a41.89,41.89,0,0,1,10.07-10.95c-5.75-6.68-11.31-13.54-12.94-23.66-2.2-13.63,5.65-15.91,8.52-25.78,4-13.84-3-29.87,2.64-44.21,3.06-7.75,15.73-25,23.41-12.72.47-27.77,24.94-44.81,47.65-39.72,6.73-26,53.73-35.82,65.29-9.87a24,24,0,0,1,10.69-4.44c13.41-9.14,32.65-13.3,51.08-10.43,9.7-26,77.44-35.82,94.1-9.87,30.68-15.51,74.64,10.12,62.35,36.1,15.74-3.64,28.94,2.37,37.51,11.73a28.88,28.88,0,0,1,4.88-2c12.13-3.79,15,4.05,24.3,5.89,13,2.58,26.79-6.43,40.4-2.21,7.36,2.28,24.33,13.41,14,22.67a35.09,35.09,0,0,1,16.3,2.09H574v.5c15.52,6.63,25.17,24.15,23.51,42,24.3,4,38.2,51.32,15.87,66.12C624.75,239.07,618.56,259.85,605.53,269.3Z"/><rect class="cls-24" x="-0.99" y="0.15" width="721.32" height="18.17"/></g></svg>