<svg xmlns="http://www.w3.org/2000/svg" viewBox="0 0 683.01 421.76"><defs><style>.cls-1{fill:#5f6642;}.cls-2{fill:#4d2408;}.cls-3{fill:#577b93;}.cls-4{fill:#9ca348;}.cls-5{fill:#391e04;}.cls-6{fill:#a2d143;}.cls-7{fill:#d3e14e;}.cls-8{fill:#747762;}.cls-9{fill:#45823c;}.cls-10,.cls-19,.cls-9{stroke:#000;stroke-miterlimit:10;stroke-width:0.25px;}.cls-10{fill:#724534;}.cls-11{fill:#56352a;}.cls-12{fill:#42627b;}.cls-13{fill:#727272;}.cls-14{fill:#848484;}.cls-15{fill:#83932a;}.cls-16{fill:#4c6b7f;}.cls-17{fill:#fff;}.cls-18{fill:#b5b5b5;}.cls-19{fill:#afa633;}.cls-20{fill:#e1e2dc;}</style></defs><g id="Objects"><rect class="cls-1" y="112.53" width="683.01" height="122.97"/><path class="cls-2" d="M524.88,195.62c-5.3.76-7.47,4.92-13.39,5-3.05,0-6.21-.06-9.34-.22l.52,3.3c1.55.22,2.95.39,4,.43,7,.2,20.65,2.44,26.2-2a32.33,32.33,0,0,0-14.24-.5C521.11,199.92,525,198.66,524.88,195.62Z"/><path class="cls-2" d="M499.81,198.2c2.88-1.63,5.67-3.63,8.69-4.94,3.86-1.66,7.76-3.15,11.76-4.76-4-.86-8.22.65-11.55,2.37,1.48-3,4.86-5.53,6-8.74-6.06,1.23-8.18,7.16-12.41,10.49a48.7,48.7,0,0,1-7.41,4.44Z"/><rect class="cls-3" width="683.01" height="116.17"/><path class="cls-2" d="M283,154.7c16.05-4.62,33-.28,49.21,4,2.49.67,8.88,3.34,11.3,2.94,4-.66,3.93-5.63,3.8-8.52-.27-5.91-2.61-4.88-8.53-4.5-5.35.35-11.2-.57-16.61-1.08a140.87,140.87,0,0,1-29.71-6.22c-5.05-1.64-8.8-2.67-9.63-7.74-.79-4.8-.32-9-3.26-13.65a24.17,24.17,0,0,0-.84,10.36c-1.51-3.1-4.19-5.63-6.28-8.53,3.17-3.2.11-10.81-2.78-13.91.81,3.4.05,7.18.45,10.55-4.71-4.85-9.19-9.61-15.89-12.43,10.13,7.94,20.86,19.35,26.07,29.9-5.74-4.29-10.3-9.35-15.82-13.72-2.3-1.81-5.39-2.85-7.42-4.54-2.19-1.84-2.1-5.06-6.15-5.6a15,15,0,0,1,3,5.22c-3.75-3.22-11.71-5.55-16.72-4.94,9,4.73,19.42,7.63,27.27,14.39-4.4-1.19-10.52-3.22-14.92-2-2.25-3.06-8-4.62-12.07-4.51,2.17,1,6.56,3.13,8.16,4-4.64-1.07-10.47.83-14.15,2.71,5.88.1,14-1.52,19.72-.17-.33,2.42-2.85,3.95-5.48,4.8,3.11.73,4.16-.87,6.55-1.81,3-1.17,3.5-1.88,7.43-1.46a21.5,21.5,0,0,1,13.21,6.11c-2.16.24-4.1.37-5.92,1.35,5.78.68,6.9.47,10.8,4.15,2.28,2.16,5.94,4.36,6.71,7.19a63.39,63.39,0,0,0-11.72-2.47c.2-4.66-12.94-11.17-17.66-11.38,5.83,1.63,10.1,5.3,14.16,9.27-4.91-1.2-11.48-.73-16.36-.64,4.31,2,10.5,2,15.18,3,4.91,1.15,9.41,2.82,14.09,4.13-.18,8.29-14.65,2.85-20.56,2.29-7-.66-20.44-3.8-26.27.31a32.56,32.56,0,0,0,14.18,1.44c-2.55,1.49-6.48,2.49-6.6,5.53,5.35-.41,7.78-4.41,13.69-4.09,5.06.27,10.4.89,15.37,1.64-4.41,1.26-8.45,4.31-12.87,5.89-4,1.4-8,2.63-12,4,3.94,1.13,8.24-.11,11.68-1.6-1.67,2.84-5.21,5.19-6.61,8.32,6.13-.82,8.64-6.6,13.08-9.64,3.61-2.48,9.27-4.52,13.46-6.48,4.71,6.32-5.84,13.79-6.72,19.2,2-3.62,5.82-6.21,7.57-9.86,2.26,1.94,4.92,4.61,7.72,5.56a21.45,21.45,0,0,1-5-6.32c-.9-1.94.57-5.14,0-7.16Z"/><rect class="cls-1" y="306.17" width="683.01" height="112.29"/><path class="cls-4" d="M375.45,56.1A15.39,15.39,0,0,0,382.4,73a15.4,15.4,0,0,0,8.52,28.13,15.41,15.41,0,0,0,21.7,19.83,15.39,15.39,0,0,0,24.53,10.8,15.38,15.38,0,0,0,24.77-10.21,15.4,15.4,0,0,0,22.16-19.31,15.4,15.4,0,0,0,9.18-27.92,15.4,15.4,0,0,0-6.36-28.69,15.41,15.41,0,0,0-20.14-21.42A15.4,15.4,0,0,0,438.52,16a15.4,15.4,0,0,0-28.43,7.45,15.4,15.4,0,0,0-20.64,20.93A15.4,15.4,0,0,0,375.45,56.1Z"/><path class="cls-5" d="M429.31,206.86c2.14,3.55,10.59,3.89,14.56,1.82,4.13-2.14,2.37-10.85,2-15.81-.89-10.88-3.76-21.82-4.28-32.63-.41-8.71-1-16.73-1.56-25.25-.27-3.82-1.89-7.28.35-10.7,2.06-3.16,6.68-5.76,9.47-8.12,6.21-5.24,20-18.22,15.82-27.23-7.09,3.24-10.57,12.77-15.81,18.39-4.36,4.66-5.69,2.92-3.9-3.06s3.81-11.69,4.76-18c.34-2.24,2.4-14.11-2-13.38-3.79.63-5.85,11.58-6.27,14.47-.7,4.85,1,20-4.77,21.8-4.67-4.82-3-14.29-4.84-20.36-.93-3-7.65-17.85-11.91-11.61-2.61,3.82,3.25,13.17,4.89,16.53,2.75,5.67,5.44,11.44,4.89,17.87-6.09.16-10.78-9.78-16.41-9.18-6.69.72,2.38,9.34,4.92,11.22,3.48,2.58,8.75,3.12,11.2,6.65,1.8,2.62,1.82,8.58,1.82,11.78,0,9.14-.49,18.29-.49,27.69,0,10.66,1.43,20.57-.62,31.09-.54,2.77-1.61,6.59-1.81,8.72C429.15,201.39,428.38,205.3,429.31,206.86Z"/><path class="cls-4" d="M555.78,56.1a15.39,15.39,0,0,0,7,16.85,15.4,15.4,0,0,0,8.52,28.13A15.41,15.41,0,0,0,593,120.91a15.39,15.39,0,0,0,24.53,10.8,15.38,15.38,0,0,0,24.77-10.21,15.4,15.4,0,0,0,22.16-19.31,15.4,15.4,0,0,0,9.18-27.92,15.4,15.4,0,0,0-6.36-28.69,15.41,15.41,0,0,0-20.14-21.42A15.4,15.4,0,0,0,618.85,16a15.4,15.4,0,0,0-28.43,7.45,15.4,15.4,0,0,0-20.64,20.93A15.4,15.4,0,0,0,555.78,56.1Z"/><path class="cls-5" d="M609.64,206.86c2.14,3.55,10.59,3.89,14.56,1.82,4.13-2.14,2.37-10.85,2-15.81-.89-10.88-3.76-21.82-4.28-32.63-.41-8.71-1-16.73-1.56-25.25-.27-3.82-1.89-7.28.35-10.7,2.06-3.16,6.68-5.76,9.47-8.12,6.21-5.24,20-18.22,15.82-27.23-7.09,3.24-10.57,12.77-15.81,18.39-4.36,4.66-5.69,2.92-3.9-3.06s3.81-11.69,4.76-18c.34-2.24,2.4-14.11-2-13.38-3.79.63-5.85,11.58-6.27,14.47-.7,4.85,1,20-4.77,21.8-4.67-4.82-3-14.29-4.84-20.36-.93-3-7.65-17.85-11.91-11.61-2.61,3.82,3.25,13.17,4.89,16.53,2.75,5.67,5.44,11.44,4.89,17.87-6.09.16-10.78-9.78-16.41-9.18-6.69.72,2.38,9.34,4.92,11.22,3.48,2.58,8.75,3.12,11.2,6.65,1.8,2.62,1.82,8.58,1.82,11.78,0,9.14-.49,18.29-.49,27.69,0,10.66,1.43,20.57-.62,31.09-.54,2.77-1.61,6.59-1.81,8.72C609.48,201.39,608.71,205.3,609.64,206.86Z"/><path class="cls-5" d="M368.94,99.18c-.88,21.93-2.11,44-3.95,65.89-.69,8.3-2.55,13.15,4.4,15.81,3.6,1.37,20.29,2.57,23.9.83,7.92-3.84,1.57-24.1.27-32.17-1.52-9.43-2.37-27.46-6.21-34Z"/><path class="cls-6" d="M376-8.65c-12.08,15.79-30.44,33-36.16,52.24,6.77,2.21,13.38.21,20.19.12-.84,7.18-9.26,15.09-12.63,21.95-4.35,8.88-7.19,18.46-11.15,27.27,6.5,2.68,15-.14,21.34-2.31-1.88,11.28-12.48,20.79-15.7,32.15-4.87,17.15,2.53,15.84,16.06,13.78,12.27-1.88,24.49,0,36.91-.16,7.32-.09,20.58,2,27.15-.88-5.24-14.2-22-24.11-28.21-37.95,8.67-2.63,38.51-.2,25.9-15.4-7.91-9.54-19.06-17.83-28.54-26.15,3.75-3.63,13.12-2,16.07-6.61,4-6.28-5.94-15.74-8.79-20.53-4-6.79-15.88-29.19-22.44-37.52Z"/><path class="cls-5" d="M555.67,130.11c-.88,21.92-2.11,44-3.94,65.89-.7,8.29-2.56,13.15,4.39,15.8,3.6,1.38,20.29,2.57,23.9.83,7.92-3.83,1.58-24.1.28-32.16-1.52-9.44-2.38-27.46-6.22-34.05Z"/><path class="cls-6" d="M562.72,22.27c-12.07,15.79-30.44,33-36.16,52.25,6.78,2.2,13.38.2,20.19.12-.84,7.17-9.26,15.08-12.63,22-4.35,8.87-7.18,18.45-11.15,27.26,6.5,2.69,15-.14,21.34-2.31-1.88,11.29-12.47,20.8-15.7,32.15-4.87,17.16,2.53,15.85,16.07,13.78,12.26-1.87,24.48,0,36.9-.16,7.32-.08,20.58,2,27.15-.87-5.24-14.2-22-24.12-28.21-38,8.67-2.62,38.52-.2,25.91-15.4-7.92-9.54-19.07-17.83-28.55-26.15,3.75-3.62,13.12-2,16.07-6.6,4-6.29-5.94-15.74-8.79-20.54-4-6.78-15.88-29.19-22.44-37.52Z"/><path class="cls-5" d="M34.39,121.61c-.87,21.93-2.11,44-3.94,65.89-.7,8.3-2.55,13.15,4.4,15.8,3.6,1.38,20.29,2.58,23.89.83C66.67,200.3,60.32,180,59,172c-1.52-9.44-2.38-27.46-6.22-34.05Z"/><path class="cls-6" d="M41.45,13.77C29.37,29.56,11,46.75,5.29,66c6.77,2.2,13.37.2,20.18.12-.83,7.17-9.26,15.09-12.62,22C8.5,97,5.66,106.54,1.69,115.36,8.2,118,16.73,115.21,23,113c-1.89,11.29-12.48,20.8-15.7,32.15C2.47,162.35,9.87,161,23.4,159c12.27-1.87,24.49,0,36.9-.16,7.32-.08,20.58,2,27.15-.87-5.23-14.2-22-24.12-28.2-38,8.67-2.62,38.51-.2,25.9-15.4-7.91-9.53-19.07-17.83-28.54-26.15,3.74-3.62,13.11-2,16.06-6.6,4-6.29-5.93-15.74-8.79-20.54-4-6.78-15.88-29.18-22.43-37.52Z"/><path class="cls-7" d="M512.55,122.6c-2,5.08-9.12,8.29-14.59,6.89-3.47-.9-4.73-4.75-7.74-5.86-4.86-1.78-3.44.07-7.71.47-7.55.72-11.63,1.79-17.82-5.12-4.53-5.06-4.68-11.19-8-15.9-4.6-6.6-12.15-11-13.73-20-1.35-7.68,3.49-9,5.26-14.52,2.47-7.8-1.86-16.83,1.63-24.91,1.89-4.37,9.7-14.06,14.44-7.17.29-15.64,15.38-25.24,29.38-22.37C497.87-.5,526.86-6,534,8.58c13.13-8.74,31.94,5.7,26.68,20.33C573.17,25.11,582,40,581.2,51c-.54,7.81-7.64,10.38-8.64,15.86-.93,5.12,5.91,13.6,4.37,20.62S570.2,98.63,563.12,98c2.8,15.35-6.74,31.06-23.82,25.51-1.65,12.4-21.72,6.37-25-.09Z"/><path class="cls-2" d="M499.29,110.62c8.92,17.09,6.27,36.58,3.5,55.16-.43,2.86-2.78,10.34-1.82,13,1.58,4.33,8.07,3.51,11.83,2.92,7.69-1.19,5.92-3.63,4.36-10.13-1.4-5.88-1.25-12.5-1.55-18.57a133.77,133.77,0,0,1,2.85-33.88c1.24-5.84,1.92-10.15,8.41-11.84,6.14-1.61,11.68-1.71,17.3-5.68a37.53,37.53,0,0,0-13.72.63c3.79-2.14,6.62-5.49,10-8.24,4.76,3,14.18-1.52,17.72-5.19-4.3,1.41-9.39,1.14-13.73,2.09,5.51-6,10.95-11.64,13.44-19.49-8.59,12.43-21.61,26.05-34.51,33.42,4.6-7,10.42-12.83,15.14-19.61,2-2.82,2.77-6.41,4.63-8.91,2-2.71,6.25-3.1,6.24-7.67a19.75,19.75,0,0,1-6.31,4.09c3.55-4.64,5.17-13.81,3.48-19.27-4.58,10.67-6.52,22.67-14,32.4.78-5.06,2.35-12.15-.06-16.84,3.62-3,4.63-9.56,3.77-14.06-.91,2.56-2.94,7.75-3.82,9.65.58-5.29-3-11.47-6.08-15.26.92,6.52,4.5,15.28,3.75,21.82-3.22,0-5.69-2.55-7.27-5.34-.39,3.55,1.89,4.48,3.55,7,2.06,3.11,3.09,3.6,3.24,8,.21,6.29-1.76,10.83-5.65,15.56-.69-2.36-1.22-4.48-2.82-6.36.14,6.51.61,7.73-3.51,12.6-2.42,2.86-4.65,7.25-8.22,8.53a59.53,59.53,0,0,0,1.14-13.36c6.15-.49,12.32-16,11.75-21.31-1.09,6.72-5.13,12-9.61,17.1.7-5.62-1.09-12.82-2.08-18.22-1.86,5.08-.68,11.93-1.27,17.28-.62,5.61-2,10.86-2.9,16.24-10.88,1.05-6.35-15.81-6.67-22.44-.38-7.85,1.33-23.23-5.09-29.07a31,31,0,0,0,.64,15.93C493,70.67,491,66.47,487,66.8c1.49,5.86,7.17,8,7.81,14.55a158.64,158.64,0,0,1,.59,17.28c-2.44-4.69-7.15-8.71-10-13.37-2.55-4.17-4.87-8.41-7.36-12.75-.77,4.55,1.62,9.12,4.19,12.7-4-1.41-7.73-5-12.08-6.06,2.18,6.67,10.19,8.58,15,13,3.89,3.63,7.57,9.6,10.89,13.94-7.44,6.17-19.11-4.39-26.35-4.54,5.1,1.68,9.18,5.51,14.26,6.89-2.13,2.81-5.15,6.15-5.89,9.4a26.3,26.3,0,0,1,7.37-6.54c2.39-1.29,6.84-.14,9.37-1.1Z"/><path class="cls-4" d="M258.63,56.1a15.41,15.41,0,0,0,7,16.85,15.4,15.4,0,0,0,8.52,28.13,15.4,15.4,0,0,0,21.69,19.83,15.39,15.39,0,0,0,24.53,10.8,15.39,15.39,0,0,0,24.78-10.21,15.4,15.4,0,0,0,22.16-19.31,15.4,15.4,0,0,0,9.18-27.92,15.4,15.4,0,0,0-6.37-28.69A15.4,15.4,0,0,0,350,24.16,15.4,15.4,0,0,0,321.7,16a15.4,15.4,0,0,0-28.43,7.45,15.4,15.4,0,0,0-20.63,20.93A15.42,15.42,0,0,0,258.63,56.1Z"/><path class="cls-5" d="M312.5,206.86c2.13,3.55,10.59,3.89,14.55,1.82,4.13-2.14,2.38-10.85,2-15.81-.88-10.88-3.76-21.82-4.27-32.63-.42-8.71-1-16.73-1.57-25.25-.27-3.82-1.89-7.28.36-10.7,2.06-3.16,6.67-5.76,9.46-8.12,6.21-5.24,20-18.22,15.82-27.23-7.09,3.24-10.57,12.77-15.81,18.39-4.35,4.66-5.68,2.92-3.89-3.06s3.81-11.69,4.76-18c.33-2.24,2.39-14.11-2-13.38-3.8.63-5.86,11.58-6.28,14.47-.7,4.85,1.05,20-4.77,21.8-4.67-4.82-3-14.29-4.83-20.36-.94-3-7.66-17.85-11.92-11.61C301.49,81,307.36,90.38,309,93.74c2.76,5.67,5.44,11.44,4.89,17.87-6.08.16-10.77-9.78-16.41-9.18-6.68.72,2.39,9.34,4.93,11.22,3.48,2.58,8.74,3.12,11.19,6.65,1.8,2.62,1.82,8.58,1.82,11.78,0,9.14-.48,18.29-.48,27.69,0,10.66,1.43,20.57-.62,31.09-.54,2.77-1.62,6.59-1.81,8.72C312.33,201.39,311.56,205.3,312.5,206.86Z"/><rect class="cls-8" y="235.06" width="683.01" height="71.11"/><path class="cls-9" d="M60.82,359.42c-.92,2.4-4.3,3.91-6.88,3.25-1.64-.42-2.24-2.24-3.66-2.76-2.29-.84-1.62,0-3.64.22-3.56.34-5.49.84-8.41-2.42-2.14-2.39-2.21-5.28-3.76-7.51-2.17-3.11-5.73-5.2-6.48-9.42-.64-3.63,1.65-4.23,2.48-6.86,1.17-3.68-.87-7.94.77-11.76.89-2.06,4.58-6.64,6.82-3.38.13-7.39,7.26-11.92,13.87-10.56,2-6.91,15.65-9.53,19-2.63,6.2-4.13,15.08,2.69,12.6,9.6,5.9-1.79,10,5.23,9.69,10.42-.25,3.69-3.6,4.9-4.08,7.49-.44,2.42,2.8,6.42,2.07,9.73a5.94,5.94,0,0,1-6.52,5c1.32,7.24-3.19,14.66-11.25,12-.78,5.85-10.25,3-11.82,0Z"/><path class="cls-9" d="M91.23,382c-.93,2.39-4.31,3.91-6.89,3.25-1.64-.43-2.24-2.24-3.66-2.77-2.29-.84-1.62,0-3.63.22-3.57.34-5.5.85-8.42-2.41-2.14-2.39-2.21-5.29-3.76-7.51-2.17-3.11-5.73-5.2-6.48-9.43-.64-3.62,1.65-4.23,2.48-6.85,1.17-3.68-.87-7.95.77-11.76.89-2.06,4.59-6.64,6.82-3.39.14-7.38,7.26-11.91,13.87-10.56,2-6.91,15.65-9.53,19-2.62,6.2-4.13,15.08,2.69,12.59,9.6,5.9-1.8,10,5.23,9.7,10.42-.26,3.69-3.61,4.9-4.08,7.49-.44,2.41,2.79,6.42,2.06,9.73a5.93,5.93,0,0,1-6.52,5c1.32,7.25-3.18,14.66-11.24,12-.79,5.86-10.26,3-11.82,0Z"/><path class="cls-9" d="M141.1,390.29c-.92,2.39-4.3,3.91-6.88,3.25-1.64-.43-2.24-2.25-3.66-2.77-2.29-.84-1.62,0-3.64.22-3.56.34-5.49.85-8.41-2.41-2.14-2.39-2.21-5.29-3.76-7.51-2.17-3.12-5.73-5.21-6.48-9.43-.64-3.62,1.65-4.23,2.48-6.86,1.17-3.67-.87-7.94.77-11.75.89-2.07,4.58-6.64,6.82-3.39.13-7.38,7.26-11.91,13.87-10.56,2-6.91,15.65-9.53,19-2.62,6.2-4.13,15.08,2.69,12.6,9.6,5.9-1.8,10.05,5.22,9.69,10.42-.25,3.69-3.6,4.9-4.08,7.49-.44,2.41,2.8,6.42,2.07,9.73a5.94,5.94,0,0,1-6.52,5c1.32,7.25-3.19,14.66-11.25,12-.78,5.86-10.25,3-11.82,0Z"/><path class="cls-9" d="M659.41,230.32c-.93,2.39-4.31,3.91-6.89,3.24-1.64-.42-2.24-2.24-3.66-2.76-2.29-.84-1.62,0-3.63.22-3.57.34-5.5.85-8.42-2.41-2.14-2.39-2.21-5.29-3.76-7.51-2.17-3.12-5.73-5.21-6.47-9.43-.65-3.62,1.64-4.23,2.48-6.86,1.16-3.67-.88-7.94.77-11.75.89-2.07,4.58-6.64,6.81-3.39.14-7.38,7.26-11.91,13.88-10.56,2-6.91,15.64-9.53,19-2.62,6.2-4.13,15.08,2.69,12.6,9.6,5.9-1.8,10,5.22,9.69,10.42-.26,3.69-3.61,4.9-4.08,7.49-.44,2.41,2.79,6.42,2.06,9.73a5.92,5.92,0,0,1-6.52,5c1.32,7.25-3.18,14.66-11.24,12-.78,5.86-10.26,3-11.82,0Z"/><rect class="cls-10" x="382.8" y="215.4" width="125.21" height="15.21" rx="1.76"/><rect class="cls-11" x="388.14" y="216.82" width="23.34" height="0.3"/><rect class="cls-11" x="398.18" y="218.13" width="23.34" height="0.3"/><rect class="cls-11" x="407.75" y="219.44" width="23.34" height="0.3"/><rect class="cls-11" x="456.39" y="228.88" width="23.34" height="0.3"/><rect class="cls-11" x="483.75" y="226.63" width="13.57" height="0.17"/><rect class="cls-11" x="470.77" y="227.31" width="13.57" height="0.17"/><rect class="cls-10" x="382.8" y="205.06" width="125.21" height="15.21" rx="1.76"/><rect class="cls-11" x="388.14" y="206.48" width="23.34" height="0.3"/><rect class="cls-11" x="398.18" y="207.79" width="23.34" height="0.3"/><rect class="cls-11" x="407.75" y="209.1" width="23.34" height="0.3"/><rect class="cls-11" x="456.39" y="218.54" width="23.34" height="0.3"/><rect class="cls-11" x="483.75" y="216.29" width="13.57" height="0.17"/><rect class="cls-11" x="470.77" y="216.97" width="13.57" height="0.17"/><rect class="cls-10" x="382.8" y="190.46" width="125.21" height="15.21" rx="1.76"/><rect class="cls-11" x="388.14" y="191.89" width="23.34" height="0.3"/><rect class="cls-11" x="398.18" y="193.2" width="23.34" height="0.3"/><rect class="cls-11" x="407.75" y="194.5" width="23.34" height="0.3"/><rect class="cls-11" x="456.39" y="203.95" width="23.34" height="0.3"/><rect class="cls-11" x="483.75" y="201.69" width="13.57" height="0.17"/><rect class="cls-11" x="470.77" y="202.37" width="13.57" height="0.17"/><rect class="cls-10" x="382.8" y="175.26" width="125.21" height="15.21" rx="1.76"/><rect class="cls-11" x="388.14" y="176.68" width="23.34" height="0.3"/><rect class="cls-11" x="398.18" y="177.99" width="23.34" height="0.3"/><rect class="cls-11" x="407.75" y="179.3" width="23.34" height="0.3"/><rect class="cls-11" x="456.39" y="188.74" width="23.34" height="0.3"/><rect class="cls-11" x="483.75" y="186.49" width="13.57" height="0.17"/><rect class="cls-11" x="470.77" y="187.17" width="13.57" height="0.17"/><rect class="cls-10" x="382.8" y="165.42" width="125.21" height="15.21" rx="1.76"/><rect class="cls-11" x="388.14" y="166.84" width="23.34" height="0.3"/><rect class="cls-11" x="398.18" y="168.15" width="23.34" height="0.3"/><rect class="cls-11" x="407.75" y="169.45" width="23.34" height="0.3"/><rect class="cls-11" x="456.39" y="178.9" width="23.34" height="0.3"/><rect class="cls-11" x="483.75" y="176.64" width="13.57" height="0.17"/><rect class="cls-11" x="470.77" y="177.33" width="13.57" height="0.17"/><rect class="cls-10" x="382.8" y="185.74" width="125.21" height="15.21" rx="1.76"/><rect class="cls-11" x="388.14" y="187.17" width="23.34" height="0.3"/><rect class="cls-11" x="398.18" y="188.47" width="23.34" height="0.3"/><rect class="cls-11" x="407.75" y="189.78" width="23.34" height="0.3"/><rect class="cls-11" x="456.39" y="199.23" width="23.34" height="0.3"/><rect class="cls-11" x="483.75" y="196.97" width="13.57" height="0.17"/><rect class="cls-11" x="470.77" y="197.65" width="13.57" height="0.17"/><path class="cls-12" d="M326.23,261.91l1.11-.07,56.25-3.58V233.58a10.56,10.56,0,0,0-4.39-2c-4.28-.87-5.09-3.07-5.05-6.93.15-16.66.11-33.32,0-50,0-6.4-2.14-8.58-8.3-8.64-9.67-.09-19.33-.07-29,0-5.91,0-10.53,2.38-13.66,7.66-4.16,7-8.09,14.25-13,20.75-6.74,9-11.05,18.3-9,29.77.36,2,.52,4,.76,5.94.52,4.45.17,8.63-3.34,12-3.82,3.67-4.52,8.22-2.51,12.86,2.1,4.86,6.15,7.17,11.59,7.06C313.91,262,320.12,262.49,326.23,261.91Zm-6.16-69.06c3.26-5,6.22-10.33,10.09-14.86a14.34,14.34,0,0,1,8.66-4.63c7.27-.67,14.65-.12,22-.26,4.45-.09,6.46,1.94,6.44,6.28,0,4.16-.06,8.33,0,12.49.09,4.5-2.16,6.27-6.49,6.19-6.16-.11-12.33,0-18.5,0-6.5,0-13,.09-19.49,0C318.38,197.91,317.7,196.53,320.07,192.85Z"/><rect class="cls-12" x="319.53" y="231.72" width="198.83" height="29.28"/><circle class="cls-13" cx="335.09" cy="265.11" r="22.17"/><circle class="cls-14" cx="335.09" cy="265.11" r="15.07"/><circle class="cls-13" cx="494.88" cy="265.11" r="22.17"/><rect class="cls-12" x="397.48" y="168.52" width="5.57" height="68.04"/><rect class="cls-12" x="492.09" y="168.52" width="5.57" height="68.04"/><path class="cls-15" d="M301.74,227.78s11.43-1.52,11.43,1.46v3.22s.71.93-11,1.15c-.86,0-.89-5.58-.89-5.58S301.36,227.82,301.74,227.78Z"/><path class="cls-16" d="M365.58,171H350.42s-3.16.68-4.43,2.81c-1.37,2.31-2.34,3.13-3.26,5.69S337,193.82,337,193.82s-1,1.16-.62,6,.67,28.73.67,28.73-.51,7.1,4.94,7.35,20.05-.6,20.05-.6h3.52s4,.68,3.88-7.66-.66-32.11-.66-32.11l.1-20.23S368.64,171,365.58,171Z"/><path class="cls-17" d="M342.27,198c-6.5,0-13,.1-19.49,0-4.4-.09-5.08-1.47-2.71-5.15,3.26-5,6.22-10.33,10.09-14.86a14.34,14.34,0,0,1,8.66-4.63c7.27-.67,14.65-.12,22-.26,4.45-.09,6.46,1.94,6.44,6.28,0,4.16-.06,8.33,0,12.49.09,4.5-2.16,6.27-6.49,6.19C354.61,198,348.44,198,342.27,198Z"/><polygon class="cls-16" points="337.98 198.05 348.22 173.02 346.55 173.02 336.31 198.07 337.98 198.05"/><circle class="cls-14" cx="494.88" cy="265.11" r="15.07"/><circle class="cls-18" cx="335.09" cy="265.11" r="3"/><circle class="cls-18" cx="494.88" cy="265.11" r="3"/><polygon class="cls-19" points="404 165.48 402.1 165.48 399.29 168.2 401.19 168.2 404 165.48"/><polygon class="cls-19" points="498.54 165.63 496.64 165.63 493.83 168.35 495.74 168.35 498.54 165.63"/><path class="cls-12" d="M518.36,256h1.1s1.43-.17,1.49,1.82a19.07,19.07,0,0,1,0,2.25.88.88,0,0,1-1.05.93,5.67,5.67,0,0,0-1.54,0Z"/><path class="cls-12" d="M517.06,236.26h1.1s1.43.15,1.48-1.65a13.25,13.25,0,0,0,0-2.05s.06-.93-1-.84a5.67,5.67,0,0,1-1.54,0Z"/><path class="cls-9" d="M163.33,172.78c-.93,2.4-4.31,3.91-6.89,3.25-1.64-.42-2.24-2.24-3.66-2.76-2.29-.85-1.62,0-3.63.22-3.57.34-5.5.84-8.42-2.42-2.14-2.39-2.21-5.28-3.76-7.51-2.17-3.11-5.73-5.2-6.48-9.42-.64-3.63,1.65-4.23,2.48-6.86,1.17-3.68-.87-7.94.77-11.76.89-2.06,4.59-6.64,6.82-3.38.14-7.39,7.26-11.92,13.87-10.56,2-6.92,15.65-9.53,19-2.63,6.2-4.13,15.08,2.69,12.59,9.6,5.9-1.79,10.05,5.23,9.7,10.42-.26,3.69-3.61,4.9-4.08,7.49-.44,2.42,2.79,6.42,2.06,9.73a5.93,5.93,0,0,1-6.52,5c1.32,7.25-3.18,14.67-11.24,12-.79,5.85-10.26,3-11.82,0Z"/><path class="cls-9" d="M118.41,187.17c-.92,2.39-4.31,3.91-6.89,3.24-1.64-.42-2.23-2.24-3.65-2.76-2.3-.84-1.63,0-3.64.22-3.57.34-5.5.85-8.42-2.42-2.13-2.38-2.2-5.28-3.76-7.5-2.17-3.12-5.73-5.21-6.47-9.43-.64-3.62,1.64-4.23,2.48-6.86,1.16-3.68-.88-7.94.77-11.75.89-2.07,4.58-6.64,6.81-3.39.14-7.38,7.26-11.92,13.88-10.56,2-6.91,15.64-9.53,19-2.63,6.2-4.12,15.08,2.69,12.6,9.6,5.9-1.79,10.05,5.23,9.69,10.43-.26,3.68-3.61,4.9-4.08,7.48-.44,2.42,2.79,6.43,2.06,9.74a5.93,5.93,0,0,1-6.52,5c1.32,7.25-3.18,14.66-11.24,12-.78,5.86-10.26,3-11.82,0Z"/><path class="cls-9" d="M204.77,187.17c-.93,2.39-4.31,3.91-6.89,3.24-1.64-.42-2.24-2.24-3.66-2.76-2.29-.84-1.62,0-3.63.22-3.57.34-5.5.85-8.42-2.42-2.14-2.38-2.21-5.28-3.76-7.5-2.17-3.12-5.73-5.21-6.48-9.43-.64-3.62,1.65-4.23,2.48-6.86,1.17-3.68-.87-7.94.78-11.75.89-2.07,4.58-6.64,6.81-3.39.14-7.38,7.26-11.92,13.87-10.56,2-6.91,15.65-9.53,19-2.63,6.2-4.12,15.08,2.69,12.6,9.6,5.89-1.79,10,5.23,9.69,10.43-.26,3.68-3.61,4.9-4.08,7.48-.44,2.42,2.79,6.43,2.06,9.74a5.93,5.93,0,0,1-6.52,5c1.32,7.25-3.18,14.66-11.24,12-.78,5.86-10.26,3-11.82,0Z"/><path class="cls-4" d="M78.3,56.1a15.41,15.41,0,0,0,7,16.85,15.4,15.4,0,0,0,8.52,28.13,15.4,15.4,0,0,0,21.69,19.83A15.39,15.39,0,0,0,140,131.71a15.39,15.39,0,0,0,24.78-10.21,15.4,15.4,0,0,0,22.16-19.31,15.4,15.4,0,0,0,9.18-27.92,15.4,15.4,0,0,0-6.37-28.69,15.4,15.4,0,0,0-20.13-21.42A15.4,15.4,0,0,0,141.37,16a15.4,15.4,0,0,0-28.43,7.45A15.4,15.4,0,0,0,92.31,44.42,15.42,15.42,0,0,0,78.3,56.1Z"/><path class="cls-5" d="M132.17,206.86c2.13,3.55,10.59,3.89,14.55,1.82,4.13-2.14,2.38-10.85,2-15.81-.88-10.88-3.76-21.82-4.27-32.63-.42-8.71-1-16.73-1.57-25.25-.27-3.82-1.89-7.28.36-10.7,2.06-3.16,6.67-5.76,9.46-8.12,6.21-5.24,20-18.22,15.82-27.23-7.09,3.24-10.57,12.77-15.81,18.39-4.35,4.66-5.68,2.92-3.89-3.06s3.81-11.69,4.76-18c.33-2.24,2.39-14.11-2-13.38-3.8.63-5.86,11.58-6.28,14.47-.7,4.85,1.05,20-4.77,21.8-4.67-4.82-3-14.29-4.83-20.36-.94-3-7.66-17.85-11.92-11.61C121.16,81,127,90.38,128.66,93.74c2.76,5.67,5.44,11.44,4.89,17.87-6.08.16-10.77-9.78-16.41-9.18-6.68.72,2.39,9.34,4.93,11.22,3.48,2.58,8.74,3.12,11.19,6.65,1.8,2.62,1.82,8.58,1.82,11.78,0,9.14-.48,18.29-.48,27.69,0,10.66,1.43,20.57-.62,31.09-.54,2.77-1.62,6.59-1.81,8.72C132,201.39,131.23,205.3,132.17,206.86Z"/><path class="cls-7" d="M226.37,137.61c-2,5.08-9.13,8.29-14.59,6.89-3.47-.9-4.74-4.75-7.75-5.86-4.86-1.78-3.43.07-7.7.47-7.55.72-11.64,1.79-17.83-5.12-4.52-5.06-4.67-11.19-8-15.9-4.6-6.6-12.14-11-13.72-20-1.36-7.68,3.49-9,5.25-14.52,2.48-7.8-1.85-16.83,1.64-24.91,1.88-4.37,9.7-14.06,14.43-7.17.29-15.64,15.38-25.24,29.39-22.37,4.15-14.64,33.14-20.18,40.28-5.56,13.13-8.74,31.94,5.7,26.68,20.33C287,40.12,295.78,55,295,66c-.54,7.81-7.64,10.38-8.64,15.86-.94,5.12,5.91,13.6,4.37,20.62-1.52,6.87-6.73,11.16-13.81,10.57,2.79,15.35-6.75,31.06-23.82,25.51-1.66,12.4-21.72,6.37-25-.09Z"/><path class="cls-2" d="M213.11,125.63c8.91,17.09,6.27,36.58,3.5,55.16-.43,2.86-2.78,10.34-1.83,13,1.58,4.33,8.07,3.51,11.84,2.92,7.69-1.19,5.92-3.63,4.36-10.13-1.41-5.88-1.25-12.5-1.55-18.57a134.23,134.23,0,0,1,2.84-33.88c1.24-5.84,1.92-10.15,8.42-11.84,6.14-1.61,11.68-1.71,17.29-5.68a37.55,37.55,0,0,0-13.72.63c3.8-2.14,6.63-5.49,10.05-8.24,4.76,3,14.18-1.52,17.72-5.19-4.3,1.41-9.39,1.14-13.73,2.09,5.51-6,10.94-11.64,13.43-19.49-8.58,12.43-21.61,26.05-34.5,33.42,4.6-7,10.41-12.83,15.14-19.61,2-2.82,2.77-6.41,4.63-8.91,2-2.71,6.25-3.1,6.23-7.67a19.71,19.71,0,0,1-6.3,4.09c3.54-4.64,5.17-13.81,3.48-19.27-4.58,10.67-6.52,22.67-14,32.4.78-5.06,2.35-12.15-.06-16.84,3.61-2.95,4.63-9.56,3.76-14-.9,2.55-2.93,7.74-3.81,9.64.57-5.29-3-11.47-6.08-15.26.92,6.52,4.5,15.28,3.74,21.82-3.22,0-5.68-2.55-7.26-5.34-.39,3.55,1.89,4.48,3.55,7,2.06,3.11,3.08,3.6,3.23,8,.22,6.29-1.75,10.83-5.64,15.56-.69-2.36-1.22-4.48-2.83-6.36.15,6.51.62,7.73-3.5,12.6-2.42,2.86-4.65,7.25-8.22,8.53a60.12,60.12,0,0,0,1.14-13.36c6.15-.49,12.32-16,11.75-21.31-1.09,6.72-5.14,12-9.61,17.1.7-5.62-1.1-12.82-2.09-18.22-1.85,5.08-.67,11.93-1.26,17.28-.63,5.61-2,10.86-2.9,16.24-10.88,1-6.35-15.8-6.67-22.44-.38-7.85,1.32-23.23-5.1-29.07a31,31,0,0,0,.65,15.93c-2.41-2.6-4.42-6.8-8.42-6.47,1.49,5.86,7.17,8,7.8,14.55a153.76,153.76,0,0,1,.59,17.28c-2.43-4.69-7.15-8.7-10-13.37-2.55-4.17-4.87-8.41-7.36-12.75-.77,4.55,1.62,9.12,4.19,12.71-4-1.42-7.73-5-12.08-6.07,2.18,6.67,10.19,8.58,15,13,3.89,3.63,7.57,9.6,10.89,13.94-7.44,6.17-19.11-4.39-26.36-4.54,5.11,1.68,9.19,5.51,14.27,6.89-2.14,2.81-5.15,6.15-5.9,9.4a26.34,26.34,0,0,1,7.38-6.54c2.38-1.29,6.83-.14,9.37-1.1Z"/><path class="cls-2" d="M443.56,379.59c5.88.1,14-1.53,19.71-.17-.33,2.41-2.84,3.95-5.47,4.8,3.11.72,4.16-.88,6.54-1.82,3-1.17,3.51-1.88,7.44-1.46A21.53,21.53,0,0,1,485,387.06a15.47,15.47,0,0,0-5.93,1.35c5.78.67,6.91.47,10.8,4.15.83.77,1.83,1.56,2.81,2.38l3-6.24a8.21,8.21,0,0,1-.76-2.45c-.79-4.79-.32-9-3.26-13.65a23.87,23.87,0,0,0-.84,10.36c-1.51-3.1-4.2-5.63-6.28-8.52,3.17-3.2.11-10.81-2.79-13.91.82,3.39.06,7.17.46,10.54-4.72-4.85-9.2-9.61-15.89-12.42,10.12,7.93,20.86,19.34,26.07,29.9-5.74-4.29-10.3-9.36-15.82-13.72-2.3-1.82-5.4-2.85-7.42-4.55-2.2-1.84-2.11-5.06-6.16-5.6a14.84,14.84,0,0,1,3,5.22c-3.74-3.22-11.71-5.54-16.72-4.93,9,4.72,19.42,7.62,27.28,14.39-4.4-1.19-10.52-3.23-14.92-2-2.25-3.07-8-4.62-12.07-4.52,2.17,1,6.56,3.14,8.16,4C453.07,375.8,447.24,377.7,443.56,379.59Z"/><path class="cls-2" d="M269,364.64c4.31,2,10.5,1.94,15.18,3,3.41.79,6.63,1.84,9.84,2.85l1-2.12a55.93,55.93,0,0,0-6.18-1c.19-4.67-12.95-11.17-17.67-11.38,5.83,1.63,10.1,5.3,14.16,9.27C280.46,364.08,273.9,364.55,269,364.64Z"/><path class="cls-20" d="M-1.54,7.93V432.59H730V7.93ZM615.67,260.78c3.52,6.29,7.32,13.12,7.27,20-.09,12.47-6.57,21.66-17.42,23,9.09,25.8-.27,56.27-27.72,52.23,1.45,22.14-30.66,18.25-37.7,8.11l-2.85-.93c-1.34,9.47-11.1,17.43-19.76,16.78-5.51-.41-8.64-6.7-13.52-7.63-4.09-.79-5.32-.42-6.44.41-8,18.22-30.38,28.53-59.18,14.92-7.52,20.85-51.79.85-57.47-12l-3.68-2.31c-6,7.92-23.43,10.15-35.56,5.11-7.32-3-9.28-9.79-15.1-13.33-9.18,4.17-21,5.37-35,1.91-3.87,22-50.75,11.31-58.5-.14l-4-1.53c-4.57,9-21.32,14.71-34.08,12.22-8.12-1.59-11.07-8.43-18.1-10.39-11.36-3.17-8,.11-18,.83-17.64,1.27-27.19,3.18-41.65-9.09-10.58-9-10.93-19.87-18.61-28.23C87.86,319,70.23,311.16,66.54,295.28c-3.17-13.63,8.15-15.9,12.28-25.78,5.77-13.83-4.34-29.87,3.81-44.21A42,42,0,0,1,92.7,214.34C87,207.67,81.39,200.8,79.76,190.68c-2.2-13.63,5.65-15.9,8.51-25.78,4-13.83-3-29.87,2.65-44.21,3.06-7.75,15.73-25,23.41-12.72C114.8,80.2,139.26,63.16,162,68.26c6.73-26,53.74-35.83,65.3-9.87A24,24,0,0,1,238,53.94C251.37,44.8,270.6,40.65,289,43.52c9.7-26,77.44-35.83,94.1-9.87,30.68-15.52,74.63,10.11,62.35,36.09,15.74-3.63,28.94,2.37,37.51,11.73a28.06,28.06,0,0,1,4.88-2c12.13-3.79,15,4,24.3,5.89,13,2.57,26.79-6.44,40.4-2.22,7.36,2.28,24.32,13.41,14,22.68a35.22,35.22,0,0,1,16.3,2.08h1.27v.5c15.52,6.63,25.17,24.15,23.51,42,24.3,4,38.2,51.32,15.86,66.13C634.89,230.55,628.7,251.34,615.67,260.78Z"/><rect class="cls-20" x="-1.32" y="-1.32" width="721.32" height="18.17"/></g></svg>