<svg xmlns="http://www.w3.org/2000/svg" xmlns:xlink="http://www.w3.org/1999/xlink" viewBox="0 0 1280.84 1280.84"><defs><style>.cls-1{fill:none;}.cls-2{clip-path:url(#clip-path);}.cls-3{fill:#5f6642;}.cls-4{fill:#4d2408;}.cls-5{fill:#577b93;}.cls-6{fill:#391e04;}.cls-7{fill:#769937;}.cls-8{fill:#74a031;}.cls-9{fill:#648436;}.cls-10{fill:#5a7f2d;}.cls-11{fill:#81aa39;}.cls-12{fill:#747762;}.cls-13{fill:#45823c;}.cls-13,.cls-14,.cls-23{stroke:#000;stroke-miterlimit:10;stroke-width:0.25px;}.cls-14{fill:#724534;}.cls-15{fill:#56352a;}.cls-16{fill:#42627b;}.cls-17{fill:#727272;}.cls-18{fill:#848484;}.cls-19{fill:#83932a;}.cls-20{fill:#4c6b7f;}.cls-21{fill:#fff;}.cls-22{fill:#b5b5b5;}.cls-23{fill:#afa633;}.cls-24{fill:#516d21;}.cls-25{fill:#597a26;}</style><clipPath id="clip-path"><path class="cls-1" d="M1258.29,797.67c-5.34-6.92-12.81-12.39-21.91-16.42a60,60,0,0,0-1.81-19.73c13.54-10.27,21.53-22.92,21.53-36.6,0-13.38-7.63-25.77-20.61-35.91a56.93,56.93,0,0,0,1-9.26c22.65-18.1,28-48.28,13.15-75.4-1-12.39-5.82-25.16-14.87-36.9-12.74-16.54-31.38-28-51.29-33.09-9.92-34.47-41.16-63.46-83.55-79.77-.41-35.13-19.4-63.82-50.28-70.32a64.62,64.62,0,0,0-20.3-.95c-17.62-25.2-51.93-43.38-92.56-47.14-20.66-21.37-57.11-40-101.7-49.35-41.27-8.69-81.22-7.75-111.47.77A177.17,177.17,0,0,0,679,282c-35.54,0-67.27,10-88.17,25.65-1.25.38-2.5.76-3.73,1.16a68.75,68.75,0,0,0-24.24-4.45A69.7,69.7,0,0,0,531.47,312a93.17,93.17,0,0,0-47.74-12.84c-23,0-43.79,8-59,20.86-20.93,4.45-38.77,15.67-50.22,30.82q-2.55.63-5,1.36-3.94-.17-8-.17c-35.54,0-67.27,10-88.16,25.64-35.68,10.55-61,32.18-64.22,57.63a117.86,117.86,0,0,0-31.48,16.38c-38.19,11.3-64.55,35.29-64.55,63.06,0,11.46,4.48,22.27,12.43,31.81-14.23,11-24.56,26.46-28,44.43a66.54,66.54,0,0,0-1.2,13.45C66.68,617,47.21,638.1,47.21,662c0,22.56,17.39,42.63,44.39,55.42-11.49,9.59-18.16,21-18.16,33.23,0,22.69,22.9,42.51,57,53.2,1.19,16.32,4.89,32.69-1.2,47.67-7.43,18.3-27.82,22.51-22.11,47.75,6.65,29.41,38.4,44,57.77,65.64,13.83,15.48,14.45,35.66,33.51,52.27,26.06,22.73,43.27,19.2,75.05,16.85,17.95-1.34,12-7.41,32.43-1.55,12.66,3.64,18,16.31,32.61,19.24,23,4.62,53.17-5.94,61.42-22.62l7.22,2.82c13.95,21.22,98.42,41.06,105.4.27,25.21,6.41,46.5,4.19,63-3.54,10.49,6.55,14,19.06,27.21,24.69,21.85,9.32,53.23,5.21,64.07-9.47l6.64,4.28c10.23,23.75,90,60.8,103.54,22.16,51.89,25.22,92.16,6.13,106.63-27.63,2-1.53,4.23-2.21,11.6-.76,8.79,1.73,14.42,13.38,24.35,14.14,15.62,1.2,33.2-13.53,35.61-31.08l5.14,1.72c12.68,18.78,70.53,26,67.92-15,33.79,5.12,52.37-19.62,55.52-51a254.08,254.08,0,0,0,59.13-21.14c5.3-2.66,10.39-5.46,15.27-8.35,7.88-3,15.74-6.49,23.5-10.4C1249.92,886.4,1284.21,831.31,1258.29,797.67Z"/></clipPath></defs><g id="Objects"><g class="cls-2"><rect class="cls-3" x="-150.65" y="465.14" width="1547.97" height="278.71"/><path class="cls-4" d="M1038.94,653.46c-12,1.72-16.92,11.14-30.34,11.3-6.93.08-14.09-.14-21.19-.51l1.2,7.49a90,90,0,0,0,9.15,1c15.92.46,46.8,5.55,59.37-4.6-9.52-2.79-22.71-3.15-32.28-1.15C1030.39,663.2,1039.12,660.34,1038.94,653.46Z"/><path class="cls-4" d="M982.12,659.29c6.53-3.68,12.85-8.23,19.7-11.19,8.74-3.77,17.59-7.14,26.64-10.79-9.09-2-18.62,1.49-26.17,5.38,3.35-6.68,11-12.53,13.7-19.81-13.75,2.78-18.55,16.22-28.13,23.76-4.54,3.57-10.66,6.9-16.8,10.07Z"/><rect class="cls-5" x="-150.65" y="210.1" width="1547.97" height="263.3"/><path class="cls-4" d="M490.76,560.71c36.37-10.47,74.88-.63,111.54,9.16,5.64,1.51,20.11,7.56,25.6,6.65,9.07-1.5,8.92-12.75,8.61-19.3-.61-13.39-5.9-11.06-19.32-10.19-12.13.78-25.39-1.29-37.65-2.45a318.91,318.91,0,0,1-67.33-14.11c-11.45-3.71-19.94-6.05-21.84-17.54-1.79-10.87-.72-20.31-7.37-30.94a54.38,54.38,0,0,0-1.92,23.48c-3.41-7-9.5-12.76-14.22-19.32,7.18-7.25.24-24.5-6.32-31.52,1.85,7.69.13,16.26,1,23.9-10.68-11-20.83-21.79-36-28.17,22.95,18,47.28,43.85,59.09,67.77-13-9.72-23.35-21.2-35.86-31.09-5.21-4.11-12.23-6.46-16.82-10.31-5-4.16-4.77-11.46-14-12.68a33.93,33.93,0,0,1,6.76,11.82c-8.49-7.29-26.54-12.56-37.89-11.18,20.37,10.7,44,17.28,61.81,32.61-10-2.7-23.85-7.31-33.82-4.51-5.09-6.94-18.12-10.47-27.35-10.24,4.93,2.25,14.88,7.12,18.49,9.12-10.5-2.42-23.72,1.89-32.06,6.15,13.31.23,31.74-3.46,44.68-.38-.75,5.47-6.44,9-12.41,10.87,7,1.65,9.43-2,14.83-4.11,6.73-2.65,7.95-4.26,16.85-3.3,12.68,1.36,21.35,5.94,29.94,13.85-4.9.53-9.29.84-13.42,3.06,13.1,1.54,15.65,1.07,24.47,9.4,5.18,4.9,13.47,9.89,15.23,16.31a142.38,142.38,0,0,0-26.57-5.6c.45-10.58-29.33-25.32-40-25.8,13.22,3.69,22.9,12,32.09,21-11.11-2.72-26-1.65-37.06-1.45,9.77,4.55,23.79,4.41,34.39,6.89,11.14,2.6,21.34,6.38,31.93,9.37-.4,18.77-33.19,6.46-46.58,5.19-15.86-1.51-46.34-8.62-59.54.69,9.31,3.4,22.45,4.63,32.13,3.26-5.77,3.39-14.68,5.66-14.94,12.54,12.1-.92,17.61-10,31-9.28,11.47.62,23.57,2,34.83,3.73-10,2.86-19.13,9.77-29.16,13.34-9,3.19-18,6-27.29,9,8.94,2.55,18.68-.26,26.47-3.64-3.78,6.44-11.82,11.77-15,18.86,13.89-1.87,19.57-15,29.63-21.86,8.19-5.61,21-10.23,30.52-14.68,10.66,14.33-13.24,31.26-15.24,43.53,4.57-8.21,13.2-14.09,17.15-22.35,5.14,4.4,11.15,10.43,17.5,12.59-4.06-3.38-9.17-9.49-11.42-14.32-2-4.4,1.3-11.65,0-16.22Z"/><rect class="cls-3" x="-150.65" y="903.99" width="1547.97" height="254.5"/><path class="cls-6" d="M822.34,678.93c4.84,8,24,8.8,33,4.13,9.36-4.86,5.38-24.59,4.46-35.83-2-24.66-8.52-49.47-9.68-74-.94-19.74-2.19-37.93-3.55-57.23-.61-8.66-4.28-16.49.8-24.26,4.67-7.15,15.13-13,21.46-18.38,14.06-11.88,45.31-41.31,35.85-61.74-16.07,7.35-23.95,29-35.83,41.68C859,463.91,856,460,860,446.41s8.64-26.48,10.79-40.75c.76-5.06,5.42-32-4.49-30.32-8.6,1.43-13.27,26.26-14.22,32.79-1.59,11,2.37,45.31-10.82,49.42-10.57-10.92-6.74-32.39-10.95-46.15-2.11-6.92-17.35-40.46-27-26.32-5.91,8.66,7.38,29.86,11.08,37.47,6.26,12.84,12.33,25.94,11.09,40.5-13.79.37-24.42-22.16-37.19-20.8-15.15,1.62,5.41,21.16,11.16,25.43,7.89,5.84,19.82,7.06,25.37,15.08,4.09,5.91,4.13,19.43,4.13,26.68,0,20.71-1.1,41.45-1.1,62.76,0,24.16,3.24,46.63-1.41,70.47-1.22,6.27-3.66,14.94-4.1,19.75C822,666.53,820.22,675.39,822.34,678.93Z"/><path class="cls-7" d="M700.26,337.24A34.89,34.89,0,0,0,716,375.43a34.91,34.91,0,0,0,19.31,63.76,34.9,34.9,0,0,0,49.16,44.94,34.86,34.86,0,0,0,55.59,24.47,34.86,34.86,0,0,0,56.16-23.15,34.9,34.9,0,0,0,50.22-43.76,34.9,34.9,0,0,0,20.81-63.27,34.9,34.9,0,0,0-14.43-65,34.9,34.9,0,0,0-45.63-48.53,34.91,34.91,0,0,0-64-18.41,34.91,34.91,0,0,0-64.44,16.88A34.91,34.91,0,0,0,732,310.77,34.91,34.91,0,0,0,700.26,337.24Z"/><path class="cls-6" d="M1231,678.93c4.84,8,24,8.8,33,4.13,9.36-4.86,5.38-24.59,4.46-35.83-2-24.66-8.52-49.47-9.68-74-.94-19.74-2.19-37.93-3.55-57.23-.61-8.66-4.28-16.49.8-24.26,4.67-7.15,15.13-13,21.46-18.38,14.06-11.88,45.31-41.31,35.85-61.74-16.07,7.35-23.95,29-35.83,41.68-9.87,10.57-12.88,6.62-8.83-6.93s8.64-26.48,10.79-40.75c.76-5.06,5.42-32-4.49-30.32-8.6,1.43-13.27,26.26-14.22,32.79-1.59,11,2.37,45.31-10.82,49.42-10.57-10.92-6.74-32.39-11-46.15-2.11-6.92-17.35-40.46-27-26.32-5.91,8.66,7.38,29.86,11.08,37.47,6.26,12.84,12.33,25.94,11.09,40.5-13.79.37-24.42-22.16-37.19-20.8-15.15,1.62,5.41,21.16,11.16,25.43,7.89,5.84,19.82,7.06,25.37,15.08,4.09,5.91,4.13,19.43,4.13,26.68,0,20.71-1.1,41.45-1.1,62.76,0,24.16,3.24,46.63-1.41,70.47-1.22,6.27-3.66,14.94-4.1,19.75C1230.67,666.53,1228.92,675.39,1231,678.93Z"/><path class="cls-8" d="M1109,339.43a34.91,34.91,0,0,0,15.77,38.19A34.91,34.91,0,0,0,1144,441.38a34.9,34.9,0,0,0,49.16,44.94,34.86,34.86,0,0,0,55.59,24.47A34.86,34.86,0,0,0,1305,487.64a34.9,34.9,0,0,0,50.22-43.76A34.9,34.9,0,0,0,1376,380.61a34.9,34.9,0,0,0-14.43-65,34.9,34.9,0,0,0-45.63-48.53,34.91,34.91,0,0,0-64-18.41,34.9,34.9,0,0,0-64.43,16.88A34.91,34.91,0,0,0,1140.7,313,34.91,34.91,0,0,0,1109,339.43Z"/><path class="cls-6" d="M685.51,434.88c-2,49.7-4.78,99.76-8.94,149.34C675,603,670.78,614,686.54,620c8.16,3.11,46,5.83,54.16,1.88,17.95-8.69,3.57-54.62.62-72.9-3.44-21.38-5.39-62.23-14.09-77.16Z"/><path class="cls-9" d="M701.5,190.48c-27.38,35.79-69,74.75-82,118.42,15.35,5,30.32.46,45.75.27-1.89,16.25-21,34.19-28.61,49.75-9.86,20.11-16.29,41.82-25.28,61.79,14.74,6.09,34.07-.32,48.37-5.24-4.27,25.58-28.28,47.14-35.58,72.86-11,38.89,5.73,35.92,36.4,31.23,27.8-4.24,55.5,0,83.64-.35,16.59-.19,46.64,4.44,61.54-2-11.88-32.19-49.92-54.66-63.94-86,19.66-5.95,87.29-.45,58.71-34.9-17.93-21.62-43.21-40.41-64.68-59.27,8.48-8.21,29.72-4.57,36.4-15,9.16-14.24-13.44-35.67-19.91-46.54-9.15-15.37-36-66.15-50.85-85Z"/><path class="cls-6" d="M1108.72,505c-2,49.7-4.78,99.75-8.94,149.33-1.58,18.81-5.79,29.81,10,35.83,8.16,3.11,46,5.83,54.16,1.87,17.95-8.68,3.57-54.61.62-72.89-3.44-21.38-5.39-62.23-14.09-77.16Z"/><path class="cls-9" d="M1124.71,260.57c-27.38,35.79-69,74.74-82,118.41,15.35,5,30.31.46,45.75.28-1.9,16.25-21,34.19-28.61,49.74-9.87,20.12-16.3,41.83-25.29,61.8,14.75,6.08,34.08-.33,48.37-5.24-4.27,25.57-28.27,47.13-35.57,72.86-11,38.88,5.73,35.91,36.4,31.23,27.8-4.24,55.5,0,83.64-.36,16.58-.19,46.64,4.45,61.53-2-11.87-32.18-49.92-54.65-63.93-86,19.65-6,87.29-.45,58.71-34.9-17.93-21.62-43.21-40.41-64.69-59.27,8.49-8.21,29.72-4.57,36.41-15,9.16-14.25-13.45-35.68-19.91-46.54-9.15-15.37-36-66.15-50.85-85Z"/><path class="cls-9" d="M-56.71,241.31c-27.38,35.79-69,74.74-82,118.41,15.35,5,30.31.46,45.75.28-1.89,16.25-21,34.19-28.61,49.74-9.87,20.12-16.3,41.83-25.29,61.8,14.75,6.08,34.08-.33,48.38-5.24-4.28,25.57-28.28,47.13-35.58,72.86-11,38.88,5.73,35.91,36.4,31.23,27.8-4.24,55.5,0,83.64-.36,16.58-.19,46.64,4.45,61.53-2C35.68,535.87-2.37,513.4-16.38,482c19.65-5.95,87.29-.45,58.71-34.91C24.4,425.51-.88,406.71-22.35,387.85c8.48-8.2,29.72-4.56,36.4-15C23.21,358.64.6,337.21-5.86,326.35c-9.15-15.37-36-66.15-50.85-85Z"/><path class="cls-4" d="M980.94,460.81c20.21,38.73,14.21,82.9,7.93,125-1,6.48-6.3,23.43-4.13,29.38,3.58,9.82,18.29,7.95,26.82,6.63,17.43-2.71,13.42-8.22,9.89-23-3.19-13.33-2.85-28.34-3.51-42.1a303,303,0,0,1,6.44-76.77c2.81-13.24,4.35-23,19.07-26.85,13.91-3.63,26.48-3.87,39.2-12.85-10.93-1.6-20.71-.81-31.1,1.42,8.6-4.85,15-12.46,22.77-18.69,10.78,6.87,32.13-3.43,40.16-11.76-9.75,3.21-21.28,2.6-31.12,4.75,12.49-13.5,24.81-26.39,30.45-44.18-19.46,28.16-49,59-78.2,75.75,10.42-15.89,23.6-29.09,34.32-44.45,4.45-6.39,6.28-14.53,10.49-20.19,4.56-6.14,14.17-7,14.12-17.39a44.73,44.73,0,0,1-14.28,9.28c8-10.52,11.71-31.32,7.88-43.69-10.38,24.2-14.77,51.39-31.67,73.44,1.75-11.46,5.31-27.53-.14-38.16,8.19-6.69,10.48-21.67,8.52-31.86-2,5.79-6.65,17.56-8.64,21.86,1.3-12-6.7-26-13.78-34.59,2.08,14.79,10.21,34.64,8.49,49.46-7.3,0-12.88-5.79-16.46-12.11-.9,8.05,4.28,10.15,8,15.82,4.68,7.05,7,8.16,7.34,18.17.48,14.26-4,24.56-12.79,35.28-1.57-5.35-2.77-10.17-6.41-14.42.33,14.75,1.39,17.52-7.94,28.55-5.49,6.49-10.54,16.43-18.63,19.34a135.88,135.88,0,0,0,2.59-30.29c13.93-1.1,27.91-36.34,26.62-48.28-2.47,15.21-11.64,27.2-21.78,38.75,1.59-12.73-2.48-29.07-4.72-41.3-4.21,11.51-1.53,27-2.87,39.16-1.42,12.73-4.55,24.62-6.57,36.81C972.68,459.18,982.94,421,982.21,406c-.86-17.81,3-52.67-11.54-65.9-2.8,10.84-2.06,25.58,1.46,36.11-5.46-5.89-10-15.41-19.09-14.67,3.37,13.28,16.25,18,17.69,33a351.68,351.68,0,0,1,1.34,39.17c-5.52-10.65-16.21-19.74-22.67-30.31-5.78-9.45-11-19.07-16.68-28.88-1.75,10.29,3.67,20.66,9.49,28.78-9.11-3.21-17.53-11.31-27.38-13.74,4.94,15.12,23.1,19.43,33.93,29.54,8.81,8.22,17.16,21.75,24.68,31.61-16.85,14-43.3-9.95-59.73-10.31,11.57,3.82,20.81,12.5,32.33,15.63-4.84,6.36-11.67,13.93-13.36,21.3,3.7-5,10.79-11.6,16.72-14.82,5.4-2.93,15.48-.32,21.23-2.5Z"/><path class="cls-10" d="M1011,488c-4.44,11.5-20.68,18.78-33.07,15.59-7.87-2-10.74-10.75-17.56-13.26-11-4-7.79.14-17.45,1.06-17.11,1.62-26.38,4.06-40.4-11.61-10.27-11.45-10.6-25.36-18-36-10.42-15-27.52-25-31.1-45.26-3.07-17.4,7.91-20.31,11.91-32.92,5.6-17.66-4.2-38.13,3.7-56.44,4.27-9.9,22-31.88,32.72-16.25.65-35.46,34.86-57.21,66.6-50.71,9.41-33.17,75.12-45.74,91.28-12.6,29.76-19.81,72.39,12.92,60.48,46.09,28.32-8.61,48.24,25.1,46.52,50-1.22,17.7-17.31,23.51-19.58,35.94-2.12,11.6,13.4,30.83,9.9,46.72-3.43,15.59-15.24,25.31-31.3,24,6.34,34.8-15.28,70.39-54,57.81-3.76,28.12-49.23,14.44-56.74-.19Z"/><path class="cls-6" d="M557.6,678.93c4.83,8,24,8.8,33,4.13,9.36-4.86,5.38-24.59,4.46-35.83-2-24.66-8.52-49.47-9.68-74-.94-19.74-2.19-37.93-3.55-57.23-.61-8.66-4.28-16.49.8-24.26,4.67-7.15,15.13-13,21.46-18.38,14.07-11.88,45.31-41.31,35.85-61.74-16.07,7.35-23.95,29-35.83,41.68-9.87,10.57-12.88,6.62-8.83-6.93s8.64-26.48,10.79-40.75c.76-5.06,5.42-32-4.49-30.32-8.6,1.43-13.27,26.26-14.22,32.79-1.59,11,2.37,45.31-10.82,49.42-10.57-10.92-6.74-32.39-10.95-46.15-2.11-6.92-17.35-40.46-27-26.32-5.91,8.66,7.38,29.86,11.09,37.47,6.25,12.84,12.32,25.94,11.08,40.5-13.79.37-24.41-22.16-37.19-20.8-15.15,1.62,5.41,21.16,11.16,25.43,7.89,5.84,19.83,7.06,25.37,15.08,4.09,5.91,4.13,19.43,4.13,26.68,0,20.71-1.1,41.45-1.1,62.76,0,24.16,3.24,46.63-1.41,70.47-1.22,6.27-3.65,14.94-4.09,19.75C557.22,666.53,555.47,675.39,557.6,678.93Z"/><path class="cls-11" d="M435.52,337.24a34.89,34.89,0,0,0,15.76,38.19,34.91,34.91,0,0,0,19.31,63.76,34.9,34.9,0,0,0,49.17,44.94,34.86,34.86,0,0,0,55.59,24.47,34.86,34.86,0,0,0,56.15-23.15,34.9,34.9,0,0,0,50.22-43.76,34.9,34.9,0,0,0,20.81-63.27,34.9,34.9,0,0,0-14.43-65,34.9,34.9,0,0,0-45.63-48.53,34.9,34.9,0,0,0-64-18.41A34.91,34.91,0,0,0,514,263.33a34.91,34.91,0,0,0-46.77,47.44A34.89,34.89,0,0,0,435.52,337.24Z"/><rect class="cls-12" x="-150.65" y="742.83" width="1547.97" height="161.16"/><path class="cls-13" d="M-12.8,1024.69c-2.09,5.43-9.76,8.87-15.61,7.36-3.71-1-5.07-5.07-8.29-6.26-5.2-1.91-3.68.07-8.24.51-8.08.76-12.45,1.91-19.07-5.49-4.85-5.41-5-12-8.52-17-4.92-7.06-13-11.79-14.68-21.37-1.45-8.21,3.73-9.58,5.62-15.53,2.64-8.34-2-18,1.74-26.65,2-4.68,10.39-15,15.45-7.67.31-16.74,16.46-27,31.45-23.94C-28.51,893,2.51,887,10.14,902.69c14.05-9.35,34.17,6.1,28.55,21.76,13.37-4.07,22.77,11.85,22,23.62-.58,8.36-8.17,11.1-9.24,17-1,5.47,6.32,14.55,4.67,22.05S48.89,999,41.31,998.41c3,16.43-7.22,33.23-25.49,27.29-1.77,13.27-23.24,6.82-26.78-.09Z"/><path class="cls-13" d="M56.11,1075.88c-2.1,5.43-9.77,8.87-15.61,7.36-3.72-1-5.07-5.08-8.29-6.26-5.2-1.91-3.68.07-8.24.5-8.08.77-12.45,1.92-19.08-5.48-4.84-5.41-5-12-8.51-17-4.93-7.06-13-11.8-14.69-21.37-1.45-8.21,3.74-9.58,5.62-15.54,2.65-8.34-2-18,1.75-26.64,2-4.68,10.38-15.05,15.45-7.68C4.82,967,21,956.76,36,959.83c4.44-15.67,35.46-21.6,43.09-6,14-9.36,34.18,6.09,28.55,21.76,13.37-4.07,22.78,11.84,22,23.62-.58,8.35-8.17,11.1-9.25,17-1,5.47,6.33,14.55,4.68,22s-7.2,12-14.78,11.32c3,16.42-7.21,33.23-25.48,27.29-1.77,13.27-23.24,6.81-26.79-.09Z"/><path class="cls-13" d="M169.15,1094.64c-2.1,5.43-9.77,8.87-15.61,7.36-3.72-1-5.07-5.07-8.29-6.26-5.2-1.91-3.68.07-8.24.51-8.08.76-12.45,1.91-19.08-5.49-4.84-5.4-5-12-8.51-17-4.93-7.06-13-11.79-14.69-21.36-1.45-8.22,3.74-9.59,5.62-15.54,2.65-8.34-2-18,1.75-26.65,2-4.68,10.38-15.05,15.45-7.67.31-16.74,16.46-27,31.44-23.94,4.44-15.66,35.46-21.6,43.09-6,14-9.35,34.18,6.1,28.55,21.76,13.37-4.07,22.78,11.85,22,23.62-.58,8.36-8.17,11.1-9.25,17-1,5.47,6.33,14.55,4.68,22.06s-7.2,11.94-14.78,11.31c3,16.43-7.21,33.23-25.48,27.29-1.77,13.27-23.24,6.82-26.79-.09Z"/><path class="cls-13" d="M1343.83,732.09c-2.09,5.42-9.76,8.86-15.61,7.36-3.71-1-5.07-5.08-8.29-6.26-5.2-1.91-3.67.07-8.24.5-8.08.76-12.45,1.91-19.07-5.48-4.85-5.41-5-12-8.52-17-4.92-7.05-13-11.79-14.68-21.36-1.45-8.22,3.73-9.59,5.62-15.54,2.64-8.34-2-18,1.74-26.65,2-4.67,10.39-15,15.45-7.67.31-16.74,16.46-27,31.45-23.94,4.44-15.66,35.46-21.59,43.09-5.95,14-9.35,34.17,6.1,28.55,21.76,13.37-4.06,22.77,11.85,22,23.63-.58,8.35-8.17,11.1-9.24,17-1,5.48,6.32,14.56,4.67,22.06s-7.19,12-14.77,11.31c3,16.43-7.22,33.23-25.48,27.29-1.78,13.28-23.25,6.82-26.79-.08Z"/><rect class="cls-14" x="716.92" y="698.28" width="283.78" height="34.46" rx="1.76"/><rect class="cls-15" x="729.04" y="701.51" width="52.91" height="0.67"/><rect class="cls-15" x="751.79" y="704.47" width="52.91" height="0.67"/><rect class="cls-15" x="773.46" y="707.43" width="52.91" height="0.67"/><rect class="cls-15" x="883.72" y="728.84" width="52.91" height="0.67"/><rect class="cls-15" x="945.71" y="723.73" width="30.76" height="0.39"/><rect class="cls-15" x="916.29" y="725.27" width="30.76" height="0.39"/><rect class="cls-14" x="716.92" y="674.84" width="283.78" height="34.46" rx="1.76"/><rect class="cls-15" x="729.04" y="678.07" width="52.91" height="0.67"/><rect class="cls-15" x="751.79" y="681.03" width="52.91" height="0.67"/><rect class="cls-15" x="773.46" y="683.99" width="52.91" height="0.67"/><rect class="cls-15" x="883.72" y="705.4" width="52.91" height="0.67"/><rect class="cls-15" x="945.71" y="700.29" width="30.76" height="0.39"/><rect class="cls-15" x="916.29" y="701.83" width="30.76" height="0.39"/><rect class="cls-14" x="716.92" y="641.77" width="283.78" height="34.46" rx="1.76"/><rect class="cls-15" x="729.04" y="645" width="52.91" height="0.67"/><rect class="cls-15" x="751.79" y="647.96" width="52.91" height="0.67"/><rect class="cls-15" x="773.46" y="650.92" width="52.91" height="0.67"/><rect class="cls-15" x="883.72" y="672.32" width="52.91" height="0.67"/><rect class="cls-15" x="945.71" y="667.21" width="30.76" height="0.39"/><rect class="cls-15" x="916.29" y="668.76" width="30.76" height="0.39"/><rect class="cls-14" x="716.92" y="607.3" width="283.78" height="34.46" rx="1.76"/><rect class="cls-15" x="729.04" y="610.53" width="52.91" height="0.67"/><rect class="cls-15" x="751.79" y="613.5" width="52.91" height="0.67"/><rect class="cls-15" x="773.46" y="616.46" width="52.91" height="0.67"/><rect class="cls-15" x="883.72" y="637.86" width="52.91" height="0.67"/><rect class="cls-15" x="945.71" y="632.75" width="30.76" height="0.39"/><rect class="cls-15" x="916.29" y="634.3" width="30.76" height="0.39"/><rect class="cls-14" x="716.92" y="585" width="283.78" height="34.46" rx="1.76"/><rect class="cls-15" x="729.04" y="588.23" width="52.91" height="0.67"/><rect class="cls-15" x="751.79" y="591.19" width="52.91" height="0.67"/><rect class="cls-15" x="773.46" y="594.15" width="52.91" height="0.67"/><rect class="cls-15" x="883.72" y="615.55" width="52.91" height="0.67"/><rect class="cls-15" x="945.71" y="610.45" width="30.76" height="0.39"/><rect class="cls-15" x="916.29" y="611.99" width="30.76" height="0.39"/><rect class="cls-14" x="716.92" y="631.06" width="283.78" height="34.46" rx="1.76"/><rect class="cls-15" x="729.04" y="634.29" width="52.91" height="0.67"/><rect class="cls-15" x="751.79" y="637.26" width="52.91" height="0.67"/><rect class="cls-15" x="773.46" y="640.22" width="52.91" height="0.67"/><rect class="cls-15" x="883.72" y="661.62" width="52.91" height="0.67"/><rect class="cls-15" x="945.71" y="656.51" width="30.76" height="0.39"/><rect class="cls-15" x="916.29" y="658.06" width="30.76" height="0.39"/><path class="cls-16" d="M588.72,803.7c.87-.08,1.71-.13,2.51-.16l127.48-8.13V739.47a24.09,24.09,0,0,0-10-4.47c-9.69-2-11.52-7-11.44-15.7.35-37.77.25-75.53.07-113.3-.06-14.51-4.84-19.44-18.82-19.58-21.9-.22-43.8-.16-65.71,0-13.41.09-23.88,5.39-31,17.35-9.42,15.92-18.33,32.31-29.4,47-15.27,20.32-25,41.5-20.38,67.49.8,4.44,1.17,9,1.7,13.44,1.2,10.09.41,19.56-7.55,27.2-8.66,8.3-10.25,18.61-5.7,29.12,4.77,11,13.94,16.26,26.27,16C560.8,803.77,574.87,805,588.72,803.7Zm-14-156.52c7.39-11.4,14.1-23.43,22.87-33.68,4.57-5.33,12.7-9.87,19.62-10.5,16.48-1.52,33.19-.27,49.8-.59,10.1-.2,14.65,4.4,14.61,14.23,0,9.44-.13,18.88.06,28.32.19,10.18-4.92,14.2-14.72,14-14-.25-28-.06-41.92-.06-14.73,0-29.46.21-44.19-.09C570.92,658.64,569.37,655.5,574.76,647.18Z"/><rect class="cls-16" x="573.54" y="735.26" width="450.63" height="66.37"/><circle class="cls-17" cx="608.8" cy="810.95" r="50.24"/><circle class="cls-18" cx="608.8" cy="810.95" r="34.15"/><circle class="cls-17" cx="970.94" cy="810.95" r="50.24"/><rect class="cls-16" x="750.19" y="592.04" width="12.63" height="154.2"/><rect class="cls-16" x="964.63" y="592.04" width="12.63" height="154.2"/><path class="cls-19" d="M533.21,726.33s25.92-3.45,25.92,3.31v7.3s1.59,2.12-24.88,2.61c-1.94,0-2-12.65-2-12.65S532.35,726.43,533.21,726.33Z"/><path class="cls-20" d="M677.9,597.54H643.53s-7.15,1.53-10,6.36c-3.12,5.24-5.32,7.11-7.4,12.91s-13,32.56-13,32.56S610.85,652,611.77,663s1.51,65.13,1.51,65.13-1.16,16.09,11.21,16.65,45.44-1.37,45.44-1.37h8S687,745,686.69,726.1s-1.5-72.8-1.5-72.8l.23-45.84S684.84,597.54,677.9,597.54Z"/><path class="cls-21" d="M625.08,658.92c-14.73,0-29.46.22-44.19-.08-10-.2-11.52-3.34-6.13-11.66,7.39-11.4,14.1-23.43,22.87-33.68,4.57-5.33,12.7-9.87,19.62-10.5,16.48-1.52,33.19-.27,49.8-.59,10.1-.2,14.65,4.4,14.61,14.23,0,9.44-.13,18.88.06,28.32.19,10.18-4.92,14.2-14.72,14C653,658.74,639.05,658.93,625.08,658.92Z"/><polygon class="cls-20" points="615.34 658.96 638.55 602.23 634.78 602.23 611.55 659 615.34 658.96"/><circle class="cls-18" cx="970.94" cy="810.95" r="34.15"/><circle class="cls-22" cx="608.8" cy="810.95" r="6.8"/><circle class="cls-22" cx="970.94" cy="810.95" r="6.8"/><polygon class="cls-23" points="764.97 585.14 760.66 585.14 754.31 591.32 758.61 591.32 764.97 585.14"/><polygon class="cls-23" points="979.24 585.48 974.93 585.48 968.58 591.65 972.88 591.65 979.24 585.48"/><path class="cls-16" d="M1024.16,790.29h2.49s3.25-.37,3.37,4.12a38.2,38.2,0,0,1,0,5.12,2,2,0,0,1-2.37,2.1,12.68,12.68,0,0,0-3.49,0Z"/><path class="cls-16" d="M1021.21,745.55h2.49s3.24.34,3.36-3.73a31.37,31.37,0,0,0,0-4.64s.13-2.12-2.37-1.91a13.76,13.76,0,0,1-3.48,0Z"/><path class="cls-13" d="M219.51,601.69c-2.09,5.43-9.76,8.87-15.61,7.36-3.71-.95-5.07-5.08-8.28-6.26-5.2-1.91-3.68.07-8.25.5-8.07.77-12.45,1.92-19.07-5.48-4.84-5.41-5-12-8.52-17-4.92-7.06-13-11.8-14.68-21.37-1.45-8.21,3.73-9.58,5.62-15.54,2.64-8.34-2-18,1.75-26.65,2-4.67,10.38-15,15.44-7.67.31-16.74,16.46-27,31.45-23.93,4.44-15.67,35.46-21.6,43.09-5.95,14.05-9.36,34.18,6.09,28.55,21.75,13.37-4.06,22.78,11.85,22,23.63-.57,8.35-8.17,11.1-9.24,17-1,5.47,6.33,14.55,4.68,22.05s-7.2,11.95-14.78,11.32c3,16.42-7.22,33.22-25.48,27.29-1.78,13.27-23.24,6.81-26.79-.09Z"/><path class="cls-13" d="M117.71,634.29c-2.09,5.43-9.76,8.87-15.61,7.36-3.71-.95-5.07-5.08-8.29-6.26-5.2-1.91-3.67.07-8.24.5-8.07.77-12.45,1.92-19.07-5.48-4.85-5.41-5-12-8.52-17C53.06,606.34,45,601.6,43.3,592c-1.45-8.21,3.73-9.58,5.62-15.54,2.64-8.34-2-18,1.75-26.64,2-4.68,10.38-15.05,15.44-7.68.31-16.73,16.46-27,31.45-23.93,4.44-15.67,35.46-21.6,43.09-6,14-9.36,34.18,6.09,28.55,21.75,13.37-4.06,22.77,11.85,22,23.63-.58,8.35-8.17,11.1-9.24,17-1,5.47,6.33,14.55,4.68,22.05s-7.2,11.95-14.78,11.32c3,16.42-7.22,33.22-25.48,27.29-1.78,13.27-23.24,6.81-26.79-.09Z"/><path class="cls-13" d="M313.44,634.29c-2.1,5.43-9.77,8.87-15.61,7.36-3.72-.95-5.07-5.08-8.29-6.26-5.2-1.91-3.68.07-8.24.5-8.08.77-12.46,1.92-19.08-5.48-4.84-5.41-5-12-8.52-17-4.92-7.06-13-11.8-14.68-21.37-1.45-8.21,3.73-9.58,5.62-15.54,2.65-8.34-2-18,1.75-26.64,2-4.68,10.38-15.05,15.44-7.68.32-16.73,16.46-27,31.45-23.93,4.44-15.67,35.46-21.6,43.09-6,14.05-9.36,34.18,6.09,28.55,21.75,13.37-4.06,22.78,11.85,22,23.63-.57,8.35-8.17,11.1-9.24,17-1,5.47,6.33,14.55,4.68,22.05s-7.2,11.95-14.78,11.32c3,16.42-7.22,33.22-25.48,27.29-1.77,13.27-23.24,6.81-26.79-.09Z"/><path class="cls-6" d="M148.9,678.93c4.83,8,24,8.8,33,4.13,9.36-4.86,5.38-24.59,4.46-35.83-2-24.66-8.52-49.47-9.68-74-.94-19.74-2.19-37.93-3.55-57.23-.61-8.66-4.28-16.49.8-24.26,4.67-7.15,15.13-13,21.46-18.38,14.07-11.88,45.31-41.31,35.85-61.74-16.07,7.35-23.95,29-35.83,41.68-9.87,10.57-12.88,6.62-8.83-6.93s8.64-26.48,10.79-40.75c.76-5.06,5.42-32-4.49-30.32-8.6,1.43-13.27,26.26-14.22,32.79-1.59,11,2.37,45.31-10.82,49.42-10.57-10.92-6.74-32.39-10.95-46.15-2.11-6.92-17.35-40.46-27-26.32-5.91,8.66,7.38,29.86,11.09,37.47,6.25,12.84,12.32,25.94,11.08,40.5-13.79.37-24.42-22.16-37.19-20.8-15.15,1.62,5.41,21.16,11.16,25.43,7.89,5.84,19.83,7.06,25.37,15.08,4.09,5.91,4.13,19.43,4.13,26.68,0,20.71-1.1,41.45-1.1,62.76,0,24.16,3.24,46.63-1.41,70.47-1.22,6.27-3.65,14.94-4.09,19.75C148.52,666.53,146.77,675.39,148.9,678.93Z"/><path class="cls-24" d="M26.82,337.24a34.89,34.89,0,0,0,15.76,38.19,34.91,34.91,0,0,0,19.31,63.76,34.9,34.9,0,0,0,49.17,44.94,34.86,34.86,0,0,0,55.59,24.47,34.86,34.86,0,0,0,56.15-23.15A34.9,34.9,0,0,0,273,441.69a34.9,34.9,0,0,0,20.81-63.27,34.9,34.9,0,0,0-14.43-65,34.9,34.9,0,0,0-45.63-48.53,34.9,34.9,0,0,0-64-18.41,34.91,34.91,0,0,0-64.44,16.88,34.91,34.91,0,0,0-46.77,47.44A34.89,34.89,0,0,0,26.82,337.24Z"/><path class="cls-4" d="M332.33,494.83c20.21,38.73,14.22,82.9,7.94,125-1,6.48-6.31,23.43-4.14,29.37,3.59,9.83,18.29,8,26.82,6.64,17.43-2.71,13.43-8.22,9.89-23-3.19-13.33-2.84-28.34-3.51-42.1A303.5,303.5,0,0,1,375.77,514c2.81-13.24,4.36-23,19.08-26.85,13.91-3.63,26.47-3.87,39.19-12.86-10.93-1.59-20.7-.8-31.09,1.43,8.59-4.85,15-12.46,22.77-18.69,10.78,6.86,32.13-3.43,40.15-11.76-9.74,3.21-21.28,2.6-31.12,4.75,12.5-13.5,24.81-26.39,30.45-44.18-19.45,28.16-49,59.05-78.2,75.75,10.42-15.89,23.61-29.09,34.32-44.45,4.46-6.39,6.28-14.53,10.49-20.19,4.57-6.14,14.17-7,14.13-17.39a44.9,44.9,0,0,1-14.28,9.28c8-10.52,11.71-31.32,7.87-43.69-10.38,24.2-14.76,51.39-31.67,73.44,1.75-11.46,5.32-27.53-.14-38.16,8.19-6.7,10.49-21.67,8.53-31.86-2.06,5.79-6.66,17.56-8.64,21.86,1.3-12-6.7-26-13.78-34.59,2.08,14.78,10.2,34.64,8.48,49.46-7.3,0-12.88-5.79-16.46-12.11-.89,8,4.29,10.15,8,15.82,4.67,7,7,8.15,7.33,18.17.49,14.26-4,24.56-12.79,35.27-1.57-5.34-2.76-10.16-6.4-14.41.33,14.75,1.39,17.51-7.94,28.55-5.49,6.49-10.55,16.43-18.63,19.34A136.47,136.47,0,0,0,358,465.67c13.93-1.1,27.92-36.34,26.63-48.28-2.47,15.21-11.64,27.2-21.78,38.75,1.58-12.73-2.49-29.07-4.73-41.3-4.2,11.51-1.52,27-2.87,39.16-1.41,12.73-4.55,24.62-6.56,36.81C324.07,493.2,334.34,455,333.61,440c-.86-17.8,3-52.66-11.55-65.89-2.79,10.84-2.06,25.58,1.47,36.11-5.47-5.89-10-15.41-19.1-14.67,3.38,13.28,16.26,18,17.7,33a356.47,356.47,0,0,1,1.34,39.17c-5.53-10.65-16.21-19.74-22.68-30.31-5.77-9.46-11-19.07-16.68-28.89-1.74,10.3,3.68,20.67,9.5,28.79-9.11-3.22-17.53-11.31-27.38-13.74,4.93,15.12,23.1,19.43,33.93,29.54,8.81,8.22,17.15,21.75,24.68,31.61-16.86,14-43.31-10-59.74-10.31,11.57,3.82,20.81,12.49,32.34,15.63-4.84,6.36-11.67,13.93-13.36,21.3,3.7-5,10.79-11.6,16.71-14.82,5.4-2.93,15.49-.32,21.24-2.5Z"/><path class="cls-25" d="M362.39,522c-4.44,11.5-20.68,18.78-33.06,15.59-7.87-2-10.74-10.75-17.56-13.26-11-4.05-7.79.14-17.46,1.06-17.11,1.62-26.37,4.06-40.4-11.61-10.26-11.45-10.6-25.36-18-36-10.43-14.94-27.52-25-31.1-45.25-3.08-17.4,7.9-20.31,11.9-32.92,5.6-17.66-4.2-38.13,3.7-56.44,4.28-9.9,22-31.88,32.72-16.25.66-35.46,34.86-57.21,66.61-50.71,9.41-33.17,75.11-45.74,91.27-12.6,29.76-19.81,72.4,12.92,60.48,46.09,28.32-8.61,48.24,25.1,46.52,50-1.22,17.69-17.31,23.51-19.57,35.94-2.12,11.6,13.4,30.83,9.9,46.72-3.43,15.59-15.25,25.31-31.3,24,6.34,34.8-15.29,70.39-54,57.81-3.75,28.12-49.23,14.44-56.74-.19Z"/><path class="cls-4" d="M854.64,1070.39c13.31.23,31.73-3.46,44.67-.38-.74,5.47-6.44,9-12.4,10.87,7,1.65,9.42-2,14.83-4.11,6.73-2.65,7.94-4.26,16.85-3.3,12.68,1.36,21.34,5.94,29.93,13.85-4.89.53-9.28.84-13.42,3.06,13.1,1.54,15.65,1.07,24.47,9.4,1.87,1.77,4.15,3.55,6.37,5.4l6.84-14.13a19.16,19.16,0,0,1-1.73-5.55c-1.79-10.87-.72-20.31-7.38-30.94a54.53,54.53,0,0,0-1.92,23.48c-3.41-7-9.49-12.76-14.22-19.32,7.18-7.25.25-24.5-6.31-31.52,1.84,7.69.12,16.26,1,23.9-10.68-11-20.83-21.79-36-28.17,22.95,18,47.29,43.85,59.09,67.78-13-9.73-23.35-21.21-35.86-31.1-5.21-4.11-12.22-6.46-16.81-10.31-5-4.16-4.77-11.46-13.95-12.68a33.75,33.75,0,0,1,6.75,11.82c-8.49-7.29-26.54-12.56-37.89-11.18,20.37,10.7,44,17.28,61.81,32.61-10-2.7-23.84-7.31-33.82-4.51-5.09-6.94-18.12-10.47-27.34-10.24,4.92,2.25,14.87,7.12,18.48,9.12C876.19,1061.82,863,1066.13,854.64,1070.39Z"/><path class="cls-4" d="M459,1036.51c9.77,4.55,23.8,4.41,34.4,6.89,7.73,1.81,15,4.18,22.31,6.47l2.33-4.82a127.93,127.93,0,0,0-14-2.3c.44-10.58-29.34-25.32-40.05-25.8,13.22,3.7,22.91,12,32.09,21C485,1035.24,470.11,1036.31,459,1036.51Z"/></g></g></svg>