<svg id="Capa_5" data-name="Capa 5" xmlns="http://www.w3.org/2000/svg" viewBox="0 0 503 384"><defs><style>.cls-1{fill:#e1e2dc;stroke:#a6a999;stroke-width:7px;}.cls-2{fill:#a6a999;stroke:#e1e2dc;stroke-width:2px;}</style></defs><path id="Path_7" data-name="Path 7" class="cls-1" d="M246.4,316.11a25.85,25.85,0,0,1-17.25,7.11c18.77-12.05,27.45-37.79,19.77-58.74-1.29-3.48-6-3.88-9.69-3.62a219.77,219.77,0,0,0-60.62,13.69,101.75,101.75,0,0,0-12.34,5.54,65.57,65.57,0,0,0-29.69,34.36c-.9,2.44-2,5.29-4.53,5.92-2.67-2.89.38-7.33,3-10.27A53,53,0,0,0,148,268.7c-.92-7.38-3.67-14.84-9.27-19.69-3.92-3.39-8.93-5.23-14-6.35-10.83-2.4-22.73-1.44-32.14,4.41s-15.76,17.1-14.09,28.07c.63,4.21,2.4,8.39,1.88,12.64-.4,3.2-2.06,6.11-2.61,9.3s.58,7.12,3.66,8a8.66,8.66,0,0,0,4.11-.16c11.11-2.53,21.47-7.62,31.72-12.64a88.46,88.46,0,0,0-25,35.7,40.43,40.43,0,0,0-2.93,12.41c-.59,14,10.41,26.42,23.3,32S140,378.06,154,378.13c9.56,0,19.11.07,28.63.08,9,.05,18.26.05,26.88-2.57,9.84-3,18.38-9.27,25.84-16.35a48,48,0,0,0,8.33-9.93c5.84-9.69,5.66-21.72,5.3-33a1.68,1.68,0,0,0-.12-.66C248.42,314.78,247.12,315.43,246.4,316.11Z"/><circle class="cls-2" cx="88.57" cy="274.74" r="4.08"/></svg>