<?xml version="1.0" encoding="utf-8"?>
<!-- Generator: Adobe Illustrator 25.0.1, SVG Export Plug-In . SVG Version: 6.00 Build 0)  -->
<svg version="1.1" id="Capa_5" xmlns="http://www.w3.org/2000/svg" xmlns:xlink="http://www.w3.org/1999/xlink" x="0px" y="0px"
	 viewBox="0 0 503 384" style="enable-background:new 0 0 503 384;" xml:space="preserve">
<style type="text/css">
	.st0{fill:#F6C3AB;stroke:#F6C3AB;stroke-width:0.5;stroke-miterlimit:10;}
</style>
<path id="Path_7" class="st0" d="M246.4,316.1c-4.7,4.4-10.8,7-17.2,7.1c18.8-12,27.5-37.8,19.8-58.7c-1.3-3.5-6-3.9-9.7-3.6
	c-20.8,1.7-41.2,6.3-60.6,13.7c-4.2,1.6-8.4,3.4-12.3,5.5c-13.7,7.6-24.2,19.7-29.7,34.4c-0.9,2.4-2,5.3-4.5,5.9
	c-2.7-2.9,0.4-7.3,3-10.3c10-11.3,14.7-26.4,12.9-41.4c-0.9-7.4-3.7-14.8-9.3-19.7c-3.9-3.4-8.9-5.2-14-6.4
	c-10.8-2.4-22.7-1.4-32.1,4.4s-15.8,17.1-14.1,28.1c0.6,4.2,2.4,8.4,1.9,12.6c-0.4,3.2-2.1,6.1-2.6,9.3s0.6,7.1,3.7,8
	c1.4,0.3,2.8,0.2,4.1-0.2c11.1-2.5,21.5-7.6,31.7-12.6c-11.2,9.6-19.8,21.9-25,35.7c-1.6,4-2.6,8.1-2.9,12.4
	c-0.6,14,10.4,26.4,23.3,32s27.4,5.7,41.4,5.7c9.6,0,19.1,0.1,28.6,0.1c9,0,18.3,0,26.9-2.6c9.8-3,18.4-9.3,25.8-16.4
	c3.2-2.9,6-6.3,8.3-9.9c5.8-9.7,5.7-21.7,5.3-33c0-0.2,0-0.5-0.1-0.7C248.4,314.8,247.1,315.4,246.4,316.1z"/>
</svg>
