<?xml version="1.0" encoding="utf-8"?>
<!-- Generator: Adobe Illustrator 25.0.1, SVG Export Plug-In . SVG Version: 6.00 Build 0)  -->
<svg version="1.1" id="Capa_5" xmlns="http://www.w3.org/2000/svg" xmlns:xlink="http://www.w3.org/1999/xlink" x="0px" y="0px"
	 viewBox="0 0 828 183" style="enable-background:new 0 0 828 183;" xml:space="preserve">
<style type="text/css">
	.st0{fill:#F6C3AB;stroke:#F9F9F9;stroke-width:0.75;stroke-miterlimit:10;}
</style>
<path class="st0" d="M99.1,71.9c-0.2,0-5.4,6.2-5.4,6.2S81.3,65.6,73.1,65.6c-7.7,0-12.7,5.6-14.6,7.8l0.8,4.7l2.6,3.2l12,7.5
	l4.3,4.5l6.2,4.1l2.6,3.4l4,4.7l3.4,9.3l3,7.7c0.9,2.3,1.3,4.7,1.3,7.1c0,15.3-17.8,29-32.2,29c-6.1-0.1-12.1-0.8-18-2.2l-8.8-2.4
	l-3.1-2.8c-2.1-1.3-9.2-6-9.2-12.2c0-8.4,3.7-12,8.4-12c3.4,0,6.4,8.8,26.9,8.8c7.9,0,14-4.7,14-11.8c-0.1-1.5-0.5-3-1.1-4.3
	l-3.2-2.5l-4.3-6.2l-5.6-2.6C52.3,103,37.7,88.9,37.7,75.3c0-12.9,9.9-21.1,9.9-21.1l8.2-3.9l4.5-2.4c3.2-0.6,6.5-1,9.7-1.1
	c20.6,0,34,8.6,34,19.8C104.1,67.6,100.8,70.4,99.1,71.9z"/>
<path class="st0" d="M216.5,165.1c-3.4,0-7.5-7.5-8-13.6l-0.6-6.5c0.6-3.2,1.1-6.5,1.3-9.7c0-3.2,0.6-6.4,0.6-9.3
	c0.2-2.9-0.9-5.8-3-7.8c-2.2-2.2-6-4.7-8.4-4.7c-0.7-0.1-1.3,0.2-1.7,0.8l-2.4,2.8l-4.1,2l-1.5,2.1l-0.9,3.2l-3,3.6l0.6,19.4v0.8
	c0,7.5-5.1,13.3-10.1,13.3c-4.5,0-9.4-3.9-9.4-8.2l-0.2-5.8l-1.9-6l0.8-15.7v-1.2c0-9-1.9-16.5-7.1-16.5c-1.7,0-4.9,2.8-4.9,2.8
	l-3.4,1.5l-2.1,6c0,0-5.2,6.7-5.2,11.2c0,8.2,3.7,16.4,3.7,23.8c0,8-7.5,16.8-11.8,16.8c-2.2,0-4.7-2.2-5.6-3.2l-3.9-2.8l-0.9-5.6
	l-0.8-6l1.7-9.9l-1.1-18l1.7-7.3l0.2-10.1l1.1-4.1l1.3-14c0.6-6.4,4.1-10.7,10.1-10.7c4.9,0,6.7,8.2,7.3,13.3
	c2.6-0.2,6.2-0.9,7.1-1.5c5.8-2.4,6.4-3.4,10.1-3.4c5.2,0,11.6,10.3,15.1,13.3c0.7,0.6,1.5,1,2.4,1.1c0.8,0,1.5-0.4,2.8-1.3l7.7-6.2
	l12.9-2.4h0.9c6.7,0,18.1,13.8,18.1,13.8l3.4,4.5l0.7,5.6l2.1,7.3l0.6,27.1C228.9,152.9,221.9,165.1,216.5,165.1z"/>
<path class="st0" d="M311.7,163.7c-1,0.4-2,0.6-3,0.6c-2-0.1-3.9-0.5-5.8-1.1l-6.4-4.3l-13.3,2.8c-5.4,0.9-10.9,1.4-16.5,1.5
	c-8.2,0-12.5-6-17.6-12.1c-4.3-5.2-7.5-11.6-7.5-15c0-17.4,13.1-32.2,13.1-32.2l5.4-7.1l3.5-1.7c0,0,5.8-3.6,11.6-3.6
	c3,0,7.1,3.6,9.5,3.6c0.4,0.1,0.8-0.1,1.1-0.4l4.1-3.9c1.8-0.8,3.7-1.3,5.6-1.5c4.3,0,11.8,10.8,12.9,20.2l0.9,7.1l3.9,16.6l0.2,7.3
	c0,0.2,2.4,6.4,2.4,6.4S314.5,162.6,311.7,163.7z M287.6,77.5l-3.2,2l-6.2,1.5l-3.9,0.2l-4.7,0.6l-2.6-0.7l-4.5-0.4
	c-1.9,0-5.4-3.4-8.4-6.6c-4.3-3.9-9.2-6.5-9.5-10.5l-0.4-4.3l0.7-5.8c0.6-4.5,3-7.8,7.9-10.5l6.2-2.8l8-0.9l6.7,0.4l5.4,1.7h5.4
	c5,0,15.1,9.7,15.1,18.3C299.7,71.2,287.6,77.5,287.6,77.5z M290.8,125.8L287,120l-1.9-4.7c-0.9-2.2-3-2.8-5.6-2.8
	c-1.5,0-3.2,0.2-4.9,0.2c-7.5,0-15.9,8.4-15.9,16.8c0,1.7,2.8,7.5,2.8,7.5l4.1,3l1.9,3c1.1,1.7,5.2,1.9,6.4,1.9c10.8,0,18-6,18-14.8
	C291.7,128.6,291.4,127.1,290.8,125.8L290.8,125.8z M271.1,53.2c-3.4,0-8.8,2.8-8.8,5.6c0,3.2,5.8,8,9.5,8c0.9,0,3-1.7,3-1.7
	l2.4-0.4l3.4-2.1c1-0.5,1.7-1.6,1.7-2.8C282.3,56.6,275.2,53.2,271.1,53.2z"/>
<path class="st0" d="M438.9,112.1l-6,3.6l-12.4,1.9l-5.4,1.7l-2.6,4.9l-0.2,8l0.9,4.1l-0.9,8.4v9.5l-0.2,10.5c0,3.6-5.4,9-6,9.4
	c-1.3,1.5-3.9,4.5-6.4,4.5c-5.2,0-7.7-6.4-8.2-8l-2.1-4.7l1.3-5.2l-0.4-7.9l2.2-7.1v-19.1l1.7-6.5l-0.2-8.4l2-10.8l0.2-11.2
	c0,0,0.8-3.6,1.1-6c0.8-3,0.8-6.2,0.8-10.5V62.8c0-16.3,6.2-22.1,23.9-22.1c3.4,0.1,6.9,0.4,10.3,0.9l18.6,5.6
	c3.8,0.9,21.9,12.3,21.9,22.1C472.9,95.1,443.1,110.1,438.9,112.1z M444.1,64.4L433.6,63l-3.9-2.1h-3.2c-7.5,0-7.7,3.4-8.4,7.7
	L416.2,80l0.6,4.9l-1.9,6.1c-0.2,0.5-0.2,1-0.2,1.5c0,2.2,1.5,3.7,2.2,3.7c10.5,0,34-12.9,34-23C451,69.7,447.8,64.8,444.1,64.4z"/>
<path class="st0" d="M520,162.8c-10.2-0.1-20.2-2.8-29-7.8l-5.6-2.4l-5.4-9c-3.7-6.2-5-9.7-5-18c0-14.8,18.3-37.4,38-37.4
	c0.8,0,1.5,0.2,2.2,0.2l7.8,0.8l4.1,3l6.9,2.8l3,3.9c0,0,18.9,17,18.9,27.9C555.9,142.6,530.1,162.8,520,162.8z M535.5,120.2
	l-1.5-2.8l-3.9-1.9l-5.4-6.2l-7.3-1.1l-6.2-2.4c0,0-19.2,3.2-19.2,20.4c0,9.5,16.3,16.8,25.2,16.8c6,0,19.6-6,19.6-14.4
	c0-0.4-0.2-0.9-0.2-1.3L535.5,120.2z"/>
<path class="st0" d="M645.9,105c0.9,5.8,1.5,11.7,1.7,17.6c0,11.6-2.4,18.7-2.4,21.9l-0.4,17.8l-0.8,9.2l-3.7,4.1
	c-1.1,1.9-3.6,5-6,5c-3.7,0-9.2-2.6-9.7-7.3l-1.5-8c0.1-0.6,0.2-1.1,0.2-1.7c0-0.4,0-0.6-0.2-0.6c-2.6,0-12.2,4.7-23.2,4.7
	c-17.8,0.2-32.4-14.1-32.5-31.9c0-0.1,0-0.1,0-0.2c0-3.6,1.7-13.7,1.7-13.7l4.9-10.3l4.7-3.9c0,0,6.4-6.7,11.4-9.5
	c8.4-4.9,13.8-6.9,23.6-7.1l8.2-0.2l3.2,0.4h0.8c2.2,0,2.8-1.7,2.8-3.6c0-0.6-0.2-1.1-0.2-1.7l-1.1-6.9l0.2-9.5
	c0,0,2.4-30.3,11.8-30.3c6.5,0,7.5,7.3,7.5,12.2c0,1.9-0.2,3.2-0.2,3.9c0,6.2,1.5,15,1.5,30.9C647.9,90.2,646.2,102.2,645.9,105z
	 M627.5,121.1c0-2.8-3.9-5.8-3.9-5.8l-3.4-3.6h-8c-13.3,0-25.2,11.8-25.2,23c0,7.9,5.6,13.6,14,13.6c6,0.1,11.7-2.1,16.1-6.2
	c1.3-1.1,2.2-2.5,2.6-4.1l3-6l0.9-3.6l2.4-3l1.3-3.4C627.5,121.8,627.6,121.5,627.5,121.1L627.5,121.1z"/>
<path class="st0" d="M722.9,134.2c-10.3,0-22.6-3.6-30.5-3.6c-4.9,0-7.7,1.5-7.7,3.6c0.1,0.7,0.3,1.3,0.8,1.9
	c4.9,6.5,15.9,12.3,18,13.5l5,1.3l6.2,0.6l3.2,3l4.7,3l0.8,9.7l-3,2.8l-2.1,3c0,0-4.7,1.9-6.3,1.9c-9.3,0-22.4-7.9-22.4-7.9
	l-7.4-4.5l-2.1-3.6l-10.5-12c0,0-3-6.2-3-9.9c0.1-2.9,0.7-5.8,1.5-8.6l0.4-10.3c0-2.4,2.6-12.7,2.6-12.7s9.5-10.7,15.7-14.6
	c3.2-1.9,6.6-3.3,10.1-4.3l4.5-1.9l10.3-0.9c16.5,0,27.1,12.7,27.1,34.4C738.6,126.5,731.7,134.2,722.9,134.2z M712.6,100.3
	c-1.8,0.2-3.6,0.6-5.2,1.3l-4.5,1.1l-7.5-0.2c-3.4,0-5.2,4.1-5.2,7.1c0,1.3,0.2,3,1.5,3.9c1.1,0.8,2.8,0.8,4.7,0.8h3.7
	c0.8,0,1.5,0.2,2.1,0.2l6,0.8l6.5-0.2c6.5-0.2,6.9-2.1,6.9-5.4C721.6,106.2,717.3,100.3,712.6,100.3L712.6,100.3z"/>
<path class="st0" d="M805.9,101.8c-8.8,0.9-17.8,4.5-18.7,9.9l-0.8,4.5l-3.9,9c-0.3,1.9-0.4,3.9-0.4,5.8c0,9,3.2,16.4,3.2,19.8
	c0,5.4-4.3,15-11,15c-3.2,0-6.4-3.9-7.8-7.5l-1.7-4.5l-2.1-4.5l0.2-10.7l-0.8-3.7l0.2-6.4l-0.6-5l1.5-8.4l-0.9-12.3l-2.1-10.4
	l-0.8-11.6v-0.8c0-4.7,3.5-8.8,9.7-8.8c3.6,0,9.2,4.3,9.2,7.7l-0.2,1.7l1.1,3.4v2.4l0.6,2.1c0.4,1.5,1.1,3,2.6,3
	c7.9,0,12.2-11.2,22.1-11.2c9.3,0,16.5,4.7,16.5,9.5C821.1,94.6,813.2,101.1,805.9,101.8z"/>
</svg>
