<svg id="Capa_5" data-name="Capa 5" xmlns="http://www.w3.org/2000/svg" viewBox="0 0 828 183"><defs><style>.cls-1{fill:#e1e2dc;stroke:#a6a999;stroke-miterlimit:10;stroke-width:0.75px;}</style></defs><path class="cls-1" d="M99.08,71.93c-.19,0-5.43,6.17-5.43,6.17S81.31,65.57,73.08,65.57c-7.66,0-12.71,5.61-14.58,7.85l.75,4.68,2.62,3.18,12,7.48,4.3,4.48,6.17,4.12,2.62,3.36L91,105.4l3.36,9.35,3,7.67a19,19,0,0,1,1.31,7.1c0,15.34-17.76,29-32.16,29a82.44,82.44,0,0,1-18-2.25l-8.79-2.43L36.62,151c-2.06-1.31-9.16-6-9.16-12.16,0-8.41,3.74-12,8.41-12,3.37,0,6.36,8.79,26.93,8.79,7.85,0,14-4.67,14-11.78a11.85,11.85,0,0,0-1.12-4.3L72.52,117l-4.3-6.17-5.61-2.62C52.33,103,37.74,88.94,37.74,75.29c0-12.9,9.91-21.13,9.91-21.13l8.23-3.92,4.49-2.44a64.88,64.88,0,0,1,9.72-1.12c20.57,0,34,8.6,34,19.82C104.13,67.63,100.76,70.43,99.08,71.93Z"/><path class="cls-1" d="M216.51,165.05c-3.37,0-7.48-7.48-8-13.65l-.56-6.54a88.36,88.36,0,0,0,1.31-9.73c0-3.18.56-6.36.56-9.35a10.22,10.22,0,0,0-3-7.85c-2.25-2.25-6-4.68-8.42-4.68a1.81,1.81,0,0,0-1.68.75l-2.43,2.81-4.12,2-1.49,2.06-.94,3.18-3,3.55.56,19.45v.75c0,7.48-5.05,13.27-10.1,13.27-4.48,0-9.35-3.92-9.35-8.22l-.18-5.8-1.87-6,.75-15.71V124.1c0-9-1.87-16.46-7.11-16.46-1.68,0-4.86,2.81-4.86,2.81l-3.37,1.49-2.06,6s-5.23,6.73-5.23,11.22c0,8.23,3.74,16.45,3.74,23.75,0,8-7.48,16.83-11.78,16.83-2.25,0-4.68-2.25-5.61-3.18l-3.93-2.81-.93-5.61-.75-6,1.68-9.91-1.12-18,1.68-7.3.19-10.09,1.12-4.12,1.31-14c.56-6.36,4.11-10.66,10.1-10.66,4.86,0,6.73,8.23,7.29,13.28,2.62-.19,6.17-.94,7.11-1.5,5.79-2.43,6.35-3.37,10.09-3.37,5.24,0,11.6,10.29,15.15,13.28a4,4,0,0,0,2.43,1.12c.75,0,1.5-.37,2.81-1.31l7.66-6.17L203.05,91H204c6.73,0,18.14,13.84,18.14,13.84l3.37,4.49.74,5.61,2.06,7.29.56,27.11C228.85,152.9,221.93,165.05,216.51,165.05Z"/><path class="cls-1" d="M311.69,163.74a7.62,7.62,0,0,1-3,.56,19.37,19.37,0,0,1-5.8-1.12l-6.36-4.3-13.27,2.81a112.26,112.26,0,0,1-16.46,1.49c-8.23,0-12.53-6-17.57-12.15-4.31-5.24-7.48-11.6-7.48-15,0-17.39,13.08-32.17,13.08-32.17l5.43-7.1,3.55-1.69s5.8-3.55,11.6-3.55c3,0,7.1,3.55,9.53,3.55a1.37,1.37,0,0,0,1.12-.37l4.12-3.93a18,18,0,0,1,5.61-1.49c4.3,0,11.78,10.84,12.9,20.19l.93,7.11,3.93,16.64.19,7.29c0,.19,2.43,6.36,2.43,6.36S314.5,162.62,311.69,163.74Zm-24.12-86.2-3.18,2-6.17,1.5-3.93.19-4.67.56L267,81.09l-4.49-.37c-1.87,0-5.42-3.37-8.41-6.55-4.3-3.93-9.17-6.54-9.54-10.47l-.37-4.3.74-5.8c.57-4.49,3-7.85,7.86-10.47L259,40.32l8-.93,6.73.37,5.42,1.69h5.43c5.05,0,15.14,9.72,15.14,18.32C299.72,71.18,287.57,77.54,287.57,77.54Zm3.18,48.24L287,120l-1.87-4.68c-.94-2.24-3-2.81-5.61-2.81-1.5,0-3.18.19-4.86.19-7.48,0-15.9,8.42-15.9,16.83,0,1.69,2.81,7.48,2.81,7.48l4.11,3,1.87,3c1.12,1.68,5.24,1.87,6.36,1.87,10.84,0,17.95-6,17.95-14.78A12.77,12.77,0,0,0,290.75,125.78ZM271.11,53.23c-3.36,0-8.78,2.8-8.78,5.61,0,3.18,5.79,8,9.53,8,.94,0,3-1.68,3-1.68l2.44-.38,3.36-2.06a3.09,3.09,0,0,0,1.68-2.8C282.33,56.59,275.23,53.23,271.11,53.23Z"/><path class="cls-1" d="M438.85,112.13l-6,3.55-12.35,1.87-5.42,1.69-2.62,4.86-.18,8,.93,4.11-.93,8.42v9.54l-.19,10.47c0,3.55-5.42,9-6,9.35-1.31,1.49-3.93,4.48-6.36,4.48-5.24,0-7.67-6.35-8.23-8l-2.06-4.67,1.31-5.24-.37-7.85,2.24-7.11V126.53l1.68-6.54-.18-8.42,2-10.85.19-11.22s.75-3.55,1.12-6c.75-3,.75-6.17.75-10.47V62.76c0-16.26,6.17-22.06,23.94-22.06a87.5,87.5,0,0,1,10.28.93L451,47.24c3.75.94,21.88,12.34,21.88,22.07C472.88,95.11,443.15,110.07,438.85,112.13Zm5.24-47.68L433.61,63l-3.92-2.06h-3.18c-7.48,0-7.67,3.37-8.42,7.67L416.22,80l.57,4.86L414.92,91a4.08,4.08,0,0,0-.19,1.5c0,2.24,1.49,3.74,2.24,3.74,10.47,0,34-12.91,34-23C451,69.68,447.83,64.82,444.09,64.45Z"/><path class="cls-1" d="M520,162.81A59.88,59.88,0,0,1,491,155l-5.61-2.43-5.43-9c-3.74-6.17-5.05-9.73-5.05-18,0-14.77,18.33-37.39,38-37.39.75,0,1.5.18,2.25.18l7.85.75,4.12,3L534,94.93l3,3.92s18.88,17,18.88,27.87C555.91,142.61,530.11,162.81,520,162.81Zm15.52-42.64-1.5-2.8-3.92-1.87-5.43-6.17-7.29-1.13-6.17-2.43S492,109,492,126.16c0,9.53,16.27,16.83,25.25,16.83,6,0,19.63-6,19.63-14.4,0-.38-.19-.94-.19-1.31Z"/><path class="cls-1" d="M645.86,105a156.69,156.69,0,0,1,1.68,17.57c0,11.6-2.43,18.7-2.43,21.88l-.37,17.77-.75,9.16-3.74,4.11c-1.13,1.87-3.56,5-6,5-3.74,0-9.16-2.62-9.72-7.29l-1.5-8a10.26,10.26,0,0,0,.19-1.68c0-.38,0-.57-.19-.57-2.61,0-12.15,4.68-23.18,4.68a32.24,32.24,0,0,1-32.54-32.16c0-3.56,1.68-13.65,1.68-13.65l4.86-10.29,4.68-3.93s6.36-6.73,11.41-9.53c8.41-4.87,13.83-6.92,23.56-7.11l8.22-.19,3.18.38h.75c2.25,0,2.81-1.69,2.81-3.56,0-.56-.19-1.12-.19-1.68L627.16,79l.18-9.53s2.44-30.3,11.78-30.3c6.55,0,7.49,7.3,7.49,12.16,0,1.87-.19,3.18-.19,3.92,0,6.18,1.49,15,1.49,30.86C647.91,90.25,646.23,102.22,645.86,105Zm-18.33,16.08c0-2.81-3.93-5.8-3.93-5.8l-3.36-3.55h-8c-13.28,0-25.25,11.78-25.25,23,0,7.85,5.61,13.65,14,13.65a22.82,22.82,0,0,0,16.08-6.17,8.33,8.33,0,0,0,2.62-4.12l3-6,.93-3.55,2.44-3,1.3-3.36A2.33,2.33,0,0,0,627.53,121.11Z"/><path class="cls-1" d="M722.9,134.2c-10.29,0-22.63-3.56-30.48-3.56-4.86,0-7.67,1.5-7.67,3.56a4,4,0,0,0,.75,1.87c4.86,6.54,15.89,12.34,18,13.46l5,1.31,6.17.56,3.18,3,4.67,3,.75,9.73-3,2.8-2.06,3s-4.67,1.87-6.35,1.87c-9.35,0-22.44-7.86-22.44-7.86L682,162.43l-2.06-3.55-10.47-12s-3-6.17-3-9.91a36.4,36.4,0,0,1,1.49-8.6l.38-10.28c0-2.44,2.61-12.72,2.61-12.72s9.54-10.66,15.71-14.59a40.57,40.57,0,0,1,10.1-4.3l4.49-1.87,10.28-.93c16.46,0,27.12,12.71,27.12,34.41C738.61,126.53,731.69,134.2,722.9,134.2Zm-10.29-33.85a18.07,18.07,0,0,0-5.23,1.31l-4.49,1.12-7.48-.19c-3.37,0-5.24,4.12-5.24,7.11,0,1.31.19,3,1.5,3.93,1.12.75,2.81.75,4.68.75h3.73c.75,0,1.5.18,2.06.18l6,.75,6.54-.19c6.55-.18,6.92-2.05,6.92-5.42C721.59,106.15,717.29,100.35,712.61,100.35Z"/><path class="cls-1" d="M805.93,101.85c-8.79.93-17.77,4.48-18.7,9.91l-.75,4.49-3.93,9a30.93,30.93,0,0,0-.37,5.8c0,9,3.18,16.45,3.18,19.82,0,5.42-4.31,15-11,15-3.18,0-6.36-3.93-7.85-7.48l-1.68-4.49-2.06-4.49.19-10.66-.75-3.74.19-6.35-.57-5,1.5-8.42-.93-12.34L760.3,92.5l-.75-11.6v-.75c0-4.67,3.55-8.78,9.72-8.78,3.56,0,9.17,4.3,9.17,7.66l-.19,1.69,1.12,3.36v2.43l.56,2.06c.38,1.5,1.12,3,2.62,3,7.86,0,12.16-11.22,22.07-11.22,9.35,0,16.45,4.68,16.45,9.54C821.07,94.55,813.22,101.1,805.93,101.85Z"/></svg>