<svg id="Capa_5" data-name="Capa 5" xmlns="http://www.w3.org/2000/svg" viewBox="0 0 511 384"><defs><style>.cls-1,.cls-4{fill:#efd9c3;}.cls-1,.cls-2,.cls-3,.cls-4{stroke:#daad86;}.cls-1{stroke-linecap:round;stroke-linejoin:round;stroke-width:7px;}.cls-2,.cls-3{fill:#f3e6ca;}.cls-2{stroke-width:5px;}.cls-3{stroke-width:3px;}.cls-4{stroke-width:2px;}</style></defs><g id="Forma_4" data-name="Forma 4"><path id="Path_2" data-name="Path 2" class="cls-1" d="M495.55,144a123.64,123.64,0,0,1-55.29,85.39c11.58,2.14,20,13.52,21.07,25.25s-3.88,23.31-11.12,32.6A102.9,102.9,0,0,0,498.36,269c-15.15,39.89-56.88,63.1-97.53,76.05-63.46,20.15-131.41,23.42-197.52,15.76-27.75-3.26-55.6-8.46-80.85-20.45S74.61,309.11,63.24,283.6a94.85,94.85,0,0,1,2-80.69c21-41.17,68.76-61.22,97.43-97.44,5.2-6.63,9.9-14.08,11.22-22.44s-1.48-17.75-8.57-22.4c-10.71-7-25.5-.15-33.46,9.85s-12,22.6-19.89,32.65c-7.71,9.79-18.52,16.57-29.28,22.9C68,134.7,53.09,143,38.14,151.28c-3,1.63-6.17,3.32-9.49,2.75s-6.11-4.48-4.28-7.29a102.57,102.57,0,0,0,16-41.67c3.82-25.76,23-46.37,42.85-63.21,14.18-12,29.53-23.15,47.08-29.12s37.85-6.23,54,3c22.6,12.8,32.39,41.62,29,67.38s-17.55,48.82-33.52,69.27S145.72,191.73,132.26,214c-3.17,5.26-6.18,11.12-5.61,17.29S133,243.4,139,242c5.61-1.33,8.16-7.71,10-13.16,7.39-22.19,17.49-43.77,32.75-61.47,28-32.39,70.75-48.56,113.14-54.94s85.44-4.23,128.19-6.63c25.91-1.48,54.68-6.23,70.29-27a154.32,154.32,0,0,1-51.26,93.92A131.71,131.71,0,0,0,495.56,144"/></g><path id="Path_7" data-name="Path 7" class="cls-2" d="M352,301.6a25.87,25.87,0,0,1-17.25,7.11c18.77-12,27.44-37.79,19.77-58.74-1.29-3.48-6-3.88-9.69-3.62A219.77,219.77,0,0,0,284.19,260a101.75,101.75,0,0,0-12.34,5.54,65.63,65.63,0,0,0-29.7,34.36c-.89,2.44-2,5.29-4.52,5.92-2.68-2.89.38-7.33,3-10.27a53,53,0,0,0,12.9-41.4c-.92-7.38-3.67-14.84-9.27-19.69-3.92-3.39-8.93-5.23-14-6.35-10.83-2.4-22.73-1.44-32.14,4.41s-15.76,17.1-14.09,28.07c.62,4.21,2.4,8.39,1.88,12.64-.4,3.2-2.06,6.11-2.61,9.3s.57,7.12,3.66,8a8.54,8.54,0,0,0,4.11-.17c11.11-2.52,21.47-7.61,31.72-12.63a88.48,88.48,0,0,0-25,35.7,40.7,40.7,0,0,0-2.92,12.41c-.59,14,10.41,26.42,23.3,32s27.33,5.68,41.37,5.75c9.55,0,19.11.07,28.63.08,9,.05,18.26.05,26.88-2.57,9.84-3,18.37-9.27,25.84-16.35a48,48,0,0,0,8.33-9.93c5.83-9.69,5.65-21.72,5.3-33a1.69,1.69,0,0,0-.13-.66C354,300.27,352.7,300.92,352,301.6Z"/><circle class="cls-3" cx="53.79" cy="100.7" r="5.71"/><circle class="cls-4" cx="196.4" cy="258.36" r="2.7"/></svg>