<svg xmlns="http://www.w3.org/2000/svg" xmlns:xlink="http://www.w3.org/1999/xlink" viewBox="0 0 1283.49 1283.49"><defs><style>.cls-1{fill:none;}.cls-2{clip-path:url(#clip-path);}.cls-3{fill:#4c6b7f;}.cls-4{fill:#98a3a8;}.cls-5{fill:#577b93;}.cls-6{fill:#4d2408;}.cls-7{fill:#c7914f;stroke:#4c4c4b;}.cls-15,.cls-16,.cls-17,.cls-23,.cls-24,.cls-25,.cls-7,.cls-9{stroke-miterlimit:10;}.cls-23,.cls-24,.cls-25,.cls-7,.cls-9{stroke-width:0.25px;}.cls-8{fill:#7f6229;}.cls-9{fill:#724534;stroke:#000;}.cls-10{fill:#56352a;}.cls-11{fill:#666;}.cls-12{fill:#70706f;}.cls-13{fill:#5b5a59;}.cls-14{fill:#b2b242;}.cls-15{fill:#898338;}.cls-15,.cls-16,.cls-17{stroke:#8c874c;}.cls-15,.cls-16{stroke-width:2px;}.cls-16{fill:#918f80;}.cls-17{fill:#2b2b2b;stroke-width:0.5px;}.cls-18{font-size:11.45px;fill:#e0e0e0;font-family:ProvidenceSansPro, Providence Sans Pro;}.cls-19{letter-spacing:-0.03em;}.cls-20{letter-spacing:0em;}.cls-21{letter-spacing:0.01em;}.cls-22{letter-spacing:-0.04em;}.cls-23{fill:#8e8d8d;stroke:#6b6b6b;}.cls-24{fill:#e56e6e;stroke:#d6706e;}.cls-25{fill:#dd6464;stroke:#a35f5f;}.cls-26{fill:#e0e1e2;}.cls-27{fill:#726e41;}.cls-28{fill:#999439;}.cls-29{fill:#757442;}.cls-30{fill:#4f4f4f;}.cls-31{fill:#4c4c4a;}.cls-32{fill:#9b9b9b;}.cls-33{fill:#848484;}.cls-34{fill:#5a7f2d;}.cls-35{fill:#d8d8d8;opacity:0.28;}</style><clipPath id="clip-path"><path class="cls-1" d="M1219.9,824.38c-5.29-7.26-12.7-13-21.71-17.24a66.9,66.9,0,0,0-1.79-20.7c13.41-10.78,21.33-24.05,21.33-38.41,0-14-7.56-27-20.42-37.68a62.68,62.68,0,0,0,1-9.72c22.43-19,27.75-50.68,13-79.13-.95-13-5.77-26.41-14.74-38.74A93.5,93.5,0,0,0,1145.81,548c-9.83-36.18-40.77-66.6-82.76-83.72-.41-36.87-19.22-67-49.82-73.8a60.39,60.39,0,0,0-20.11-1c-17.45-26.45-51.44-45.53-91.7-49.47-20.46-22.44-56.57-41.94-100.75-51.8-40.88-9.12-80.46-8.14-110.43.81a166,166,0,0,0-44.19-5.84c-36.49,0-68.92,11.26-89.55,28.73a64.85,64.85,0,0,0-25.5-5.27,66,66,0,0,0-31.15,8,88.27,88.27,0,0,0-47.29-13.48c-36.13,0-66.88,21-78.39,50.47h-.34a114,114,0,0,0-34.4,5.21q-3.92-.18-7.89-.18c-62.34,0-112.88,32.87-112.88,73.43a46.2,46.2,0,0,0,.29,5.14c-53.89,5.55-95.08,35.91-95.08,72.52,0,12,4.44,23.37,12.31,33.38a78.17,78.17,0,0,0-27.74,46.63,74.76,74.76,0,0,0-1.19,14.11c-29.43,13.26-48.72,35.37-48.72,60.42,0,23.68,17.23,44.73,44,58.16-11.39,10.06-18,22-18,34.88,0,35.71,51,64.65,113.94,64.65a199.37,199.37,0,0,0,20.22-1c0,.21,0,.41,0,.62,0,30.56,19.93,57.6,50.48,74C281.4,952.7,349.56,997.91,431.8,997.91A210.13,210.13,0,0,0,505,985.07c26.15,13.11,57.59,20.76,91.41,20.76a208.6,208.6,0,0,0,79-15.1,155.38,155.38,0,0,0,35.74,4.11c27.05,0,52-6.8,72.06-18.26,20.28,11.94,45.76,19,73.43,19,38.21,0,72.24-13.56,94.17-34.67a83.36,83.36,0,0,0,28.65-1c29.06,30,100.42,27.77,164.56-6.41C1211.6,917.51,1245.58,859.69,1219.9,824.38Z"/></clipPath></defs><g id="Objects"><g class="cls-2"><rect class="cls-3" x="-36.65" y="247.18" width="1364.47" height="681.54"/><path class="cls-4" d="M1033.59,287.87V520.25h294.23V287.87Zm264.05,210.4H1059.09V309.86h238.55Z"/><rect class="cls-5" x="1059.09" y="309.86" width="238.55" height="188.41"/><rect class="cls-6" x="-36.65" y="927.08" width="1364.47" height="141.22"/><path class="cls-7" d="M245.69,721.8l-2.25,3.87a11,11,0,0,1,5.46,8.48,10.77,10.77,0,0,1-1.94,7.43,11.13,11.13,0,0,1-14.63,3.18l-2.24,3.85a15.51,15.51,0,0,1,15.6-26.81Zm-11,19.1a6.55,6.55,0,1,0-2.35-9A6.54,6.54,0,0,0,234.66,740.9Z"/><path class="cls-7" d="M184.57,679.7a3.26,3.26,0,0,0,.53,2.81,2.86,2.86,0,0,0,3,1.17,3,3,0,0,0,2.32-2.14,2.49,2.49,0,0,1,.52-.89,2.48,2.48,0,0,0-.14-3.57c-.14-.13-.3-.25-.54-.45,1-.37,1.95-.76,2.9-1,1.23-.37,2.49-.67,3.73-1,.41-.11.62,0,.72.44.28,1.26.61,2.5.94,3.78-.87.32-1.7.59-2.51.94a16.77,16.77,0,0,0,6.41,32.19c.94,0,.94,0,1.16.92l1.47,5.86.17.68-18.93,4.74c-.06-.23-.12-.45-.17-.68-1.64-7-3.44-14-5.58-21-.71-2.26-1.54-4.49-2.42-6.7a4.64,4.64,0,0,0-3-2.71,1.24,1.24,0,0,0-1.76.67,42.4,42.4,0,0,0-5.86,19.16,53,53,0,0,0,3.27,21.7,75.57,75.57,0,0,0,6.51,13.46,5.36,5.36,0,0,0,2.26,2.09,34.57,34.57,0,0,0,8.11,2.54c1.57.34,3.16.57,4.75.85a.9.9,0,0,0,1-.24.46.46,0,0,1,.42-.08l9.58,2.52s.09.06.15.1c-2,6.28-1.15,12.08,3.28,17s10.06,6.45,16.57,5.17c.24.95.48,1.88.69,2.82a.45.45,0,0,1-.2.36c-4.34,1.62-8.72,3.14-13.44,3.19-.23,0-.46,0-.78-.05l.49-.47a3.12,3.12,0,0,0,.83-3.11,1.54,1.54,0,0,1,0-.74,2.45,2.45,0,0,0-1.55-3.16,2.57,2.57,0,0,0-3.21,1.63,5.61,5.61,0,0,1-.6,1c-.37.63-.73,1.27-1.12,1.94,0-.05-.2-.18-.35-.32a40.88,40.88,0,0,1-7.74-11A68.8,68.8,0,0,1,191.16,756a.76.76,0,0,0-.72-.64,52.82,52.82,0,0,1-10-2.56c-.69-.27-1.37-.59-2-.92a6.77,6.77,0,0,1-2.8-2.66,74,74,0,0,1-7.36-15.77c-3.13-9.73-3.89-19.58-1.26-29.56A39.64,39.64,0,0,1,184.12,680Z"/><polygon class="cls-8" points="1075.69 724.29 1075.69 821.74 377.24 821.74 377.24 724.29 350.83 724.29 350.83 942.27 377.24 942.27 377.24 849.68 1075.69 849.68 1075.69 942.27 1102.09 942.27 1102.09 724.29 1075.69 724.29"/><rect class="cls-9" x="764.12" y="615.37" width="462.26" height="84.28" rx="1.76"/><rect class="cls-10" x="783.86" y="623.27" width="86.18" height="1.65"/><rect class="cls-10" x="820.92" y="630.51" width="86.18" height="1.65"/><rect class="cls-10" x="856.22" y="637.76" width="86.18" height="1.65"/><rect class="cls-10" x="1035.82" y="690.1" width="86.18" height="1.65"/><rect class="cls-10" x="1136.8" y="677.61" width="50.11" height="0.96"/><rect class="cls-10" x="1088.89" y="681.38" width="50.11" height="0.96"/><rect class="cls-11" x="304.97" y="636.23" width="91.72" height="40.22" transform="translate(-305.5 1007.17) rotate(-90)"/><rect class="cls-12" x="267.77" y="650.64" width="91.72" height="11.4" transform="translate(-342.71 969.96) rotate(-90)"/><rect class="cls-13" x="279.17" y="650.64" width="91.72" height="11.4" transform="translate(-331.31 981.36) rotate(-90)"/><rect class="cls-11" x="701.07" y="636.39" width="91.3" height="40.23" transform="translate(1403.22 -90.22) rotate(90)"/><rect class="cls-12" x="738.29" y="650.8" width="91.3" height="11.4" transform="translate(1440.44 -127.43) rotate(90)"/><rect class="cls-13" x="726.88" y="650.8" width="91.3" height="11.4" transform="translate(1429.04 -116.03) rotate(90)"/><rect class="cls-14" x="362.66" y="474.16" width="391.87" height="234.06" rx="34.79"/><rect class="cls-14" x="362.66" y="573.46" width="391.87" height="134.76"/><rect class="cls-8" x="322.04" y="705.39" width="814.76" height="30.86"/><rect class="cls-15" x="709.57" y="534.28" width="17.04" height="70.41"/><rect class="cls-16" x="412.82" y="513.38" width="156.89" height="56.1" rx="5.78"/><rect class="cls-17" x="418.93" y="518.04" width="147.25" height="46.46" rx="5.78"/><text class="cls-18" transform="translate(426.5 557.37)"><tspan class="cls-19">P</tspan><tspan class="cls-20" x="6.47" y="0">ro</tspan><tspan class="cls-21" x="17.92" y="0">c</tspan><tspan x="23.78" y="0">essi</tspan><tspan class="cls-21" x="45.17" y="0">n</tspan><tspan class="cls-22" x="52.11" y="0">g</tspan><tspan x="58.07" y="0">..</tspan></text><rect class="cls-11" x="455.51" y="589.49" width="81.02" height="22.1"/><rect class="cls-23" x="463.38" y="595.76" width="3.7" height="3.7"/><rect class="cls-23" x="470.77" y="595.76" width="3.7" height="3.7"/><rect class="cls-23" x="477.85" y="595.76" width="3.7" height="3.7"/><rect class="cls-23" x="484.6" y="595.76" width="3.7" height="3.7"/><rect class="cls-23" x="491.59" y="595.76" width="3.7" height="3.7"/><rect class="cls-23" x="498.99" y="595.76" width="3.7" height="3.7"/><rect class="cls-23" x="506.06" y="595.76" width="3.7" height="3.7"/><rect class="cls-23" x="512.81" y="595.76" width="3.7" height="3.7"/><rect class="cls-23" x="463.38" y="602.35" width="3.7" height="3.7"/><rect class="cls-23" x="470.77" y="602.35" width="3.7" height="3.7"/><rect class="cls-23" x="477.85" y="602.35" width="3.7" height="3.7"/><rect class="cls-23" x="484.6" y="602.35" width="3.7" height="3.7"/><rect class="cls-23" x="491.59" y="602.35" width="3.7" height="3.7"/><rect class="cls-23" x="498.99" y="602.35" width="3.7" height="3.7"/><rect class="cls-23" x="506.06" y="602.35" width="3.7" height="3.7"/><rect class="cls-23" x="512.81" y="602.35" width="3.7" height="3.7"/><rect class="cls-23" x="519.68" y="595.76" width="3.7" height="10.29"/><rect class="cls-23" x="525.03" y="595.76" width="3.7" height="10.29"/><rect class="cls-23" x="530.45" y="595.76" width="3.7" height="10.29"/><circle class="cls-24" cx="421.96" cy="600.54" r="18.46"/><circle class="cls-25" cx="421.96" cy="600.54" r="16.68"/><path class="cls-26" d="M415,599.26l-.14.18a1.85,1.85,0,0,0-1-.57,1.26,1.26,0,0,0-1,.59l.08.41.18.23.61.4.22.24.3.2.1.16.21.23.14.47.15.41a.91.91,0,0,1,.06.32,1.48,1.48,0,0,1-1.42,1.3,4.63,4.63,0,0,1-.85-.09l-.38-.1-.14-.15s-.39-.19-.39-.48.06-.43.22-.43a2.06,2.06,0,0,0,1.36.47.84.84,0,0,0,.91-.84,1,1,0,0,0-.1-.39l-.16-.12-.25-.35-.32-.17a2.18,2.18,0,0,1-1.14-1.57,1.34,1.34,0,0,1,.41-.94l.4-.21.2-.11a2.34,2.34,0,0,1,.41-.05c.89,0,1.51.33,1.51.85C415.21,599.19,415,599.26,415,599.26Z"/><path class="cls-26" d="M420.88,599.07h-.24l-.48.06-.31,0h-.16a.73.73,0,0,0-.76.8v0l.05.19,0,.49.07.61.09.33s0,.51,0,.82,0,.72,0,.72v.44c0,.7-.23,1.37-.39,1.37s-.3-.34-.36-.52a.47.47,0,0,1,0-.17,3.54,3.54,0,0,1,.11-.57,4,4,0,0,0,.08-.6l-.09-.25.06-.82v-.32c0-.22-.16-.38-.16-.72s.09-.66.09-.85c0-.39-.18-.61-.47-.61h0l-1.21.1h-.05c-.24,0-.3-.13-.3-.39s.18-.27.35-.33l.14,0,.47,0,.19-.07.63,0,.56-.2H419l1-.07.33-.09h.86a2.31,2.31,0,0,1,0,.29C421.13,598.78,420.88,599.07,420.88,599.07Z"/><path class="cls-26" d="M426.45,602.37l-.07.23-.5.62a2.37,2.37,0,0,1-1.7.72,1.77,1.77,0,0,1-1.14-.37l-.27-.35-.12-.08a2.77,2.77,0,0,1-.43-1.7,3,3,0,0,1,.79-2.12l.1-.17.2-.16.21-.23.2,0,.12-.08a4.18,4.18,0,0,1,1.49-.34,2.19,2.19,0,0,1,1.61,1.9A5,5,0,0,1,426.45,602.37Zm-.66-3.06-.25,0-.38-.19-.54,0a2.45,2.45,0,0,0-1.8,2.15c0,1.46.39,2,1.38,2a1.64,1.64,0,0,0,1.07-.38l.17-.27.27-.24.13-.22L426,602a6.17,6.17,0,0,0,.34-1.56C426.3,599.43,425.79,599.31,425.79,599.31Z"/><path class="cls-26" d="M430.48,601.38l-.26.21-.58,0-.4.12-.19.39v.52l0,.19,0,.42v1.06c0,.14-.23.34-.23.34s-.1.17-.18.17-.21-.26-.21-.26l-.09-.19.05-.23,0-.43.12-.39v-1l.08-.32v-.47l.11-.58v-.58s0-.17,0-.32a2.29,2.29,0,0,0,0-.56v-.58c0-.71.26-1,1-1a4.21,4.21,0,0,1,.48,0l.92.29c.16,0,.94.54.94,1C432.09,600.64,430.48,601.38,430.48,601.38Zm.4-2.47-.48,0-.21-.15-.25,0c-.5,0-.57.37-.57.52a.28.28,0,0,0,0,.08l-.14.51,0,.25-.09.32,0,.21v0c0,.14.1.24.29.24.6,0,2-.82,2-1.42A.59.59,0,0,0,430.88,598.91Z"/><rect class="cls-27" x="716.96" y="550.2" width="1.98" height="34.72"/><polygon class="cls-28" points="770.49 487.45 761.92 487.45 718.09 562.68 718.09 573.46 770.49 487.45"/><circle class="cls-29" cx="764.01" cy="492.22" r="15.86"/><path class="cls-27" d="M589.76,474.16v-1.45a6.91,6.91,0,0,0-6.91-6.91H525.46a6.91,6.91,0,0,0-6.91,6.91v1.45Z"/><rect class="cls-27" x="601.81" y="365.79" width="1.85" height="123.46" transform="translate(515.2 -306.24) rotate(47.85)"/><rect class="cls-27" x="519.8" y="359.74" width="1.85" height="123.46" transform="translate(1190.03 450.08) rotate(143.46)"/><rect class="cls-30" x="851.46" y="700" width="5.39" height="5.39" rx="1.38"/><rect class="cls-30" x="843.42" y="700" width="5.39" height="5.39" rx="1.38"/><rect class="cls-30" x="836.3" y="700" width="5.39" height="5.39" rx="1.38"/><rect class="cls-30" x="858.81" y="700" width="5.39" height="5.39" rx="1.38"/><rect class="cls-30" x="866.49" y="700" width="5.39" height="5.39" rx="1.38"/><rect class="cls-30" x="815.36" y="700" width="5.39" height="5.39" rx="1.38"/><rect class="cls-30" x="807.32" y="700" width="5.39" height="5.39" rx="1.38"/><rect class="cls-30" x="822.71" y="700" width="5.39" height="5.39" rx="1.38"/><rect class="cls-30" x="830.39" y="700" width="5.39" height="5.39" rx="1.38"/><rect class="cls-30" x="874.65" y="700" width="5.39" height="5.39" rx="1.38" transform="translate(1754.68 1405.39) rotate(180)"/><rect class="cls-30" x="897.11" y="700" width="5.39" height="5.39" rx="1.38"/><rect class="cls-30" x="889.07" y="700" width="5.39" height="5.39" rx="1.38"/><rect class="cls-30" x="881.95" y="700" width="5.39" height="5.39" rx="1.38"/><rect class="cls-30" x="904.47" y="700" width="5.39" height="5.39" rx="1.38"/><rect class="cls-30" x="912.14" y="700" width="5.39" height="5.39" rx="1.38"/><rect class="cls-30" x="920.3" y="700" width="5.39" height="5.39" rx="1.38" transform="translate(1845.99 1405.39) rotate(180)"/><rect class="cls-30" x="942.61" y="700" width="5.39" height="5.39" rx="1.38"/><rect class="cls-30" x="934.57" y="700" width="5.39" height="5.39" rx="1.38"/><rect class="cls-30" x="927.45" y="700" width="5.39" height="5.39" rx="1.38"/><rect class="cls-30" x="949.96" y="700" width="5.39" height="5.39" rx="1.38"/><rect class="cls-30" x="957.64" y="700" width="5.39" height="5.39" rx="1.38"/><rect class="cls-30" x="965.79" y="700" width="5.39" height="5.39" rx="1.38" transform="translate(1936.97 1405.39) rotate(180)"/><rect class="cls-30" x="987.94" y="700" width="5.39" height="5.39" rx="1.38"/><rect class="cls-30" x="979.9" y="700" width="5.39" height="5.39" rx="1.38"/><rect class="cls-30" x="972.78" y="700" width="5.39" height="5.39" rx="1.38"/><rect class="cls-30" x="995.29" y="700" width="5.39" height="5.39" rx="1.38"/><rect class="cls-30" x="1002.97" y="700" width="5.39" height="5.39" rx="1.38"/><rect class="cls-30" x="1011.13" y="700" width="5.39" height="5.39" rx="1.38" transform="translate(2027.64 1405.39) rotate(-180)"/><rect class="cls-30" x="1033.59" y="700" width="5.39" height="5.39" rx="1.38"/><rect class="cls-30" x="1025.55" y="700" width="5.39" height="5.39" rx="1.38"/><rect class="cls-30" x="1018.43" y="700" width="5.39" height="5.39" rx="1.38"/><rect class="cls-30" x="1040.95" y="700" width="5.39" height="5.39" rx="1.38"/><rect class="cls-30" x="1048.62" y="700" width="5.39" height="5.39" rx="1.38"/><rect class="cls-30" x="1056.78" y="700" width="5.39" height="5.39" rx="1.38" transform="translate(2118.95 1405.39) rotate(-180)"/><rect class="cls-30" x="1079.08" y="700" width="5.39" height="5.39" rx="1.38"/><rect class="cls-30" x="1071.05" y="700" width="5.39" height="5.39" rx="1.38"/><rect class="cls-30" x="1063.93" y="700" width="5.39" height="5.39" rx="1.38"/><rect class="cls-30" x="1086.44" y="700" width="5.39" height="5.39" rx="1.38"/><rect class="cls-30" x="1094.12" y="700" width="5.39" height="5.39" rx="1.38"/><rect class="cls-30" x="1102.27" y="700" width="5.39" height="5.39" rx="1.38" transform="translate(2209.93 1405.39) rotate(-180)"/><rect class="cls-31" x="806.07" y="702.15" width="305.11" height="1.09"/><rect class="cls-31" x="805.01" y="702.15" width="1.07" height="3.24"/><rect class="cls-31" x="1111.18" y="702.15" width="1.21" height="3.24"/><polygon class="cls-32" points="142.69 925.08 116.79 750.62 297.82 750.62 266.38 925.08 142.69 925.08"/><path class="cls-33" d="M295.42,752.61,264.71,923.08H144.41l-25.3-170.47H295.42m4.79-4H114.47L141,927.08h127.1l32.15-178.47Z"/><path class="cls-7" d="M273.54,659.6a2.55,2.55,0,0,1-2.06,2.1c-.79.21-.8.53-.37,1.12.63.88,1.18,1.82,1.82,2.69.53.71.38,1.17-.34,1.59-.92.56-1.83,1.15-2.73,1.75s-1,.31-1.22-.56a2.8,2.8,0,0,0-3.46-2.38,2.65,2.65,0,0,0-2.09,2.09,3,3,0,0,0,1.21,3c1.05.82,1.06.81,0,1.55-.87.59-1.74,1.16-2.6,1.76a.87.87,0,0,1-1.44-.27c-.6-1-1.28-1.85-1.86-2.8-.36-.58-.66-.73-1.11-.12a2.56,2.56,0,0,1-3,1,3.09,3.09,0,0,1-2.2-2.47,2.69,2.69,0,0,1,2.08-3.14c.74-.21.78-.45.4-1-.65-1-1.24-2-1.9-2.91-.38-.54-.31-.88.23-1.23.92-.58,1.79-1.22,2.7-1.81.68-.42.73-.76.06-1.29a2.77,2.77,0,0,1-1-3.2,2.87,2.87,0,0,1,2.57-2,2.79,2.79,0,0,1,3,2.07c.32,1.13.75,1,1.51.46s1.53-1,2.3-1.57c.62-.44,1.08-.43,1.5.3.52.91,1.17,1.74,1.68,2.64s.71.84,1.33.13a2.73,2.73,0,0,1,3.32-.8A3.08,3.08,0,0,1,273.54,659.6Z"/><path class="cls-7" d="M236.92,682.44c1.22,4.23,2.43,8.48,3.67,12.71.15.51.09.72-.47.88q-8.75,2.49-17.47,5c-.5.14-.7.07-.85-.45q-3.5-12.24-7-24.45a.61.61,0,0,1,.35-.85,16.5,16.5,0,0,0,7.18-8.13c.16-.36.31-.47.71-.38q4.77,1.11,9.55,2.16a.82.82,0,0,1,.69.69Q235.07,676.05,236.92,682.44Zm-.33,9.22-.6-2.08,0-.12a1.28,1.28,0,0,0-1.59-.93,1.25,1.25,0,0,0-.93,1.59c.4,1.49.83,3,1.28,4.46a1.3,1.3,0,1,0,2.49-.77C237,693.09,236.8,692.38,236.59,691.66Z"/><path class="cls-7" d="M271.93,723.61l-.7-4.42a11.07,11.07,0,0,1-12.77-9.73,11.14,11.14,0,0,1,9.28-12.09L267,693c5.62-.66,10.38.91,14,5.14,4.32,5,5.12,10.76,2.36,16.78C281.2,719.75,277.25,722.56,271.93,723.61Zm-3.58-21.77a6.55,6.55,0,1,0,7.53,5.42A6.56,6.56,0,0,0,268.35,701.84Z"/><path class="cls-34" d="M1209.71,322.34c-17.54-4.58-36.45,10.73-36.81,35.68-5.93-11-15.72,4.47-18.08,11.44-4.37,12.88,1,27.29-2,39.72-2.21,8.88-8.28,10.92-6.58,23.16,2,14.27,11.43,21.33,17.19,31.85,4.12,7.51,4.3,17.3,10,25.37,4,5.69,7.31,8,10.86,8.71h7.21c1.33-.16,2.73-.36,4.26-.54,5.34-.65,3.56-3.6,9.65-.75a6.77,6.77,0,0,1,1.8,1.29h24.94a16.1,16.1,0,0,0,1.24-2.93l2.15,1.37a10.48,10.48,0,0,0,.8,1.56h30.34c.09-.47.16-.93.21-1.43a25.2,25.2,0,0,0,4.72,1.43h7.3c13.65-2.95,20.59-22.7,17.82-42.11.33,0,.66,0,1,0V345a13.78,13.78,0,0,0-4.06.92c4.64-16.46-5.71-32.75-18-36h-8.83a17.59,17.59,0,0,0-6.61,3.61,22.85,22.85,0,0,0-1.77-3.61h-41.94A26.65,26.65,0,0,0,1209.71,322.34Z"/><rect class="cls-35" x="1059.09" y="309.86" width="238.55" height="188.41"/></g></g></svg>