<svg xmlns="http://www.w3.org/2000/svg" viewBox="0 0 683.01 421.76"><defs><style>.cls-1{fill:#577b93;}.cls-2{fill:#516d21;}.cls-3{fill:#737b51;}.cls-4{fill:#6d6d29;}.cls-5{fill:#999;}.cls-6{fill:#ff9d60;}.cls-7{fill:#f5a977;}.cls-8{fill:#04135b;}.cls-9{fill:#040f41;}.cls-10{fill:#7b3704;}.cls-11{fill:#f9b34e;}.cls-12{fill:#f9d374;}.cls-13{fill:#f67f3f;}.cls-14{fill:#0d6ffa;}.cls-15{fill:#fde095;}.cls-16{fill:#44676d;}.cls-17{fill:#0d004f;}.cls-18{fill:#0b0039;}.cls-19{fill:#fff;}.cls-20{fill:#fb5d37;}.cls-21{fill:#f9ca7d;}.cls-22{fill:#f9b36c;}.cls-23{fill:#f9c68a;}.cls-24{fill:#f8996b;}.cls-25{fill:#06333b;}.cls-26{fill:#fac671;}.cls-27{fill:#a88f66;}.cls-28{fill:#c1c1c1;}.cls-29{font-size:0.15px;font-family:ProvidenceSansPro, Providence Sans Pro;letter-spacing:-0.07em;}.cls-30{fill:#5b5a2a;}.cls-31{fill:#fcd3ac;}.cls-32{fill:#182952;}.cls-33{fill:#1d337d;}.cls-34{fill:#f5be93;}.cls-35{fill:#0c2650;}.cls-36{fill:#98c0ff;}.cls-37{fill:#ff7e1d;}.cls-38{fill:#1f2a54;}.cls-39{fill:#26337d;}.cls-40{fill:#f1844b;}.cls-41{fill:#ff7e22;}.cls-42{fill:#565656;stroke:#5f605c;stroke-miterlimit:10;stroke-width:2px;}.cls-43{font-size:30.34px;fill:#909992;font-family:Ode-Semilight, Ode;font-weight:300;letter-spacing:-0.02em;}.cls-44{letter-spacing:-0.01em;}.cls-45{fill:#e1e2dc;}</style></defs><g id="Objects"><rect class="cls-1" x="0.15" y="0.37" width="684.52" height="398.45"/><rect class="cls-2" x="475.64" y="190.05" width="89.47" height="159.32" rx="21.86"/><rect class="cls-2" x="490.64" y="185.55" width="48.85" height="159.32" rx="21.86"/><rect class="cls-2" x="517.5" y="185.55" width="48.85" height="159.32" rx="24.43"/><rect class="cls-2" x="452.44" y="185.55" width="48.85" height="159.32" rx="24.43"/><rect class="cls-2" x="538.73" y="187.95" width="48.85" height="159.32" rx="24.43"/><rect class="cls-2" x="579.74" y="185.55" width="48.85" height="159.32" rx="24.43"/><rect class="cls-2" x="611.39" y="185.55" width="48.85" height="159.32" rx="20.51"/><rect class="cls-2" x="635.81" y="185.55" width="48.85" height="159.32" rx="20.51"/><rect class="cls-3" x="0.15" y="0.37" width="475.49" height="332.39"/><rect class="cls-4" x="28.73" y="18.67" width="183.24" height="312.91"/><rect class="cls-5" y="332.39" width="688.62" height="89.38"/><path class="cls-6" d="M446.92,251.28c3.1,1.16,7.2,2.89,7.2,2.89.53-1.28-9.68-3.46-11.11-6.57-.77-1.67,11.71,4.46,12.58,3.73.36-.3-14.12-5-13.45-6.16.56-.95,15.22,4.22,15.3,3.5.12-1-12.69-3.56-11.55-5,.59-.74,16.14,3.47,17.82,3.71,2.05,0-5.38-5-2.85-5.71,3.44-.92,12.07,9,12.74,9.11,1.95.4,18.58,2.44,26.72-2.88,6.58-4.31,13-10.92,14.52-16.62s3.66-13.56,1.84-19.71a81,81,0,0,1,22.11-.49c.46,9.24-10.6,45.85-15.23,48.87-10.17,6.62-28.33,5-41.13,4-10.31-.85-20.42-2.88-29.71-7.6-2.07-1.05-4.86-2.23-6.46-4.07A.6.6,0,0,1,446.92,251.28Z"/><path class="cls-7" d="M521.31,180.57c-5.52,5.69-11.08,39.81-9,47.94,3.53,6.61,19.55,7.74,24.73,10.88,12-4.92,3.77-26.95,3.77-26.95l4.35-42.92A37,37,0,0,0,521.31,180.57Z"/><path class="cls-8" d="M590.56,285.57c7.67,28.06-1.86,153.89-1.86,153.89l-23-1.57s-5.22-125.18-9-129a2.32,2.32,0,0,0-3.22-.13,5,5,0,0,0-1.9,2.67c-2.36,7.72-15.87,52.68-13.15,62.53,3,10.78,16.29,68.54,16.29,68.54l-19.27.77s-26.42-44.13-26.42-74.93,4.3-71.64,16.78-88.25c5.69-7.56,33.67-13.41,33.67-13.41S588.16,276.81,590.56,285.57Z"/><path class="cls-9" d="M549.05,442.48s-13.31-61.59-16.29-73.08c-2.17-8.35,5.93-40.37,10.53-57.28a7.39,7.39,0,0,1,11.64-3.91h0s-19.46,55-16.48,65.78,16.29,68.54,16.29,68.54l-19.27.77-.14-.24Z"/><path class="cls-9" d="M585.79,279.75c2.46,1.93,4.24,3.91,4.77,5.82,7.67,28.06-1.86,153.89-1.86,153.89l-5.69-.39C583.33,434.52,591.58,316.08,585.79,279.75Z"/><path class="cls-9" d="M521.42,287.64a43.08,43.08,0,0,1,4.41-7.52,12.24,12.24,0,0,1,2.81-2.56,86.35,86.35,0,0,0,13.71,5.29c18.41,5.66,38.26,2.64,46.51-.23a8,8,0,0,1,1.7,2.95,64.85,64.85,0,0,1,1.62,9.36c-4.12,3.07-28,10.47-49.83,3.54C528.53,294.07,523.38,291.4,521.42,287.64Z"/><path class="cls-10" d="M523.3,270.45c.78,2.44,4.3,6.63,20.15,11.54,20.63,6.4,43.23.9,46.25-1.82,1.23-1.11,1.5,11.54,0,12.89-6,5.37-16.56,6.34-24.23,6.57a73.39,73.39,0,0,1-23.54-3.36c-6.46-2-16.14-4.44-19.19-11.15C522.34,284.24,522.23,277.51,523.3,270.45Z"/><path class="cls-11" d="M562.54,168.56s19.16-1,27,8.29,6.53,100.6,3.36,103.32S566,290,544.42,283.64s-23-15.18-23-15.18,2.87-58.35,2.87-76.26S541.78,163.74,562.54,168.56Z"/><path class="cls-7" d="M579.44,267.27c1.69-4.71-.12-19.67-2.05-30.5-1.51.29-3,.63-4.33,1-2.31-7.17-4.35-25.76-4.42-37.44-.13-21.92,11-28.3,11-28.3,2.2-.5,5.72,1.57,11.22,7.3,6.36,17.38,5,98.25,2,100.81-1.27,1.09-5.83,2.89-12.24,4.25C579,277.88,577.87,271.62,579.44,267.27Z"/><path class="cls-12" d="M564.19,168.76c4.16,3.81,4.48,3.89.16,8.9s-18.6,10.7-20.64,9.74c-5.05-2.39-.35-10.36,3-16.09C547.78,169.52,560,164.94,564.19,168.76Z"/><path class="cls-6" d="M545.63,154.32s-1.12,26.38,0,27.53,17.15-4.42,18.55-7.7-5.85-50.95-5.85-50.95Z"/><path class="cls-13" d="M545.15,171.72c2.83-.51,5.27-1.24,6-2,6.53-7.39,1.63-19.38,2.15-22.49,1-6.21,3.1-11.33,2.06-16.68l-9.72,23.81S545.23,163.86,545.15,171.72Z"/><rect class="cls-14" x="564.43" y="287.38" width="60.1" height="40.37" rx="8.5" transform="translate(1188.97 615.12) rotate(180)"/><rect class="cls-15" x="566.73" y="292.03" width="50.91" height="31.07" transform="translate(1184.36 615.12) rotate(180)"/><rect class="cls-16" x="563.15" y="298.68" width="5.37" height="17.77" rx="2" transform="translate(1131.67 615.12) rotate(180)"/><path class="cls-6" d="M584.06,267.27c-3.79,11.53,9.55,36.47,4.13,44.45s-2.69,16.36,3.87,20.52,14.73-1.67,14.08-4.83l-3.24-15.58c-.81-3.89,14.46-35.08,3.71-54-6.38-11.22,3-30.54-1.93-43-4.46,8.31-25.57,3.12-24.36,12.24C582.24,234.85,586.18,260.79,584.06,267.27Z"/><path class="cls-6" d="M535.1,119.48s-2.8,9.62-2.8,17.52.19,21.56,5.78,21.56,13.61-1.54,15.47-12.71,0-23.48-5.59-26.37S535.1,119.48,535.1,119.48Z"/><path class="cls-17" d="M536.81,127.25a2.24,2.24,0,0,1,3,2.55c-.5,2.85-.37,6,2.29,6.62,5.12,1.25,7.55,0,8.39.87s-2.43,5.48,0,6.35,3.72-7.41,5.87-7.41,2.61,11.93,0,14.63.37,6.35,3.82,6.35-.44,4.33,4.21,5.78,8.37,1.44,9.86-4.43,0-9.15,0-9.15,4.75-5.55,3.54-11c-.67-3-3.76-8.54-3.76-8.54a80.16,80.16,0,0,1-3-10.27c-.65-3.75-9.9-7.5-16.23-8.18s-3.16-4.52-8.47-4.52-6,7-6,7-7.58-4.53-7.94-4.32c-4.41,2.69-.74,7.41-.74,7.41s-3.64.39-4.38,5.11,2.33,7.6,7.17,6.06C535.27,127.85,536.09,127.55,536.81,127.25Z"/><path class="cls-18" d="M531.56,110.09a27.35,27.35,0,0,1,3.64.87c2.27,1.27,5,2.92,5,2.92s9.9,2.77,15.58,5.48A173.62,173.62,0,0,1,573.74,129c.18.5.28.8.28.8s1.14,2,2.18,4.29c-4.5-1-13.3-4.38-23.11-9.06C542,119.79,530.94,110.62,531.56,110.09Z"/><path class="cls-19" d="M553,135.58s-2.26,1.41-5.8,3.92c-7.39,5.23-11.65-.6-14.93-.45-2.83,3.52-1.71,17.39,2.89,20.19,2.9,1.75,10.11,0,14.18-3.92a13,13,0,0,0,4.07-8.6C546.11,151.13,546,144,553,135.58Z"/><path class="cls-20" d="M553,135.58s2.57-4.72,4.85-2.09,1.08,13.77-2.43,13.77S551.74,138.56,553,135.58Z"/><path class="cls-21" d="M579,172.27s-6.51,4.95-6.39,26.88c.06,11.68,3.49,31.48,5.6,38.65,8.78-2.78,21.15-3,30.11,0,1.21-9.57-1.23-30-2.75-36.57C601.85,185,588.33,168.56,579,172.27Z"/><path class="cls-22" d="M538.16,111.35a20.19,20.19,0,0,1,36.45,17.37c-.18.38-.38.75-.59,1.12l-36.36-17.33C537.82,112.12,538,111.73,538.16,111.35Z"/><path class="cls-23" d="M545.72,115.9c.16-.39.32-.78.51-1.16a20,20,0,0,1,21.73-11,19.72,19.72,0,0,0-3-1.73,20.1,20.1,0,0,0-26.83,9.37c-.18.38-.34.77-.5,1.16L574,129.84C574.09,129.72,545.72,115.9,545.72,115.9Z"/><path class="cls-24" d="M521.42,105.26c.39-.81,19.32,6.91,31.43,12.68s21.6,11.11,21.21,11.92-20.46-3.9-32.57-9.67S521,106.07,521.42,105.26Z"/><path class="cls-25" d="M454.45,198.52a2.67,2.67,0,1,0,2.18-2.17A2.67,2.67,0,0,0,454.45,198.52Z"/><path class="cls-25" d="M456.17,198.87l.81,1,.49-1.18c.64-1.53,6.09-15.09.07-18.17a3.45,3.45,0,0,0-4.59.8C450.32,184.57,451.14,192.78,456.17,198.87Zm-2-16.6a1.79,1.79,0,0,1,2.09-.64,3,3,0,0,1,.6.25c3.66,1.87,1.35,10.51-.3,15C452.53,191.2,452.36,184.5,454.15,182.27Z"/><path class="cls-25" d="M456.93,198.12l1.25.24a18.75,18.75,0,0,0,3.39.31c5.58,0,10.45-2.49,11.63-5.37a3.12,3.12,0,0,0-1.37-4c-5-3.37-13.19,6.66-14.11,7.81Zm2.86-1.08c2.34-2.69,6.68-6.88,9.71-6.88a2.6,2.6,0,0,1,1.47.42,1.64,1.64,0,0,1,.81,2.14C470.85,195,465.73,197.66,459.79,197Z"/><rect class="cls-26" x="430.22" y="200.05" width="59.94" height="47.71"/><rect class="cls-27" x="474.46" y="200.05" width="16.54" height="47.71"/><polygon class="cls-28" points="441.28 203.5 433.69 203.5 432.94 216.31 440.54 216.31 441.28 203.5"/><text class="cls-29" transform="translate(434.76 205.41)">Lorem ipsumLorem ipsumLorem ipsumLorem ipsumLorem ipsumLorem ipsum<tspan x="0" y="0.18">Lorem ipsumLorem ipsumLorem ipsum</tspan><tspan x="0" y="1.08">Lorem ipsumLorem ipsumLorem ipsum</tspan><tspan x="0" y="1.62">Lorem ipsumLorem ipsum</tspan><tspan x="0" y="2.16">Lorem ipsumLorem ipsum</tspan><tspan x="0" y="3.42">Lorem ipsumLorem ipsumLorem ipsumLorem ipsum</tspan></text><rect class="cls-30" x="47.89" y="41.63" width="62.09" height="112.86"/><rect class="cls-30" x="129.91" y="41.63" width="62.09" height="112.86"/><rect class="cls-30" x="129.91" y="191.55" width="62.09" height="112.86"/><rect class="cls-30" x="47.89" y="189.9" width="62.09" height="112.86"/><path class="cls-31" d="M215.42,117.42s27.92,48.79,22.32,65.62-24.33,17.9-24.33,17.9Z"/><path class="cls-32" d="M229.9,417.66h-39c-2.79-1.89.76-20.41.76-20.41s10.63-4,12.47,4.17,13.55,10.81,19.74,11.81C228.13,413.92,229.47,416.25,229.9,417.66Z"/><path class="cls-32" d="M172.09,417.66h-39c-2.8-1.89.75-20.41.75-20.41s10.64-4,12.48,4.17,13.54,10.81,19.74,11.81C170.33,413.92,171.67,416.25,172.09,417.66Z"/><path class="cls-33" d="M219.41,228.78s-1.75,21.85-3.81,48.13c-2.8,35.69-10.35,124.18-10.35,124.18s-4.94,4.22-15.91,1.91a346.47,346.47,0,0,1-12.12-65.37c0-.57-.08-1.15-.13-1.72-2.59-35.47-6.63-110.16-6.63-110.16Z"/><path class="cls-32" d="M220,221.22s-2.35,29.41-4.41,55.69l-38.38,60.72c0-.57-.08-1.15-.13-1.72-2.59-35.47-6.63-110.16-6.63-110.16Z"/><path class="cls-33" d="M208.82,221.22S181,290.51,172.09,316.77c-6.34,18.7-24.21,84.33-24.21,84.33s-7.77,2.37-14.3-2.21c0,0-6.65-67,6.78-85.95,7.12-10,1.77-104.26,30.66-105.07S208.82,221.22,208.82,221.22Z"/><path class="cls-6" d="M196.39,119.09a17.32,17.32,0,0,1-12,1.61,24.9,24.9,0,0,1-8.12-3.42,23.62,23.62,0,0,1-3.28-2.47s.14-.21.39-.62c1.25-2.15,5.06-9.87,3.36-22.27,0-.16,1.21.07,3.07.51,5.52,1.31,16.62,4.46,17.11,4.59h0s.14,2.61.59,7.29c0,.41.08.84.13,1.29s.11,1.13.18,1.73C198.36,112.19,196.39,119.09,196.39,119.09Z"/><path class="cls-13" d="M197.54,104.31C189.3,106.2,177,94,177,94a12.82,12.82,0,0,1,2.82-1.6c5.52,1.31,16.62,4.46,17.11,4.59h0S197.09,99.63,197.54,104.31Z"/><path class="cls-31" d="M223.76,209.55c-.6,7.95-2.27,13.63-5.95,13.63a123.42,123.42,0,0,1-35.9,5.91,89.78,89.78,0,0,1-13.71-1.46c-4.59-.78-8.22-1.56-8.22-1.56-3.93-.91-8.26-3.34-7.68-7.82.31-2.38.53-5.44.68-9l0-.69c.43-10.38.37-24.68.42-38.37,0-8.41.12-16.58.4-23.47,0,0-3.86-27.09.42-31.53,5-5.2,19.76-6.79,20.68-6.59.28-.06.56-.13.84-.18,0,0,12.81,7,22.14,1.76,0,0,13.6,3.1,17.51,7.23,1.35,1.43,6.74,10.17,6.89,19.77.2,13.39-.32,28.59-.32,28.6.14,2.17.37,5,.63,8.17.27,3.41.57,7.26.83,11.28.13,2,.24,4.09.34,6.15A156.53,156.53,0,0,1,223.76,209.55Z"/><path class="cls-34" d="M175,108.62s13.89,14.32,23.82,11.39c0,0,1.32-1.94-3.15-2.56S186.36,117.09,175,108.62Z"/><path class="cls-6" d="M200.35,96.37a42.21,42.21,0,0,1-7.72,1.79c-6.32.86-14.63.35-17.24-7.29C171,78,165.37,70.28,178.32,65c6.92-2.81,11.36-3,14.37-1.89A10.45,10.45,0,0,1,198,67.74C200.52,71.68,205.58,94.11,200.35,96.37Z"/><path class="cls-35" d="M199,60c2.93.71,4.24,5.31,1.46,7.23-5,3.43-11.09,2.08-13.33,3.08-3.22,1.43-3.8,6.83-3.86,8.54S183,82,178.61,81a2.08,2.08,0,0,0-1.59.1c-1.81,1.07.5,6.29,1.2,7.41,0,0,1,3.74-1.22,5.56-.27.22-4.66,2.13-15.22-14a15,15,0,0,1-.69-13.76c2.57-5.5,10.49-12.32,20-12.32C188.61,53.91,192.81,58.46,199,60Z"/><path class="cls-19" d="M200.44,88.06s.27,1.66-3.6,3c0,0-3.25,1.12-3.85-.59A11.05,11.05,0,0,1,200.44,88.06Z"/><path class="cls-13" d="M186.42,200.07s10.45,6.9,14.48,7.34c2.75.3,13.58-.15,13.64-1.51.09-1.94-6.62-4-8.35-4.76s-3.1-1.67-3.09-2.42,6.72,1.73,6,.09-6.92-4.48-8.42-4.75-6.32,1.36-8.2.5S186.42,200.07,186.42,200.07Z"/><path class="cls-34" d="M191,194c1.39,2.6-4.59,6-4.59,6s-16.51,7.86-33.44,9.19l0-.69c.43-10.38.37-24.68.42-38.37C153.43,170.2,188.72,189.73,191,194Z"/><path class="cls-31" d="M157.87,112.68s-7.15,3-15.65,18.91-16.55,49.54-13.1,55,32.48,18,57.79,14.65c0,0,6.27-5.71,5-7.92,0,0-42.44-17.3-42.46-19.37s15.13-19.89,16-28.77S157.87,112.68,157.87,112.68Z"/><path class="cls-6" d="M199.86,152.87s-.5,5.45,0,6.86,15,1.72,15.32.4.91-5.34,0-6S199.86,152.87,199.86,152.87Z"/><path class="cls-6" d="M209.4,203.41h-3.25a14.67,14.67,0,0,1-14.63-14.62v-14c0-8,.18-15.19,8.83-17.85l15.2,1.15c13.14,3.63,8.47,8.66,8.47,16.7v14A14.66,14.66,0,0,1,209.4,203.41Z"/><path class="cls-6" d="M215.2,157.87s3.58.92,6.14-.49c3.7-2,8.12-3.18,8.89-4.11,1.31-1.58,7.68-8.08,7.68-8.08l3.07,2.05s-2.95,12-5.34,14.14-6.67,9.75-13.89,10.83C218,172.77,215.2,157.87,215.2,157.87Z"/><path class="cls-6" d="M237.91,145.19s-1.12-3-.19-3.41,1.46,1.8,1.46,1.8,2.41-5,4.85-2.84-3.05,6.5-3.05,6.5Z"/><path class="cls-6" d="M199.8,157.09s-3.59.92-6.15-.5c-3.69-2-8.11-3.18-8.89-4.11-1.31-1.58-7.68-8.07-7.68-8.07l-3.07,2s3,12,5.35,14.14,6.66,9.75,13.88,10.83C197,172,199.8,157.09,199.8,157.09Z"/><path class="cls-6" d="M177.08,144.41s1.12-3,.19-3.42-1.46,1.8-1.46,1.8-2.4-5-4.85-2.83,3,6.49,3,6.49Z"/><path class="cls-6" d="M221.46,183s8.51,3.73,13,5.05c4.18,1.23,9.36,4.16,9.46,4.64s.17,4.63-1.95,5.44-25.15,4.11-28.56,2.77C213.41,200.94,215.86,184.43,221.46,183Z"/><path class="cls-19" d="M243.61,184.08a10,10,0,0,0-6.45,3.27,2.46,2.46,0,0,1-2.7.74s-6.39,4.07-2.32,11.77c0,0,8.6-.54,9.83-1.69S243.61,184.08,243.61,184.08Z"/><path class="cls-36" d="M242,198.17s4.29-1,5.07-5.31,0-8.37-2.86-8.73a4.78,4.78,0,0,0-5.39,3.22C238,189.4,235.74,198.38,242,198.17Z"/><path class="cls-6" d="M208.93,123.84s8.58-.38,11.85,7.77,3.91,22.18-3.67,24.39c-5.18,1.51-10.75.45-15.74-1.46-2.63-1-3.53-3.24-5-5C186.66,138.26,189.78,124.85,208.93,123.84Z"/><path class="cls-19" d="M191.52,181s16.86,3.61,32.49,0a30.81,30.81,0,0,1,2,4c.49,1.93-.39,5.1-3.87,9.14-5.11,5.93-22.57,10.36-28.69,6.56C188.09,197.34,186.88,186,191.52,181Z"/><path class="cls-6" d="M210.39,188.19c3.14,1.09,7.68,3.63,11.76,5.91,3.81,2.12,8.21,6.13,8.21,6.62s-.87,4.55-3.11,4.87S201.82,204,198.78,202a5.9,5.9,0,0,1-4-5C194.16,191.13,197,183.53,210.39,188.19Z"/><path class="cls-19" d="M232,192.22a10,10,0,0,0-7,1.75,2.47,2.47,0,0,1-2.81.13s-7.12,2.56-4.86,11c0,0,8.51,1.38,10,.52S232,192.22,232,192.22Z"/><path class="cls-36" d="M227.25,205.59a7,7,0,0,0,6.12-4.06c1.7-4,1.83-8.17-.86-9.14a4.78,4.78,0,0,0-6,2C225.33,196.17,221.13,204.42,227.25,205.59Z"/><path class="cls-19" d="M212.36,148.4s1.73,2,4,1.3a4.16,4.16,0,0,0,2.62-3.21A14.73,14.73,0,0,0,212.36,148.4Z"/><path class="cls-13" d="M201.47,143.2s-3.32-2.92-4.38-.8,1.36,5.21,3.32,5.25S202.78,144.13,201.47,143.2Z"/><path class="cls-6" d="M202,143.08s-2.54-2.22-3.35-.61,1,4,2.54,4S203,143.8,202,143.08Z"/><path class="cls-37" d="M199,128.12s4.11,5.6,12.77,5.4c0,0,3.4-.5,4.84-2.7,0,0-2.73,1.1-4.17.64,0,0,8.16-1.25,8.05-3.43s-4.38-4.63-7.51-5c-2.48-.3-10-.25-12.28,1S198.34,127.4,199,128.12Z"/><path class="cls-37" d="M202.65,123.4s-9.45,1.53-11.13,9.06c-.67,3,.76,7.45.76,7.45s-.19-9,7.36-9.34c5.49-.27,9.09-.83,9.09-.83Z"/><path class="cls-13" d="M204,168.52a.57.57,0,1,1-.56-.57A.57.57,0,0,1,204,168.52Z"/><path class="cls-13" d="M218.2,168.52a.57.57,0,1,1-.56-.57A.57.57,0,0,1,218.2,168.52Z"/><path class="cls-13" d="M230.11,179.25a5.82,5.82,0,0,0-3.22-3.81,37.55,37.55,0,0,0-6.18-2.43c-2.13-.39-6.48-2.94-6.83-1.62s3.07,2.87,3.08,4.34-9.61,5-9.35,6.56,3,4.92,6.73,4,13-3.08,15.14-3.68C230.61,182.3,230.5,180.73,230.11,179.25Z"/><path class="cls-38" d="M326.93,338.19a7.3,7.3,0,0,0-.36,5.77,8,8,0,0,1,.2,5.61,1.87,1.87,0,0,1-3.31.39l-8.92-13.44a2.32,2.32,0,0,1,.85-3.33c1.06-.56,2.29-1.23,3.21-1.77,2-1.19,4.86-.28,4.86-.28Z"/><path class="cls-39" d="M351.75,311c-2.36,7.42-24,30.75-24,30.75s-9.24-6.79-9-11.7c0,0,11.38-21.19,11.5-23.79,0-.61-1.26-3.15-3.24-6.7-.26-.49-.54-1-.84-1.5h0c-3.41-6.06-8.31-14.36-12.16-21.29l-.27-.49c-3.45-6.23-6-11.25-5.61-12.33,1-3.13,30.63-7.36,30.63-7.36S354.11,303.62,351.75,311Z"/><path class="cls-38" d="M326.18,298.1c-3.41-6.06-8.31-14.36-12.16-21.29l-.27-.49v-7.41L324,267.34Z"/><path class="cls-38" d="M288.83,345.44s-1.61,6.72,0,9.53a7.94,7.94,0,0,1,1.07,5.51,1.87,1.87,0,0,1-3.2.91l-10.92-11.87a2.32,2.32,0,0,1,.32-3.43c1-.72,2.07-1.57,2.89-2.25,1.79-1.49,4.75-1,4.75-1Z"/><path class="cls-39" d="M324.31,261s-11.49,40-15.77,50.05c-3,7-17.36,39.34-17.36,39.34s-14.35-4.37-13.39-8.8c0,0,9.17-33.17,10.81-36.92,2.13-4.87.79-38,8.88-43.95S324.31,261,324.31,261Z"/><path class="cls-6" d="M324.24,205.81s18.17-19.11,19.17-21.62,4.78-24.45,4.78-24.45l4.72.19s1.24,25.84-.31,31-22.89,28.44-22.89,28.44Z"/><path class="cls-6" d="M320.85,200.19a11.08,11.08,0,0,1-1.3-2.79,20,20,0,0,1-.74-6.41,23.74,23.74,0,0,1,.25-2.78l-12.51-5.15a38.34,38.34,0,0,1,.39,8.43,31.52,31.52,0,0,1-1.95,9.56l.21.56c-1.39.26-2.87.57-4.44.92l16.18,8.55,9.36-9.73S325,200.43,320.85,200.19Z"/><path class="cls-40" d="M319.55,197.4c-6.84.38-12.61-5.91-12.61-5.91l11.87-.5A20,20,0,0,0,319.55,197.4Z"/><path class="cls-6" d="M296.77,206.53s-15-16.48-22.12-21.39c0,0-10.89-21.57-11.75-23s-5.33,1.68-5.33,1.68,5.12,21.41,9.16,27.55,16.69,26.82,24.42,27S296.77,206.53,296.77,206.53Z"/><path class="cls-6" d="M322.55,193.32s-13.32,4.72-18.91-5.71c-6-11.27-1.18-20.24,3.4-21.19,9.12-1.91,14.76,1.16,16.69,4.74S329.9,190.79,322.55,193.32Z"/><path class="cls-19" d="M316,187.63s1.56,2,5.09.86c0,0,3.21-.86,2.26-3A11.11,11.11,0,0,0,316,187.63Z"/><path class="cls-38" d="M306.38,191.19s-2-4.55-2-7.07c0,0-3.92-4.23-1.95-5.52s3.32,1.29,3.75.73.43-9.53,3-9.46,12.08,2.19,15.86-1.67-7.24-16.77-23.56-10.07S290.09,183.17,306.38,191.19Z"/><path class="cls-38" d="M293.78,166.12a6,6,0,0,1-.26-3.89,6.2,6.2,0,0,0,1.18,3.15C295.66,166.29,293.78,166.12,293.78,166.12Z"/><path class="cls-38" d="M294,164.51a3.34,3.34,0,0,0-2.94,1.61,2.68,2.68,0,0,1,2.94-.19Z"/><path class="cls-41" d="M337.76,266.44c-16.06,5.37-37.14,4.85-42.34,4.62l-1.2-.06a3.68,3.68,0,0,1-3.33-3.23,2.74,2.74,0,0,1,0-.64l2.84-24.74-2.64-12.08-1.5-6.89-3.44-15.72a66.42,66.42,0,0,1,18.78-7.29c2.41,1.88,7.08,4.56,12,3.57,3.68-.75,4.38-2.56,4.16-4.47,7.87.51,12.09,2.17,12.09,2.17l9.78,56.76A7.29,7.29,0,0,1,337.76,266.44Z"/><path class="cls-41" d="M278,210.58s10.1,5.77,11.22,10.9c0,0,14-11.19,15.77-21.07a20.64,20.64,0,0,0-6.68,1.43,11.07,11.07,0,0,0-3.83-.59L286.67,196S278.33,198.88,278,210.58Z"/><path class="cls-41" d="M321.07,199.51a28.52,28.52,0,0,1,5.57-.46,4.76,4.76,0,0,1,2.4-.86l8.41-6.43s6.43,5.56,5.57,14.09c0,0-7,5.1-7,6.22s.2,7.41.2,7.41Z"/><path class="cls-6" d="M348.19,159.74a10.8,10.8,0,0,0-.87-3.68c-.8-1.65-.78-6.11.08-5.93s.61,1.8,1.53,1.54,2-5.53,3.25-5.17,2.28,2,2.21,5.8a26.79,26.79,0,0,1-1.48,7.63Z"/><path class="cls-6" d="M262.8,162.13a11.94,11.94,0,0,1-.45-4.23c.23-2.05-1.45-6.77-2.29-6.26s0,2.14-1.06,2.2-4.17-5.13-5.36-4.28-1.67,3-.2,7a30.27,30.27,0,0,0,4.41,7.55Z"/><rect class="cls-42" x="439.6" y="88.36" width="33.25" height="37.02"/><text class="cls-43" transform="translate(446.72 116.91)">1<tspan class="cls-44" x="8.71" y="0">3</tspan></text><path class="cls-45" d="M-10.09,17.05V441.7H721.47V17.05ZM607.12,269.9c3.53,6.28,7.32,13.11,7.27,20-.09,12.48-6.57,21.66-17.41,23,9.09,25.8-.28,56.27-27.73,52.24,1.45,22.14-30.65,18.24-37.69,8.1l-2.86-.93c-1.33,9.48-11.09,17.43-19.76,16.78-5.51-.41-8.64-6.7-13.52-7.63-4.08-.78-5.32-.42-6.44.41-8,18.22-30.37,28.53-59.17,14.92-7.52,20.86-51.79.85-57.47-12l-3.68-2.31c-6,7.92-23.44,10.15-35.57,5.11-7.32-3-9.28-9.79-15.1-13.33-9.18,4.17-21,5.37-35,1.91-3.87,22-50.75,11.31-58.49-.14l-4-1.53c-4.58,9-21.32,14.71-34.09,12.22-8.11-1.59-11.07-8.43-18.1-10.39-11.36-3.17-8,.11-18,.83-17.64,1.27-27.19,3.18-41.65-9.09-10.58-9-10.93-19.87-18.6-28.22C79.31,328.13,61.69,320.27,58,304.39c-3.17-13.63,8.15-15.9,12.27-25.78,5.77-13.83-4.33-29.87,3.81-44.2a42.06,42.06,0,0,1,10.07-11c-5.75-6.67-11.31-13.54-12.94-23.66-2.2-13.63,5.66-15.9,8.52-25.78,4-13.83-3-29.87,2.64-44.2,3.06-7.76,15.74-25,23.41-12.73.47-27.77,24.94-44.81,47.65-39.71,6.73-26,53.73-35.83,65.29-9.87a24,24,0,0,1,10.69-4.45c13.41-9.14,32.65-13.29,51.08-10.42,9.7-26,77.44-35.83,94.1-9.87,30.68-15.52,74.64,10.11,62.35,36.09,15.74-3.63,28.95,2.37,37.51,11.73a29.2,29.2,0,0,1,4.88-2c12.14-3.79,15,4,24.3,5.89,13,2.57,26.79-6.44,40.4-2.22,7.37,2.28,24.33,13.41,14,22.68a35.21,35.21,0,0,1,16.3,2.08h1.28v.5c15.51,6.64,25.16,24.15,23.5,42,24.3,4,38.21,51.32,15.87,66.13C626.35,239.67,620.15,260.45,607.12,269.9Z"/><rect class="cls-45" x="0.61" y="0.74" width="721.32" height="18.17"/></g></svg>