<svg xmlns="http://www.w3.org/2000/svg" xmlns:xlink="http://www.w3.org/1999/xlink" viewBox="0 0 1275.56 1169.26"><defs><style>.cls-1{fill:none;}.cls-2{clip-path:url(#clip-path);}.cls-3{fill:#577b93;}.cls-4{fill:#516d21;}.cls-5{fill:#737b51;}.cls-6{fill:#6d6d29;}.cls-7{fill:#999;}.cls-8{fill:#ff9d60;}.cls-9{fill:#f5a977;}.cls-10{fill:#04135b;}.cls-11{fill:#040f41;}.cls-12{fill:#7b3704;}.cls-13{fill:#f9b34e;}.cls-14{fill:#f9d374;}.cls-15{fill:#f67f3f;}.cls-16{fill:#0d6ffa;}.cls-17{fill:#fde095;}.cls-18{fill:#44676d;}.cls-19{fill:#0d004f;}.cls-20{fill:#0b0039;}.cls-21{fill:#fff;}.cls-22{fill:#fb5d37;}.cls-23{fill:#f9ca7d;}.cls-24{fill:#f9b36c;}.cls-25{fill:#f9c68a;}.cls-26{fill:#f8996b;}.cls-27{fill:#06333b;}.cls-28{fill:#fac671;}.cls-29{fill:#a88f66;}.cls-30{fill:#c1c1c1;}.cls-31{font-size:0.28px;font-family:ProvidenceSansPro, Providence Sans Pro;letter-spacing:-0.06em;}.cls-32{letter-spacing:-0.04em;}.cls-33{fill:#5b5a2a;}.cls-34{fill:#fcd3ac;}.cls-35{fill:#182952;}.cls-36{fill:#1d337d;}.cls-37{fill:#f5be93;}.cls-38{fill:#0c2650;}.cls-39{fill:#98c0ff;}.cls-40{fill:#ff7e1d;}.cls-41{fill:#1f2a54;}.cls-42{fill:#26337d;}.cls-43{fill:#f1844b;}.cls-44{fill:#ff7e22;}.cls-45{fill:#565656;stroke:#5f605c;stroke-miterlimit:10;stroke-width:2px;}.cls-46{font-size:56.28px;fill:#909992;font-family:Ode-Semilight, Ode;font-weight:300;letter-spacing:-0.02em;}.cls-47{letter-spacing:-0.01em;}</style><clipPath id="clip-path"><path class="cls-1" d="M110,763.83c7.19,30.9,41.48,46.19,62.39,69,14.93,16.26,15.6,37.45,36.19,54.91,28.13,23.87,46.72,20.16,81,17.69,19.39-1.4,12.92-7.78,35-1.62C338.29,907.6,344,920.91,359.83,924c24.84,4.86,57.41-6.24,66.32-23.76l7.8,3c15.07,22.29,106.28,43.13,113.81.29,27.23,6.72,50.22,4.39,68.08-3.73,11.33,6.89,15.13,20,29.38,25.94,23.59,9.8,57.48,5.47,69.19-10l7.17,4.5c11,25,97.17,63.87,111.81,23.28,56,26.49,99.51,6.43,115.14-29,2.17-1.6,4.57-2.31,12.52-.79,9.49,1.81,15.58,14,26.3,14.85,16.86,1.26,35.85-14.21,38.45-32.65l5.55,1.81c13.7,19.73,76.17,27.31,73.34-15.77,53.41,7.86,71.63-51.43,53.94-101.63,21.11-2.53,33.72-20.4,33.9-44.66.09-13.41-7.3-26.71-14.15-38.93,25.35-18.38,37.4-58.82,15.34-86.07,43.46-28.81,16.4-120.83-30.87-128.66,3.23-34.81-15.55-68.89-45.74-81.79v-1h-2.47a68.6,68.6,0,0,0-31.72-4.05c20-18-13-39.68-27.29-44.12-26.48-8.21-53.36,9.33-78.61,4.31-18-3.59-23.67-18.83-47.28-11.46a56.4,56.4,0,0,0-9.49,3.94c-16.66-18.21-42.36-29.89-73-22.82,23.9-50.54-61.62-100.42-121.31-70.23-32.42-50.5-164.21-31.34-183.08,19.21-35.87-5.58-73.3,2.5-99.39,20.28a46.63,46.63,0,0,0-20.79,8.65c-22.5-50.5-113.95-31.35-127,19.2-44.19-9.91-91.79,23.24-92.71,77.27-14.93-23.82-39.59,9.67-45.54,24.76-11,27.89,2.65,59.09-5.14,86-5.57,19.22-20.86,23.65-16.58,50.16,3.18,19.7,14,33,25.19,46-9,6.95-16.29,15.49-19.59,21.31-15.85,27.9,3.81,59.09-7.42,86C125.84,732.89,103.82,737.32,110,763.83Z"/></clipPath></defs><g id="Objects"><g class="cls-2"><rect class="cls-3" x="5.12" y="206.65" width="1269.78" height="739.13"/><rect class="cls-4" x="887.15" y="558.52" width="165.96" height="295.55" rx="21.86"/><rect class="cls-4" x="914.98" y="550.17" width="90.62" height="295.55" rx="21.86"/><rect class="cls-4" x="964.81" y="550.17" width="90.62" height="295.55" rx="24.43"/><rect class="cls-4" x="844.13" y="550.17" width="90.62" height="295.55" rx="24.43"/><rect class="cls-4" x="1004.2" y="554.62" width="90.62" height="295.55" rx="24.43"/><rect class="cls-4" x="1080.27" y="550.17" width="90.62" height="295.55" rx="24.43"/><rect class="cls-4" x="1138.97" y="550.17" width="90.62" height="295.55" rx="20.51"/><rect class="cls-4" x="1184.28" y="550.17" width="90.62" height="295.55" rx="20.51"/><rect class="cls-5" x="5.12" y="206.65" width="882.03" height="616.58"/><rect class="cls-6" x="58.14" y="240.6" width="339.92" height="580.46"/><rect class="cls-7" x="4.84" y="822.55" width="1277.4" height="165.79"/><path class="cls-8" d="M846.15,659.55c5.74,2.15,13.34,5.36,13.34,5.36,1-2.37-18-6.42-20.61-12.19-1.42-3.08,21.74,8.28,23.34,6.93.67-.57-26.19-9.31-25-11.42,1-1.78,28.24,7.81,28.39,6.48.21-1.84-23.55-6.6-21.42-9.26,1.09-1.36,29.92,6.44,33,6.9,3.81,0-10-9.36-5.28-10.61,6.37-1.7,22.38,16.64,23.63,16.9,3.62.75,34.47,4.53,49.57-5.35,12.2-8,24-20.25,26.94-30.81,2.84-10.36,6.77-25.15,3.41-36.57a149.74,149.74,0,0,1,41-.9c.85,17.14-19.67,85-28.25,90.64-18.88,12.29-52.55,9.28-76.3,7.33-19.13-1.58-37.87-5.35-55.1-14.09-3.86-2-9-4.15-12-7.55A1.12,1.12,0,0,1,846.15,659.55Z"/><path class="cls-9" d="M984.13,528.39c-10.23,10.56-20.56,73.84-16.75,88.93,6.56,12.25,36.27,14.36,45.88,20.17,22.17-9.11,7-50,7-50l8.08-79.62A68.55,68.55,0,0,0,984.13,528.39Z"/><path class="cls-10" d="M1112.58,723.17c14.24,52-3.43,285.47-3.43,285.47l-42.61-2.92s-9.69-232.22-16.72-239.25c-2.06-2.06-4.27-1.4-6-.24a9.26,9.26,0,0,0-3.52,4.95c-4.39,14.33-29.45,97.74-24.39,116,5.53,20,30.21,127.14,30.21,127.14l-35.75,1.43s-49-81.85-49-139,8-132.89,31.13-163.71c10.54-14,62.45-24.88,62.45-24.88S1108.14,706.91,1112.58,723.17Z"/><path class="cls-11" d="M1035.58,1014.23S1010.9,900,1005.37,878.66c-4-15.48,11-74.89,19.53-106.25a13.71,13.71,0,0,1,21.6-7.25h0s-36.1,102-30.56,122,30.21,127.14,30.21,127.14l-35.75,1.43-.26-.44Z"/><path class="cls-11" d="M1103.74,712.37c4.57,3.57,7.87,7.24,8.84,10.8,14.24,52-3.43,285.47-3.43,285.47l-10.55-.73C1099.19,999.47,1114.49,779.75,1103.74,712.37Z"/><path class="cls-11" d="M984.34,727a80,80,0,0,1,8.18-14,22.93,22.93,0,0,1,5.2-4.74,161.19,161.19,0,0,0,25.44,9.8c34.16,10.51,71,4.91,86.28-.42a14.66,14.66,0,0,1,3.14,5.48,118.63,118.63,0,0,1,3,17.36c-7.64,5.68-52,19.41-92.44,6.55C997.52,738.92,988,734,984.34,727Z"/><path class="cls-12" d="M987.83,695.11c1.44,4.53,8,12.3,37.37,21.42,38.28,11.87,80.19,1.65,85.8-3.39,2.28-2,2.78,21.41,0,23.91-11.09,10-30.73,11.77-45,12.2a136.32,136.32,0,0,1-43.65-6.24c-12-3.66-29.94-8.24-35.61-20.69C986,720.69,985.84,708.21,987.83,695.11Z"/><path class="cls-13" d="M1060.62,506.1s35.53-1.83,50.05,15.38,12.1,186.62,6.22,191.66-49.78,18.32-89.89,6.45-42.66-28.16-42.66-28.16,5.32-108.24,5.32-141.47S1022.1,497.16,1060.62,506.1Z"/><path class="cls-9" d="M1092,689.22c3.14-8.73-.22-36.5-3.8-56.58-2.79.53-5.48,1.17-8,1.9-4.3-13.29-8.08-47.77-8.21-69.45-.23-40.66,20.35-52.49,20.35-52.49,4.08-.93,10.61,2.91,20.82,13.54,11.79,32.23,9.32,182.26,3.79,187-2.35,2-10.82,5.36-22.7,7.88C1091.1,708.9,1089.06,697.29,1092,689.22Z"/><path class="cls-14" d="M1063.68,506.47c7.71,7.08,8.31,7.22.3,16.51s-34.51,19.86-38.29,18.07c-9.38-4.43-.65-19.21,5.6-29.85C1033.24,507.88,1056,499.39,1063.68,506.47Z"/><path class="cls-8" d="M1029.25,479.7s-2.08,48.93,0,51.07,31.81-8.22,34.4-14.29S1052.81,422,1052.81,422Z"/><path class="cls-15" d="M1028.35,512c5.26-.95,9.78-2.28,11.11-3.78,12.13-13.71,3-35.94,4-41.72,1.9-11.51,5.77-21,3.83-30.93l-18,44.17S1028.5,497.39,1028.35,512Z"/><rect class="cls-16" x="1064.13" y="726.51" width="111.49" height="74.89" rx="8.5" transform="translate(2239.75 1527.91) rotate(180)"/><rect class="cls-17" x="1068.39" y="735.14" width="94.43" height="57.64" transform="translate(2231.2 1527.91) rotate(180)"/><rect class="cls-18" x="1061.75" y="747.48" width="9.96" height="32.96" rx="2" transform="translate(2133.45 1527.91) rotate(180)"/><path class="cls-8" d="M1100.53,689.22c-7,21.38,17.72,67.65,7.66,82.45s-5,30.35,7.19,38.06,27.32-3.1,26.1-9l-6-28.89c-1.51-7.22,26.83-65.07,6.88-100.16-11.83-20.82,5.67-56.65-3.58-79.8-8.27,15.41-47.43,5.78-45.19,22.7C1097.16,629.07,1104.48,677.2,1100.53,689.22Z"/><path class="cls-8" d="M1009.71,415.06s-5.18,17.86-5.18,32.5.34,40,10.71,40,25.24-2.86,28.7-23.57,0-43.57-10.37-48.93S1009.71,415.06,1009.71,415.06Z"/><path class="cls-19" d="M1012.89,429.48a4.14,4.14,0,0,1,5.54,4.74c-.92,5.28-.69,11.06,4.25,12.27,9.51,2.32,14,0,15.56,1.6s-4.5,10.18,0,11.79,6.91-13.75,10.89-13.75,4.84,22.14,0,27.14.69,11.79,7.08,11.79-.8,8,7.81,10.71,15.53,2.68,18.3-8.21,0-17,0-17,8.8-10.3,6.57-20.47c-1.25-5.66-7-15.84-7-15.84s-4.44-12.08-5.65-19-18.36-13.93-30.1-15.18-5.86-8.39-15.71-8.39-11.21,13-11.21,13-14.07-8.41-14.72-8c-8.19,5-1.39,13.75-1.39,13.75s-6.74.71-8.12,9.46,4.32,14.11,13.31,11.25C1010,430.59,1011.55,430,1012.89,429.48Z"/><path class="cls-20" d="M1003.15,397.65a49.4,49.4,0,0,1,6.75,1.62c4.21,2.34,9.35,5.41,9.35,5.41s18.37,5.14,28.89,10.16a320.8,320.8,0,0,1,33.25,18l.53,1.48s2.1,3.74,4,8c-8.36-1.82-24.67-8.12-42.87-16.79C1022.54,415.64,1002,398.64,1003.15,397.65Z"/><path class="cls-21" d="M1042.89,444.93s-4.21,2.61-10.77,7.26c-13.7,9.72-21.6-1.11-27.7-.83-5.25,6.53-3.16,32.26,5.38,37.45,5.36,3.26,18.74,0,26.29-7.26a24.13,24.13,0,0,0,7.55-16C1030.14,473.77,1029.87,460.48,1042.89,444.93Z"/><path class="cls-22" d="M1042.89,444.93s4.75-8.76,9-3.87,2,25.54-4.49,25.54S1040.58,450.46,1042.89,444.93Z"/><path class="cls-23" d="M1091.19,513s-12.08,9.2-11.86,49.86c.11,21.68,6.48,58.41,10.4,71.7,16.27-5.14,39.22-5.48,55.84,0,2.24-17.74-2.28-55.6-5.1-67.83C1133.53,536.63,1108.46,506.1,1091.19,513Z"/><path class="cls-24" d="M1015.4,400A37.44,37.44,0,0,1,1083,432.2c-.34.71-.7,1.4-1.08,2.08l-67.46-32.15C1014.75,401.41,1015.06,400.69,1015.4,400Z"/><path class="cls-25" d="M1029.42,408.42c.29-.73.59-1.44.93-2.16a37.18,37.18,0,0,1,40.33-20.44A37.52,37.52,0,0,0,1015.4,400c-.34.71-.65,1.43-.94,2.15l67.46,32.15C1082,434.06,1029.42,408.42,1029.42,408.42Z"/><path class="cls-26" d="M984.34,388.69c.72-1.51,35.84,12.82,58.3,23.52s40.07,20.6,39.35,22.11-38-7.24-60.41-17.94S983.62,390.2,984.34,388.69Z"/><path class="cls-27" d="M860.11,561.69a4.95,4.95,0,1,0,4-4A5,5,0,0,0,860.11,561.69Z"/><path class="cls-27" d="M863.29,562.34l1.51,1.83.91-2.19c1.19-2.84,11.29-28,.14-33.71-3.29-1.7-6.4-1.15-8.52,1.48C852.46,535.81,854,551,863.29,562.34Zm-3.74-30.8a3.35,3.35,0,0,1,3.87-1.2,7,7,0,0,1,1.13.47c6.77,3.47,2.5,19.5-.56,27.75C856.54,548.11,856.23,535.67,859.55,531.54Z"/><path class="cls-27" d="M864.7,560.94l2.33.44a34.78,34.78,0,0,0,6.28.58c10.36,0,19.4-4.63,21.58-10,1.16-2.84.24-5.54-2.54-7.41-9.29-6.24-24.48,12.36-26.18,14.5Zm5.32-2c4.34-5,12.38-12.77,18-12.77a4.76,4.76,0,0,1,2.73.79c1.64,1.1,2.13,2.4,1.49,3.95C890.52,555.15,881,560.08,870,558.94Z"/><rect class="cls-28" x="815.16" y="564.51" width="111.18" height="88.51"/><rect class="cls-29" x="897.22" y="564.51" width="30.68" height="88.51"/><polygon class="cls-30" points="835.68 570.91 821.59 570.91 820.22 594.69 834.31 594.69 835.68 570.91"/><text class="cls-31" transform="translate(823.59 574.47)">Lorem ipsumLorem ip<tspan class="cls-32" x="2.47" y="0">sum</tspan><tspan x="2.91" y="0">Lorem ipsumLorem ipsumLorem ipsumLorem ipsum</tspan><tspan x="0" y="0.33">Lorem ipsumLorem ip</tspan><tspan class="cls-32" x="2.47" y="0.33">sum</tspan><tspan x="2.91" y="0.33">Lorem ipsum</tspan><tspan x="0" y="2">Lorem ipsumLorem ip</tspan><tspan class="cls-32" x="2.47" y="2">sum</tspan><tspan x="2.91" y="2">Lorem ipsum</tspan><tspan x="0" y="3">Lorem ipsumLorem ip</tspan><tspan class="cls-32" x="2.47" y="3">sum</tspan><tspan x="0" y="4.01">Lorem ipsumLorem ip</tspan><tspan class="cls-32" x="2.47" y="4.01">sum</tspan><tspan x="0" y="6.34">Lorem ipsumLorem ip</tspan><tspan class="cls-32" x="2.47" y="6.34">sum</tspan><tspan x="2.91" y="6.34">Lorem ipsumLorem ipsum</tspan></text><rect class="cls-33" x="93.68" y="283.2" width="115.18" height="209.36"/><rect class="cls-33" x="245.82" y="283.2" width="115.18" height="209.36"/><rect class="cls-33" x="245.82" y="561.3" width="115.18" height="209.36"/><rect class="cls-33" x="93.68" y="558.23" width="115.18" height="209.36"/><path class="cls-34" d="M404.45,423.79s51.79,90.5,41.4,121.71-45.14,33.21-45.14,33.21Z"/><path class="cls-35" d="M431.3,980.73H359c-5.18-3.51,1.4-37.85,1.4-37.85s19.73-7.49,23.14,7.73,25.14,20.06,36.63,21.91C428,973.8,430.52,978.12,431.3,980.73Z"/><path class="cls-35" d="M324.08,980.73H251.77c-5.17-3.51,1.4-37.85,1.4-37.85s19.74-7.49,23.14,7.73,25.14,20.06,36.63,21.91C320.8,973.8,323.29,978.12,324.08,980.73Z"/><path class="cls-36" d="M411.85,630.35s-3.25,40.55-7.07,89.29C399.59,785.84,385.59,950,385.59,950s-9.18,7.83-29.51,3.55c0,0-17.31-56.63-22.49-121.26l-.24-3.2c-4.81-65.79-12.3-204.34-12.3-204.34Z"/><path class="cls-35" d="M413,616.34s-4.36,54.56-8.18,103.3L333.59,832.28l-.24-3.2c-4.81-65.79-12.3-204.34-12.3-204.34Z"/><path class="cls-36" d="M392.21,616.34s-51.63,128.52-68.13,177.24C312.32,828.28,279.16,950,279.16,950s-14.42,4.38-26.53-4.1c0,0-12.34-124.37,12.58-159.44,13.22-18.61,3.28-193.41,56.88-194.91S392.21,616.34,392.21,616.34Z"/><path class="cls-8" d="M369.15,426.89a32.2,32.2,0,0,1-22.24,3,46.16,46.16,0,0,1-15.07-6.36,44.59,44.59,0,0,1-6.08-4.58s.26-.39.71-1.14c2.33-4,9.39-18.3,6.25-41.31,0-.3,2.24.12,5.68.94,10.25,2.42,30.84,8.26,31.75,8.52h0s.25,4.84,1.1,13.52c.07.76.15,1.56.23,2.39.1,1,.21,2.09.34,3.2C372.81,414.08,369.15,426.89,369.15,426.89Z"/><path class="cls-15" d="M371.29,399.47c-15.3,3.5-38.12-19.08-38.12-19.08a24,24,0,0,1,5.23-3c10.25,2.42,30.84,8.26,31.75,8.52h0S370.44,390.79,371.29,399.47Z"/><path class="cls-34" d="M419.93,594.7C418.81,609.43,415.7,620,408.87,620a229,229,0,0,1-66.58,11c-7.08.06-17.12-1.33-25.44-2.72-8.5-1.44-15.24-2.89-15.24-2.89-7.29-1.68-15.33-6.18-14.25-14.5.57-4.42,1-10.1,1.26-16.68l.06-1.27c.8-19.26.67-45.79.77-71.18.07-15.6.22-30.76.75-43.55,0,0-7.16-50.24.78-58.48,9.32-9.64,36.65-12.61,38.36-12.23.51-.11,1-.24,1.56-.33,0,0,23.76,13,41.06,3.26,0,0,25.23,5.75,32.49,13.42,2.51,2.65,12.5,18.86,12.78,36.67.37,24.83-.6,53-.6,53.05.26,4,.7,9.23,1.17,15.17.51,6.32,1.07,13.46,1.54,20.91.24,3.76.46,7.59.64,11.42A294.69,294.69,0,0,1,419.93,594.7Z"/><path class="cls-37" d="M329.46,407.46s25.76,26.57,44.17,21.13c0,0,2.46-3.59-5.84-4.74S350.55,423.17,329.46,407.46Z"/><path class="cls-8" d="M376.48,384.73a77.51,77.51,0,0,1-14.3,3.34c-11.73,1.58-27.14.65-32-13.54-8.16-23.88-18.58-38.19,5.43-47.94,12.85-5.22,21.07-5.5,26.66-3.51,4.85,1.72,7.71,5.15,9.87,8.55C376.82,338.94,386.19,380.55,376.48,384.73Z"/><path class="cls-38" d="M374,317.21c5.43,1.32,7.87,9.86,2.7,13.41-9.25,6.37-20.56,3.87-24.73,5.73-6,2.65-7,12.66-7.15,15.84s-.52,5.87-8.63,4a4,4,0,0,0-3,.17c-3.36,2,.94,11.67,2.24,13.76,0,0,1.86,6.93-2.28,10.3-.5.41-8.63,4-28.23-26-3.08-4.71-6-15.32-1.27-25.53S323.12,306,340.76,306C354.71,306,362.5,314.42,374,317.21Z"/><path class="cls-21" d="M376.67,369.32s.5,3.09-6.69,5.55c0,0-6,2.08-7.13-1.09C362.85,373.78,367.64,369.21,376.67,369.32Z"/><path class="cls-15" d="M350.66,577.11s19.38,12.79,26.86,13.6c5.09.56,25.19-.26,25.3-2.8.15-3.59-12.28-7.38-15.5-8.82s-5.74-3.1-5.72-4.49,12.46,3.21,11.12.17-12.83-8.31-15.61-8.82-11.73,2.53-15.21.92S350.66,577.11,350.66,577.11Z"/><path class="cls-37" d="M359.16,565.9c2.58,4.83-8.5,11.21-8.5,11.21s-30.63,14.57-62,17l.06-1.27c.8-19.26.67-45.79.77-71.18C289.45,521.7,354.92,557.92,359.16,565.9Z"/><path class="cls-34" d="M297.7,415s-13.27,5.6-29,35.08-30.7,91.88-24.3,102,60.24,33.38,107.19,27.19c0,0,11.65-10.61,9.3-14.7,0,0-78.72-32.09-78.77-35.92s28.09-36.91,29.69-53.37S297.7,415,297.7,415Z"/><path class="cls-8" d="M375.58,489.55s-.93,10.1,0,12.72,27.75,3.2,28.42.75,1.69-9.91,0-11.22S375.58,489.55,375.58,489.55Z"/><path class="cls-8" d="M393.28,583.3h-6a27.21,27.21,0,0,1-27.13-27.13v-26c0-14.92.32-28.18,16.37-33.1l28.2,2.12c24.37,6.73,15.72,16.06,15.72,31v26A27.21,27.21,0,0,1,393.28,583.3Z"/><path class="cls-8" d="M404,498.83s6.65,1.7,11.4-.92c6.85-3.78,15.05-5.9,16.49-7.63,2.42-2.93,14.25-15,14.25-15l5.68,3.79s-5.47,22.26-9.9,26.23-12.37,18.09-25.75,20.09C409.25,526.46,404,498.83,404,498.83Z"/><path class="cls-8" d="M446.17,475.31s-2.07-5.6-.36-6.34,2.71,3.35,2.71,3.35,4.47-9.26,9-5.27-5.67,12.05-5.67,12.05Z"/><path class="cls-8" d="M375.46,497.37s-6.64,1.7-11.4-.92c-6.85-3.78-15.05-5.9-16.48-7.63-2.43-2.92-14.26-15-14.26-15l-5.68,3.79s5.47,22.26,9.91,26.23S349.92,522,363.3,524C370.25,525,375.46,497.37,375.46,497.37Z"/><path class="cls-8" d="M333.32,473.85s2.08-5.6.37-6.34-2.72,3.35-2.72,3.35-4.46-9.26-9-5.27,5.67,12.05,5.67,12.05Z"/><path class="cls-8" d="M415.65,545.5s15.78,6.93,24.11,9.37c7.76,2.28,17.36,7.73,17.56,8.61s.3,8.59-3.63,10.1-46.64,7.62-53,5.13C400.71,578.71,405.27,548.09,415.65,545.5Z"/><path class="cls-21" d="M456.73,547.45s-7.52.53-12,6a4.54,4.54,0,0,1-5,1.37s-11.85,7.57-4.3,21.85c0,0,16-1,18.23-3.14S456.73,547.45,456.73,547.45Z"/><path class="cls-39" d="M453.69,573.58s8-1.88,9.4-9.86,0-15.52-5.29-16.19a8.89,8.89,0,0,0-10,6C446.36,557.32,442.13,574,453.69,573.58Z"/><path class="cls-8" d="M392.41,435.7s15.92-.71,22,14.42,7.26,41.14-6.81,45.24c-9.6,2.8-19.93.83-29.19-2.72-4.89-1.87-6.56-6-9.35-9.26C351.09,462.44,356.89,437.57,392.41,435.7Z"/><path class="cls-21" d="M360.12,541.74s31.27,6.71,60.25,0c0,0,3.32,5.65,3.74,7.34.91,3.58-.73,9.46-7.17,16.94-9.48,11-41.87,19.22-53.23,12.18C353.75,572,351.51,551,360.12,541.74Z"/><path class="cls-8" d="M395.12,555.06c5.82,2,14.24,6.73,21.82,11,7.07,4,15.22,11.38,15.22,12.29s-1.6,8.44-5.77,9-47.17-2.89-52.8-6.72a11,11,0,0,1-7.36-9.3C365,560.52,370.32,546.43,395.12,555.06Z"/><path class="cls-21" d="M435.13,562.54s-7.45-1.15-13,3.26a4.56,4.56,0,0,1-5.2.22s-13.22,4.76-9,20.35c0,0,15.78,2.56,18.47,1S435.13,562.54,435.13,562.54Z"/><path class="cls-39" d="M426.39,587.35s8.18-.08,11.35-7.54,3.39-15.14-1.58-16.95a8.88,8.88,0,0,0-11.08,3.61C422.83,569.86,415,585.16,426.39,587.35Z"/><path class="cls-21" d="M398.77,481.25s3.21,3.79,7.43,2.41,4.87-6,4.87-6A27.25,27.25,0,0,0,398.77,481.25Z"/><path class="cls-15" d="M378.57,471.61s-6.17-5.41-8.13-1.49,2.53,9.68,6.17,9.75S381,473.34,378.57,471.61Z"/><path class="cls-8" d="M379.49,471.4s-4.71-4.14-6.21-1.14,1.93,7.39,4.71,7.44S381.34,472.72,379.49,471.4Z"/><path class="cls-40" d="M373.94,443.64s7.64,10.39,23.69,10c0,0,6.31-.92,9-5,0,0-5.07,2-7.74,1.17,0,0,15.13-2.31,14.94-6.36s-8.13-8.58-13.93-9.27c-4.61-.55-18.56-.46-22.78,1.85S372.76,442.29,373.94,443.64Z"/><path class="cls-40" d="M380.75,434.88s-17.52,2.85-20.63,16.81c-1.26,5.62,1.39,13.81,1.39,13.81s-.35-16.62,13.66-17.31c10.19-.51,16.87-1.55,16.87-1.55Z"/><path class="cls-15" d="M383.27,518.58a1,1,0,1,1-1-1.05A1,1,0,0,1,383.27,518.58Z"/><path class="cls-15" d="M409.61,518.58a1.05,1.05,0,1,1-1.05-1.05A1,1,0,0,1,409.61,518.58Z"/><path class="cls-15" d="M431.7,538.49a10.85,10.85,0,0,0-6-7.08c-3.75-1.74-9.06-4.07-11.48-4.5-3.94-.72-12-5.46-12.66-3s5.69,5.32,5.72,8-17.83,9.37-17.36,12.18,5.57,9.12,12.49,7.44,24.12-5.71,28.09-6.83C432.63,544.14,432.42,541.22,431.7,538.49Z"/><path class="cls-41" d="M611.3,833.31a13.55,13.55,0,0,0-.67,10.71,14.73,14.73,0,0,1,.36,10.41,3.46,3.46,0,0,1-6.13.73l-16.54-24.93A4.3,4.3,0,0,1,589.9,824c2-1,4.25-2.27,6-3.28,3.73-2.21,9-.53,9-.53Z"/><path class="cls-42" d="M657.34,783c-4.39,13.76-44.46,57-44.46,57s-17.15-12.59-16.73-21.7c0,0,21.11-39.3,21.33-44.12,0-1.15-2.35-5.86-6-12.44-.49-.9-1-1.82-1.55-2.78h0c-6.33-11.24-15.43-26.64-22.57-39.49l-.51-.92c-6.38-11.56-11-20.86-10.4-22.86,1.87-5.81,56.83-13.65,56.83-13.65S661.72,769.2,657.34,783Z"/><path class="cls-41" d="M609.92,759c-6.33-11.24-15.43-26.64-22.57-39.49l-.51-.92,0-13.73,19-2.91Z"/><path class="cls-41" d="M540.63,846.77s-3,12.47,0,17.68a14.77,14.77,0,0,1,2,10.22,3.46,3.46,0,0,1-5.94,1.68l-20.26-22a4.31,4.31,0,0,1,.59-6.36c1.78-1.34,3.84-2.91,5.36-4.18,3.33-2.76,8.82-1.93,8.82-1.93Z"/><path class="cls-42" d="M606.45,690.14S585.12,764.31,577.18,783c-5.52,13-32.2,73-32.2,73s-26.63-8.12-24.83-16.33c0,0,17-61.54,20-68.49,3.95-9,1.47-70.47,16.49-81.54S606.45,690.14,606.45,690.14Z"/><path class="cls-8" d="M606.32,587.76S640,552.3,641.86,547.65s8.88-45.35,8.88-45.35l8.75.34s2.3,47.93-.58,57.55-42.46,52.75-42.46,52.75Z"/><path class="cls-8" d="M600,577.32a20,20,0,0,1-2.41-5.17,37.15,37.15,0,0,1-1.37-11.88,41.89,41.89,0,0,1,.46-5.17l-23.2-9.56a72.18,72.18,0,0,1,.72,15.65,58.1,58.1,0,0,1-3.62,17.72L571,580c-2.59.49-5.33,1.06-8.25,1.71l30,15.86,17.36-18S607.68,577.78,600,577.32Z"/><path class="cls-43" d="M597.61,572.15c-12.69.71-23.39-11-23.39-11l22-.92A37.15,37.15,0,0,0,597.61,572.15Z"/><path class="cls-8" d="M555.36,589.08s-27.92-30.56-41-39.68c0,0-20.21-40-21.8-42.62s-9.89,3.11-9.89,3.11,9.49,39.73,17,51.11,31,49.76,45.32,50.06S555.36,589.08,555.36,589.08Z"/><path class="cls-8" d="M603.17,564.59s-24.7,8.75-35.08-10.61c-11.19-20.89-2.18-37.53,6.31-39.3,16.92-3.54,27.39,2.16,31,8.8S616.8,559.88,603.17,564.59Z"/><path class="cls-21" d="M591,554s2.9,3.61,9.44,1.59c0,0,6-1.59,4.21-5.59A20.71,20.71,0,0,0,591,554Z"/><path class="cls-41" d="M573.18,560.64s-3.68-8.45-3.71-13.12c0,0-7.28-7.86-3.61-10.25s6.15,2.4,6.95,1.35.8-17.67,5.51-17.54,22.4,4.06,29.42-3.09S594.31,486.88,564,499.3,543,545.76,573.18,560.64Z"/><path class="cls-41" d="M549.81,514.12s-1.75-4.08-.49-7.21c0,0,.42,4.13,2.19,5.83S549.81,514.12,549.81,514.12Z"/><path class="cls-41" d="M550.22,511.13s-3.88-.12-5.46,3a5,5,0,0,1,5.46-.34Z"/><path class="cls-44" d="M631.38,700.21c-29.77,10-68.89,9-78.54,8.58-1.44-.06-2.22-.11-2.22-.11a6.49,6.49,0,0,1-6.16-7.19l5.28-45.88-4.9-22.41-2.79-12.77-6.37-29.18a123.18,123.18,0,0,1,34.82-13.52c4.47,3.49,13.14,8.46,22.22,6.62,6.83-1.38,8.12-4.74,7.71-8.28,14.59.95,22.43,4,22.43,4L641,685.39C642.1,691.72,638.08,698,631.38,700.21Z"/><path class="cls-44" d="M520.44,596.59s18.74,10.71,20.82,20.23c0,0,26-20.77,29.24-39.09a38.4,38.4,0,0,0-12.39,2.65A20.31,20.31,0,0,0,551,579.3l-14.39-9.82S521.15,574.9,520.44,596.59Z"/><path class="cls-44" d="M600.43,576.07s7.56-1.29,10.34-.85a8.73,8.73,0,0,1,4.45-1.6l15.6-11.93s11.92,10.31,10.33,26.13c0,0-13,9.47-13,11.54s.38,13.75.38,13.75Z"/><path class="cls-8" d="M650.74,502.3a19.78,19.78,0,0,0-1.62-6.84c-1.47-3.06-1.44-11.33.15-11s1.14,3.34,2.84,2.85,3.7-10.26,6-9.58,4.24,3.75,4.12,10.75a49.78,49.78,0,0,1-2.76,14.15Z"/><path class="cls-8" d="M492.33,506.73a22.41,22.41,0,0,1-.83-7.85c.43-3.8-2.68-12.56-4.25-11.62s0,4-2,4.09-7.73-9.52-10-7.94-3.1,5.56-.37,12.95a56,56,0,0,0,8.19,14Z"/><rect class="cls-45" x="820.3" y="369.87" width="61.67" height="68.68"/><text class="cls-46" transform="translate(833.52 422.84)">1<tspan class="cls-47" x="16.15" y="0">3</tspan></text></g></g></svg>