<?xml version="1.0" encoding="utf-8"?>
<!-- Generator: Adobe Illustrator 25.0.1, SVG Export Plug-In . SVG Version: 6.00 Build 0)  -->
<svg version="1.1" id="Capa_5" xmlns="http://www.w3.org/2000/svg" xmlns:xlink="http://www.w3.org/1999/xlink" x="0px" y="0px"
	 viewBox="0 0 503 384" style="enable-background:new 0 0 503 384;" xml:space="preserve">
<style type="text/css">
	.st0{fill:#FBE1D5;stroke:#F6C3AB;stroke-width:7;}
</style>
<g id="Forma_4">
	<path id="Path_2" class="st0" d="M486,158.6c-5.3,35.1-25.5,66.2-55.3,85.4c11.6,2.1,20,13.5,21.1,25.2s-3.9,23.3-11.1,32.6
		c17.3-1.9,33.9-8.2,48.1-18.3c-15.1,39.9-56.9,63.1-97.5,76.1c-63.5,20.1-131.4,23.4-197.5,15.8c-27.8-3.3-55.6-8.5-80.9-20.5
		S65,323.6,53.7,298.1c-11.4-25.9-10.6-55.4,2-80.7c21-41.2,68.8-61.2,97.4-97.4c5.2-6.6,9.9-14.1,11.2-22.4s-1.5-17.8-8.6-22.4
		c-10.7-7-25.5-0.2-33.5,9.8s-12,22.6-19.9,32.7c-7.7,9.8-18.5,16.6-29.3,22.9c-14.7,8.7-29.6,16.9-44.6,25.2
		c-3,1.6-6.2,3.3-9.5,2.8s-6.1-4.5-4.3-7.3c8.3-12.5,13.8-26.8,16-41.7c3.8-25.8,23-46.4,42.8-63.2c14.2-12,29.5-23.2,47.1-29.1
		s37.9-6.2,54,3c22.6,12.8,32.4,41.6,29,67.4S185.9,146.5,170,167s-34.1,39.4-47.5,61.6c-3.2,5.3-6.2,11.1-5.6,17.3
		s6.3,12.1,12.3,10.7c5.6-1.3,8.2-7.7,10-13.2c7.4-22.2,17.5-43.8,32.8-61.5c28-32.4,70.8-48.6,113.1-54.9s85.4-4.2,128.2-6.6
		c25.9-1.5,54.7-6.2,70.3-27c-5.3,36.4-23.5,69.7-51.3,93.9C452.3,182,470.6,172.2,486,158.6"/>
</g>
</svg>
