<svg id="Capa_5" data-name="Capa 5" xmlns="http://www.w3.org/2000/svg" viewBox="0 0 503 384"><defs><style>.cls-1{fill:#e1e2dc;stroke:#a6a999;}.cls-1,.cls-2{stroke-width:7px;}.cls-2{fill:#a6a999;stroke:#e1e2dc;}</style></defs><g id="Forma_4" data-name="Forma 4"><path id="Path_2" data-name="Path 2" class="cls-1" d="M486,158.55a123.63,123.63,0,0,1-55.3,85.39c11.58,2.14,20,13.52,21.07,25.25s-3.88,23.31-11.12,32.6a102.9,102.9,0,0,0,48.15-18.26c-15.15,39.89-56.87,63.1-97.53,76.05-63.46,20.15-131.4,23.42-197.51,15.77-27.75-3.27-55.61-8.47-80.86-20.46S65,323.62,53.66,298.11a94.89,94.89,0,0,1,2-80.69c21-41.17,68.76-61.22,97.43-97.44,5.2-6.63,9.9-14.08,11.22-22.44s-1.48-17.75-8.57-22.4c-10.71-7-25.5-.15-33.46,9.85s-12,22.6-19.89,32.65c-7.71,9.79-18.52,16.57-29.28,22.9-14.69,8.67-29.64,16.94-44.59,25.25-2.95,1.63-6.17,3.32-9.48,2.75s-6.12-4.48-4.29-7.29a102.43,102.43,0,0,0,16-41.67c3.83-25.76,23-46.37,42.85-63.2,14.18-12,29.53-23.16,47.08-29.13s37.85-6.23,54,3c22.6,12.8,32.39,41.62,29,67.38s-17.55,48.82-33.52,69.27-34.07,39.38-47.54,61.62c-3.16,5.26-6.17,11.12-5.61,17.29s6.32,12.15,12.34,10.72c5.61-1.33,8.16-7.71,10-13.16,7.4-22.19,17.5-43.77,32.75-61.47,28-32.39,70.75-48.56,113.14-54.94s85.44-4.23,128.19-6.63c25.91-1.48,54.68-6.22,70.29-27a154.32,154.32,0,0,1-51.26,93.92A131.65,131.65,0,0,0,486,158.55"/></g><circle class="cls-2" cx="47.5" cy="115.5" r="9"/></svg>