<svg id="Capa_5" data-name="Capa 5" xmlns="http://www.w3.org/2000/svg" viewBox="0 0 640 640"><defs><style>.cls-1{fill:#e5e5e5;}.cls-2{fill:#b3b3b3;}</style></defs><path class="cls-1" d="M639.9,320.5q0,157.7.1,315.41c0,3.42-.67,4.09-4.09,4.09Q320,639.84,4.09,640C.67,640,0,639.33,0,635.91Q.17,320,0,4.09C0,.67.67,0,4.09,0Q320,.17,635.9,0c3.43,0,4.1.67,4.1,4.09Q639.82,162.29,639.9,320.5Z"/><path class="cls-2" d="M320.49,580H78.61c-8.85,0-9.31-.66-8-9.51,6-40,26.63-71.7,56.67-97.64,43.05-37.16,94.1-55.82,149.78-63,52.89-6.84,104.67-1.76,155.05,16,34.37,12.14,65.52,29.9,91.49,55.63C549.36,507,567,537,571.1,573.86c.64,5.86.4,6.14-5.72,6.14q-59.24,0-118.45,0Z"/><path class="cls-2" d="M197.25,265.14c-.1-44.82,16.51-82,51.6-110.32C292.59,119.5,359.26,122,400.59,160q41.22,37.82,45.46,93.24c3.27,43.49-10.1,81.28-41.13,112-22.05,21.85-49.21,33.66-80.31,34.43-30.51.75-57.6-9.43-80.76-29.4-27.57-23.78-42.17-54.39-46.51-90.17C196.74,275.19,197.25,270.13,197.25,265.14Z"/></svg>