<?xml version="1.0" standalone="no"?>
<!DOCTYPE svg PUBLIC "-//W3C//DTD SVG 20010904//EN"
 "http://www.w3.org/TR/2001/REC-SVG-20010904/DTD/svg10.dtd">
<svg version="1.0" xmlns="http://www.w3.org/2000/svg"
 width="700.000000pt" height="700.000000pt" viewBox="0 0 700.000000 700.000000"
 preserveAspectRatio="xMidYMid meet">
<metadata>
Created by potrace 1.11, written by Peter Selinger 2001-2013
</metadata>
<g transform="translate(0.000000,700.000000) scale(0.100000,-0.100000)"
fill="#000000" stroke="none">
<path d="M3320 6720 c-664 -63 -1281 -317 -1787 -737 -55 -45 -167 -151 -249
-235 -243 -250 -417 -495 -573 -808 -216 -433 -323 -862 -338 -1345 -25 -807
251 -1587 777 -2200 102 -119 312 -321 430 -416 797 -635 1828 -858 2824 -608
457 114 916 352 1291 670 102 86 305 291 390 394 335 403 572 895 678 1410 52
247 62 360 61 660 0 306 -11 414 -64 668 -203 957 -830 1770 -1707 2212 -332
168 -650 265 -1043 320 -136 19 -549 28 -690 15z m-670 -1586 c186 -54 332
-214 384 -419 39 -154 28 -328 -26 -425 -53 -96 -209 -333 -247 -376 -20 -23
-54 -67 -76 -99 -22 -32 -107 -121 -189 -199 -167 -159 -228 -234 -289 -355
-33 -67 -42 -96 -45 -150 -4 -60 -1 -73 32 -137 19 -39 41 -76 49 -82 8 -7 41
-21 75 -31 70 -23 115 -16 149 21 32 36 147 235 246 428 49 96 105 196 123
221 45 62 119 130 179 164 28 15 86 49 130 75 44 26 125 67 180 90 113 48 338
159 465 230 47 26 96 50 110 53 71 17 421 38 785 47 576 14 719 31 888 105 45
19 83 32 86 30 2 -3 -7 -52 -21 -109 -31 -123 -87 -246 -188 -411 -40 -66 -81
-136 -92 -155 -10 -19 -28 -47 -40 -62 -12 -15 -18 -31 -15 -35 18 -17 244 78
365 152 l44 27 -7 -48 c-26 -179 -124 -349 -283 -493 -68 -62 -172 -189 -172
-210 0 -5 15 -7 33 -5 44 7 113 -38 156 -102 40 -60 38 -89 -13 -172 -47 -74
-56 -110 -56 -206 l0 -78 46 7 c26 3 78 15 117 25 39 10 73 17 75 15 8 -8 -61
-92 -145 -177 -57 -58 -148 -131 -267 -214 -235 -166 -300 -200 -421 -224 -52
-11 -110 -27 -127 -36 -47 -24 -285 -64 -418 -70 l-115 -5 58 32 c84 47 188
147 224 216 17 32 36 85 42 117 13 72 15 216 2 216 -5 0 -35 -16 -67 -35 -92
-55 -108 -46 -42 23 60 63 103 138 124 217 18 67 18 199 -1 262 -21 72 -44 78
-200 58 -230 -30 -446 -92 -607 -172 -73 -36 -109 -63 -165 -120 -40 -41 -73
-72 -73 -71 0 2 10 28 22 58 31 79 33 264 2 330 -46 99 -117 149 -239 171
-168 29 -335 -44 -403 -175 -22 -43 -25 -62 -23 -123 4 -127 3 -186 -4 -244
-8 -62 7 -89 49 -89 29 0 152 40 228 73 l57 25 -63 -79 c-108 -137 -175 -302
-161 -398 10 -68 46 -141 93 -186 l42 -40 -143 6 c-163 8 -244 20 -374 55
-290 78 -514 227 -718 479 -164 203 -258 417 -257 585 1 148 90 355 221 511
91 110 169 181 426 390 316 256 453 407 496 551 32 105 17 173 -58 265 -40 49
-104 69 -188 59 -145 -17 -243 -98 -430 -356 -114 -158 -347 -350 -632 -522
-114 -69 -130 -76 -143 -62 -13 13 -13 18 4 47 80 136 122 248 151 402 32 171
105 301 259 462 172 180 383 338 543 407 70 29 157 55 243 70 45 8 185 -3 240
-20z m702 -2771 c-35 -73 -41 -83 -53 -83 -19 0 -8 29 33 84 23 31 43 56 44
56 2 0 -9 -26 -24 -57z"/>
</g>
</svg>
